<?xml version="1.0" encoding="UTF-8"?>
<!-- Created with Inkscape (http://www.inkscape.org/) -->
<svg width="149" height="140" version="1.1" viewBox="0 0 149 140" xmlns="http://www.w3.org/2000/svg">
 <path d="m72.2 139c-0.114-0.427-0.209-1.64-0.21-2.7-0.0013-1.06-0.389-4.06-0.861-6.68-0.786-4.36-0.82-4.87-0.402-6.08 0.346-1 0.749-1.46 1.66-1.91 1.21-0.591 1.34-1.17 0.258-1.17-0.32 0-0.808 0.324-1.08 0.72l-0.502 0.72-0.0168-0.73c-0.0198-0.863 0.825-3 1.3-3.29 0.219-0.135 0.0577-1-0.466-2.51-1.07-3.08-1.58-3.82-2.52-3.65-0.509 0.0973-0.989-0.12-1.53-0.692l-0.784-0.834 0.597-1.11c0.738-1.37 1.66-1.45 2.8-0.229 1.05 1.12 1.72 2.46 2.21 4.42l0.392 1.56 0.742-3.03c0.826-3.37 1.53-4.58 2.75-4.73 1.38-0.165 2.36 1.89 1.5 3.14-0.282 0.411-0.402 0.376-0.834-0.24-0.575-0.82-1.14-0.917-1.67-0.286-0.288 0.347-2.35 7.69-2.17 7.74 0.0267 6e-3 0.678 0.434 1.45 0.95 1.95 1.31 2.38 2.03 1.93 3.3-0.307 0.881-0.621 1.09-2.48 1.66-3.36 1.02-3.34 0.984-2.39 4.17 0.881 2.96 1.38 10 0.818 11.5l-0.298 0.776-0.208-0.776zm25.2-5.7c-0.867-0.394-1.44-0.926-1.72-1.59-0.724-1.75 0.0867-4.92 2.06-8.04 0.468-0.741 0.804-1.38 0.747-1.41-0.0567-0.0357-0.492-0.232-0.968-0.436-1.28-0.549-1.96-2.06-1.57-3.47 0.681-2.46 4.69-6.57 5.95-6.09 0.919 0.352 1.09 1.54 0.419 2.87-0.58 1.14-0.662 1.19-1.19 0.72-0.31-0.28-0.791-0.51-1.07-0.51-0.486 0-2.16 1.71-2.16 2.21 0 0.457 1.44 1.55 2.33 1.76 1.09 0.259 1.84-0.127 3.81-1.97 1.49-1.4 1.54-1.42 1.54-0.617 0 1.59-0.707 2.64-3.66 5.41-2.97 2.79-4.75 5.1-5.14 6.69-0.165 0.668-0.0309 0.976 0.661 1.52 0.725 0.57 1.3 0.682 3.49 0.682 2.34 0 3.58-0.224 8.17-1.47 0.797-0.217 0.797-0.215-0.157 0.806-1.3 1.39-4.36 2.82-6.88 3.22-2.78 0.436-3.14 0.415-4.66-0.275zm-53.1-2.01c-0.0667-0.231-0.298-1.07-0.514-1.86-0.216-0.792-0.729-2.11-1.14-2.92-0.653-1.29-0.854-1.46-1.58-1.32-0.871 0.166-2.08-0.64-2.08-1.38 0-0.753 1.12-2.37 1.64-2.37 1.4-5e-3 3.09 2.34 3.85 5.31l0.395 1.56 0.737-3c0.897-3.66 1.6-4.96 2.73-5.09 0.995-0.117 1.86 0.917 1.86 2.23 0 1.17-0.641 1.51-1.22 0.642-1.05-1.58-1.95-0.405-2.77 3.64-0.625 3.08-1.08 4.56-1.48 4.8-0.164 0.102-0.353-4e-3 -0.42-0.236zm-1.48-11.1c-0.947-0.767-1.16-2.93-0.535-5.36 0.494-1.91 1.78-5.09 1.98-4.89 0.0582 0.0586-0.262 1.39-0.711 2.96-0.638 2.22-0.754 3.1-0.533 4 0.373 1.51 1.37 1.7 2.36 0.447l0.714-0.897-0.229 1.12c-0.486 2.38-1.87 3.57-3.05 2.62zm71.4-10.8c-0.616-0.0799-2.77-0.946-4.78-1.92-2.82-1.37-4.07-2.19-5.45-3.59-2.11-2.13-3.66-4.92-4.32-7.76-0.649-2.81-1.39-10.3-1.62-16.3-0.102-2.73-0.263-5.86-0.359-6.96l-0.174-2-0.906 0.468c-0.702 0.363-0.956 0.776-1.13 1.84-0.445 2.72-2.1 7.23-3.38 9.21-0.72 1.11-2.92 3.67-4.88 5.69-6.43 6.59-13.1 11.4-18.8 13.6-2.45 0.927-3.06 1.03-6.23 1.04-3.21 0.01-3.68-0.0665-5.35-0.882-4.3-2.1-6.95-7.25-6.96-13.5-0.00749-4.57 1.56-11.9 3.41-15.8 1.13-2.43 1.26-1.59 0.299 1.97-3.02 11.3-2.2 17 2.85 19.8 1.9 1.06 5.41 1.7 7.68 1.39 6.72-0.912 15.2-5.97 23.5-14 4.08-3.97 5.17-5.47 5.16-7.12-0.0075-1.87-0.209-2.01-2.24-1.64-2.41 0.447-7.83 0.138-9.52-0.544-2.86-1.15-4-3.65-3.33-7.28 0.827-4.48 4.01-8.24 7.63-9.02 2.31-0.499 5.85 2.32 8.46 6.74 1.42 2.41 1.74 2.63 2.9 2 0.652-0.349 0.661-0.491 0.449-6.96-0.256-7.84-0.917-13.5-2.03-17.5-1.04-3.69-1.05-5.84-0.0425-8.3 0.428-1.04 0.934-1.95 1.12-2.01 0.834-0.278 2.54 5.45 3.46 11.6 0.421 2.82 0.98 10.9 1.22 17.7l0.0737 2.08 1.4-2.16c0.768-1.19 1.51-2.16 1.64-2.16s1.01-1 1.94-2.23c2.69-3.54 5.05-5.13 7.61-5.13 3.59 0 6.31 4.84 6.29 11.2-0.0106 3.34-0.618 5.9-1.83 7.7-0.601 0.895-0.975 1.12-2.01 1.2-2.95 0.244-7.85-1.37-11.3-3.73l-1.9-1.3-1.77 2.68 0.372 7.52c0.709 14.3 2.15 19.9 6.01 23.2 0.922 0.787 1.76 1.43 1.87 1.43 0.106 0-0.163-0.565-0.599-1.25-3.55-5.62-2.62-14.2 2.02-18.9 5.58-5.58 15.9-5.53 23.9 0.13 1.95 1.39 2.8 2.42 2 2.41-0.214-0.0022-1.54-0.391-2.95-0.863-2.28-0.765-3.03-0.859-6.88-0.854-3.31 0.0037-4.96 0.163-7.06 0.682-3.45 0.853-6.56 2.02-8.26 3.09-1.17 0.737-1.32 0.973-1.31 2.03 0.0332 5.08 4.43 11.9 9.21 14.2 1.98 0.975 2.36 1.05 5.34 1.05 2.89-1e-3 3.44-0.101 5.52-1.01 3.38-1.47 7.19-3.78 10.6-6.43 4.1-3.2 4.29-3.13 2.49 0.998-1.35 3.09-1.63 3.39-6.34 6.95-4.29 3.24-9.04 5.71-12.9 6.69-2.52 0.647-7.56 1.03-9.76 0.748zm-25.7-43.4c0.35-0.35-1.57-2.17-2.95-2.79-2.14-0.966-4.83 0.0091-4.41 1.6 0.14 0.535 0.743 0.963 2.02 1.44 0.627 0.232 5.07 0.0271 5.34-0.246zm27-3.89c0-1.56-1.66-3.99-3.33-4.85-1.51-0.783-4.29-0.135-4.98 1.16-0.276 0.515-0.0876 0.753 1.3 1.64 1.78 1.14 5.16 2.5 6.29 2.52 0.441 0.0102 0.72-0.174 0.72-0.474zm-103 42.9c0-0.0954 0.9-0.777 2-1.51 1.1-0.737 4.02-3.31 6.48-5.71 4.75-4.64 5.36-5.11 7.33-5.76 1-0.329 1.69-0.333 3.45-0.0178 2.55 0.456 3.22 0.194 4.41-1.73 0.865-1.4 1.42-1.49 1.13-0.176-0.207 0.944-0.189 0.96 1.09 0.96 1.3 0 1.31-0.0026 1.31-1.24 0-0.706 0.204-1.41 0.475-1.63 0.78-0.647 1.26 1.05 0.804 2.87-0.685 2.75-1.72 3.43-3.92 2.6-0.607-0.231-1.07-0.0982-2.27 0.644-1.7 1.06-2.17 1.13-4.8 0.794-1.7-0.22-2.05-0.154-3.84 0.729-1.29 0.636-3.22 2.14-5.6 4.36-2 1.86-4.16 3.65-4.8 3.98-1.23 0.622-3.25 1.16-3.25 0.866zm4.92-23.6c-4.8-0.442-9.26-2.56-12-5.68-1.6-1.84-3.57-5.87-4.33-8.85-0.811-3.16-0.813-10.8-0.00357-14.6 0.683-3.16 1.71-6.08 2.14-6.08 0.416 0 0.392 0.254-0.504 5.26-0.439 2.45-0.797 5.41-0.795 6.56 0.0131 7.26 5.22 13.6 12.8 15.6 4.59 1.21 12.8 0.435 19.7-1.85 8.14-2.7 19.6-9.7 22.6-13.8 0.891-1.22 0.966-1.51 0.781-2.95-0.366-2.86-1.15-5.35-2.95-9.35-1.95-4.32-1.94-4.27-0.703-8.28 0.348-1.13 0.758-2.05 0.912-2.05 0.154 0 0.793 0.919 1.42 2.04 0.628 1.12 1.65 2.49 2.27 3.03 1.53 1.35 4.24 2.1 6.63 1.85 3.52-0.368 5.07-1.53 8.05-6.07 1.3-1.97 2.59-3.78 2.87-4.01 0.813-0.675 1.02 0.342 0.541 2.73-0.468 2.35-0.145 3.18 1.68 4.29 1.7 1.04 5.66 0.661 5.66-0.537 0-0.231-0.303-1.04-0.673-1.81l-0.673-1.38 0.688-2.55c1.08-4.01 1.43-4.18 2.77-1.3 1.66 3.56 0.592 9.54-2.32 13-1.67 1.98-5.07 2.84-7.11 1.78-0.971-0.502-3.24-2.87-3.24-3.38 0-0.58-0.593-0.331-0.805 0.338-0.115 0.361-1.06 1.57-2.1 2.68-2.51 2.68-4.34 3.5-7.85 3.53l-2.6 0.0168-0.21 3.04c-0.286 4.13-0.957 7.13-2.12 9.5-1.9 3.88-9.37 9.8-17.7 14-8.45 4.28-15.7 5.94-22.9 5.28zm107-14.1c0.364-0.924 0.717-1.73 0.784-1.8 0.21-0.211 23.3-8 23.4-7.9 0.0547 0.0546-0.136 0.688-0.424 1.41-0.589 1.47 0.148 1.12-9.42 4.53-3.08 1.1-7.59 2.77-10 3.72-2.43 0.945-4.56 1.72-4.72 1.72s7e-3 -0.756 0.371-1.68zm-95.4-9.36c-0.634-0.764-0.489-3.85 0.307-6.52 0.671-2.25 0.675-2.35 0.114-2.78-0.517-0.394-0.678-0.34-1.43 0.482-1.5 1.63-4.41 3.84-6.29 4.78-2.28 1.13-6.45 2.72-6.64 2.53-0.0801-0.0801 2.11-1.5 4.86-3.15 2.75-1.66 5.64-3.57 6.42-4.25l1.42-1.24-0.837-0.549c-0.461-0.302-1.06-0.873-1.34-1.27-1.16-1.66 1.36-5.28 3.53-5.07l1.01 0.0979-0.0336 2.64c-0.0185 1.45 0.0844 2.64 0.229 2.64 0.775 0 0.813 1.23 0.102 3.36-0.718 2.15-0.991 4.99-0.583 6.05 0.32 0.833 1.3 0.575 2.02-0.534l0.681-1.04-0.204 0.96c-0.409 1.92-1.21 3.2-2.08 3.3-0.469 0.0545-1.01-0.125-1.25-0.415zm-0.00114-13.6c0-1.16-0.574-1.65-1.52-1.29-0.939 0.356-0.909 0.739 0.123 1.55 1.13 0.887 1.4 0.837 1.4-0.258zm99.9 0.483c-1.03-3.24-1.72-4.32-2.67-4.14-0.696 0.132-2.19-0.847-2.19-1.43 3e-3 -0.567 1.32-2.31 1.74-2.31 0.937 0 2.7 1.95 3.36 3.71 0.361 0.964 0.656 2.06 0.656 2.43 0 1.21 0.341 0.387 1-2.42 1.06-4.5 2.68-6.03 4.22-3.97 0.558 0.748 0.595 0.991 0.262 1.72l-0.389 0.853-0.728-0.684c-0.4-0.376-0.876-0.684-1.06-0.684-0.501 0-1.33 2.12-1.87 4.8-0.58 2.85-1.08 4.48-1.38 4.47-0.118-0.0032-0.549-1.06-0.957-2.35zm-17.1-5.3c-0.131-1.83-0.59-5.2-1.02-7.48s-0.781-4.67-0.78-5.3c2e-3 -1.59 0.994-3.09 2.38-3.59 1.3-0.47 1.44-0.787 0.475-1.09-0.462-0.147-0.919 0.0189-1.49 0.538l-0.818 0.75 0.197-1.27c0.108-0.698 0.512-1.7 0.898-2.22l0.702-0.949-0.741-2.18c-1.08-3.16-1.75-4.16-2.66-3.94-0.515 0.129-0.993-0.0551-1.6-0.618-1.03-0.958-1.04-1.02-0.23-2.35 0.423-0.694 0.882-1.04 1.38-1.04 1.41 0 3.51 3.07 3.94 5.75 0.272 1.7 0.579 1.34 1.07-1.27 0.945-5.04 3.23-7.24 4.66-4.47 0.59 1.14 0.591 1.32 0.0123 2.09-0.456 0.61-0.474 0.608-0.978-0.0988-1.23-1.73-2.11-0.529-3.2 4.39-0.441 2-0.803 3.66-0.803 3.69 0 0.0358 0.652 0.477 1.45 0.981 2.03 1.29 2.53 2.12 2.07 3.51-0.327 0.992-0.563 1.16-2.5 1.73-1.18 0.351-2.44 0.852-2.81 1.11l-0.676 0.476 0.733 2.53c1.36 4.69 1.76 9.82 0.974 12.4-0.387 1.25-0.4 1.21-0.634-2.06zm16.1-3.83c-1.24-1-0.852-5.06 0.841-8.89 0.416-0.942 0.821-1.71 0.9-1.71 0.0786 0-0.201 1.12-0.622 2.48-0.744 2.41-0.967 4.62-0.571 5.65 0.297 0.773 1.29 0.605 2.2-0.374l0.823-0.88-0.47 1.34c-0.961 2.75-1.82 3.41-3.1 2.37zm-118-1.4c0.0764-0.924 0.332-2.47 0.568-3.44 0.459-1.88 1.69-4.97 1.9-4.76 0.0697 0.0697-0.222 1.33-0.648 2.8-0.932 3.22-0.965 4.22-0.175 5.19l0.6 0.74 1.02-1.02c0.886-0.886 0.992-0.926 0.803-0.305-0.339 1.11-1.09 1.8-2.35 2.15-1.83 0.509-1.87 0.478-1.72-1.36zm17.4-5.93c-0.69-5.13-0.632-7.25 0.22-8.11 0.382-0.382 1.25-0.794 1.92-0.915l1.22-0.22-0.879-0.425c-0.77-0.372-0.958-0.353-1.52 0.156-0.533 0.482-0.641 0.498-0.641 0.0939 0-0.779 1.27-2.17 1.98-2.17 0.842 0 2.82 1.99 2.82 2.83 0 0.86-0.389 1.07-2.3 1.21-3.01 0.235-3.3 0.884-2.34 5.24 0.504 2.29 0.606 4.75 0.223 5.35-0.137 0.216-0.453-1.14-0.708-3.04zm44.4-1.96c-0.706-0.579-0.725-0.667-0.245-1.16 0.441-0.449 0.698-0.567 1.19-0.109 0.791 0.733 0.732 0.339 1.11-0.172 0.36-0.492 0.551-0.53 1.13-0.221 0.766 0.41 0.826 0.607 0.393 1.29-0.235 0.372-0.562 0.564-1.1 0.0915-0.987-0.858-0.486-0.509-1.26 0.266-0.544 0.547-0.45 0.632-1.21 0.0092zm-10-1.4c0.0872-0.227 0.551-0.57 1.03-0.762s1.41-0.582 2.06-0.867c0.964-0.42 1.16-0.433 1.02-0.0702-0.0945 0.246-1.04 0.822-2.09 1.28-2.22 0.963-2.23 0.965-2.02 0.419zm-29-2.14c1.32-0.721 2.82-1.66 3.34-2.08 0.914-0.748 0.927-0.801 0.533-2.12-0.524-1.75-3.58-4.91-4.47-4.63-0.331 0.105-0.973 0.0223-1.43-0.184-0.64-0.292-0.871-0.689-1.04-1.78-0.116-0.775-0.127-1.49-0.0249-1.6 0.285-0.285 3.22 1.7 4.73 3.2 1.34 1.34 2.83 4.02 2.84 5.11 0.0016 0.318 0.13 0.501 0.285 0.405 0.534-0.33 0.637-1.95 0.322-5.11-0.285-2.85-0.157-5.3 0.255-4.89 0.0868 0.0868 0.431 2.12 0.764 4.53 0.741 5.34 1.16 6.8 2.12 7.43 1.13 0.742 2.93 0.332 4.07-0.928 0.128-0.142 0.137-0.601 0.27-0.621 0.792-0.119 0.638 0.0296 0.0584 1.45-0.229 0.559-0.134 0.594 1.16 0.42 1.07-0.144 1.66-0.461 2.45-1.32 0.164-0.179-0.0368-0.506 0.116-0.592 0.918-0.52 1-0.483 0.609 0.556-0.28 0.737-0.22 0.867 0.533 1.15 0.941 0.358 1.1 0.228 1.89-1.54 0.0915-0.206-0.107-0.434 0.011-0.547 0.515-0.491 0.811-0.637 0.581 0.28-0.224 0.893 0.544 1.47 1.97 1.47 0.864 0 0.866-0.0051 0.672-1.84-0.107-1.01-0.571-3.74-1.03-6.06-0.557-2.81-0.738-4.4-0.541-4.75 0.251-0.449 0.392-0.365 0.937 0.558 0.421 0.713 0.559 1.31 0.402 1.73-0.132 0.356 0.0275 2.07 0.355 3.82 0.671 3.6 0.779 6.29 0.29 7.2-0.395 0.738-1.58 0.805-2.83 0.16-0.849-0.439-0.912-0.418-1.44 0.48-0.634 1.07-0.842 1.12-2.11 0.464-0.791-0.409-1.07-0.413-1.98-0.0329-1.19 0.493-5.86 0.587-6.74 0.135-0.728-0.374-1.5-1.9-1.81-3.57l-0.246-1.34-0.404 1.43c-0.745 2.64-2.9 4.17-6.58 4.67-1.22 0.168-1.16 0.111 1.12-1.13zm34.5-0.318c-0.44-0.346-0.983-1.07-1.21-1.61l-0.408-0.985-0.696 0.654c-0.751 0.705-3.17 0.927-3.54 0.324-0.338-0.547 1.36-3.09 2.56-3.83 0.935-0.578 1.12-0.88 1.12-1.81 0-1.56 0.509-1.07 0.756 0.723 0.556 4.06 1.55 5.56 3.67 5.56 0.785 0 1.66-0.28 2.36-0.754 1.11-0.754 1.11-0.754 2.29-0.151 0.905 0.464 1.32 0.525 1.81 0.263 0.782-0.418 0.784-0.12-0.0413-5.86-0.483-3.37-0.582-4.84-0.34-5.09 0.415-0.415 0.494-0.0942 1.19 4.87 0.629 4.47 0.974 5.67 1.75 6.08 0.537 0.288 0.577 0.214 0.418-0.768-0.562-3.46 2.81-5.99 5.22-3.92l0.883 0.759-1.64-0.158c-1.32-0.127-1.87-0.0189-2.78 0.547-0.627 0.388-1.14 0.801-1.14 0.919 6.4e-4 0.118 0.284 0.678 0.63 1.25 0.927 1.52 1.9 1.63 4 0.439 0.971-0.548 1.77-0.913 1.77-0.812 0 1.09-2.32 2.79-4.61 3.37-1.7 0.428-2.83 0.217-3.74-0.697l-0.654-0.654-0.762 0.822c-0.911 0.983-0.836 0.977-2.34 0.212l-1.2-0.611-1.27 0.769c-1.54 0.934-2.99 0.985-4.06 0.143zm-1.91-3.93c0.122-1.06-0.335-1.13-1.78-0.244-1.44 0.88-1.32 1.34 0.32 1.22 1.22-0.088 1.37-0.191 1.46-0.978zm-6.17 1.2c-0.126-1.23-0.513-3.67-0.859-5.42-0.543-2.74-0.588-5.08-0.0876-4.58 0.319 0.319 1.72 8.14 1.7 9.52-0.0275 2.63-0.507 2.94-0.758 0.48zm36.8-0.865c0.351-4.9-0.971-8.31-4.79-12.4-1.31-1.39-2.39-2.7-2.39-2.91 0-0.465 1.37-2.89 1.63-2.9 0.546-0.0069 3.43 2.95 4.51 4.62 1.76 2.73 2.62 5.76 2.62 9.3 1.3e-5 3.03-0.416 5.04-1.26 6.09-0.473 0.585-0.496 0.455-0.332-1.83zm-49.7-4.88c0.0918-0.392 0.705-0.476 0.537 0.243 0.225 0.868 1.44 0.743 1.67-0.239-0.295-1.21 0.191-1.09 0.422-0.226 0.233 0.875 1.26 1 1.09-0.142-0.25-1.67 0.0984-1.61 0.434-1.09 0.883 1.37 0.409 2.86-1.81 2.58-1.43 1.11-2.04 0.51-2.34-1.12zm25.1 0.797c0.802-0.529 0.862-0.655 0.396-0.834-0.302-0.116-0.97-0.149-1.49-0.0733-0.823 0.121-0.898 0.0669-0.625-0.444 0.347-0.648 1.68-0.768 2.99-0.27 1.09 0.416 1.03 0.847-0.219 1.61-1.35 0.822-2.3 0.83-1.05 0.0093zm-46.3-0.632c1.08-0.779 1.72-1.33 1.82-1.46 0 0-0.419-0.317-0.62-0.483-0.658-0.546-0.596-1.39 0.152-2.07 0.884-0.8 1.61-0.414 1.62 0.859 0.0015 0.356-0.196 1.35-0.196 1.35-0.0242 0.244 1.06 0.964 1.1 1.13 0.169 0.631-0.586 0.088-1.02-0.0781-0.0888-0.0341-0.506-0.417-0.506-0.417s-0.81 0.744-1.43 1.16c-1.82 1.23-2.61 1.24-0.914 0.0108zm2.64-2.72c0-0.574-0.529-0.925-0.976-0.649-0.229 0.142-0.272 0.428-0.0155 0.737 0.29 0.349 0.727 0.607 0.727 0.607s0.264-0.46 0.264-0.695zm16 0.5c0-0.436 0.559-0.765 4.04-2.38 3.52-1.63 3.64-1.67 3.64-1.16 0 0.268-7.02 3.82-7.55 3.82-0.0739 0-0.134-0.126-0.134-0.281zm35.3-0.0792c0.151-0.473 5.1-3.55 5.33-3.32 0.293 0.293-0.725 1.14-2.78 2.31-2.69 1.53-2.72 1.54-2.55 1.01zm-6.14-2.71c0-0.453 0.926-1.1 4.24-2.98 1.22-0.693 1.84-0.899 1.84-0.615 0 0.234-1.37 1.24-3.04 2.23-1.95 1.16-3.04 1.65-3.04 1.36zm-37.7-0.207c0.15-0.451 5.68-2.92 5.94-2.65 0.317 0.317-0.385 0.749-3.09 1.9-3 1.28-3.04 1.29-2.85 0.747zm21.4-0.887c0.275-0.44 0.727-0.802 1-0.804 0.277-0.00214 0.914-0.398 1.42-0.88 0.503-0.482 1.16-0.876 1.46-0.876 0.824 0 0.674 1.37-0.245 2.23-0.637 0.599-1.03 0.707-2.05 0.57-0.736-0.0987-1.43-0.0169-1.67 0.196-0.23 0.205-0.19 0.014 0.0906-0.434zm3.64-0.988c0.433-0.7-0.38-0.952-0.97-0.3-0.571 0.631-0.568 0.648 0.0847 0.648 0.369 0 0.767-0.157 0.886-0.348z" stroke-width=".32"/>
</svg>
