<?xml version="1.0" encoding="UTF-8"?>
<!-- Created with Inkscape (http://www.inkscape.org/) -->
<svg width="140" height="144" version="1.1" viewBox="0 0 140 144" xmlns="http://www.w3.org/2000/svg">
 <g>
  <path d="m79 143c0-0.0754 0.369-1.13 0.82-2.35l0.82-2.21 5.98-2.09c3.29-1.15 7.23-2.47 8.76-2.93 1.53-0.463 5.42-1.78 8.64-2.93 3.22-1.15 6.05-2.04 6.27-2 0.297 0.0633 0.162 0.581-0.479 1.83l-0.893 1.75-8.8 3.13c-7.58 2.7-13 4.73-19.6 7.32-0.848 0.334-1.54 0.546-1.54 0.471zm-54.2-14.2c-0.284-1.52-1.91-5.77-2.57-6.71-0.423-0.603-0.596-0.655-1.12-0.33-0.507 0.317-0.768 0.271-1.48-0.262-1.53-1.14-1.64-1.58-0.79-3.18 0.57-1.07 0.952-1.44 1.51-1.44 1.66 0 4.16 3.37 4.75 6.4 0.472 2.4 0.582 2.28 1.57-1.65 1.05-4.16 1.61-5.36 2.91-6.21 0.6-0.393 0.922-0.428 1.43-0.155 0.976 0.522 1.7 2.13 1.46 3.23-0.29 1.32-0.795 1.49-1.51 0.509-0.826-1.13-1.71-1.08-2.34 0.138-0.281 0.543-0.923 2.91-1.43 5.26-1.22 5.66-1.91 6.94-2.39 4.39zm75.8-5.81c-1.58-0.73-2.84-2.05-3.51-3.65-1.64-3.92-1.09-11.8 1.31-19 1.91-5.72 2.56-5.57 1.1 0.252-1.17 4.65-1.8 9.24-1.49 10.9 0.121 0.64 0.541 1.64 0.933 2.21 2.32 3.4 5.68 3.36 12.7-0.177 7.66-3.85 25.6-15.9 26-17.4 0.411-1.57-2.64-3.82-10.3-7.61-7.92-3.9-10.1-5.59-16.3-12.4-0.626-0.689-1.53-1.57-2-1.95-0.833-0.672-0.862-0.806-0.862-3.9 0-1.76 0.126-3.28 0.279-3.38 0.469-0.29 10.8 5.04 10.8 5.57 0 0.36-0.514 0.52-2.06 0.64l-2.06 0.16 1.57 1.38c2.59 2.27 5.41 3.97 12.2 7.38 3.56 1.78 7.04 3.74 7.72 4.36 1.54 1.39 2.5 3.57 2.78 6.28 0.25 2.44-0.291 6.17-1.21 8.34-1.11 2.63-4.98 5.78-16.3 13.3-13.1 8.66-17.5 10.5-21.3 8.78zm-16-16c0-5.04-0.119-10.3-0.265-11.6l-0.265-2.46-1.43 0.905c-2.16 1.37-5.05 2.04-8.02 1.87-4.05-0.238-6.16-1.64-7.82-5.22-1.67-3.58-2.15-8.83-2.84-30.7-0.365-11.7-0.879-22.2-1.17-23.8-0.155-0.867-0.298-1.01-0.871-0.862-0.377 0.0964-2.12 0.578-3.88 1.07l-3.2 0.895 0.0535 2.05c0.0294 1.13 0.425 7.11 0.88 13.3 1.49 20.2 1.01 28.7-1.98 35-3.44 7.29-20.8 19.7-30.9 22.1-3.4 0.815-7.96 0.834-10.8 0.0429-5.32-1.48-8.95-5.33-10.9-11.6-0.667-2.15-0.743-2.99-0.721-8 0.0289-6.39 0.521-8.87 2.6-13.1 1.47-3 1.8-2.2 0.623 1.52-2.36 7.47-2.02 13.5 1.01 18.2 2.39 3.69 5.63 5.64 10.4 6.29 5.23 0.7 10.7-0.628 18.1-4.41 6.55-3.33 15.4-9.5 19-13.2l1.28-1.33-0.0827-4.38c-0.0455-2.41-0.438-9.21-0.873-15.1-0.435-5.9-1.04-14.1-1.35-18.3-0.38-5.2-0.671-7.6-0.924-7.6-0.203 0-4.24 1.21-8.97 2.69-11.2 3.51-20.9 7.03-24.8 9.01-0.887 0.45-1.67 0.755-1.75 0.68-0.332-0.332 1.63-4.79 2.3-5.22 2.31-1.52 12.7-5.26 24.4-8.79 4.7-1.42 8.59-2.63 8.66-2.7 0.0672-0.0672-0.0242-3.12-0.203-6.78-0.228-4.66-0.486-7.12-0.859-8.2-0.49-1.42-0.493-1.67-0.0306-3.04 0.882-2.62 1.93-4.85 2.23-4.75 0.58 0.182 6.26 14.6 6.26 15.9 0 1.03-0.829 0.799-2.44-0.688l-1.47-1.35 0.207 2.87c0.238 3.3 0.466 4.95 0.682 4.95 0.269 0 7.34-1.98 7.45-2.09 0.0617-0.0577-0.348-1.94-0.911-4.19-0.692-2.77-0.962-4.47-0.833-5.27 0.253-1.58 1.49-4.77 1.85-4.77 0.726 0 2.82 6.72 3.3 10.6 0.122 0.985 0.33 1.96 0.462 2.18 0.177 0.287 3.71-0.48 13.6-2.96 15.6-3.89 28-6.72 28.2-6.44 0.107 0.107-0.235 1.01-0.759 2.01-0.888 1.7-1.06 1.85-2.55 2.22-0.88 0.217-6.35 1.55-12.2 2.97-12.8 3.11-25.5 6.41-25.8 6.68-0.111 0.109-0.0868 1.75 0.0543 3.64 0.245 3.29 0.54 10.8 1.29 32.7 0.221 6.49 0.504 10.7 0.817 12 0.6 2.66 1.92 4.79 3.41 5.5 1.62 0.769 5.97 0.722 8.61-0.0926 3.45-1.07 3.23 0.7 2.03-16.7-0.581-8.39-1.15-17.3-1.26-19.8-0.113-2.52-0.432-5.61-0.71-6.87-0.47-2.13-0.466-2.4 0.0632-4 0.996-3.01 1.75-4.56 2.07-4.24 0.378 0.378 4.49 11 5.41 14 0.88 2.86 0.533 3.22-1.38 1.46l-1.47-1.35v1.18c0 1.26 1.77 26.5 2.1 29.9l0.195 2.03 2.68-2.61c3.28-3.2 3.87-3.28 3.72-0.498-0.127 2.31 0.579 4.33 1.91 5.45 1.71 1.44 6.2 1.01 7.76-0.74 0.596-0.669 0.588-0.71-0.61-3.16l-1.21-2.49 0.568-2.24c0.312-1.23 0.776-2.74 1.03-3.36 0.442-1.07 0.483-1.09 0.921-0.499 0.722 0.977 1.77 4 2.11 6.1 0.433 2.67-0.145 6.82-1.29 9.28-1.75 3.77-3.75 5.28-6.98 5.28-3.38-9.6e-4 -5.57-1.87-6.22-5.29-0.197-1.05-0.41-2.09-0.472-2.32-0.173-0.629-1.11-0.0056-2.45 1.62l-1.15 1.4 0.32 4.62c0.375 5.41 0.163 9.47-0.724 13.9-0.595 2.95-2.29 8-2.79 8.31-0.12 0.0745-0.219-3.99-0.219-9.03zm-32.9 4.58c-0.873-0.873-1.23-2.89-0.835-4.77 0.543-2.61 2.28-5.92 4.15-7.86l1.68-1.76-0.789 1.44c-0.434 0.792-1.23 2.23-1.76 3.2-1.93 3.49-2.13 5.87-0.517 6.28 0.576 0.145 1.1 3e-3 1.74-0.475 0.507-0.375 0.999-0.681 1.09-0.681 0.0951 0 0.173 0.511 0.173 1.14 0 1.36-0.69 2.8-1.67 3.48-0.913 0.64-2.62 0.642-3.26 5e-3zm15.3-1.62c-1.39-0.973-2.75-1.89-3.01-2.05-0.404-0.232-0.265-0.71 0.878-3.02 0.747-1.51 1.47-2.74 1.62-2.74 0.351 0 3.15 1.78 4.62 2.94l1.19 0.941 1.04-2.1c0.57-1.16 1.2-2.1 1.39-2.1 0.364 0 4.76 2.91 5.55 3.68 0.38 0.367 0.277 0.778-0.697 2.77-1.75 3.59-1.42 3.47-4.28 1.48-1.38-0.964-2.69-1.85-2.9-1.98-0.256-0.147-0.719 0.429-1.35 1.68-0.53 1.05-1.09 1.99-1.24 2.08-0.151 0.0935-1.41-0.626-2.81-1.6zm-35.8-24.4c-1.36-1.51-1.26-4.94 0.297-10.3 0.991-3.37 0.991-3.39 0.0028-4.04-0.805-0.528-0.821-0.519-2.8 1.54-2.22 2.31-5.13 4.54-8.05 6.17-2.26 1.26-10.3 4.39-11 4.25-0.248-0.0501 1.98-1.53 4.94-3.29 6.3-3.73 11.2-6.98 13.2-8.74l1.43-1.25-0.984-0.509c-0.541-0.28-1.45-1.04-2.03-1.7-0.921-1.05-1.02-1.35-0.886-2.58 0.423-3.75 5.24-7.29 7.12-5.22 0.683 0.755 0.767 3.5 0.175 5.7-0.356 1.32-0.33 1.42 0.606 2.49 0.537 0.612 0.977 1.2 0.977 1.31 0 0.109-0.527 1.8-1.17 3.75-1.3 3.94-1.65 7.9-0.79 8.94 0.942 1.14 2.8 0.191 3.41-1.74 0.107-0.337 0.32-0.614 0.473-0.614 0.425 0-0.907 4.46-1.64 5.49-0.793 1.11-2.43 1.25-3.31 0.279zm-0.193-21c0.0124-0.376-0.251-1.02-0.585-1.43-0.601-0.742-0.62-0.744-1.78-0.189-0.647 0.309-1.12 0.738-1.05 0.955 0.0713 0.216 0.76 0.875 1.53 1.46 1.28 0.979 1.42 1.02 1.63 0.48 0.128-0.325 0.243-0.899 0.255-1.28zm97.8 7.88c-0.249-1.56-1.99-6.04-2.62-6.74-0.277-0.308-0.798-0.454-1.34-0.375-1.06 0.155-2.64-0.951-2.64-1.85 0-1.06 1.28-2.88 2.04-2.88 0.727 0 1.98 0.737 2.7 1.59 0.782 0.926 1.97 3.69 2.34 5.45l0.373 1.76 0.753-3.33c1.38-6.11 2.92-8.28 4.84-6.85 1.19 0.888 1.56 2.03 1.04 3.27l-0.41 0.989-1.1-0.966c-0.605-0.531-1.25-0.873-1.44-0.758-0.643 0.398-1.49 2.86-2.19 6.37-0.681 3.43-1.42 5.6-1.91 5.6-0.133 0-0.335-0.577-0.448-1.28zm-121-4.76c-0.204-0.857-0.706-2.26-1.12-3.12-0.622-1.3-0.892-1.56-1.63-1.58-1.22-0.0205-2.3-1.15-2.03-2.12 0.112-0.412 0.414-1.02 0.669-1.35 0.414-0.538 0.575-0.559 1.47-0.189 1.26 0.522 2.34 2.16 3.05 4.63l0.547 1.92 0.697-2.88c0.963-3.97 1.72-5.28 3.07-5.28 0.155 0 0.575 0.315 0.934 0.7 0.696 0.747 0.831 1.72 0.344 2.49-0.253 0.4-0.413 0.363-1.06-0.24-0.417-0.391-0.852-0.712-0.969-0.712-0.469 0-1.24 2.08-1.83 4.97-0.954 4.64-1.52 5.36-2.14 2.75zm89.8-7.12c-1.5-1.05-2.76-2.03-2.81-2.16-0.116-0.324 2.15-5.11 2.54-5.34 0.372-0.23 5.72 3.35 5.97 4 0.201 0.523-2.13 5.21-2.65 5.34-0.176 0.0455-1.54-0.779-3.04-1.83zm10.6-0.604c0-0.17 0.366-1.22 0.814-2.34l0.814-2.03 5.67-1.97c3.12-1.09 7.48-2.54 9.69-3.24 2.21-0.699 6.24-2.07 8.95-3.05 2.71-0.977 5.1-1.74 5.32-1.69 0.271 0.0623 0.125 0.635-0.468 1.84l-0.861 1.75-8.78 3.13c-4.83 1.72-11.2 4.08-14.2 5.25-3 1.17-5.79 2.24-6.18 2.4-0.438 0.167-0.72 0.153-0.72-0.0347zm-102-2.03c-1.32-0.963-0.772-6.16 1.01-9.6 0.745-1.44 0.803-0.805 0.111 1.21-1.27 3.7-1.15 6.26 0.3 6.26 0.333 0 0.904-0.379 1.27-0.843 0.748-0.951 0.83-0.711 0.299 0.875-0.403 1.2-1.47 2.53-2.03 2.53-0.2 0-0.629-0.194-0.954-0.432zm32.6-2.15c0.152-0.255 0.953-1.25 1.78-2.22 1.9-2.22 2.65-3.68 2.4-4.67-0.214-0.853-1.32-1.04-2.48-0.411-0.615 0.329-0.646 0.289-0.437-0.56 0.547-2.22 2.11-3.33 3.65-2.6 0.72 0.344 0.866 0.642 0.949 1.94 0.122 1.91-0.707 3.74-2.71 5.97-1.46 1.62-3.66 3.41-3.15 2.55zm55-10.9c3.64-4.47 4.28-5.72 3.36-6.63-0.491-0.491-1.62-0.494-2.11-0.0053-1.05 1.05-0.609-1.49 0.464-2.68 0.605-0.668 2.65-0.792 3.24-0.197 0.668 0.668 0.449 3.2-0.43 4.96-0.83 1.67-3.45 4.58-4.72 5.26-0.63 0.336-0.61 0.259 0.185-0.716zm22.5-1.8c-0.122-0.653-0.633-2.09-1.14-3.2-0.814-1.8-1.01-2.01-1.84-2.01-0.566 0-1.21-0.303-1.66-0.781l-0.734-0.781 0.704-1.14c0.387-0.626 0.843-1.14 1.01-1.14 1.51 0 3.57 2.78 3.99 5.4 0.12 0.749 0.319 1.24 0.442 1.1s0.492-1.47 0.819-2.95c0.958-4.33 2.49-5.87 3.97-3.99 0.492 0.625 0.635 1.12 0.491 1.7-0.288 1.15-0.379 1.17-1.26 0.342-1.32-1.24-1.9-0.349-2.88 4.47-0.54 2.64-1.07 4.16-1.45 4.16-0.135 0-0.346-0.534-0.468-1.19zm-104-2.82c0-0.118 0.657-0.945 1.46-1.84 0.803-0.893 1.83-2.26 2.28-3.03 0.689-1.18 0.765-1.53 0.467-2.18-0.386-0.848-1.27-1.01-2.36-0.423-0.628 0.336-0.654 0.295-0.454-0.705 0.435-2.17 2.86-3.35 4.18-2.03 1.23 1.23 0.0491 4.99-2.41 7.66-1.39 1.51-3.16 2.93-3.16 2.55zm22.5-8.39c-0.656-2.56-1.89-4.93-2.53-4.86-1.02 0.104-1.36-0.0072-2.01-0.66l-0.644-0.644 0.651-1.28c0.764-1.5 1.2-1.57 2.55-0.435 1.21 1.02 2.16 2.8 2.45 4.59 0.117 0.731 0.313 1.21 0.437 1.07 0.123-0.143 0.492-1.47 0.819-2.95 0.958-4.33 2.49-5.87 3.97-3.99 0.492 0.625 0.635 1.12 0.491 1.7-0.29 1.15-0.377 1.17-1.3 0.309l-0.826-0.775-0.594 0.732c-0.326 0.402-0.831 1.84-1.12 3.2-0.82 3.84-1.25 5.29-1.61 5.41-0.184 0.0613-0.512-0.58-0.728-1.42zm80.3 0.884c-1.18-1.18-0.554-6.4 1.11-9.28 0.64-1.11 0.59-0.52-0.158 1.87-0.633 2.02-0.811 4.02-0.442 4.99 0.31 0.808 1.6 0.601 2.33-0.374l0.661-0.88-0.465 1.6c-0.424 1.46-1.41 2.72-2.12 2.72-0.156 0-0.573-0.288-0.925-0.64zm-81.6-10.9c-1.25-1.25-0.542-6.42 1.31-9.6 0.359-0.616 0.582-0.885 0.497-0.598-0.0853 0.287-0.454 1.49-0.82 2.67-0.659 2.14-0.843 4.13-0.47 5.1 0.31 0.808 1.6 0.601 2.33-0.374l0.661-0.88-0.452 1.55c-0.482 1.65-1.28 2.77-1.99 2.77-0.237 0-0.718-0.288-1.07-0.64zm42.1 0.32c-1.55-5.25-2.06-6.27-3.09-6.16-0.929 0.104-2.26-0.721-2.26-1.4 0-0.825 1.06-2.36 1.63-2.36 1.41 0 3.11 2.33 3.85 5.29l0.386 1.53 0.744-3.09c1.1-4.56 2.18-5.9 3.76-4.66 0.873 0.687 1.1 1.96 0.507 2.85-0.27 0.408-0.407 0.364-0.914-0.29-0.724-0.934-1.51-0.734-1.98 0.505-0.182 0.479-0.632 2.28-0.999 4.01-0.678 3.19-1.35 4.74-1.64 3.78zm13.6-3.18c-1.46-1.46-1.15-4.95 0.763-8.82 1.01-2.04 3.91-5.81 4.23-5.5 0.0725 0.0725-0.54 1.27-1.36 2.66-2 3.39-2.69 5.05-2.69 6.56 0 1.03 0.145 1.33 0.781 1.62 0.642 0.293 0.987 0.234 1.94-0.327 1.44-0.851 1.44-0.851 1.44 0.111 0 1.25-0.942 3.28-1.78 3.83-1.04 0.683-2.58 0.627-3.33-0.123zm-15.5-8.39c-0.996-1.42-0.463-5.21 1.21-8.63 0.464-0.947 0.767-1.45 0.672-1.11-0.796 2.8-1.44 5.56-1.44 6.2 0 2 1.39 2.61 2.56 1.12l0.688-0.88-0.204 0.96c-0.56 2.63-2.41 3.88-3.49 2.35z" stroke-width=".32"/>
  <path d="m37.3 139c-0.069-0.19-0.184-1.02-0.257-1.84-0.0721-0.822-0.274-2.44-0.45-3.59-0.212-1.39-0.253-2.4-0.123-2.99 0.26-1.19 1.31-2.16 2.35-2.16 0.929 0 1.01-0.28 0.181-0.667-0.516-0.242-0.684-0.215-1.23 0.2-0.795 0.605-0.85 0.179-0.121-0.937 0.769-1.18 1.48-1.16 2.76 0.08 0.919 0.894 1.02 1.09 0.886 1.71-0.146 0.683-0.19 0.705-1.73 0.837-1.93 0.167-2.65 0.591-2.65 1.57 0 0.388 0.207 1.94 0.46 3.45 0.342 2.04 0.408 2.99 0.256 3.72-0.119 0.57-0.256 0.832-0.329 0.631zm37.9-4.34c-0.452-0.358-0.492-0.492-0.272-0.915 0.3-0.577 0.63-0.615 1.24-0.141 0.846 0.66 0.372 0.423 0.898-0.255l0.461-0.595 0.607 0.492c0.573 0.464 0.588 0.522 0.262 1.03-0.335 0.526-0.413 0.607-0.997 0.159-0.814-0.625-0.494-0.413-1 0.134-0.511 0.547-0.511 0.628-1.19 0.0883zm-8.59-1.18c0.109-0.429 3.35-2 3.6-1.74 0.219 0.226-0.23 0.531-2 1.36-1.46 0.683-1.69 0.739-1.6 0.381zm-26.8-0.843c-0.0745-0.0767 0.699-0.57 1.72-1.1 2.16-1.12 3.72-2.31 3.71-2.86-0.0086-1.52-3.09-5.29-4.06-4.97-0.638 0.208-1.75-0.343-1.99-0.985-0.23-0.622-0.279-2.36-0.0671-2.36 0.398 0 3.28 2.21 4.19 3.22 1.15 1.27 2.14 3.21 2.15 4.2 0.0011 0.348 0.0946 0.633 0.208 0.633 0.444 0 0.608-2.02 0.394-4.86-0.22-2.93-0.0753-4.73 0.303-3.77 0.1 0.253 0.397 2.08 0.659 4.07 0.556 4.2 0.739 4.98 1.36 5.8 0.374 0.489 0.648 0.602 1.46 0.602 1.26 0 2.13-0.458 2.74-1.43 0.372-0.598 0.249-0.5 0.548-0.408 0.161 0.225-0.23 0.831-0.405 1.15-0.489 0.88-0.411 0.991 0.582 0.828 1.32-0.218 2.18-0.742 2.7-1.66 0.195-0.341 0.158-0.61 0.285-0.619 0.475-0.0355 0.329 0.116 0.0395 0.829-0.325 0.802-0.322 0.813 0.309 1.08 0.824 0.351 1.05 0.189 1.69-1.24 0.0475-0.93 0.74-1.38 0.536-0.311 0.0018 0.719 0.101 0.907 0.576 1.09 0.847 0.331 1.66 0.273 1.81-0.131 0.148-0.398-1.15-8.37-1.53-9.37-0.244-0.647 0.0326-1.78 0.43-1.77 0.378 0.013 0.941 1.75 0.822 2.53-0.0668 0.44 0.14 2.35 0.459 4.25 0.584 3.46 0.58 4.38-0.018 5.35-0.412 0.67-1.6 0.694-2.39 0.0476l-0.581-0.47-0.511 0.812c-0.588 0.934-0.432 1.43-2.17 0.382-0.562-0.339-0.566-0.409-1.23-0.0203-0.877 0.514-5.15 0.777-5.91 0.363-0.77-0.424-1.21-1.24-1.61-2.99l-0.37-1.62-0.165 0.906c-0.231 1.27-0.88 2.49-1.7 3.2-0.837 0.725-4.65 1.95-4.98 1.61zm32-1.18c-0.485-0.249-0.953-0.753-1.23-1.32-0.246-0.506-0.467-0.958-0.491-1-0.0242-0.0461-0.314 0.135-0.645 0.403-0.71 0.575-3.22 0.722-3.22 0.189 0-0.709 1.49-2.82 2.35-3.32 0.492-0.288 0.862-0.649 0.822-0.803-0.109-0.425 0.18-1.79 0.379-1.79 0.0961 0 0.297 0.823 0.447 1.83 0.368 2.47 0.86 3.87 1.52 4.32 0.862 0.581 2.31 0.472 3.53-0.268l1.06-0.64 0.999 0.514c0.813 0.418 1.1 0.466 1.54 0.261 0.687-0.322 0.686-0.623-0.0246-5.44-0.428-2.9-0.504-3.93-0.317-4.28 0.135-0.259 0.279-0.436 0.32-0.394 0.0412 0.0425 0.347 1.94 0.68 4.22 0.659 4.51 0.93 5.46 1.67 5.87 0.45 0.248 0.474 0.228 0.309-0.269-0.273-0.821-0.134-1.96 0.363-2.96 0.776-1.57 2.48-2.05 3.94-1.13 1.12 0.715 0.971 1.2-0.205 0.652-1.07-0.502-3.51 0.658-3.51 1.67 0 0.257 0.354 0.831 0.787 1.28 0.678 0.698 0.887 0.79 1.51 0.663 0.397-0.0806 1.21-0.46 1.81-0.842 0.6-0.382 1.13-0.656 1.18-0.608 0.278 0.286-1.11 1.74-2.22 2.32-2.23 1.17-4.78 1-5.19-0.344-0.141-0.458-0.19-0.438-0.814 0.343-0.775 0.968-0.959 0.995-2.28 0.336l-0.987-0.494-0.639 0.468c-0.521 0.381-2.06 0.974-2.54 0.978-0.0615 4.5e-4 -0.464-0.18-0.894-0.401zm-2.05-3.47c0.159-1.15-0.0954-1.27-1.29-0.602-1.64 0.917-1.66 1.29-0.0675 1.21 1.15-0.0617 1.29-0.125 1.36-0.603zm-5.4 0.714c-0.0769-1.12-0.343-3.06-0.591-4.32-0.472-2.4-0.593-4.48-0.261-4.48 0.441 0 1.7 7.56 1.54 9.26-0.184 1.97-0.534 1.74-0.686-0.455zm-10.6-3.43c-0.332-0.144-0.377-1.6-0.0559-1.81 0.123-0.0782 0.455-0.245 0.224 0.318-0.0959 0.233 0.13 0.828 0.242 0.899 0.386 0.245 1.06-0.28 0.953-0.998-0.0439-0.292-0.224-0.593 0.146-0.679 0.145-0.0338 0.224 0.113 0.224 0.447 0 0.599 0.432 0.891 0.978 0.535 0.19-0.124 0.228-0.561 0.0838-0.843-0.298-0.584-0.064-1.03 0.211-0.585 0.284 0.461 0.332 1.34 0.0063 1.8-0.157 0.221-1.32 0.341-1.32 0.341-0.236-0.115-0.5 0.469-0.961 0.582-0.174 0.0426-0.457 0.158-0.726-3e-3zm20.5-0.406c0-0.0509 0.322-0.302 0.716-0.559l0.716-0.466-0.62-0.291c-0.469-0.22-0.78-0.229-1.27-0.0362-0.744 0.289-0.849 0.0862-0.246-0.475 0.482-0.449 1.39-0.489 2.43-0.104 0.993 0.37 0.935 0.738-0.227 1.44-0.881 0.532-1.49 0.733-1.49 0.492zm-40.2-0.439c0.228-0.151 0.874-0.629 1.44-1.06 0.645-0.498 1.15-0.676 1.13-0.77 0 0-0.426-0.232-0.599-0.351-0.89-0.608-0.342-2.35 0.738-2.35 0.404 0 0.563 0.161 0.675 0.685 0.0804 0.377 0.0843 0.886 0.0086 1.13-0.0462 0.15-0.0905 0.383-0.0946 0.443-4e-3 0.058 0.136 0.126 0.19 0.151 1.25 0.585 1.3 1.03 0.777 1.06-0.219 0.0134-1.23-0.571-1.29-0.578-0.0622-7e-3 -0.802 0.631-1.46 1.09-0.658 0.463-1.36 0.835-1.56 0.828-0.319-0.0117-0.313-0.0506 0.0464-0.288zm2.91-3.81c-0.126-0.13-0.563-0.018-0.665 0.0348-0.275 0.143-0.424 0.584 0.0832 0.981 0.295 0.231 0.601 0.328 0.601 0.328s0.0577-0.191 0.0837-0.371c0.0288-0.2 0.0238-0.843-0.102-0.973zm14 1.41c0.0094-0.466 0.591-0.844 3.43-2.23 1.7-0.828 3.12-1.51 3.16-1.51 0.0392 0 0.0229 0.191-0.0364 0.424-0.0995 0.392-0.986 0.874-5.38 2.93-0.645 0.302-1.17 0.473-1.17 0.379zm30.4-0.211c0.0761-0.407 4.35-3.22 4.56-3 0.25 0.257-0.22 0.796-1.2 1.37-0.582 0.344-1.6 0.946-2.25 1.34-1.01 0.606-1.18 0.65-1.11 0.295zm-37.8-2.59c0.316-0.489 4.87-2.67 5.09-2.44 0.387 0.398-0.825 1.07-5.19 2.86-0.126 0.0518-0.0789-0.139 0.105-0.423zm32.6 0.0211c0.0615-0.242 1.17-1.05 2.6-1.9 3.04-1.8 2.83-1.71 2.69-1.18-0.0873 0.343-4.87 3.51-5.3 3.51-0.0555 0-0.0526-0.19 0.0063-0.423zm-14.2-0.497c4.47e-4 -0.591 0.346-1.33 1.01-1.06 0.679 0.273 0.437 0.301 1.16-0.789 0.784-1.19 1.69-1.18 1.8-0.21 0.149 1.31-1.7 2.47-2.98 1.86-0.437-0.205-0.576-0.179-0.758 0.144-0.177 0.313-0.223 0.323-0.223 0.0494zm3.22-1.23c0.288-0.217 0.334-0.439 0.152-0.554-0.355-0.226-1.08 0.118-1.23 0.528-0.161 0.432 0.52 0.449 1.08 0.0264z" stroke-width=".227"/>
 </g>
</svg>
