<?xml version="1.0" encoding="UTF-8"?>
<!-- Created with Inkscape (http://www.inkscape.org/) -->
<svg width="142" height="142" version="1.1" viewBox="0 0 142 142" xmlns="http://www.w3.org/2000/svg">
 <path d="m57 142c-0.868-0.349-1.67-2.08-1.67-3.62 0-1.76 1.17-5.06 2.52-7.11 2.44-3.71 4.69-5.67 2.54-2.22-1.76 2.82-3.2 5.98-3.23 7.06-0.0563 1.99 1.46 2.69 3.06 1.43 0.447-0.352 0.915-0.64 1.04-0.64 0.37 0-0.178 2.98-0.697 3.79-0.379 0.589-2.3 1.73-2.74 1.63-0.0496-0.0112-0.421-0.153-0.824-0.315zm28-2.23c-0.932-0.932-0.965-1.06-0.852-3.31 0.0996-1.97 0.33-2.77 1.46-5.03 0.736-1.48 2.01-3.41 2.82-4.29 1.77-1.92 1.7-1.51-0.407 2.16-2.09 3.65-2.59 5.37-1.87 6.47 0.648 0.989 1.73 1.04 2.87 0.142l0.843-0.663v1.32c0 1.79-0.776 3.16-2.09 3.71-1.49 0.623-1.66 0.592-2.77-0.515zm-16.6-14c-2.4e-4 -0.67-0.216-2.44-0.48-3.94-0.606-3.44-0.605-4.91 0.0033-6.09 0.559-1.08 1.37-1.59 2.54-1.59 1.06 0 1.06-0.567 0.0082-0.832-0.553-0.139-1.01-0.0226-1.44 0.364-0.59 0.534-0.627 0.534-0.627 0.0133 0-0.613 1.66-2.42 2.23-2.42 0.196 0 0.96 0.562 1.7 1.25 1.22 1.14 1.31 1.33 1.02 2.16-0.29 0.83-0.488 0.926-2.23 1.09-1.05 0.101-2.17 0.297-2.47 0.434-0.693 0.309-0.718 1.76-0.08 4.66 0.534 2.43 0.62 5.64 0.16 5.92-0.192 0.119-0.32-0.29-0.32-1.02zm-38.6-3.31c-10.1-1.27-16.8-5.77-19-12.7-1.89-6.11-1.17-16.6 1.68-24.7 1.84-5.23 4.17-9.11 8.48-14.2 1.31-1.54 2.34-2.94 2.28-3.1-0.219-0.618-4.33-3.67-5.95-4.41-1.5-0.687-1.81-0.73-2.88-0.39-0.659 0.211-1.67 0.67-2.26 1.02-0.581 0.351-1.14 0.55-1.25 0.442-0.108-0.108 0.224-1.58 0.737-3.28 0.927-3.06 0.943-3.09 2.53-3.98 0.88-0.495 2.9-1.29 4.48-1.78 2.62-0.796 3.33-0.875 7.84-0.865 4.01 0.0086 5.43 0.139 7.42 0.68 4.79 1.3 7.57 3.13 7.11 4.67-0.109 0.368-0.551 1.47-0.982 2.45-0.779 1.77-0.806 1.79-4.31 3.52-1.94 0.957-3.67 1.91-3.85 2.13-0.386 0.464 0.921 1.34 3.57 2.4 1.46 0.581 2.42 0.704 5.6 0.718 3.69 0.0153 3.92-0.0235 5.92-1.01 1.41-0.698 3.17-2.06 5.49-4.24 3.66-3.44 4.67-3.96 4.22-2.17-0.686 2.74-0.0099 4.56 2.16 5.84 0.845 0.496 1.66 0.637 3.65 0.631 3.76-0.0108 5.46-0.895 9.56-4.97 3.31-3.29 3.87-3.49 3.09-1.1-0.308 0.933-0.265 1.33 0.274 2.55 0.853 1.93 2.29 2.84 4.12 2.6 2.81-0.354 5.11-2.2 7.35-5.9 0.679-1.12 1.37-2.03 1.54-2.01 0.169 0.0191 0.38 0.945 0.468 2.06 0.242 3.06 1.53 4.59 4.15 4.94 2.8 0.376 5.13-1.38 5.13-3.88 0-1.42-1.36-7.94-2.42-11.6-0.7-2.42-0.751-2.95-0.459-4.77 0.363-2.27 0.762-3.51 1.22-3.8 0.713-0.441 2.51 5.15 4.05 12.6 0.603 2.92 1.32 5.94 1.6 6.72 0.697 1.96 1.96 3.52 3.32 4.09 2.21 0.922 5.9 0.146 7.84-1.65 1.5-1.39 1.49-2.51-0.117-25.3-0.509-7.22-1.08-15.9-1.26-19.2-0.185-3.34-0.487-6.74-0.67-7.54-0.296-1.29-0.229-1.75 0.588-4 0.507-1.4 1.05-2.54 1.22-2.54 0.301 0 3.85 8.83 4.8 12 0.698 2.29 0.272 2.67-1.31 1.18-0.667-0.629-1.25-1.11-1.3-1.06-0.0464 0.0464 0.407 7.14 1.01 15.8 1.2 17.3 1.36 23.7 0.655 27.4-0.854 4.45-2.41 7.64-4.79 9.84-1.81 1.67-3.51 2.17-5.74 1.69-3.03-0.649-4.77-2.25-6.15-5.63l-0.727-1.79-0.203 1.06c-0.359 1.88-1.66 4.23-3.03 5.46-1.12 1.01-1.56 1.2-2.78 1.2-0.797 0-1.91-0.195-2.48-0.432-1.31-0.546-2.99-2.45-3.76-4.25-0.328-0.766-0.67-1.39-0.759-1.39s-0.521 0.756-0.96 1.68c-1.67 3.52-3.99 5.34-6.83 5.35-2.79 0.0143-4.73-1.56-5.52-4.47-0.213-0.792-0.447-1.64-0.519-1.89-0.0805-0.274-0.558 0.154-1.24 1.11-1.42 2-4.36 4.51-6.4 5.46-1.87 0.872-5.29 1.03-6.99 0.317-1.94-0.81-3.41-3.28-3.41-5.72-9.6e-4 -0.489-0.179-0.88-0.402-0.881-0.22-3.2e-4 -1.62 1.27-3.12 2.83-3.07 3.19-4.71 4.28-7.64 5.03-4.4 1.13-9.92-0.535-15.2-4.57l-1.85-1.42-1.19 0.891c-3.58 2.68-8.15 8.69-10.6 13.9-5.07 10.8-3.34 21.3 4.37 26.4 2.25 1.5 7.06 3.17 10.4 3.62 5.01 0.678 19.7 0.264 28.1-0.79 4.39-0.553 4.75-0.566 4.75-0.174 0 0.403-3.46 1.69-13 4.83l-8 2.64-4.64 0.0923c-2.55 0.0507-5.68-0.0379-6.95-0.197zm0.261-59.1c1.21-0.66 2.2-1.29 2.21-1.41 0.0075-0.734-6.04-1.52-7.77-1l-0.893 0.263 2.01 1.65c1.11 0.906 2.06 1.66 2.13 1.67 0.0629 0.015 1.11-0.513 2.32-1.17zm84.8 58.2c-0.652-0.492-0.68-0.614-0.272-1.17 0.415-0.568 0.554-0.619 1.32-0.163 1.28 0.765 0.603 0.74 1.17-0.0887 0.772-1.13 2.21-0.173 1.56 1.04-0.328 0.613-0.423 0.64-1.05 0.185-1.04-0.759-0.601-0.66-1.35 0.134-0.585 0.624-0.692 0.589-1.38 0.0677zm-10.4-1.46c0.0945-0.246 1.04-0.822 2.09-1.28 2.18-0.947 2.2-0.95 2.2-0.499 0 0.262-3.83 2.23-4.34 2.23-0.0661 0-0.0428-0.201 0.0516-0.448zm-32.8-1.03c0.0047-0.154 0.936-0.694 2.07-1.2 1.13-0.506 2.63-1.41 3.33-2 1.12-0.955 1.24-1.19 1.01-1.98-0.781-2.72-3.29-5.28-5.23-5.35-1.68-0.0582-2.14-0.591-2.14-2.44v-1.58l0.98 0.578c3.55 2.09 6.06 4.97 6.76 7.73 0.26 1.03 0.425 1.27 0.624 0.913 0.39-0.697 0.432-2.18 0.168-5.99-0.139-2.01-0.11-3.54 0.0718-3.82 0.345-0.519 0.386-0.335 1.17 5.26 0.884 6.28 1.36 7.2 3.71 7.2 1.14 0 1.51-0.187 2.56-1.29 0.249-0.262 0.0906-1.04 0.324-1.05 1.28-0.0556 0.989-0.0775 0.422 1.28-0.266 0.637-0.446 1.2-0.4 1.24 0.0463 0.0457 0.732-0.0355 1.52-0.18 1.09-0.199 1.69-0.557 2.48-1.47 0.243-0.281 0.0234-0.839 0.242-0.873 0.877-0.134 0.931-0.109 0.438 0.813-0.294 0.55-0.254 0.752 0.221 1.1 0.959 0.701 1.37 0.5 2.23-1.09 0.112-0.207-6e-3 -0.765 0.135-0.855 0.673-0.431 0.641-0.369 0.554 0.227-0.153 1.03 0.477 1.51 2 1.51 0.807 0 0.981-0.129 0.981-0.729 0-0.768-1.73-10.2-2.07-11.3-0.11-0.353 6.4e-4 -0.914 0.247-1.25 0.425-0.579 0.474-0.556 0.985 0.47 0.305 0.61 0.462 1.43 0.363 1.89-0.0967 0.446 0.115 2.39 0.47 4.31 1.13 6.12 0.728 8.47-1.37 8.05-0.538-0.108-1.22-0.418-1.52-0.69-0.499-0.452-0.606-0.41-1.24 0.484-0.775 1.09-1.45 1.22-2.49 0.486-0.623-0.437-0.807-0.439-1.62-0.0204-1.28 0.66-6.83 0.815-7.56 0.21-0.764-0.634-1.2-1.55-1.63-3.38l-0.376-1.6-0.382 1.38c-0.555 2-2.23 3.7-4.26 4.34-2.36 0.733-3.76 0.975-3.75 0.647zm39.3-1.2c-0.809-0.261-1.29-0.713-1.77-1.67l-0.663-1.31-0.732 0.593c-0.867 0.702-3.86 0.852-3.86 0.193 0.0115-0.875 1.52-3 2.64-3.73 0.864-0.561 1.19-1 1.2-1.6 0.0111-1.88 0.561-1.67 0.916 0.338 0.857 4.87 1.42 5.72 3.81 5.72 1.08 0 1.85-0.221 2.63-0.757l1.1-0.757 1.25 0.65c1.46 0.762 2.23 0.485 2.39-0.863 0.0565-0.474-0.202-2.87-0.574-5.33-0.464-3.06-0.578-4.64-0.364-5.03 0.441-0.785 0.528-0.444 1.33 5.2 0.724 5.09 0.915 5.72 1.91 6.25 0.572 0.306 0.601 0.266 0.329-0.451-0.311-0.819-0.0359-2.27 0.692-3.66 0.42-0.797 1.8-1.65 2.67-1.65 0.865 0 2.7 0.999 2.7 1.47 0 0.346-0.161 0.363-0.776 0.0833-1.04-0.474-2.86-0.0961-3.92 0.814l-0.858 0.738 0.634 1.09c1.02 1.74 2.08 1.91 4.3 0.7 1.84-1 1.86-1.01 1.52-0.247-0.193 0.424-0.871 1.11-1.51 1.53-2.63 1.72-5.51 2.03-6.82 0.713l-0.794-0.794-0.746 0.794c-0.883 0.94-1.2 0.969-2.71 0.25-1.08-0.514-1.19-0.513-2.1 0.0263-1.53 0.902-2.62 1.11-3.83 0.715zm-2.72-3.7c0.104-0.168 0.0991-0.662-0.0105-1.1-0.142-0.567-0.351-0.739-0.73-0.603-0.845 0.304-2.29 1.38-2.29 1.71 0 0.393 2.79 0.387 3.03-7e-3zm-6.66 0.0807c-0.111-1.37-0.49-3.96-0.844-5.76-0.428-2.18-0.548-3.51-0.359-4 0.361-0.937 0.434-0.728 1.29 3.69 0.711 3.67 0.916 7.76 0.414 8.27-0.188 0.188-0.376-0.638-0.502-2.19zm-12.9-3.83c-0.482-0.194-0.517-1.36-0.0618-2.03 0.271-0.395 0.312-0.367 0.235 0.16-0.0665 0.456 0.0422 1.19 0.555 1.26 0.542 0.0769 0.792-0.578 0.792-1.06 0-0.354 0.144-0.732 0.32-0.841 0.176-0.109 0.353 0.111 0.32 0.485-0.143 1.61 1.31 0.78 1.15-0.414-0.156-1.21 0.373-1.44 0.627-0.426 0.279 1.11-0.524 2.31-1.68 2.51-0.433-0.314-0.217 0.395-1.35 0.4-0.409 0.0131-0.691 0.0409-0.911-0.0478zm25.7-0.905c0.521-0.426 0.854-0.867 0.741-0.981-0.296-0.296-1.59-0.289-2.28 0.0132-0.532 0.232-0.55 0.191-0.174-0.41 0.23-0.367 0.733-0.747 1.12-0.844 0.776-0.195 3.01 0.614 3.01 1.09 0 0.324-2.58 1.94-3.07 1.92-0.161-6e-3 0.134-0.36 0.656-0.786zm-49.6-0.1c0.167-0.142 0.853-0.66 1.52-1.15 0.713-0.522 1.25-1.01 1.25-1.01-0.0028-0.135-0.356-0.246-0.526-0.433-0.681-0.752-0.629-1.73 0.127-2.41 0.847-0.766 1.61-0.415 1.61 0.739 0 0.384 0.239 1.18-0.142 1.67-0.103 0.133 0.636 0.413 0.663 0.551 0.162 0.81-0.212 0.683-0.598 0.535-0.1-0.0384-0.569-0.396-0.569-0.396-0.388 0.128-0.865 0.857-1.36 1.19-1.28 0.862-2.8 1.42-1.98 0.72zm3.66-3.58c0-0.427-0.213-0.64-0.64-0.64-0.789 0-0.597 0.234-0.08 0.934 0.685 0.928 0.72 0.44 0.72-0.294zm17 0.444c0.0576-0.283 1.7-1.25 3.78-2.22 3.93-1.84 4.16-1.92 4.16-1.43 0 0.316-2.91 1.88-6.26 3.36-1.45 0.643-1.76 0.696-1.68 0.288zm37.1 0.0915c0-0.396 5.04-3.74 5.64-3.74 0.0777 0-5e-3 0.272-0.183 0.605-0.178 0.333-1.16 1.07-2.17 1.65s-2.17 1.25-2.57 1.51c-0.64 0.418-0.72 0.415-0.72-0.0279zm-92.3-0.117c-0.113-0.113-0.205-0.545-0.205-0.962 0-1.09-1.83-5.67-2.51-6.29-0.442-0.4-0.661-0.432-0.953-0.141-0.292 0.292-0.576 0.232-1.23-0.26-1.44-1.08-1.59-1.54-0.889-2.86 0.782-1.48 1.21-1.65 2.55-1.01 1.34 0.64 2.7 2.9 3.39 5.65 0.571 2.27 0.561 2.28 1.41-1.74 0.669-3.17 1.88-5.54 2.98-5.82 1.14-0.287 2.76 1.51 2.45 2.73-0.342 1.39-0.722 1.52-1.68 0.601-0.518-0.497-1.04-0.75-1.27-0.611-0.619 0.383-1.26 2.22-2.01 5.79-0.929 4.42-1.4 5.56-2.04 4.92zm12.3-2.16c0-0.0783 1.26-1.01 2.8-2.06 1.78-1.22 4.49-3.63 7.43-6.62 6.85-6.97 8.59-7.9 13.3-7.17 3.15 0.486 4.16 0.102 5.43-2.06 0.454-0.775 1.04-1.49 1.29-1.59 0.548-0.21 0.566-0.0628 0.169 1.32l-0.298 1.04h3.16v-1.39c0-0.978 0.187-1.56 0.632-1.96 0.613-0.555 0.642-0.544 0.988 0.35 0.699 1.81-0.284 5.41-1.74 6.36-0.706 0.462-1.04 0.481-2.55 0.142-1.73-0.388-1.75-0.385-3.69 0.818-1.93 1.19-1.98 1.2-4.12 0.941-1.19-0.146-2.69-0.253-3.33-0.238-2.02 0.0474-4.87 1.88-8.87 5.69-4.07 3.88-6.06 5.38-8.07 6.09-1.29 0.454-2.52 0.613-2.52 0.325zm33.6-0.446c0.0136-0.59 0.738-1.04 3.6-2.23 2.4-0.999 3.05-1.17 2.82-0.745-0.292 0.546-6.43 3.39-6.42 2.97zm40.1-0.282c0.0573-0.298 1.52-1.37 3.25-2.39 2.19-1.29 3.11-1.69 3.04-1.32-0.0566 0.29-1.52 1.37-3.25 2.39-2.25 1.33-3.11 1.71-3.04 1.32zm-17.3-1.14c0.281-0.624 0.612-0.922 1.06-0.8 1.27 0.349 1.02-0.306 1.65-0.998 0.673-0.736 1.17-1.03 1.53-0.89 0.783 0.3 0.643 1.42-0.295 2.36-0.702 0.702-1.03 0.801-2.22 0.667-0.811-0.0914-1.55-7e-3 -1.76 0.201-0.245 0.24-0.234 0.0623 0.0358-0.536zm3.8-0.857c0.382-0.242 0.398-0.381 0.0764-0.703-0.321-0.321-0.542-0.26-1.11 0.307-0.678 0.678-0.681 0.707-0.0764 0.703 0.347-3e-3 0.846-0.141 1.11-0.307zm-74.1-8.25c-1.17-0.782-1.43-3.75-0.596-6.97 0.471-1.82 2.2-5.91 2.5-5.91 0.0786 0-0.286 1.33-0.809 2.96-0.524 1.63-0.97 3.7-0.991 4.61-0.0641 2.71 1.25 3.51 2.78 1.69 0.952-1.13 1.04-0.723 0.317 1.41-0.676 1.99-2.08 2.96-3.2 2.21zm99-3.52c0.444-3.8 0.197-10-1.28-32.2-0.797-12-1.52-22.8-1.6-24.1-0.0809-1.26-0.312-2.6-0.513-2.97-0.397-0.741 0.0723-2.78 1.22-5.3 0.582-1.28 0.584-1.28 0.99-0.522 0.706 1.32 4.45 11.4 4.68 12.6 0.119 0.635 0.0985 1.15-0.0456 1.15-0.144 0-0.808-0.533-1.48-1.18l-1.21-1.18 2.1e-4 1.1c1.1e-4 0.608 0.524 8.16 1.16 16.8 1.46 19.6 1.59 27.7 0.517 31.9-0.81 3.18-1.93 5.98-2.39 5.98-0.189 0-0.21-0.823-0.0542-2.16zm-29.9-1.01c-0.911-0.659-1.97-1.41-2.36-1.66l-0.7-0.465 0.955-2.11c0.526-1.16 1.13-2.22 1.35-2.35 0.241-0.149 1.32 0.399 2.77 1.41l2.38 1.65 0.811-1.77c0.446-0.974 0.932-1.77 1.08-1.77s1.37 0.734 2.71 1.63c2.66 1.78 2.66 1.76 1.44 4.13-1.34 2.62-1.24 2.6-3.94 0.71l-2.41-1.69-0.865 1.77c-0.476 0.972-1.02 1.76-1.21 1.74-0.191-0.0151-1.09-0.566-2-1.22zm18 0.758c-0.882-0.882-1.23-2.89-0.826-4.81 0.522-2.52 2.36-5.96 4.2-7.9 1.85-1.93 1.85-1.95-0.295 1.84-1.84 3.25-2.49 5.16-2.19 6.37 0.295 1.17 1.58 1.43 2.77 0.555 0.507-0.375 0.999-0.681 1.09-0.681 0.0951 0 0.173 0.511 0.173 1.14 0 1.36-0.69 2.8-1.67 3.48-0.913 0.64-2.62 0.642-3.26 5e-3zm21.1-13.9c-1.49-1.65-1.21-4.85 0.772-8.82 1.1-2.21 3.68-5.55 4.02-5.21 0.0622 0.0622-0.528 1.19-1.31 2.5-1.57 2.63-2.7 5.37-2.7 6.51 0 1.78 1.87 2.19 3.44 0.745l0.72-0.659v1.35c0 1.56-0.643 2.98-1.67 3.7-0.986 0.69-2.59 0.633-3.27-0.117zm-136-22.7c0.105-0.169 1.59-1.12 3.3-2.12 5.91-3.44 10.2-6.18 11.7-7.5l1.51-1.33-1.65-1.55c-1.55-1.45-1.64-1.62-1.45-2.75 0.378-2.33 2.96-4.92 4.91-4.92 0.707 0 1.15 0.201 1.38 0.619 0.423 0.79 0.427 3.37 0.0078 4.82-0.299 1.03-0.251 1.18 0.643 1.92 1.14 0.945 1.18 1.33 0.292 2.77l-0.669 1.08-1.91-1.61-1.56 1.71c-2.84 3.11-7.12 5.71-13 7.93-3.57 1.34-3.73 1.38-3.44 0.926zm18.1-15.7c0-1.42-0.442-1.79-1.76-1.46-1.15 0.289-1.03 1.34 0.241 2.11 1.42 0.866 1.52 0.823 1.52-0.654zm30.9 11.7c0.95-2.82 0.867-2.76 7.66-6.16 12.9-6.46 33.9-14.5 48-18.3 1.93-0.523 3.58-0.894 3.65-0.823 0.171 0.171-0.831 2.77-1.33 3.46-0.229 0.312-2.6 1.2-5.67 2.12-13.8 4.15-33.9 12.3-47.3 19.2-3.05 1.57-5.59 2.86-5.66 2.86-0.0664 0 0.245-1.09 0.692-2.42zm-19.5-5.82c0.602-2.51 1.51-4.32 2.47-4.93 3.84-2.43 17.6-8.64 28.7-12.9 10.3-3.98 28.1-9.61 28.6-9.06 0.11 0.11-0.206 1.03-0.704 2.05l-0.905 1.85-3.16 0.884c-14.7 4.11-40.9 14.9-53.2 21.9l-2.01 1.14zm12.9-14.2c0-0.794-1.16-4.23-1.98-5.86-0.544-1.08-0.714-1.2-1.51-1.03-0.709 0.156-1.11-0.0036-1.93-0.772l-1.04-0.968 0.752-1.37c0.454-0.825 1.02-1.4 1.42-1.46 1.57-0.226 3.77 2.79 4.61 6.34l0.418 1.76 0.842-3.54c0.961-4.04 1.74-5.6 3.02-6.05 0.784-0.276 0.993-0.203 1.66 0.576 0.422 0.49 0.767 1.23 0.767 1.65 0 1.73-0.788 2.31-1.53 1.13-0.22-0.352-0.694-0.64-1.05-0.64-0.866 0-1.38 1.28-2.35 5.87-0.791 3.74-1.25 5.01-1.8 5.01-0.17 0-0.309-0.287-0.309-0.639zm53.4-11c-1.72-2.81 0.485-9.4 4.35-13l1.19-1.12-1.03 1.76c-1.58 2.69-3.2 6.13-3.42 7.25-0.153 0.777-0.0416 1.16 0.491 1.7 0.746 0.746 1.63 0.669 2.66-0.232 0.74-0.65 1.02-0.308 0.929 1.11-0.151 2.24-1.52 3.61-3.59 3.61-0.728 0-1.1-0.243-1.58-1.04zm-55.6-2.39c-1.09-1.67-0.514-5.98 1.38-10.3 0.988-2.23 1.3-2.04 0.492 0.302-1.52 4.41-1.63 7.26-0.32 7.96 0.552 0.296 0.815 0.169 1.79-0.865 1.25-1.33 1.27-1.21 0.21 1.73-0.765 2.13-2.53 2.69-3.55 1.13zm25.4-0.711c-2.06-2.27-0.666-7.88 3.1-12.5 0.886-1.08 1.68-1.9 1.77-1.81 0.0872 0.0872-0.444 1.17-1.18 2.41-2.94 4.95-3.56 7.2-2.23 8.13 0.748 0.524 1.89 0.262 2.92-0.671 0.524-0.475 0.561-0.431 0.561 0.673 0 1.54-0.702 3.18-1.64 3.84-1.01 0.71-2.61 0.664-3.3-0.0953z" stroke-width=".32"/>
</svg>
