<?xml version="1.0" encoding="UTF-8"?>
<!-- Created with Inkscape (http://www.inkscape.org/) -->
<svg width="148" height="148" version="1.1" viewBox="0 0 148 148" xmlns="http://www.w3.org/2000/svg">
 <path d="m60.1 147c-4.99-0.901-9.11-5.12-10.7-10.9-0.723-2.69-0.714-9.28 0.0173-13.3 0.665-3.66 2.17-8.78 3.3-11.2 1.29-2.78 1.28-1.32-0.0232 3.98-1.46 5.93-1.92 9.23-1.71 12.2 0.389 5.57 3.02 9 7.99 10.4 2.61 0.751 6.67 0.693 9.74-0.139 4.9-1.33 12.1-5.41 18.4-10.5 3.8-3.05 9.95-9.24 11-11.1 0.812-1.39 0.875-1.7 0.616-3.04l-0.288-1.49-1.44 0.16c-2.71 0.301-9.76 0.143-11.1-0.248-3.27-0.973-4.93-3.22-4.93-6.67 0-3.76 1.77-7.68 4.68-10.4 2.55-2.35 5.21-2.93 7.66-1.67 1.82 0.931 5 4.44 6.75 7.45 0.812 1.4 1.69 2.54 1.95 2.54 0.824 0 4.12-1.93 5.2-3.03 0.962-0.992 1.01-1.14 0.68-2.14-0.195-0.591-1.23-2.58-2.3-4.43-2.66-4.57-4.64-8.55-5.08-10.2-0.249-0.925-0.618-1.48-1.15-1.72-0.672-0.306-0.78-0.566-0.76-1.83 0.0133-0.808 0.193-2.69 0.4-4.19 0.312-2.26 0.473-2.72 0.947-2.72 0.839 0 8.55 6.89 8.55 7.64 0 0.556-0.18 0.597-1.93 0.439l-1.93-0.175 0.991 1.65c0.545 0.908 1.88 3.45 2.96 5.65 1.9 3.86 1.97 4.1 2.09 6.88 0.285 6.89-2.44 12.7-7.07 15.2-1.41 0.747-1.47 0.845-1.81 2.78-0.534 3.07-1.55 6.09-2.95 8.8-3.1 5.99-15.1 17-23.4 21.7-5.41 2.99-11.1 4.31-15.3 3.56zm33.3-42.8c0.73-0.195 0.722-0.221-0.48-1.46-1.81-1.87-3.42-2.6-5.18-2.36-2.67 0.366-3.52 2.21-1.57 3.4 0.823 0.502 1.61 0.633 3.76 0.631 1.5-2e-3 3.05-0.0927 3.46-0.202zm-3.13 42.5c-0.966-1.8 0.385-6.17 2.53-8.18l1.02-0.96-1.29 2.21c-1.6 2.73-1.9 3.91-1.18 4.62 0.486 0.486 0.594 0.484 1.47-0.0205 1.07-0.617 1.18-0.38 0.595 1.3-0.566 1.62-2.5 2.25-3.16 1.02zm-53.5-9.59c-0.685-0.554-0.755-0.862-0.755-3.28 0-2.41 0.113-2.9 1.15-5.07 1.04-2.16 4.06-6.26 4.38-5.93 0.0705 0.0705-0.658 1.5-1.62 3.19-2.08 3.65-2.73 5.62-2.21 6.76 0.456 1 1.86 1.06 3.05 0.123l0.843-0.663-1e-3 1.38c-3e-3 3.12-2.81 5.14-4.84 3.49zm67.6-4.85c-1.8-1.24-3.28-2.47-3.28-2.73 0-0.643 2.82-6.21 3.15-6.21 0.145 0 1.73 1.01 3.52 2.23l3.25 2.23 1.11-2.21c0.612-1.22 1.28-2.31 1.48-2.44 0.496-0.306 6.82 4.05 6.96 4.8 0.135 0.699-2.44 5.93-3.03 6.15-0.221 0.0849-1.17-0.406-2.1-1.09s-2.38-1.71-3.2-2.27l-1.5-1.02-1.22 2.31c-0.67 1.27-1.36 2.35-1.54 2.4-0.176 0.0536-1.8-0.92-3.6-2.16zm20.3-6.3c0.433-4.51 0.233-14.9-0.49-25.4-1.66-24.1-2.93-43.2-3.21-48.5-0.195-3.58-0.518-6.45-0.854-7.6-0.528-1.79-0.523-1.88 0.18-3.84 1.12-3.12 1.98-5.04 2.26-5.04 0.545 0 6.63 15.9 6.93 18.2 0.244 1.78-0.147 1.75-2.15-0.124l-1.59-1.48v1.5c0 0.823 0.741 11.5 1.65 23.8 1.9 25.8 2.19 36.1 1.14 41-1.11 5.16-2.99 10.3-3.78 10.3-0.237 0-0.26-0.858-0.0735-2.8zm-55.4-0.293c-0.117-0.117-0.213-0.546-0.213-0.952 0-0.783-1.76-5.45-2.3-6.1-0.181-0.218-0.694-0.312-1.18-0.215-0.631 0.126-1.09-0.0431-1.73-0.638-1.07-0.988-1.09-1.4-0.129-2.79 0.9-1.31 1.84-1.33 3.2-0.0384 1.19 1.13 2.05 2.83 2.59 5.11 0.485 2.05 0.478 2.06 1.44-2.18 0.779-3.42 1.54-4.93 2.78-5.49 0.763-0.348 0.92-0.289 1.76 0.652 1.01 1.13 1.09 1.51 0.592 2.81l-0.331 0.87-0.961-0.92c-1.65-1.58-2.24-0.685-3.51 5.34-0.883 4.19-1.34 5.22-2.02 4.55zm-44.2-3.54c-0.224-1.39-1.57-4.96-2.3-6.06-0.372-0.567-0.682-0.707-1.25-0.563-0.831 0.209-2.24-0.54-2.56-1.35-0.31-0.807 1.1-2.99 1.93-2.99 1.67 0 3.54 2.51 4.44 5.96 0.26 1 0.529 1.87 0.596 1.94 0.0673 0.0673 0.219-0.495 0.336-1.25 0.118-0.754 0.516-2.5 0.884-3.88 1.08-4.04 2.89-5.46 4.43-3.49 0.517 0.658 0.648 1.15 0.517 1.96-0.243 1.5-0.399 1.56-1.46 0.542-0.512-0.49-1.09-0.795-1.28-0.676-0.663 0.41-1.24 1.95-1.92 5.13-0.845 3.95-1.22 5.13-1.76 5.58-0.333 0.276-0.463 0.0961-0.615-0.854zm86.3-6.33c-1.04-1.58 0.0645-5.25 2.31-7.73l1.12-1.23-1.16 2.14c-0.636 1.18-1.28 2.56-1.42 3.07-0.489 1.71 0.701 2.6 1.95 1.46 0.555-0.502 0.585-0.479 0.585 0.437 0 1.26-1.1 2.65-2.1 2.65-0.469 0-0.976-0.315-1.3-0.806zm-44.3-3.55c-0.671-0.808-0.742-4.18-0.138-6.51 0.507-1.95 2.21-6.1 2.5-6.1 0.0748 0-0.262 1.34-0.749 2.98-1.2 4.03-1.33 6.19-0.444 7.08 0.712 0.712 1.04 0.636 2.09-0.491 0.511-0.547 0.922-0.799 0.914-0.56-0.026 0.804-0.881 2.87-1.45 3.5-0.68 0.751-2.15 0.808-2.73 0.105zm-43.8-2.67c-0.883-0.883-1.1-2.55-0.672-5.03 0.41-2.35 2.09-7 2.65-7.35 0.238-0.147 0.276-0.0176 0.116 0.394-0.749 1.93-1.79 6.14-1.79 7.23 0 2.61 1.27 3.26 2.89 1.48l0.933-1.02-0.347 1.26c-0.488 1.78-1.14 2.95-1.86 3.33-0.872 0.467-1.21 0.415-1.92-0.293zm117-1.89c-1.07-0.68-1.04-3.66 0.0664-5.77 0.67-1.28 2.45-3.65 2.61-3.48 0.0815 0.0815-0.431 1.21-1.14 2.51-1.38 2.54-1.57 3.49-0.818 4.12 0.386 0.32 0.639 0.292 1.31-0.146 1.07-0.701 1.21-0.518 0.797 1.02-0.414 1.54-1.8 2.39-2.83 1.74zm-95.6-2.33c-1.76-1.23-3.24-2.35-3.29-2.48-0.132-0.368 2.36-5.62 2.86-6.03 0.347-0.288 1.05 0.0428 3.31 1.55 4.32 2.88 4.23 2.75 3.28 4.81-0.953 2.08-2.41 4.44-2.74 4.41-0.13-0.01-1.68-1.03-3.44-2.26zm27-8.05c1.34-5.73 3.26-9.15 8.62-15.4 4.68-5.44 5.54-6.91 4.32-7.38-1.64-0.631-4.35 0.171-17.5 5.19-20.3 7.75-31.4 10.4-43.3 10.4-4.9-2e-3 -6.19-0.11-8.63-0.721-7.98-2-12.9-6.63-14.4-13.7-0.725-3.26-0.49-9.44 0.495-13.1 0.769-2.83 2.74-7.24 3.79-8.48l0.678-0.8 0.0106 0.857c6e-3 0.472-0.545 2.28-1.22 4.03-1.66 4.25-2.08 6.13-2.1 9.35-0.0155 2.21 0.118 3 0.714 4.21 2.17 4.42 7.05 7.56 14.1 9.11 4.25 0.931 16 0.844 21.6-0.16 10.8-1.91 18.7-4.51 37.1-12.2 7.55-3.14 11.9-3.17 13.2-0.0674 1.51 3.62-1.28 9.04-9.35 18.1-2.9 3.28-4.96 6.08-6.48 8.86-1.52 2.77-2.05 3.32-1.68 1.78zm-13 0.0641c-0.406-0.448-0.635-1.29-0.72-2.64-0.204-3.27 1.95-7.99 4.93-10.8l1.19-1.12-1.02 1.76c-3.22 5.55-3.93 7.55-3.1 8.81 0.625 0.954 1.42 1 2.51 0.147 0.447-0.352 0.899-0.64 1-0.64 0.334 0 0.203 2.58-0.168 3.3-0.928 1.81-3.45 2.45-4.62 1.16zm75.2-0.943c-1.32-1.45-0.2-5.54 2.23-8.16l1.19-1.28-0.641 1.12c-2.44 4.26-2.79 5.83-1.37 6.03 0.416 0.0589 0.913-0.0491 1.1-0.24 0.634-0.634 0.912-0.359 0.701 0.693-0.215 1.07-1.47 2.48-2.21 2.48-0.227 0-0.674-0.289-0.993-0.641zm7.34-11.7c-0.381-1.72-0.872-3.15-1.76-5.13-0.869-1.94-0.926-1.99-1.89-1.8-0.775 0.155-1.17 0.0352-1.78-0.539-0.959-0.901-0.973-1.23-0.115-2.69 0.774-1.31 1.52-1.44 2.86-0.492 1.11 0.793 2.76 4 3.05 5.95 0.119 0.791 0.275 1.38 0.347 1.31 0.0721-0.0721 0.486-1.6 0.919-3.39 1.11-4.59 1.99-6.11 3.54-6.11 1.02 0 2.15 1.74 1.88 2.88-0.313 1.32-0.706 1.46-1.56 0.539-0.467-0.504-0.987-0.777-1.27-0.667-0.649 0.249-1.35 2.22-2.09 5.89-0.93 4.59-1.7 6.14-2.12 4.25zm-118-6.94c-0.724-0.873-0.739-2.53-0.0396-4.4 0.646-1.72 2.8-4.95 3.1-4.65 0.0781 0.0781-0.384 1.04-1.03 2.14-1.39 2.38-1.79 4.36-0.937 4.69 0.31 0.119 0.831 0.0496 1.16-0.154 0.847-0.529 0.922-0.482 0.922 0.589 0 1.74-2.19 2.98-3.18 1.79zm23.8-6.23c-0.681-1.32-0.625-3.3 0.18-6.3 1.06-3.95 1.08-4.19 0.33-4.59-0.574-0.307-0.85-0.145-2.19 1.29-1.75 1.87-4.6 3.98-7.04 5.2-2.13 1.07-7.78 3.19-7.98 2.99-0.0823-0.0822 2.43-1.69 5.57-3.57 3.15-1.88 6.63-4.15 7.73-5.04l2-1.62-1.48-1.26c-1.66-1.42-1.87-2.37-0.942-4.32 1.09-2.29 4.44-3.8 5.21-2.35 0.42 0.784 0.427 3.05 0.0139 4.49-0.253 0.882-0.221 1.16 0.156 1.37 1.15 0.643 1.18 1.43 0.174 4.36-1.12 3.26-1.32 6.37-0.47 7.22 0.277 0.277 0.611 0.503 0.744 0.503 0.294 0 1.41-1.2 1.92-2.08 0.667-1.13 0.0679 1.42-0.716 3.04-0.582 1.21-0.86 1.46-1.72 1.54-0.86 0.0832-1.1-0.054-1.52-0.864zm0.142-15.8c0-0.396-0.2-0.994-0.445-1.33-0.382-0.522-0.563-0.555-1.28-0.228-1.12 0.51-1.05 1.23 0.182 1.98 1.16 0.706 1.54 0.601 1.54-0.426zm92.2 15.9c-1.25-1.59-0.709-6.06 1.25-10.3 0.512-1.1 0.995-2 1.07-2 0.0786 0-0.279 1.31-0.796 2.92-0.995 3.09-1.25 6.05-0.588 6.85 0.616 0.742 1.46 0.559 2.37-0.512 0.952-1.13 1.04-0.723 0.317 1.41-0.827 2.43-2.42 3.14-3.63 1.61zm-124-0.613c-0.0946-0.343-0.269-1.06-0.387-1.58s-0.655-2.02-1.19-3.31c-0.942-2.27-1.01-2.34-1.9-2.17-0.721 0.144-1.14-0.0182-1.96-0.749l-1.04-0.934 0.764-1.46c0.42-0.803 0.968-1.46 1.22-1.46 1.79 0 3.72 2.53 4.63 6.08 0.582 2.27 0.586 2.27 1.39-1.44 0.978-4.53 2.22-6.52 3.83-6.11 0.776 0.195 1.78 1.61 1.78 2.52 0 0.239-0.203 0.713-0.452 1.05-0.438 0.599-0.478 0.59-1.31-0.304-0.851-0.918-0.857-0.92-1.49-0.289-0.606 0.606-1.33 3.04-2.21 7.4-0.223 1.11-0.653 2.33-0.955 2.7-0.534 0.66-0.554 0.661-0.721 0.0549zm42.7-3c-0.981-1.83 0.377-6.13 2.59-8.19l1.02-0.949-0.869 1.44c-1.05 1.74-2.11 4.06-2.11 4.63 0 0.831 0.911 1.26 1.81 0.848 1.04-0.474 1.19-0.331 0.914 0.902-0.381 1.73-2.65 2.63-3.35 1.32zm42.5-0.343c-1.02-0.799-1.51-2.38-1.51-4.88-9.6e-4 -1.01-0.146-1.84-0.322-1.84-0.176 0-0.32-0.413-0.32-0.917 0-1 1.15-2.72 1.63-2.43 0.162 0.1 0.295 1.29 0.295 2.64 9.6e-4 4.21 1.38 5.81 3.48 4.05 1.14-0.962 1.24-1.78 0.559-4.63-0.42-1.75-0.229-3.19 0.423-3.19 0.389 0 0.972 2.07 1.31 4.64 0.327 2.5 0.56 3.03 1.5 3.38 1.05 0.399 1.25 0.377 1.83-0.203 0.452-0.452 0.419-0.656-0.346-2.16-1.2-2.36-1.44-3.64-0.903-4.92 0.552-1.32 0.978-1.35 1.23-0.086 0.107 0.536 0.646 2 1.2 3.26 0.951 2.17 0.983 2.37 0.626 3.97-0.505 2.26-1.37 3.32-2.71 3.32-1.04 0-1.95-0.706-2.67-2.05-0.305-0.574-0.359-0.552-0.811 0.321-1.08 2.09-3.05 2.85-4.48 1.73zm-28.9-1.31c-0.208-0.875-0.766-2.46-1.24-3.51-0.794-1.77-0.931-1.91-1.7-1.74-0.653 0.144-1.04-0.0264-1.75-0.764l-0.909-0.949 0.705-1.14c0.886-1.43 1.86-1.49 3.17-0.179 0.959 0.959 2.29 3.94 2.29 5.13 0 1.5 0.534 0.394 1.21-2.49 1.09-4.69 2.68-6.31 4.24-4.32 0.499 0.635 0.637 1.13 0.5 1.82-0.26 1.3-0.396 1.36-1.24 0.563-0.407-0.382-0.906-0.695-1.11-0.695-0.59 0-1.25 1.58-1.81 4.33-0.764 3.74-1.09 4.83-1.54 5.21-0.314 0.261-0.493-0.0252-0.785-1.25zm-57.9-8.21c-1.17-0.782-1.43-3.75-0.596-6.97 0.47-1.82 2.2-5.91 2.5-5.91 0.0786 0-0.219 1.12-0.661 2.48-1.04 3.2-1.33 6.8-0.61 7.41 0.721 0.599 1.86 0.221 2.51-0.832 0.465-0.753 0.551-0.793 0.546-0.253-8e-3 0.957-0.801 3-1.44 3.7-0.568 0.628-1.61 0.801-2.25 0.374zm79.2-0.829c0.258-0.238 2.27-1.48 4.47-2.77 4.62-2.7 8.22-5.11 9.26-6.22l0.724-0.771-0.973-0.503c-1.2-0.621-1.97-1.68-1.97-2.71 0-1.16 1.44-3.41 2.67-4.17 1.44-0.892 2.32-0.843 2.98 0.166 0.481 0.734 0.502 1.09 0.172 2.96-0.367 2.08-0.357 2.14 0.421 2.83 0.944 0.836 0.996 1.58 0.187 2.63l-0.595 0.773-1.69-1.33-1.61 1.7c-2.73 2.89-6.44 5.14-11.3 6.85-3.19 1.12-3.42 1.17-2.76 0.562zm15.7-14.4c-0.323-0.851-1.22-1.05-1.85-0.413-0.624 0.624-0.448 1.11 0.654 1.81 1.03 0.65 1.04 0.651 1.27 0.0282 0.128-0.346 0.0964-0.988-0.0702-1.43zm-38.5 12.8c-1.06-1.06-1.02-4.08 0.113-7.37 0.525-1.53 2.14-4.79 1.8-3.64-0.0842 0.286-0.466 1.57-0.849 2.85-1.13 3.8-0.877 6.07 0.676 6.07 0.326 0 0.832-0.364 1.12-0.81 0.687-1.05 0.824-0.874 0.431 0.551-0.647 2.34-2.2 3.44-3.3 2.34zm-40.4-1.05c-1.67-1.06-0.907-5 1.58-8.16 1.37-1.74 1.41-1.26 0.0753 0.973-1.37 2.31-1.73 3.92-0.991 4.53 0.426 0.353 0.636 0.34 1.27-0.0782 0.421-0.276 0.829-0.438 0.906-0.36 0.382 0.382-0.237 2.15-0.949 2.71-0.863 0.679-1.3 0.766-1.9 0.383zm27.9-3.77c-0.772-0.772-0.755-2.97 0.0389-4.88 0.532-1.28 2.65-4.33 2.87-4.11 0.0725 0.0725-0.459 1.23-1.18 2.57-1.36 2.51-1.5 3.58-0.565 4.17 0.414 0.259 0.697 0.198 1.2-0.259 0.892-0.808 1.09-0.495 0.667 1.07-0.491 1.82-1.95 2.53-3.03 1.45zm-33.3-4.39c-0.112-1.1-0.442-3.51-0.735-5.36-0.315-2-0.439-3.86-0.304-4.57 0.337-1.8 1.65-3.1 3.36-3.33 1.28-0.171 1.35-0.229 0.819-0.62-0.795-0.581-1.73-0.543-2.44 0.0983-0.546 0.494-0.585 0.492-0.585-0.0306 0-0.771 1.16-2.34 1.91-2.58 0.854-0.271 2.37 0.586 3.38 1.91 0.703 0.922 0.796 1.26 0.551 2-0.277 0.836-0.434 0.901-2.55 1.07-2.32 0.183-3.93 0.895-3.93 1.74 0 0.254 0.288 1.94 0.639 3.75 0.659 3.39 0.85 7.44 0.366 7.74-0.151 0.0936-0.367-0.726-0.479-1.82zm110-0.0941c-1.21-1.21-0.31-5.14 1.75-7.63 0.699-0.846 1.27-1.48 1.27-1.4 0 0.0762-0.576 1.25-1.28 2.61-1.4 2.71-1.54 3.43-0.767 4.07 0.431 0.358 0.662 0.341 1.44-0.106 1.05-0.604 1.16-0.362 0.573 1.32-0.545 1.56-2 2.12-2.98 1.14zm-55.2-4.18c-0.44-0.299-0.856-0.588-0.923-0.64-0.0678-0.0529 0.118-0.465 0.414-0.916 0.528-0.805 0.572-0.839 1.46-0.272 1.36 0.862 0.756 0.794 1.54-0.214 0.586-0.749 0.642-0.746 1.46-0.211 0.966 0.633 0.997 0.783 0.345 1.65-0.452 0.598-0.558 0.659-1.35 0.0984-1.34-0.952-0.567-0.724-1.51 0.26-0.682 0.709-0.667 0.774-1.44 0.248zm-12.5-1.96c0.299-0.559 5.16-2.8 5.15-2.37-0.0129 0.577-0.659 1.02-2.83 1.94-2.76 1.17-2.72 1.16-2.33 0.433zm-39-1.17c0-0.0729 1.19-0.71 2.65-1.42 1.46-0.706 3.27-1.84 4.03-2.51 1.37-1.22 1.38-1.23 1.03-2.53-0.194-0.72-0.785-1.91-1.31-2.63-1.22-1.69-3.74-3.54-4.53-3.33-0.908 0.237-2.5-0.557-2.69-1.35-0.0973-0.388-0.132-1.3-0.0759-2.03l0.101-1.33 2.05 1.3c3.89 2.47 6.44 5.73 7.01 8.97 0.218 1.24 0.286 1.33 0.597 0.758 0.519-0.947 0.579-2.42 0.289-7.09-0.172-2.77-0.148-4.41 0.0682-4.8 0.302-0.539 0.344-0.522 0.506 0.208 0.0976 0.438 0.399 2.52 0.669 4.64 0.689 5.38 1.36 8.27 2.1 9.07 1.45 1.56 3.85 1.29 5.58-0.625 0.646-0.715 0.867-1.59 1.29-1.18 0.0651 0.0627-0.156 0.725-0.489 1.47l-0.605 1.35h1.14c1.63 0 3.3-0.901 4.06-2.19 0.671-1.14 1.17-0.927 0.553 0.231-0.519 0.97-0.423 1.23 0.593 1.58 1.1 0.382 1.62-0.0414 2.42-1.95 0.597-1.43 0.961-1.55 0.697-0.235-0.147 0.735-0.0507 1.03 0.419 1.28 0.752 0.403 2.79 0.429 3.03 0.0399 0.255-0.412-2-12.9-2.42-13.4-0.259-0.312-0.247-0.682 0.0446-1.39 0.219-0.528 0.488-0.959 0.599-0.958 0.111 0.0013 0.53 0.578 0.932 1.28 0.575 1.01 0.658 1.41 0.39 1.92-0.256 0.478-0.138 1.78 0.47 5.19 0.893 5.01 0.987 6.69 0.458 8.21-0.46 1.32-1.57 1.61-3.12 0.817-0.641-0.327-1.26-0.641-1.37-0.698-0.113-0.0568-0.52 0.407-0.906 1.03-0.798 1.29-1.34 1.39-2.78 0.515-0.991-0.604-1.04-0.605-2.18-0.0234-0.933 0.476-1.89 0.594-4.79 0.594-3.32 0-3.68-0.0599-4.29-0.7-0.828-0.882-1.51-2.52-1.81-4.36l-0.236-1.43-0.59 1.92c-0.606 1.98-1.91 3.65-3.48 4.46-1.56 0.809-6.09 1.78-6.09 1.31zm46-1.63c-0.467-0.253-1.16-1.11-1.55-1.91l-0.702-1.45-0.954 0.803c-0.738 0.621-1.31 0.803-2.54 0.803-1.09 0-1.64-0.145-1.76-0.465-0.328-0.854 1.54-3.76 2.99-4.64 1.08-0.657 1.36-1.01 1.38-1.78 0.0179-0.528 0.151-1.25 0.296-1.6 0.335-0.814 0.423-0.562 1.11 3.16 0.597 3.23 1.13 4.45 2.27 5.2 1.16 0.759 3.64 0.452 5.23-0.648l1.25-0.865 1.08 0.657c2.01 1.22 3.57 0.586 3.28-1.34-0.0833-0.571-0.488-3.27-0.9-6-0.62-4.11-0.68-5.09-0.347-5.74l0.401-0.781 0.195 0.941c0.107 0.518 0.559 3.39 1 6.38 0.833 5.6 1.31 6.92 2.59 7.15 0.49 0.0897 0.529 0.0314 0.206-0.304-0.992-1.03 0.0627-4.86 1.62-5.88 1.28-0.837 2.8-0.923 4.06-0.23 0.616 0.338 1.17 0.862 1.23 1.16 0.0908 0.459 2e-3 0.492-0.539 0.203-1.41-0.756-4.08-0.158-5.27 1.18-0.529 0.594-0.539 0.74-0.113 1.56 1.29 2.49 2.98 2.7 5.9 0.725 1.71-1.15 1.81-1.16 1.24-0.0561-0.612 1.18-1.34 1.8-3.24 2.75-3.06 1.52-6.25 1.34-7.19-0.407-0.352-0.658-0.385-0.648-1.42 0.453-0.585 0.62-1.19 1.12-1.35 1.11-0.155-8e-3 -0.92-0.348-1.7-0.756l-1.42-0.742-1.44 0.916c-1.62 1.03-3.48 1.19-4.89 0.43zm-3.21-3.88c0.6-0.161 0.719-0.383 0.64-1.19-0.0576-0.591-0.299-1.03-0.594-1.09-0.643-0.122-3.27 1.77-3.02 2.18 0.214 0.347 1.85 0.403 2.97 0.103zm-7.24-0.674c-0.214-1.89-0.681-4.81-1.04-6.48-0.603-2.82-0.615-5.12-0.027-5.12 0.416 0 2.04 9.29 2.08 11.9 0.0614 3.91-0.561 3.72-1.02-0.307zm53.2-0.244c0.132-0.811 0.602-1.64 1.39-2.45 0.655-0.67 1.13-1.28 1.05-1.34-0.0766-0.0688-0.613-0.366-1.19-0.661-1.74-0.885-1.92-2.33-0.605-4.87 0.725-1.4 4.19-4.5 5.31-4.75 2.01-0.441 3.07 1.28 2.15 3.48-0.525 1.26-0.863 1.41-1.47 0.673-0.645-0.777-2.12-0.576-3.26 0.444-0.877 0.784-0.971 1-0.62 1.42 0.228 0.275 1.04 0.739 1.81 1.03 1.54 0.588 1.08 0.75 6.13-2.13 0.736-0.419 1.42-0.68 1.52-0.58 0.0997 0.0997-0.039 0.818-0.308 1.6-0.431 1.24-0.843 1.65-3.44 3.38-1.62 1.08-4.23 2.87-5.8 3.97l-2.85 2.01zm-10.3-0.966c0-0.924-1.66-5.4-2.39-6.44-0.329-0.468-0.698-0.635-1.15-0.517-0.804 0.21-1.95-0.357-2.5-1.24-0.35-0.561-0.292-0.826 0.42-1.9 1-1.51 1.7-1.58 3.17-0.285 1.27 1.11 2.3 3.13 2.82 5.52l0.366 1.67 0.847-3.52c1.12-4.66 1.97-6.24 3.37-6.24 1.51 0 2.65 2.45 1.78 3.83-0.251 0.396-0.458 0.323-1.26-0.449-0.79-0.756-1.05-0.852-1.44-0.53-0.598 0.496-1.28 2.61-1.96 6.1-0.598 3.05-1.23 4.8-1.73 4.8-0.185 0-0.336-0.365-0.336-0.81zm-58.2-2.92c-0.476-0.192-0.788-2.48-0.0956-2.86 0.182-0.0989 0.211 0.643 0.211 1.12-7.45e-4 0.866 0.321 0.974 1.03 0.891 0.706-0.0817 0.857-0.559 0.912-1.3-0.0935-1.69 0.347-1.41 0.605-0.385-0.141 1.76 1.66 1.32 1.36-0.548-0.264-1.64 0.716-1.62 0.7 0.379-0.011 1.41-0.789 2.54-2.01 2.27-0.421-0.0938-0.62-0.0122-1.03 0.32-0.206 0.334-0.995 0.385-1.68 0.108zm29.7-0.428c0-0.176 0.108-0.323 0.24-0.327 0.132-0.0039 0.598-0.282 1.04-0.619l0.796-0.612-0.912-0.347c-0.704-0.268-1.12-0.241-1.84 0.114-0.508 0.254-0.924 0.328-0.924 0.166 0-0.578 1.29-1.58 2.04-1.58 0.923 0 3.08 0.865 3.08 1.23 0 0.379-0.95 1.16-2.14 1.77-1.19 0.605-1.38 0.631-1.38 0.199zm-58.2-0.258c0-0.151 0.716-0.739 1.59-1.31 1.34-0.868 2.11-1.36 2.17-1.59 0.0536-0.214-0.583-0.535-0.874-0.845-0.635-0.676-0.662-0.835-0.274-1.63 0.528-1.08 1.29-1.58 1.99-1.32 0.388 0.149 0.609 0.645 0.609 1.82 0.0859 0.793-0.367 1.49-0.218 1.58 0.164 0.1 0.367 0.237 0.43 0.277 0.524 0.324 0.265 1.04-0.368 0.878-0.102-0.0267-0.441-0.289-0.604-0.331-0.238-0.0624-0.882 0.566-1.31 0.883-1.39 1.04-3.14 1.92-3.14 1.57zm4.62-5.28c-0.23-0.601-0.817-0.6-1.28 0.12-0.264 0.413 0.929 1.63 1.08 1.52 0.138-0.135 0.313-1.34 0.2-1.64zm20 1.46c0.0122-0.595 0.633-1.07 2.56-1.95 1.14-0.52 3.19-1.46 4.55-2.09 1.96-0.904 2.48-1.04 2.48-0.651 0 0.322-1.62 1.27-4.62 2.71-4.79 2.3-4.98 2.37-4.97 1.98zm44-0.34c0.128-0.49 5.99-4.22 6.64-4.22 0.118 0 0.0652 0.28-0.118 0.622-0.271 0.506-6 4.18-6.52 4.18-0.0813 0-0.0796-0.261 4e-3 -0.58zm-54.6-3.6c0.415-0.62 6.87-3.6 7.41-3.42 0.707 0.236-0.931 1.29-4.04 2.61-1.91 0.808-3.55 1.47-3.64 1.47s0.03-0.295 0.271-0.656zm47 0.21c0-0.275 0.371-0.743 0.825-1.04 1.5-0.982 6.69-3.9 6.78-3.81 0.395 0.395-0.822 1.42-3.72 3.13-4.15 2.45-3.89 2.33-3.89 1.73zm-20.3-1.43c0.424-0.84 0.62-1.12 1.22-0.894 0.491 0.0575 0.82 0.14 0.953 0.0232 0.129-0.114 0.309-0.633 0.698-1.09 1.16-1.36 1.8-1.56 2.42-0.814 0.604 0.728 0.112 2.03-1.05 2.75-0.787 0.495-1.67 0.448-2.46 0.203-1.44-0.445-1.67 0.274-1.92 0.508-0.22 0.209-0.157-0.102 0.14-0.691zm4.51-1.15c0.605-0.445 0.606-0.463 0.0177-0.691-0.64-0.248-1.51 0.143-1.72 0.771-0.175 0.525 0.956 0.472 1.71-0.08zm39.8 1.08c-1.55-0.901-1.35-5.51 0.404-9.71 0.949-2.26 1.88-3.95 1.44-2.59-0.116 0.352-0.593 2.09-1.06 3.87-0.688 2.62-0.789 3.47-0.539 4.48 0.429 1.74 1.54 1.9 2.8 0.401l0.905-1.07-0.227 0.96c-0.39 1.65-0.792 2.53-1.49 3.28-0.728 0.777-1.37 0.885-2.23 0.38zm-58.2-6.36c-0.981-1.83 0.377-6.13 2.59-8.19l1.02-0.949-0.869 1.44c-2.23 3.69-2.59 5.76-1 5.76 0.426 0 0.864-0.144 0.973-0.32 0.109-0.176 0.351-0.32 0.539-0.32 0.485 0 0.0543 1.9-0.592 2.62-0.705 0.779-2.23 0.757-2.66-0.038zm38.1-2.24c-0.981-1.83 0.377-6.13 2.59-8.19l1.02-0.949-0.869 1.44c-2.23 3.69-2.59 5.76-1 5.76 0.426 0 0.864-0.144 0.973-0.32 0.109-0.176 0.351-0.32 0.539-0.32 0.485 0 0.0543 1.9-0.592 2.62-0.705 0.779-2.23 0.757-2.66-0.038zm-20.8-0.96c-0.935-1.75 0.384-6.19 2.38-8.02 0.812-0.744 0.782-0.627-0.438 1.7-1.43 2.73-1.57 3.45-0.798 4.09 0.431 0.358 0.662 0.341 1.44-0.106 1.05-0.604 1.16-0.362 0.573 1.32-0.566 1.62-2.5 2.25-3.16 1.02z" stroke-width=".32"/>
</svg>
