<?xml version="1.0" encoding="UTF-8"?>
<!-- Created with Inkscape (http://www.inkscape.org/) -->
<svg width="146" height="134" version="1.1" viewBox="0 0 146 134" xmlns="http://www.w3.org/2000/svg">
 <path d="m45.3 130c-0.321-2.27-0.484-4.58-0.363-5.13 0.261-1.19 1.54-2.29 2.65-2.29 0.671 0 0.734-0.0752 0.398-0.48-0.512-0.617-1.1-0.609-1.74 0.0229-0.784 0.784-0.656-0.222 0.16-1.26 0.867-1.1 1.35-1.06 2.75 0.223 0.968 0.888 1.13 1.21 0.949 1.92-0.187 0.743-0.377 0.854-1.47 0.854-1.57 0-2.85 0.473-3.11 1.15-0.109 0.285 0.0503 2.12 0.354 4.08 0.351 2.27 0.452 3.83 0.275 4.3-0.211 0.556-0.42-0.268-0.862-3.39zm41.9-0.839c-0.585-0.434-0.589-0.493-0.0772-1.01 0.453-0.46 0.596-0.44 1.05-0.135 1.09 0.738 0.544 0.642 1.13-0.152 0.411-0.558 0.294-0.725 1.11-0.165 1.25 0.853 0.214 2.1-0.834 1.26-0.746-0.592-0.567-0.433-0.983 0.145-0.425 0.591-0.601 0.645-1.4 0.0559zm-9.23-1.25c0.21-0.548 4.06-2.24 3.89-1.71-0.112 0.341-3.23 2.07-3.83 2.13-0.126 0.0112-0.155-0.175-0.0631-0.415zm-28.4-1.5c2.37-1.05 4.86-2.87 4.86-3.55 0-1.93-2.95-5.18-4.77-5.27-1.45-0.0731-1.95-0.637-1.95-2.23v-1.39l1.12 0.662c2.98 1.76 5.9 5.43 5.92 7.42 0.0016 0.318 0.13 0.501 0.285 0.405 0.531-0.328 0.637-1.95 0.331-5.02-0.181-1.81-0.19-3.39-0.0229-3.84 0.282-0.762 0.285-0.76 0.475 0.193 0.105 0.528 0.426 2.62 0.713 4.64 0.609 4.29 1.1 5.65 2.17 6.06 1.35 0.512 3.16-0.252 3.95-1.66 0.137-0.246-0.0808-0.443 0.203-0.449 0.705-0.0142 0.178 0.642-0.267 1.5-0.464 0.898-0.456 0.944 0.17 0.944 1.1 0 2.73-0.831 3.46-1.76 0.268-0.34 0.127-0.669 0.259-0.657 0.636 0.0567 0.448 0.198 0.0816 0.883-0.271 0.506-0.252 0.723 0.08 0.934 0.938 0.594 1.58 0.28 2.2-1.08 0.211-0.461 0.138-0.868 0.305-0.873 0.42-0.0134 0.284-0.0779 0.242 0.449-0.063 0.785 0.0714 0.975 0.832 1.18 1.17 0.314 1.81 0.0563 1.81-0.725 0-0.91-1.26-7.94-1.64-9.14-0.228-0.723-0.216-1.23 0.0423-1.71 0.355-0.664 0.381-0.653 0.943 0.384 0.35 0.647 0.478 1.26 0.324 1.55-0.14 0.267 0.0132 1.91 0.343 3.68 0.739 3.96 0.774 5.88 0.126 6.81-0.589 0.842-0.941 0.875-2.22 0.208-0.921-0.48-0.982-0.468-1.61 0.322-0.735 0.922-1.35 1.03-2.23 0.382-0.501-0.367-0.767-0.369-1.61-0.017-0.979 0.409-5.17 0.576-6.32 0.251-0.705-0.201-1.48-1.67-1.8-3.42l-0.246-1.34-0.402 1.42c-0.221 0.781-0.864 1.88-1.43 2.45-1.05 1.05-3.72 2.07-5.29 2.03-0.705-0.0194-0.627-0.109 0.555-0.634zm33.6-0.714c-0.281-0.214-0.755-0.863-1.05-1.44l-0.544-1.05-0.829 0.652c-0.858 0.675-2.19 0.843-2.93 0.37-0.647-0.41 0.659-2.75 2.03-3.64 0.809-0.524 1.11-0.951 1.11-1.58 0.0081-1.76 0.538-1.11 0.914 1.13 0.73 4.35 2.23 5.48 5.22 3.93 1.48-0.77 1.64-0.792 2.35-0.327 0.419 0.275 1.09 0.452 1.5 0.395 0.998-0.141 1.05-1.1 0.306-5.86-0.566-3.64-0.583-4.64-0.0805-4.64 0.12 0 0.525 2.1 0.9 4.67 0.473 3.24 0.851 4.85 1.24 5.28 0.805 0.889 0.968 0.767 0.835-0.624-0.133-1.4 0.574-3.04 1.52-3.55 0.853-0.457 2.63-0.394 3.3 0.116 0.84 0.638 0.686 0.789-0.64 0.627-1.4-0.171-3.38 0.706-3.54 1.57-0.0575 0.309 0.337 1 0.877 1.54 1.11 1.11 1.62 1.08 3.63-0.219 0.831-0.536 1.2-0.642 1.2-0.345 0 1.13-3.46 3.08-5.48 3.09-0.703 4e-3 -1.5-0.259-2.02-0.671l-0.862-0.678-0.722 0.678c-0.871 0.818-1.15 0.835-2.36 0.141-0.895-0.514-0.985-0.507-2.06 0.16-1.24 0.764-3 0.897-3.8 0.287zm-2.12-2.97c0.29-0.111 0.404-0.464 0.309-0.96-0.0824-0.431-0.212-0.784-0.288-0.784-0.362 0-1.96 0.973-2.33 1.42-0.364 0.439-0.275 0.501 0.717 0.501 0.623 0 1.34-0.0792 1.59-0.176zm-5.67-0.23c-0.124-1.27-0.43-3.3-0.681-4.49-0.508-2.43-0.593-4.38-0.192-4.38 0.367 0 1.66 7.16 1.66 9.18-0.0016 2.52-0.53 2.31-0.785-0.307zm-11.9-3.61c-0.105-0.274-0.0383-0.814 0.148-1.2l0.339-0.702 0.0217 0.743c0.0294 1.01 1.05 0.803 1.31-0.265 0.195-0.789 0.2-0.79 0.43-0.0947 0.29 0.875 1.29 0.622 1.06-0.267-0.212-0.812 0.327-1.08 0.579-0.293 0.294 0.925-0.368 1.94-1.27 1.94-0.423 0-0.859 0.144-0.968 0.32-0.308 0.498-1.44 0.376-1.65-0.178zm23.4-0.573 0.934-0.747-0.745-0.195c-0.41-0.107-1.03-0.0443-1.37 0.14-0.476 0.255-0.593 0.237-0.489-0.0736 0.265-0.795 1.12-1.07 2.37-0.756 1.64 0.414 1.69 0.946 0.163 1.73-1.69 0.864-2.01 0.83-0.86-0.0931zm-43.6-0.575c0.774-0.553 1.57-1.1 1.64-1.16 0 0-0.222-0.344-0.53-0.685-0.652-0.721-0.443-1.78 0.446-2.26 0.792-0.424 1.97 0.164 1.4 2.01-0.0991 0.327-0.4 0.571-0.416 0.771 0 0 0.934 0.546 0.842 0.667-0.476 0.632-0.531 0.3-0.816 0.209-0.335-0.106-0.489-0.475-0.604-0.29-0.211 0.341-2.75 1.74-3.15 1.74-0.121 0 0.413-0.452 1.19-1.01zm2.53-2.52c0-1.63-0.748-1.12-1.06-0.664-0.0944 0.14-8.4e-4 0.512 0.105 0.686 0.353 0.581 0.638 0.866 0.638 0.866s0.312-0.45 0.312-0.888zm-25.8 1.33c-2.43-0.841-4.1-2.13-5.54-4.29-1.96-2.94-2.4-4.76-2.35-9.83 0.0239-2.62 0.238-5.21 0.545-6.59 0.62-2.78 2.3-8.01 2.93-9.09 0.447-0.773 0.463-0.776 0.474-0.0994 0.0062 0.385-0.436 2.47-0.982 4.64-1.29 5.11-1.6 10.2-0.766 12.7 0.696 2.1 2.35 3.96 4.46 5.03 2.18 1.11 6.43 1.36 9.46 0.573 5.84-1.53 13.8-6.75 20.7-13.6 3.71-3.67 4.79-5.4 4.39-7.04-0.275-1.11-0.342-1.16-1.41-1.01-2.11 0.301-8.16 0.135-9.5-0.261-2.95-0.867-4.26-3.4-3.62-7.03 0.414-2.38 1.22-4.13 2.76-6.04 1.14-1.41 3.89-2.99 5.18-2.99 2.24 0 5.95 3.38 7.98 7.28 0.484 0.926 1.03 1.68 1.22 1.68 0.317 6.4e-4 5.94-2.19 6.16-2.4 0.056-0.0534-0.115-0.826-0.38-1.72-1.09-3.66-0.938-8.97 0.36-12.7 0.769-2.2 2.84-4.33 4.2-4.33 2.3 0 4.15 1.95 5.69 6 0.736 1.94 0.805 2.49 0.669 5.36-0.171 3.61-0.876 5.87-2.67 8.53-1.07 1.58-1.08 1.66-0.535 2.27 1.66 1.84 5.46 2.78 8.89 2.22 4.27-0.71 5.43-1.39 9.47-5.53 2.04-2.09 3.8-3.81 3.92-3.81s0.122 1.19 0.0099 2.65c-0.338 4.4 0.878 5.67 5.43 5.67 2.77 0 5.13-0.495 9.65-2.03 4.41-1.49 12.6-4.75 12.6-5 0-0.113-2.95-1.1-6.56-2.19l-6.56-1.99-1.07 0.572c-0.988 0.53-1.46 0.544-6.32 0.193-2.89-0.209-5.29-0.393-5.34-0.409-0.607-0.226 2.22-5.92 3.29-6.62 0.397-0.261 2.45-0.549 5.28-0.74l4.63-0.312 8.23 2.69c4.52 1.48 9.64 3.05 11.4 3.48 3.18 0.803 16.3 3.07 17.8 3.07 1.88 0 1.92 0.216 0.498 2.84-1.99 3.66-1.93 3.62-4.77 3.25-8.07-1.05-14.1 0.0088-23.8 4.15-11.9 5.08-15.1 6.12-19 6.16-2.14 0.0231-2.69-0.0948-4.17-0.9-2.01-1.1-3.13-2.45-3.86-4.69l-0.533-1.63-0.717 1.16c-1.05 1.71-4.54 4.77-6.53 5.75-3.3 1.62-5.91 1.88-8.72 0.895-2.24-0.787-5.53-3.12-6.89-4.89-0.577-0.752-1.16-1.49-1.29-1.65-0.133-0.155-2.04 0.483-4.24 1.42l-3.99 1.7-0.219 1.46c-0.37 2.47-1.68 6.16-2.95 8.3-0.7 1.18-2.82 3.68-5.05 5.94-11 11.2-21 16.1-27.9 13.7zm29.3-35.1c0.225-0.203-1.67-2.06-2.6-2.55-1.31-0.685-3.56-0.584-4.26 0.19-0.477 0.527-0.516 0.782-0.22 1.43 0.34 0.747 0.72 0.926 2.62 1.24 0.835 0.138 4.22-0.102 4.46-0.316zm18.6-6.14c3.08-2.02 3.33-2.32 2.87-3.62-0.559-1.6-2.85-4.41-4.07-4.99-1.02-0.488-1.18-0.49-1.98-0.0146-1.3 0.773-2.36 2.75-2.17 4.05 0.173 1.19 2.39 6.12 2.75 6.12 0.126 0 1.29-0.695 2.59-1.54zm-7.08 40.3c0-0.309 6.48-3.51 7.1-3.51 0.844 0-0.51 0.895-3.45 2.28-3.58 1.69-3.65 1.71-3.65 1.23zm33.4-0.0738c0.154-0.463 4.72-3.23 4.95-3 0.313 0.313-0.289 0.815-2.5 2.09-2.49 1.43-2.64 1.49-2.45 0.906zm21.4-2.57c-1.02-3.28-1.72-4.35-2.72-4.16-0.533 0.102-1.02-0.0704-1.47-0.519-0.823-0.823-0.824-0.897-0.0348-2.19 0.767-1.26 1.25-1.3 2.55-0.205 1.23 1.04 1.6 1.71 2.26 4.08l0.519 1.88 0.865-3.3c1.19-4.55 2.52-5.84 4.04-3.92 0.434 0.552 0.598 1.09 0.467 1.52-0.347 1.15-0.741 1.33-1.27 0.577-1.13-1.62-1.8-0.751-2.73 3.54-0.749 3.48-1.22 5.03-1.52 5.03-0.122 0-0.548-1.05-0.946-2.33zm-62.9-5e-3c0.145-0.378 2.47-1.52 5.5-2.7 0.257-0.1 0.336 0.0206 0.216 0.332-0.103 0.269-1.36 0.969-2.79 1.56-1.43 0.586-2.71 1.11-2.86 1.17-0.141 0.0587-0.175-0.105-0.0758-0.364zm35.7 0.156c0-0.414 0.431-0.73 3.28-2.41 1.59-0.938 2.48-1.3 2.48-1.02 0 0.359-1.27 1.19-5.52 3.59-0.132 0.0748-0.24 1e-3 -0.24-0.164zm-15.2-0.635c-0.256-2e-3 -0.109-0.654 0.0975-0.887 0.474-0.535 0.356-0.472 1.55-0.278 0.864 0.141 1.45 0.0526 1.6-0.177 0.358-0.58-0.172-0.87-0.814-0.386-1.43 1.08-0.949 0.358 0.0026-0.724 0.666-0.757 1.61-0.443 1.61 0.436 0 0.995-1.16 1.77-2.47 1.85-0.213 0.0121-0.894-0.284-1.02-0.33-0.227-0.0607-0.397 0.454-0.545 0.501zm13-9.36c-1.48-1.05-2.74-1.96-2.81-2.02-0.163-0.163 2.16-4.98 2.51-5.19 0.16-0.0988 1.51 0.641 3 1.64 1.88 1.26 2.71 2.02 2.71 2.46 0 0.685-2.19 5.06-2.52 5.03-0.11-8e-3 -1.41-0.872-2.89-1.92zm28.6 0.823c-0.959-0.672-1.16-2.32-0.61-4.97 0.43-2.06 1.85-5.76 2.21-5.76 0.079 0-0.202 1.09-0.625 2.42-1.52 4.77-0.815 7.58 1.38 5.52 0.407-0.383 0.741-0.53 0.741-0.326 0 0.812-1.07 2.98-1.62 3.27-0.732 0.392-0.675 0.398-1.47-0.162zm-88.2-1.63c-0.107-0.278-0.194-0.72-0.194-0.982 0-0.262-0.45-1.56-1-2.88-0.904-2.17-1.07-2.38-1.74-2.22-0.509 0.128-1.02-0.0502-1.62-0.569-0.82-0.705-0.85-0.82-0.465-1.75 0.633-1.53 1.1-1.78 2.21-1.21 1.18 0.611 2.21 2.23 2.91 4.61l0.542 1.82 0.723-3.12c0.726-3.13 1.78-5.04 2.78-5.04 0.77 0 1.73 1.23 1.73 2.22 0 1.25-0.527 1.52-1.39 0.707-1.24-1.16-1.77-0.263-2.79 4.68-0.546 2.65-1.07 4.23-1.4 4.23-0.063 0-0.202-0.228-0.309-0.506zm106-6.16c2.12-2.64 2.57-3.41 2.48-4.21-0.0798-0.705-0.235-0.795-1.31-0.762-0.942 0.0295-1.18-0.067-1.04-0.426 0.098-0.255 0.178-0.569 0.178-0.698 0-0.128 0.294-0.549 0.652-0.934 0.886-0.951 2.08-0.902 2.75 0.114 0.459 0.701 0.479 0.998 0.139 2.13-0.661 2.21-2.06 4.04-4.33 5.71-0.349 0.255-0.133-0.16 0.48-0.924zm-107-4.78c-0.512-0.335-1.06-1.84-1.06-2.91 0-1.68 2.04-8.03 2.45-7.62 0.0666 0.0666-0.163 1.04-0.509 2.17-0.902 2.93-1.07 4.48-0.59 5.38 0.594 1.12 1.09 1.15 2.05 0.13l0.853-0.904-0.228 0.96c-0.534 2.24-1.87 3.51-2.96 2.8zm-8.45-20.3c-5.79-0.49-10.4-3.19-13.3-7.74-1.97-3.12-3.3-8.5-3.3-13.3 0.00449-5.09 2.06-13.8 3.03-12.8 0.0614 0.0616-0.303 2.56-0.809 5.55-0.785 4.64-0.874 5.74-0.604 7.45 0.595 3.79 2.23 6.8 5.21 9.6 3.09 2.9 6.91 4.22 12.2 4.22 8.78 0 18-3.76 28.8-11.7 4.27-3.15 7.77-6.37 8.02-7.37 0.254-1.01-0.0592-1.84-1.08-2.88-1.51-1.53-2.73-1.84-7.92-2.05-5.54-0.222-6.69-0.659-7.88-2.99-1.03-2.02-0.738-5.77 0.658-8.51 1.35-2.65 3.6-5.05 5.17-5.52 3.65-1.09 8.75 2.6 11.4 8.21 2.86 6.15 2.63 14.4-0.539 19.4-1.18 1.86-6.04 6.56-9.42 9.13-11.1 8.42-20.6 12-29.6 11.3zm33.3-38.7c-1.84-2.58-6.1-3.71-7.08-1.87-0.45 0.841 0.382 2.11 1.56 2.36 0.482 0.106 1.02 0.241 1.2 0.3s1.37 0.118 2.66 0.132l2.34 0.0253-0.675-0.947zm81.3 30.8c-0.223-0.836-0.773-2.34-1.22-3.34-0.746-1.66-0.892-1.81-1.66-1.66-0.63 0.126-1.04-0.0396-1.62-0.652l-0.771-0.821 0.605-1.12c1.38-2.55 4.05-0.375 5.1 4.16l0.371 1.6 0.564-2.56c0.965-4.38 2.12-6.26 3.53-5.72 0.893 0.343 1.49 1.88 1.12 2.87l-0.329 0.865-0.731-0.687c-0.402-0.378-0.909-0.687-1.13-0.687-0.558 0-1.19 1.67-1.82 4.81-0.458 2.28-1.2 4.47-1.53 4.47-0.047 0-0.268-0.684-0.491-1.52zm-49.3-2.64c0-0.174 0.378-1.26 0.84-2.42 0.794-1.98 0.945-2.15 2.75-3.06 7.99-4.04 19.8-8.04 34.2-11.6 8.31-2.07 18.9-4.44 19.1-4.26 0.0692 0.0692-0.288 1-0.793 2.07l-0.919 1.94-2.51 0.538c-18.2 3.89-36.4 9.69-49.2 15.7-3.5 1.63-3.4 1.6-3.4 1.16zm-19-8.37c-1.23-0.884-2.45-1.73-2.72-1.88-0.4-0.226-0.273-0.686 0.784-2.85 0.693-1.42 1.46-2.58 1.71-2.58 0.246 0 1.59 0.785 2.98 1.74l2.53 1.74 0.961-1.9c0.529-1.05 1.14-1.91 1.36-1.91 0.643-0.0022 5.68 3.54 5.68 4 0 0.713-2.32 4.96-2.71 4.96-0.203 0-1.3-0.658-2.43-1.46-3.31-2.34-3.03-2.33-4.14-0.144-0.535 1.06-1.15 1.92-1.37 1.91-0.217-0.0102-1.4-0.742-2.64-1.63zm-39.6-2.52c-0.543-2-1.65-5.09-2.04-5.7-0.34-0.531-0.653-0.678-1.12-0.53-0.439 0.139-0.899-0.0287-1.42-0.52-0.933-0.876-0.948-1.12-0.151-2.43 0.464-0.761 0.784-0.972 1.28-0.843 1.3 0.341 2.6 2.1 3.3 4.48l0.677 2.3 0.833-3.32c0.806-3.22 1.76-4.95 2.73-4.95 0.655 0 1.76 1.46 1.76 2.32 0 1.08-0.528 1.4-1.25 0.75-1.39-1.26-1.96-0.317-3.1 5.17-0.568 2.73-1.25 4.21-1.5 3.28zm58.6-1.69c0-0.0964 0.66-0.943 1.47-1.88 1.82-2.12 2.46-3.32 2.21-4.12-0.223-0.703-1.41-0.844-2.01-0.24-0.562 0.562-0.507-0.498 0.0848-1.64 0.798-1.54 2.87-1.64 3.25-0.144 0.49 1.95-1.08 5.01-3.64 7.1-0.748 0.61-1.36 1.03-1.36 0.933zm20.9-7.23c-0.204-0.861-0.693-2.31-1.08-3.22-0.613-1.43-0.813-1.63-1.43-1.48-0.846 0.212-2.39-0.872-2.39-1.68 9.6e-4 -0.295 0.339-0.959 0.752-1.47l0.75-0.938 1.05 0.618c1.16 0.681 2.37 2.71 2.93 4.94l0.365 1.44 0.692-2.88c0.957-3.98 1.71-5.28 3.08-5.28 0.162 0 0.582 0.288 0.934 0.64 0.681 0.681 0.823 1.78 0.332 2.55-0.253 0.4-0.413 0.363-1.06-0.24-0.417-0.391-0.852-0.712-0.969-0.712-0.454 0-1.15 1.9-1.8 4.92-1.03 4.75-1.54 5.41-2.16 2.8zm-81.4-2.43c-1.11-1.34-0.512-6.03 1.16-9.11 0.437-0.803 0.707-1.18 0.602-0.837-1.49 4.83-1.7 7.57-0.609 7.99 0.717 0.275 0.718 0.275 1.6-0.682l0.809-0.873-0.223 0.953c-0.581 2.49-2.31 3.81-3.34 2.56zm46.4 0.0127c0-0.0779 0.38-1.17 0.844-2.42 0.842-2.27 0.848-2.28 3.06-3.39 7.41-3.73 20.5-8.17 34.3-11.6 6.88-1.71 18.4-4.26 18.6-4.09 0.178 0.178-1.35 3.6-1.7 3.82-0.154 0.0949-3.23 0.85-6.84 1.68-16.6 3.81-32.9 9.13-44.2 14.4-3.58 1.68-4.14 1.9-4.14 1.59zm56.9-5.82c0.191-0.357 0.583-0.844 0.872-1.08 0.994-0.825 2.39-3.15 2.39-3.98 0-0.979-0.788-1.39-1.64-0.863-0.856 0.535-0.909 0.48-0.593-0.621 0.418-1.46 0.902-1.89 2.12-1.89 2.14 0 2.18 2.6 0.0862 5.64-1.02 1.48-3.83 3.91-3.23 2.8zm-65.5-6.01c0.258-0.248 2.99-1.92 6.07-3.72 5.88-3.44 9.23-5.65 11.4-7.52 1.22-1.07 1.25-1.14 0.64-1.49-0.352-0.201-1.18-0.901-1.84-1.56-1.37-1.36-1.58-2.78-0.683-4.56 1.03-2.05 3.6-4.06 5.18-4.06 1.87 0 2.36 2.95 1.18 7.2-0.133 0.482 0.102 0.819 0.951 1.36 1.31 0.842 1.38 1.3 0.429 2.99-0.777 1.38-0.956 1.47-1.56 0.746-1.07-1.29-1.45-1.19-3.52 0.965-3.52 3.67-7.99 6.41-14 8.63-4.25 1.56-4.91 1.72-4.17 1.01zm20.5-17.4c0-1.51-0.721-2.38-1.71-2.07-1.82 0.558-1.92 1.41-0.292 2.52 1.66 1.13 2.01 1.05 2.01-0.446zm17.4 3.34c2-2.43 2.46-3.61 1.65-4.2-0.364-0.266-0.783-0.298-1.3-0.1-0.637 0.242-0.767 0.192-0.767-0.297 0-0.995 1.24-2.28 2.2-2.28 1.17 0 1.64 0.542 1.64 1.91 0 1.42-1.08 3.48-2.72 5.17-2.12 2.18-2.56 2.06-0.701-0.198zm-68.4-0.336c-1.41-0.97-2.6-1.96-2.66-2.21-0.144-0.649 2.12-4.98 2.6-4.98 0.484 0 3.17 1.66 4.52 2.79l0.941 0.789 2.13-4.23 0.873 0.452c2.1 1.09 4.87 3.41 4.87 4.09 0 0.788-2.13 4.75-2.55 4.75-0.153 0-1.47-0.82-2.92-1.82-1.45-1-2.69-1.69-2.75-1.52-0.321 0.893-1.9 3.47-2.17 3.55-0.176 0.0524-1.47-0.699-2.88-1.67zm28-1.67c-0.208-0.834-0.753-2.35-1.21-3.38-0.727-1.63-0.923-1.84-1.56-1.68-0.491 0.123-1.01-0.0578-1.59-0.557-0.935-0.804-0.906-1.39 0.135-2.74 0.564-0.731 0.615-0.739 1.59-0.233 1.27 0.654 1.94 1.68 2.81 4.26l0.683 2.03 0.695-2.77c1.03-4.13 1.91-5.51 3.22-5.09 0.914 0.29 1.61 1.74 1.26 2.64-0.336 0.892-0.541 0.898-1.45 0.0417l-0.722-0.678-0.622 1.02c-0.342 0.562-0.79 1.91-0.995 3-0.514 2.72-1.25 5.27-1.59 5.48-0.153 0.0948-0.449-0.51-0.657-1.34z" stroke-width=".32"/>
</svg>
