<?xml version="1.0" encoding="UTF-8"?>
<!-- Created with Inkscape (http://www.inkscape.org/) -->
<svg width="145" height="143" version="1.1" viewBox="0 0 145 143" xmlns="http://www.w3.org/2000/svg">
 <path d="m84.7 142c-0.0753-0.132-0.23-0.76-0.345-1.39-0.249-1.38-1.59-4.89-2.27-5.93-0.378-0.576-0.684-0.703-1.37-0.566-1.05 0.21-2.63-0.87-2.63-1.8 0-1.09 1.28-2.88 2.07-2.88 1.7 0 3.45 2.34 4.51 6.03l0.683 2.37 0.724-3.16c1.13-4.94 2.17-6.84 3.72-6.84 1.54 0 2.6 2.64 1.61 3.99-0.417 0.57-0.462 0.558-0.997-0.259-1.36-2.08-2.4-0.68-3.56 4.8-0.961 4.54-1.68 6.43-2.15 5.62zm-26.1-0.892c0-0.881-2.04-6.4-2.62-7.1-0.226-0.272-0.683-0.363-1.23-0.244-0.649 0.142-1.12-0.0216-1.87-0.654-1.22-1.02-1.25-1.56-0.192-3.11 0.996-1.47 1.69-1.51 3.2-0.185 1.39 1.22 2.19 2.72 2.96 5.55l0.581 2.12 1-4.04c1.15-4.63 2.08-6.24 3.6-6.24 1.77 0 2.89 2.56 1.77 4.02-0.468 0.606-0.497 0.599-1.15-0.259-1.52-2-2.44-0.672-3.71 5.33-0.816 3.87-1.45 5.63-2.04 5.63-0.171 0-0.312-0.365-0.312-0.812zm-32.2-10.5c-2.29-1.67-4.27-3.04-4.4-3.04-0.521-8e-3 -0.146-0.832 2.19-4.82 1.61-2.75 2.62-4.15 2.98-4.15 0.561 0 5.68 3.35 7 4.58 0.628 0.584 0.782 0.616 1.04 0.214 0.168-0.259 1.18-1.96 2.25-3.77 1.07-1.82 2.15-3.38 2.41-3.48 0.489-0.188 3.8 1.88 6.92 4.32 1.21 0.943 1.84 1.67 1.84 2.11-0.0032 0.66-4.55 8.27-5.04 8.43-0.137 0.0457-1.9-1.14-3.92-2.64-2.02-1.5-3.74-2.72-3.83-2.71-0.088 6e-3 -1.1 1.55-2.24 3.42-3.2 5.24-2.37 5.06-7.2 1.53zm56.4-2.49c-1.31-0.992-1.51-3.4-0.588-6.99 0.622-2.43 2.17-6.26 2.42-6.01 0.078 0.078-0.216 1.29-0.654 2.69-1.15 3.68-1.34 6.18-0.554 7.15 0.786 0.968 1.72 0.72 2.63-0.695 0.721-1.13 0.844-0.713 0.334 1.12-0.4 1.44-1.76 3.13-2.51 3.13-0.303 0-0.787-0.18-1.08-0.4zm23-0.991c-1.61-0.743-2.24-1.7-2.21-3.36 0.0367-2.05 0.981-3.72 3.98-7 1.4-1.54 2.55-2.9 2.55-3.03 3e-3 -0.316-2.2-0.891-3.42-0.893-0.561-9.6e-4 -1.41 0.146-1.88 0.327-1.23 0.468-1.31 0.183-0.348-1.27 0.998-1.51 2.7-2.12 4.99-1.78 2.1 0.306 2.9 0.911 2.9 2.2 0 1.35-1.19 3.05-4.7 6.66-2.41 2.49-2.69 2.89-2.6 3.83 0.155 1.6 1.07 1.93 4.9 1.75 1.77-0.08 4.27-0.437 5.59-0.799 1.32-0.36 2.44-0.603 2.5-0.541 0.285 0.285-3.56 2.82-5.1 3.36-2.39 0.838-5.93 1.11-7.16 0.544zm-40-11.8c-1.41-1.07-3.32-2.46-4.24-3.08s-1.67-1.36-1.67-1.65c0.0183-0.833 4.58-8.18 5.15-8.29 0.595-0.111 5.56 3.13 7.58 4.94l1.37 1.23-0.685 1.28c-1.01 1.89-4.59 7.52-4.78 7.51-0.0882-5e-3 -1.31-0.884-2.72-1.95zm61.4-1.23c-0.617-0.25-1.09-1.08-1.55-2.75-0.305-1.09 0.395-3.94 1.56-6.35 1.03-2.13 3.9-5.85 4.25-5.51 0.0861 0.086-0.354 0.997-0.978 2.02-1.62 2.66-3.09 5.88-3.09 6.75-6.4e-4 1.95 1.48 2.56 3.23 1.32l0.929-0.662v1.17c0 1.69-0.834 3.22-2.07 3.81-1.19 0.565-1.33 0.576-2.28 0.194zm-111-3.85c-6.4-0.781-11-3.96-13.7-9.43-2.05-4.19-2.38-5.91-2.37-12.3 0.0204-7.71 1.17-13.3 3.98-19.4 1.67-3.61 4.12-7.36 4.54-6.94 0.219 0.219-0.242 1.61-1.42 4.28-5.13 11.7-5.96 19.7-2.75 26.4 1.1 2.31 3.93 5.52 5.87 6.65 3.16 1.85 4.73 2.19 10.2 2.19 4.75 9.6e-4 5.39-0.0722 8.87-1.01 8.42-2.28 19.8-7.62 28.5-13.4 3.62-2.4 4.14-3.06 3.01-3.8-1.11-0.726-6.62-2.55-12.7-4.2-11.6-3.15-11.5-3.08-10.9-5.79 0.868-3.93 0.73-3.73 3.43-4.99 1.36-0.638 5.05-2.17 8.18-3.41 3.14-1.24 6.07-2.45 6.52-2.68 0.819-0.429 0.811-0.439-4.17-4.65-7.13-6.03-8.25-7.58-8.25-11.4 0-2.63 0.892-4.51 3.12-6.54 2.53-2.31 4.57-3 8.76-2.97 3.72 0.0282 10.1 0.896 16.6 2.26l4.24 0.891v-1.03c0-4.06-1.43-13-2.77-17.2-0.447-1.42-0.739-2.95-0.647-3.4 0.323-1.61 2.2-6.43 2.5-6.43 0.521 0 1.87 3.33 2.67 6.63 1.13 4.62 2.04 11.4 2.28 17.2 0.203 4.74 0.261 5.09 0.886 5.34 0.368 0.149 5.41 1.57 11.2 3.15 5.79 1.58 10.6 3.01 10.8 3.16 0.255 0.255-0.834 3.87-2.11 7.01-0.534 1.31-0.569 1.33-3.32 2.02-1.53 0.381-5.76 1.55-9.41 2.59-3.65 1.05-6.73 1.9-6.85 1.9-0.336 0 0.148 10.6 0.663 14.6 1.23 9.38 2.56 12.8 6.28 16.3 2.36 2.19 3.04 2.57 2.72 1.53-1.17-3.7-1.47-9.95-0.636-13.5 1.15-4.87 4.63-8.07 9.77-8.96 2.62-0.457 5.84 0.039 13.6 2.1 2.95 0.781 8.1 2.14 11.4 3.01 5.79 1.52 11.6 2.59 16.7 3.07 1.37 0.13 2.41 0.384 2.5 0.613 0.0827 0.216-0.477 1.96-1.24 3.88l-1.39 3.48-2.42 0.198c-5.09 0.417-6.49 0.975-21.4 8.51-10.5 5.33-15 7.1-19.6 7.83-2.42 0.376-2.44 0.389-2.75 1.52-0.657 2.37-1.45 2.52-1.8 0.329-0.197-1.23-0.268-1.29-3.6-2.92-2.84-1.39-3.8-2.06-5.81-4.08-2.62-2.63-4.15-5.18-4.94-8.18-0.999-3.83-1.82-12-2.28-22.6-0.189-4.36-0.289-5.04-0.736-5.01-0.284 0.0163-3.4 0.988-6.92 2.16l-6.4 2.13-0.291 3.28c-0.193 2.18-0.42 3.28-0.676 3.28-0.365 0-1.75-3.14-1.75-3.97 0-0.215-0.181-0.638-0.402-0.94-0.37-0.506-0.672-0.426-3.86 1.03-1.9 0.867-3.52 1.64-3.59 1.71-0.0745 0.0745 1.73 0.75 4 1.5 5.19 1.71 7.24 2.91 8.24 4.8 0.942 1.79 0.944 3.7 0.0087 6.45-2.59 7.6-9.42 13.3-24.1 20.2-10.1 4.73-18.3 6.76-24.2 6.04zm86.8-15.8c1.65-0.43 4.22-1.28 5.72-1.88 2.88-1.16 15-6.55 16.5-7.33 0.851-0.446 0.713-0.507-4.68-2.1-13.7-4.03-20.3-5.2-23.6-4.19-1.68 0.502-4.14 2.45-4.86 3.85l-0.602 1.17 4.03 11.2 2.28 0.0068c1.41 0.0042 3.43-0.292 5.28-0.774zm-33.3-36.9 6.63-2.19-0.0229-1.92c-0.0126-1.06-0.118-2.64-0.235-3.51l-0.212-1.59-3.68-0.894c-7.44-1.81-12.6-2.55-18.1-2.6-5.39-0.0483-6.88 0.149-6.88 0.908 0 0.254 2.27 2.37 5.04 4.7 2.77 2.33 6.19 5.41 7.6 6.85 1.41 1.43 2.7 2.57 2.88 2.52 0.176-0.0494 3.31-1.07 6.95-2.27zm17.9-5.57c-0.345-0.334-7.08-2.37-7.26-2.19-0.0765 0.0778-0.063 1.08 0.03 2.23l0.169 2.09 3.65-0.943c2.01-0.518 3.54-1.05 3.4-1.19zm-65.7 27.1c0-0.793-1.1-3.98-2.11-6.11-0.468-0.986-0.646-1.1-1.41-0.937-0.657 0.144-1.12-0.0172-1.88-0.653-1.21-1.02-1.25-1.56-0.199-3.1 0.74-1.09 0.876-1.16 1.68-0.853 1.94 0.734 3.58 3.23 4.35 6.61l0.415 1.83 0.73-3.19c0.869-3.8 1.79-6.09 2.7-6.73 0.944-0.661 1.4-0.585 2.3 0.38 0.814 0.878 1.04 2.42 0.475 3.31-0.25 0.396-0.462 0.319-1.28-0.465-0.976-0.935-0.984-0.937-1.61-0.309-0.584 0.584-0.933 1.76-2.36 7.95-0.499 2.16-0.95 3.07-1.51 3.07-0.154 0-0.281-0.357-0.281-0.793zm-1.53-13.1c-2.06-0.918-1.46-7.29 1.15-12.2 0.846-1.6 0.875-1.09 0.0703 1.25-1.48 4.3-1.6 7.53-0.307 8.22 0.538 0.288 0.816 0.166 1.75-0.764 1.22-1.22 1.35-0.985 0.618 1.09-0.805 2.28-1.86 3.07-3.28 2.44zm88.1-3.5c0.658-2.17 1.59-3.83 2.39-4.24 0.479-0.248 5.39-1.95 10.9-3.78 5.52-1.83 12-4.02 14.3-4.86s4.33-1.45 4.42-1.35c0.0942 0.0942-0.152 0.923-0.548 1.84-0.84 1.95 0.0405 1.51-10.5 5.27-4.31 1.53-10.8 3.93-14.4 5.32-3.59 1.39-6.59 2.53-6.66 2.53-0.0756 0-0.0393-0.324 0.0807-0.72zm-90.2-19c-0.117-0.117-0.213-0.555-0.213-0.972 0-0.823-2.05-6.36-2.6-7.02-0.209-0.252-0.698-0.334-1.29-0.216-0.757 0.151-1.14 0.0065-1.89-0.713-1.15-1.1-1.16-1.28-0.131-2.79 0.99-1.46 1.92-1.55 3.37-0.328 1.26 1.06 2.79 4.19 3.06 6.26 0.112 0.842 0.263 1.47 0.336 1.4 0.073-0.073 0.475-1.65 0.894-3.5 1.03-4.57 2.32-6.95 3.76-6.95 1.55 0 2.68 2.62 1.82 4.22-0.342 0.638-0.376 0.629-1.26-0.341-0.501-0.548-1.07-0.997-1.27-0.997-0.605 0-1.62 2.77-2.41 6.57-0.414 2-0.981 4.07-1.26 4.61-0.545 1.05-0.593 1.09-0.918 0.769zm82.7-5.34c0-0.883-1.02-3.96-1.96-5.9-0.615-1.27-0.734-1.36-1.67-1.18-0.841 0.158-1.17 0.0242-1.96-0.805l-0.952-0.994 0.757-1.43c0.906-1.71 1.72-1.85 3.25-0.561 1.21 1.01 2.75 4.1 3.05 6.09 0.115 0.768 0.271 1.33 0.346 1.26 0.0753-0.0753 0.479-1.65 0.898-3.51 0.855-3.79 1.38-5 2.58-5.94 0.66-0.519 0.975-0.585 1.55-0.321 1.02 0.465 1.77 1.86 1.56 2.92-0.243 1.27-0.613 1.35-1.76 0.384l-1.02-0.857-0.571 0.705c-0.635 0.784-0.952 1.83-1.87 6.16-0.345 1.63-0.789 3.36-0.987 3.84-0.44 1.08-1.24 1.16-1.24 0.13zm-57.4-6.05c-0.0585-0.22-0.271-1.09-0.472-1.93-0.201-0.842-0.793-2.47-1.32-3.63-0.914-2.02-0.987-2.09-1.89-1.89-0.763 0.168-1.14 0.0238-2.01-0.762l-1.07-0.968 0.845-1.53c0.643-1.16 1.01-1.51 1.53-1.45 1.87 0.212 3.65 2.63 4.56 6.16 0.592 2.31 0.575 2.33 1.57-1.92 1.14-4.87 2.56-6.77 4.24-5.67 1.08 0.709 1.62 2.13 1.21 3.21-0.405 1.06-0.679 1.07-1.56 0.0588-0.383-0.44-0.843-0.8-1.02-0.8-0.687 0-1.55 2.1-2.22 5.38-0.381 1.88-0.914 4.03-1.18 4.78-0.482 1.34-0.994 1.75-1.2 0.96zm55.7-6.98c-1.2-0.701-1.42-3.87-0.52-7.5 0.334-1.35 2.22-5.68 2.39-5.51 0.0559 0.0559-0.326 1.59-0.849 3.41-0.523 1.82-0.951 3.71-0.951 4.2 0 1.26 0.494 2.41 1.14 2.66 0.684 0.262 1.94-0.529 2.22-1.4 0.374-1.18 0.758-0.674 0.422 0.551-0.88 3.21-2.27 4.5-3.85 3.58zm-38.8-6.86c-1.19-1.81-0.79-5.28 1.01-8.84 0.789-1.56 3.93-5.55 4.18-5.31 0.0759 0.0759-0.6 1.39-1.5 2.93-2.09 3.55-2.96 5.95-2.55 7.02 0.433 1.14 1.43 1.34 2.77 0.547 1.37-0.806 1.41-0.81 1.41-0.105-0.0038 1.19-0.724 3.07-1.45 3.8-1.09 1.09-3.13 1.07-3.86-0.0455zm-19.2-0.289c-0.643-0.982-0.707-3.92-0.138-6.35 0.376-1.61 2.54-6.76 2.74-6.55 0.055 0.055-0.318 1.4-0.829 2.99-1.66 5.16-1.54 7.52 0.404 7.75 0.695 0.0806 0.99-0.1 1.43-0.878 0.819-1.44 1.07-1.2 0.552 0.526-0.633 2.1-1.46 3.11-2.65 3.23-0.767 0.0767-1.11-0.0829-1.52-0.713zm43.6-3.68c-1.55-1.71-1.18-5.24 0.951-9.26 1.01-1.9 3.56-5.06 3.84-4.77 0.0622 0.0622-0.528 1.19-1.31 2.5-1.57 2.63-2.7 5.37-2.7 6.51 0 1.78 1.87 2.19 3.44 0.745l0.72-0.659v1.35c0 1.56-0.643 2.98-1.67 3.7-0.986 0.69-2.59 0.633-3.27-0.118z" stroke-width=".32"/>
</svg>
