<?xml version="1.0" encoding="UTF-8"?>
<!-- Created with Inkscape (http://www.inkscape.org/) -->
<svg width="147" height="147" version="1.1" viewBox="0 0 147 147" xmlns="http://www.w3.org/2000/svg">
 <g>
  <path d="m55.4 146c0-0.178 0.432-1.38 0.959-2.68 0.527-1.29 0.959-2.38 0.96-2.41 0.0029-0.151 4.78-1.82 16.8-5.86 7.22-2.43 14.4-4.87 16-5.42 1.56-0.555 2.92-0.934 3.01-0.842 0.0924 0.0924-0.321 1.13-0.919 2.31l-1.09 2.14-10.1 3.57c-5.54 1.97-13.3 4.83-17.3 6.37-8.33 3.24-8.32 3.23-8.32 2.81zm-27.8-14.1c-0.226-0.846-0.78-2.36-1.23-3.37-0.712-1.59-0.918-1.81-1.54-1.66-0.482 0.121-1.01-0.0764-1.63-0.608l-0.915-0.787 0.623-1.16c1.39-2.59 4.06-0.437 5.12 4.12l0.371 1.6 0.564-2.56c0.965-4.38 2.12-6.26 3.53-5.72 0.894 0.343 1.49 1.88 1.12 2.87l-0.33 0.867-1.83-1.75-0.5 0.714c-0.275 0.393-0.743 1.81-1.04 3.15-0.928 4.18-1.07 4.68-1.49 5.26-0.371 0.508-0.459 0.405-0.826-0.97zm43-1.98c-1.72-0.78-3.81-3.21-4.62-5.36-0.795-2.12-0.876-6.45-0.171-9.08 0.26-0.968 0.474-1.85 0.476-1.97 0.0022-0.113-1.14-0.258-2.53-0.321-1.95-0.0885-2.75-0.271-3.44-0.784-1.23-0.911-2.26-2.82-2.51-4.67-0.118-0.859-0.38-1.54-0.593-1.54-0.21 0-1.51 1.24-2.9 2.75-2.79 3.05-5.08 4.73-7.42 5.45-2.08 0.637-5.78 0.606-7.45-0.0614-1.7-0.678-3.69-2.95-4.36-4.96-0.288-0.866-0.566-1.57-0.618-1.57-0.0522 0-1.73 0.784-3.73 1.74-2 0.958-4.78 2.04-6.18 2.4-2.99 0.776-7.51 0.871-9.99 0.212-5.1-1.36-8.66-5.31-10.2-11.4-0.796-3.04-0.719-9.53 0.155-13.2 0.711-2.94 2.04-6.07 2.86-6.75 0.576-0.472 0.635-0.791-0.694 3.71-1.69 5.72-1.66 10.4 0.091 14.1 3.8 8.04 13.1 9.73 24.6 4.45l2.36-1.08-0.21-3.76c-0.115-2.07-0.346-7.79-0.512-12.7-0.576-17.1-0.729-20.3-0.958-20.3-0.126 0-3.02 0.876-6.44 1.95-8.13 2.55-16.1 5.41-21.1 7.54-2.19 0.941-4.03 1.65-4.1 1.59-0.0694-0.0694 0.295-1.18 0.81-2.48 0.926-2.33 0.958-2.36 3.03-3.37 3.92-1.91 13.6-5.28 24.7-8.6l2.84-0.85-0.212-1.88c-0.117-1.03-0.638-3.62-1.16-5.75-0.52-2.13-0.946-4.2-0.946-4.6 0-0.87 1.16-4.36 1.6-4.8 0.802-0.802 2.63 5.51 3.44 11.9 0.354 2.78 0.663 4.2 0.894 4.11 0.194-0.0744 3.44-0.97 7.21-1.99 3.77-1.02 6.9-1.89 6.96-1.92 0.0575-0.0373-0.123-3.07-0.402-6.74-0.279-3.67-0.637-9.12-0.797-12.1s-0.467-5.87-0.682-6.4c-0.215-0.528-0.373-1.29-0.349-1.7 0.0512-0.899 1.94-5.5 2.25-5.5 0.394 0 5.18 11.9 5.62 14 0.292 1.38-0.185 1.35-1.96-0.101-1.14-0.938-1.39-1.04-1.4-0.56-0.0092 0.951 1.37 17.9 1.46 18 0.0485 0.0584 4.67-1.05 10.3-2.46 5.6-1.41 14-3.44 18.7-4.51 4.66-1.07 9.05-2.08 9.75-2.24s1.33-0.243 1.39-0.174c0.173 0.173-0.85 2.76-1.37 3.46-0.303 0.407-2.4 1.03-7.25 2.16-5.56 1.3-22.4 5.53-29.6 7.44-0.98 0.261-1.6 0.603-1.6 0.885 9.6e-4 0.252 0.203 3.64 0.45 7.53 0.538 8.49 0.328 16-0.569 20.2-1.24 5.84-4.03 9.5-11.6 15.3-2.07 1.57-3.76 2.96-3.76 3.1s0.369 0.688 0.821 1.22c1.37 1.63 4.39 2.07 7.92 1.16 3.07-0.798 4.83-1.93 8.51-5.44 1.94-1.85 3.75-3.36 4.02-3.36 0.398 0 0.496 0.418 0.496 2.11 0 4.71 1.74 5.91 7.45 5.13 1.73-0.235 1.89-0.332 2.48-1.49 0.881-1.73 1.37-1.95 1.1-0.509-0.119 0.633-0.131 1.15-0.0277 1.15 0.104 0 1.14-0.357 2.3-0.794 3.05-1.15 6.32-2.94 7.36-4.02l0.905-0.945-0.638-0.878c-0.351-0.483-1.35-1.24-2.22-1.67-1.39-0.698-2.15-0.819-6.15-0.986-4.93-0.205-5.47-0.385-6.91-2.32-0.897-1.2-1.08-4.44-0.371-6.57 0.775-2.33 2.82-5.33 4.32-6.32 1.13-0.75 1.52-0.838 3.02-0.683 2.28 0.235 3.51 0.913 5.7 3.15 3.82 3.91 5.8 10.7 4.73 16.3-0.388 2.05-1.61 4.81-2.71 6.11-2.36 2.81-6.64 5.52-10.3 6.54l-1.97 0.548-0.563 2.27c-0.695 2.81-0.713 6.11-0.0402 7.4 0.949 1.83 1.99 2.5 4.1 2.65 1.73 0.125 2.18 0.0169 4.31-1.03 2.45-1.21 3.37-2.09 8.86-8.51 4.13-4.82 7.17-6.77 18.2-11.7 4.05-1.81 7.43-3.35 7.51-3.43s-1.2-1.26-2.84-2.63c-6.17-5.16-7.09-6.38-7.11-9.43-0.022-3.2 2.45-6.1 6.05-7.08 2.4-0.656 9.82 0.159 18.1 1.99 4.52 0.999 21.2 5.48 21.7 5.81 0.277 0.212 0.141 0.964-0.526 2.91-1.23 3.59-1.3 3.74-1.75 3.74-1.47 0-15.6 4.31-22.9 6.96l-3.95 1.45 0.197 1.96c0.245 2.42-0.109 3.17-1.09 2.28-0.371-0.336-0.982-1.16-1.36-1.83-0.376-0.669-0.856-1.22-1.07-1.22-1.14 0-17.1 7.02-20.4 9.01-2.24 1.32-6.35 5.21-12.2 11.5-3.86 4.18-7.15 5.37-10.6 3.82zm-29.8-32.2c3.88-2.57 6.84-4.85 9.3-7.17l1.57-1.48-0.207-6.41c-0.201-6.25-1.34-22.2-1.6-22.5-0.0725-0.0725-3.35 0.79-7.29 1.92l-7.16 2.05 0.0333 0.927c0.0579 1.61 0.76 22.4 0.973 28.8 0.117 3.51 0.334 6.16 0.507 6.16 0.166 0 1.91-1.06 3.87-2.36zm80.7-0.925c2.98-0.966 7.29-2.23 9.56-2.82 4.09-1.05 4.13-1.07 3.11-1.48-3.39-1.38-13.8-3.92-19.5-4.74-3.59-0.52-10.6-0.565-11.1-0.0708-0.353 0.354 0.53 1.22 5.47 5.37 2.46 2.07 4.91 4.22 5.43 4.77 0.521 0.552 1.11 0.943 1.3 0.869 0.192-0.0738 2.79-0.925 5.77-1.89zm-46-7.61c-1.45-2.04-3.97-3.05-5.99-2.41-0.528 0.168-0.72 0.477-0.72 1.16 0 1.44 1.23 1.84 6.66 2.18l0.742 0.0469zm-33.4 38.6c-1.38-0.963-2.58-1.81-2.65-1.88-0.169-0.169 2.22-5.01 2.47-5.01 0.105 0 1.33 0.786 2.73 1.75l2.54 1.75 0.918-1.83c0.505-1 0.973-1.89 1.04-1.96 0.187-0.205 5.2 3.26 5.38 3.71 0.178 0.464-1.97 4.9-2.37 4.9-0.15 0-1.32-0.72-2.59-1.6-1.28-0.88-2.4-1.6-2.51-1.6-0.101 3.2e-4 -0.597 0.792-1.1 1.76-0.506 0.968-1.01 1.76-1.13 1.76-0.115 0-1.34-0.788-2.73-1.75zm58.4-0.659c0-0.0937 0.438-1.31 0.973-2.69l0.973-2.52 2.79-1.03c1.53-0.564 7.25-2.5 12.7-4.31s12.2-4.09 15-5.08c2.8-0.991 5.16-1.73 5.24-1.65 0.235 0.235-0.981 3-1.69 3.84-0.472 0.56-3.38 1.73-11.1 4.45-5.73 2.03-13.6 4.93-17.4 6.43-6.89 2.69-7.52 2.91-7.52 2.57zm-81.3-29.7c0-0.684-0.848-3.2-1.67-4.96-0.534-1.14-0.752-1.33-1.36-1.18-0.489 0.123-1.01-0.0686-1.62-0.595l-0.902-0.776 0.633-1.09c0.348-0.598 0.922-1.13 1.28-1.18 1.45-0.213 3.08 2.01 3.81 5.21l0.365 1.6 0.733-3.04c0.829-3.44 1.35-4.63 2.24-5.11 0.831-0.445 1.55-0.114 2.11 0.97 0.352 0.68 0.386 1.12 0.138 1.77l-0.329 0.865-0.731-0.687c-1.47-1.38-1.82-0.889-2.95 4.19-0.437 1.98-1.01 3.81-1.27 4.07-0.419 0.419-0.474 0.412-0.474-0.0631zm71.3-1.61c-1.36-0.92-2.47-1.86-2.48-2.08-0.0065-0.224 0.497-1.42 1.12-2.65 0.755-1.5 1.26-2.17 1.52-2.02 2.44 1.44 5.03 3.44 5.03 3.89-0.0046 0.66-1.99 4.31-2.42 4.44-0.164 0.0504-1.41-0.661-2.77-1.58zm-73-9.69c-1.21-1.21-0.424-6.49 1.45-9.74 0.355-0.616 0.568-0.863 0.472-0.55-0.0955 0.314-0.473 1.56-0.839 2.76-0.802 2.64-0.75 5.07 0.118 5.6 0.489 0.295 0.738 0.171 1.53-0.765l0.944-1.12-0.466 1.55c-0.761 2.53-2.04 3.43-3.21 2.26zm65.3-7.35c0.352-0.278 2.08-1.31 3.84-2.28 4.96-2.76 5.73-3.3 5.3-3.73-0.238-0.238-2.09-0.411-5.16-0.481-2.63-0.0601-4.78-0.204-4.78-0.32 6.4e-4 -0.116 0.474-1 1.05-1.97 1.6-2.67 2.36-2.96 7.43-2.78 5.52 0.198 6.84 0.715 6.19 2.43-0.485 1.28-3.64 5.32-4.9 6.28-0.989 0.754-5.86 2.52-8.65 3.14-0.921 0.204-0.934 0.192-0.32-0.293zm40-3.16c-1.45-0.631-2.04-1.66-2.04-3.55 0-2.31 1.09-4.25 4.35-7.76 1.67-1.8 2.69-3.14 2.58-3.42-0.323-0.841-4.04-1.04-6.24-0.327l-0.749 0.241 0.674-1.32c0.865-1.69 1.81-2.29 3.92-2.49 2.33-0.218 4.46 0.451 5 1.57 0.677 1.41-0.393 3.27-4.04 7.03-4.48 4.63-5.07 6.07-2.85 7 1.65 0.695 6.57 0.462 10.1-0.48 1.67-0.44 3.08-0.754 3.14-0.698 0.192 0.192-2.66 2.34-4 3.02-3.05 1.54-7.77 2.1-9.89 1.18zm19.5-3.53c2.24-2.64 3.07-4.24 2.71-5.21-0.293-0.78-1.2-0.939-2.23-0.389-0.52 0.278-0.619 0.225-0.619-0.336 0-1.86 1.88-3.42 3.44-2.84 2.57 0.952 1.02 5.97-2.92 9.42-0.899 0.787-1.75 1.43-1.89 1.43s0.537-0.932 1.5-2.07zm-79.4-2.59c-1.4-0.973-2.6-1.93-2.67-2.12-0.17-0.49 1.93-4.74 2.34-4.74 0.442 0.0016 2.27 1.12 3.77 2.3 0.657 0.518 1.31 0.869 1.46 0.78 0.144-0.0888 0.603-0.891 1.02-1.78 0.418-0.892 0.905-1.62 1.08-1.62 0.458 0 4.18 2.46 4.86 3.22 0.55 0.607 0.542 0.692-0.202 2.28-0.425 0.909-1.03 1.98-1.34 2.37l-0.566 0.721-5.08-3.5-0.799 1.53c-0.439 0.843-0.92 1.71-1.07 1.93-0.196 0.288-0.956-0.083-2.81-1.37zm43.3-3.69c-0.464-1.78-1.64-5.06-2.03-5.67-0.34-0.531-0.653-0.678-1.12-0.53-0.439 0.139-0.899-0.0287-1.42-0.52-0.933-0.876-0.948-1.12-0.151-2.43 0.464-0.761 0.784-0.972 1.28-0.843 1.3 0.341 2.6 2.1 3.3 4.48l0.677 2.3 0.833-3.32c0.806-3.22 1.76-4.95 2.73-4.95 0.655 0 1.76 1.46 1.76 2.32 0 1.08-0.528 1.4-1.25 0.75-1.4-1.27-1.76-0.618-3.36 6.04-0.547 2.28-1.03 3.21-1.25 2.38zm-105-6.56c0.261-0.337 1.03-1.26 1.72-2.05 1.73-2 2.69-4.03 2.24-4.73-0.43-0.686-1.6-0.88-2.22-0.366-0.706 0.586-0.883 0.157-0.462-1.12 0.458-1.39 1.41-2.1 2.79-2.1 2.92 0 2 5.02-1.58 8.66-1.67 1.7-3.4 2.89-2.49 1.72zm16.2-1.32c-0.122-0.653-0.641-2.11-1.15-3.24-0.789-1.74-1.03-2.03-1.6-1.88-0.443 0.116-0.988-0.115-1.63-0.692l-0.969-0.865 0.702-1.19c0.386-0.655 0.839-1.19 1.01-1.19 1.51 0 3.57 2.79 3.98 5.4 0.12 0.749 0.319 1.24 0.442 1.1 0.123-0.143 0.492-1.47 0.819-2.95 0.958-4.33 2.49-5.87 3.97-3.99 0.492 0.625 0.635 1.12 0.491 1.7-0.288 1.15-0.379 1.17-1.26 0.342-1.32-1.24-1.9-0.349-2.88 4.47-0.54 2.64-1.07 4.16-1.45 4.16-0.135 0-0.346-0.534-0.468-1.19zm86.9-3.45c-1.11-1.34-0.512-6.03 1.16-9.11 0.437-0.803 0.703-1.17 0.591-0.82-1 3.17-1.49 5.67-1.31 6.65 0.331 1.77 1.68 1.9 2.61 0.268l0.481-0.842-0.202 1.12c-0.462 2.56-2.26 4.02-3.33 2.73zm28.3-5.88c-0.204-0.857-0.706-2.26-1.12-3.12-0.619-1.3-0.876-1.55-1.52-1.48-0.867 0.0961-2.27-1.03-2.27-1.82 9.6e-4 -0.277 0.333-0.918 0.738-1.42 0.722-0.902 0.756-0.91 1.73-0.408 1.23 0.635 2.11 2.03 2.84 4.53l0.568 1.92 0.434-1.92c0.239-1.06 0.576-2.45 0.749-3.11 0.354-1.34 1.73-3.13 2.39-3.13 0.722 0 1.74 1.34 1.74 2.28 0 1.2-0.542 1.44-1.4 0.632-0.394-0.37-0.812-0.674-0.928-0.674-0.454 0-1.15 1.9-1.8 4.92-1.03 4.74-1.54 5.41-2.16 2.8zm-122-7.53c0.258-0.248 2.99-1.92 6.07-3.73 3.08-1.8 6.46-3.85 7.52-4.56 2.18-1.46 5.28-4 5.28-4.34 0-0.122-0.514-0.499-1.14-0.838-2.37-1.28-2.95-3.27-1.69-5.87 0.687-1.42 2.79-3.22 4.22-3.61 2.04-0.559 3.05 1.35 2.47 4.69-0.197 1.13-0.436 2.26-0.53 2.51-0.105 0.273 0.27 0.717 0.969 1.15 0.707 0.437 1.14 0.954 1.14 1.36 0 0.652-1.16 2.81-1.52 2.81-0.101 0-0.653-0.358-1.23-0.796l-1.04-0.796-1.32 1.58c-2.87 3.43-8.39 6.89-14.8 9.27-4.72 1.75-5.13 1.86-4.41 1.18zm20.7-18c-0.125-1.49-0.826-2.02-2.08-1.58-1.37 0.481-1.28 1.25 0.257 2.37 1.56 1.13 1.97 0.948 1.82-0.795zm12.1-8.34c3.29-3.84 4.01-5.51 2.68-6.22-0.494-0.264-0.881-0.234-1.6 0.124-1.13 0.563-1.24 0.228-0.495-1.54 0.731-1.75 2.74-2.38 3.82-1.19 1.36 1.5 0.0266 5.38-2.83 8.25-2.49 2.5-3.56 2.89-1.57 0.581zm16.6-3.43c2.5-1.43 9.68-6.29 10.6-7.2 0.547-0.516 1.09-1.32 1.21-1.8 0.649-2.59 3.3-0.566 4.37 3.33l0.395 1.44 0.533-2.4c0.59-2.66 1.34-4.3 2.08-4.59 1.37-0.526 2.62 1.34 1.78 2.67-0.255 0.403-0.407 0.362-0.995-0.269-0.952-1.02-1.42-0.491-2.08 2.36-1.14 4.91-1.64 5.86-2.07 3.83-0.413-1.96-1.65-4.35-2.19-4.23-0.283 0.065-0.9-0.0706-1.37-0.301-0.811-0.397-0.892-0.362-1.53 0.666-1.47 2.37-4.5 4.54-8.63 6.17-3.1 1.22-3.93 1.35-2.15 0.327zm38.3-1.52c1.47-1.86 1.64-3.05 0.42-3-0.812 0.0286-0.92-0.429-0.302-1.27 0.257-0.351 0.719-0.529 1.2-0.461 1.78 0.252 0.73 3.93-1.62 5.67-0.996 0.733-0.987 0.705 0.305-0.929z" stroke-width=".32"/>
  <path d="m59.7 43.3c-0.0888-0.236-0.237-1.27-0.33-2.29-0.0928-1.02-0.353-3.03-0.578-4.47-0.272-1.73-0.325-2.98-0.158-3.72 0.335-1.49 1.69-2.69 3.02-2.69 1.2 0 1.29-0.349 0.233-0.83-0.664-0.301-0.881-0.267-1.58 0.249-1.02 0.752-1.09 0.223-0.156-1.17 0.989-1.47 1.91-1.44 3.55 0.0996 1.18 1.11 1.31 1.35 1.14 2.13-0.188 0.85-0.245 0.877-2.22 1.04-2.48 0.207-3.41 0.736-3.41 1.95 0 0.483 0.266 2.41 0.592 4.29 0.441 2.54 0.525 3.72 0.329 4.63-0.153 0.709-0.329 1.04-0.424 0.785zm48.7-5.4c-0.581-0.445-0.633-0.612-0.349-1.14 0.386-0.718 0.81-0.766 1.59-0.176 1.09 0.821 0.479 0.527 1.16-0.317l0.593-0.741 0.781 0.612c0.738 0.578 0.757 0.649 0.337 1.29-0.431 0.655-0.532 0.755-1.28 0.198-1.05-0.777-0.636-0.515-1.29 0.167-0.657 0.681-0.658 0.781-1.53 0.11zm-11.1-1.46c0.14-0.534 4.31-2.48 4.63-2.17 0.282 0.281-0.296 0.661-2.57 1.69-1.88 0.85-2.18 0.919-2.06 0.474zm-34.5-1.05c-0.0959-0.0954 0.899-0.71 2.21-1.37 2.78-1.39 4.78-2.88 4.78-3.56-0.0112-1.9-3.97-6.58-5.23-6.19-0.821 0.259-2.25-0.427-2.56-1.23-0.296-0.774-0.359-2.94-0.0864-2.94 0.512 0 4.22 2.75 5.4 4 1.48 1.58 2.76 3.99 2.76 5.23 0.0015 0.433 0.122 0.787 0.267 0.787 0.572 0 0.782-2.51 0.507-6.05-0.283-3.64-0.0969-5.88 0.39-4.69 0.129 0.315 0.51 2.59 0.848 5.06 0.715 5.23 0.951 6.2 1.75 7.21 0.481 0.608 0.833 0.749 1.88 0.749 1.62 0 2.74-0.569 3.52-1.78 0.479-0.745 0.32-0.622 0.705-0.508 0.208 0.28-0.296 1.03-0.522 1.43-0.629 1.1-0.528 1.23 0.749 1.03 1.7-0.271 2.8-0.924 3.48-2.06 0.251-0.424 0.203-0.759 0.366-0.771 0.612-0.0441 0.423 0.144 0.0509 1.03-0.419 0.998-0.414 1.01 0.397 1.35 1.06 0.437 1.35 0.235 2.18-1.54 0.0611-1.16 0.952-1.72 0.69-0.387 0.0027 0.895 0.129 1.13 0.741 1.36 1.09 0.413 2.13 0.34 2.33-0.163 0.191-0.496-1.49-10.4-1.97-11.7-0.313-0.805 0.0419-2.22 0.554-2.2 0.487 0.0162 1.21 2.17 1.06 3.15-0.086 0.548 0.18 2.93 0.591 5.28 0.751 4.31 0.747 5.45-0.0231 6.66-0.531 0.834-2.05 0.863-3.08 0.0592l-0.747-0.585-0.658 1.01c-0.757 1.16-0.556 1.78-2.79 0.475-0.723-0.422-0.728-0.51-1.58-0.0252-1.13 0.64-6.63 0.967-7.6 0.451-0.991-0.528-1.56-1.55-2.07-3.73l-0.476-2.02-0.212 1.13c-0.297 1.58-1.13 3.1-2.18 3.98-1.08 0.902-5.98 2.43-6.41 2zm41.2-1.46c-0.624-0.31-1.23-0.937-1.58-1.65-0.316-0.63-0.601-1.19-0.632-1.25-0.0312-0.0573-0.405 0.168-0.83 0.501-0.914 0.716-4.15 0.899-4.15 0.235 0-0.883 1.92-3.51 3.02-4.13 0.633-0.358 1.11-0.808 1.06-1-0.14-0.529 0.231-2.23 0.487-2.23 0.124 0 0.382 1.02 0.575 2.28 0.474 3.08 1.11 4.82 1.96 5.37 1.11 0.723 2.97 0.587 4.55-0.333l1.37-0.796 1.29 0.639c1.05 0.52 1.41 0.581 1.98 0.325 0.884-0.401 0.882-0.775-0.0316-6.77-0.55-3.61-0.648-4.89-0.408-5.33 0.173-0.323 0.359-0.543 0.412-0.49 0.0531 0.0528 0.447 2.42 0.876 5.25 0.849 5.61 1.2 6.8 2.15 7.3 0.58 0.309 0.609 0.283 0.397-0.335-0.351-1.02-0.172-2.44 0.467-3.68 0.998-1.95 3.19-2.55 5.07-1.4 1.45 0.89 1.25 1.5-0.264 0.812-1.38-0.625-4.52 0.818-4.52 2.08 0 0.319 0.456 1.03 1.01 1.59 0.873 0.869 1.14 0.983 1.94 0.825 0.511-0.1 1.56-0.572 2.33-1.05 0.772-0.476 1.45-0.816 1.51-0.757 0.357 0.356-1.43 2.17-2.86 2.89-2.87 1.46-6.15 1.25-6.68-0.428-0.182-0.57-0.244-0.545-1.05 0.426-0.997 1.2-1.23 1.24-2.93 0.418l-1.27-0.614-0.822 0.582c-0.67 0.474-2.65 1.21-3.27 1.22-0.079 5.72e-4 -0.597-0.224-1.15-0.499zm-2.64-4.32c0.204-1.43-0.123-1.58-1.66-0.749-2.11 1.14-2.13 1.61-0.0868 1.5 1.48-0.0768 1.66-0.155 1.74-0.751zm-6.95 0.888c-0.099-1.39-0.441-3.81-0.76-5.38-0.607-2.99-0.763-5.58-0.336-5.58 0.567 0 2.18 9.41 1.98 11.5-0.237 2.46-0.688 2.17-0.883-0.566zm-13.6-4.27c-0.427-0.18-0.485-2-0.0719-2.25 0.158-0.0973 0.586-0.305 0.288 0.396-0.123 0.29 0.167 1.03 0.311 1.12 0.496 0.305 1.37-0.348 1.23-1.24-0.0565-0.363-0.288-0.738 0.188-0.845 0.187-0.0421 0.288 0.14 0.288 0.556 0 0.746 0.556 1.11 1.26 0.666 0.244-0.154 0.293-0.698 0.108-1.05-0.383-0.727-0.0824-1.28 0.272-0.728 0.365 0.574 0.427 1.66 0.0081 2.24-0.202 0.275-1.7 0.425-1.7 0.425-0.304-0.143-0.643 0.584-1.24 0.724-0.224 0.0531-0.588 0.197-0.935-0.0045zm26.4-0.505c0-0.0633 0.414-0.376 0.921-0.696l0.921-0.58-0.798-0.362c-0.603-0.273-1-0.284-1.64-0.0451-0.957 0.36-1.09 0.107-0.317-0.591 0.621-0.559 1.79-0.608 3.12-0.13 1.28 0.46 1.2 0.919-0.292 1.79-1.13 0.662-1.92 0.912-1.92 0.613zm-51.7-0.546c0.294-0.188 1.13-0.783 1.85-1.32 0.83-0.62 1.48-0.841 1.46-0.958 0 0-0.548-0.289-0.771-0.436-1.14-0.757-0.441-2.92 0.95-2.92 0.52 0 0.724 0.2 0.868 0.852 0.103 0.469 0.108 1.1 0.0112 1.41-0.0595 0.186-0.116 0.477-0.122 0.551-0.0051 0.0722 0.176 0.157 0.244 0.188 1.61 0.728 1.67 1.28 1 1.32-0.282 0.0167-1.58-0.711-1.66-0.72-0.0801-0.0092-1.03 0.785-1.88 1.36-0.846 0.576-1.75 1.04-2.01 1.03-0.41-0.0146-0.402-0.0629 0.0597-0.358zm3.75-4.74c-0.162-0.162-0.725-0.0224-0.856 0.0434-0.354 0.178-0.546 0.727 0.107 1.22 0.38 0.287 0.773 0.409 0.773 0.409s0.0743-0.237 0.108-0.462c0.0371-0.249 0.0306-1.05-0.132-1.21zm18 1.75c0.0121-0.58 0.76-1.05 4.42-2.78 2.18-1.03 4.01-1.87 4.06-1.87 0.0505 0 0.0294 0.238-0.0469 0.528-0.128 0.487-1.27 1.09-6.93 3.65-0.831 0.376-1.51 0.588-1.51 0.472zm39.2-0.263c0.0978-0.506 5.6-4.01 5.87-3.74 0.321 0.32-0.284 0.991-1.54 1.71-0.749 0.428-2.05 1.18-2.9 1.67-1.3 0.754-1.52 0.809-1.43 0.367zm-48.6-3.22c0.406-0.609 6.26-3.32 6.55-3.03 0.498 0.495-1.06 1.33-6.68 3.56-0.162 0.0644-0.102-0.173 0.135-0.527zm41.9 0.0263c0.0791-0.301 1.51-1.31 3.35-2.36 3.91-2.24 3.64-2.12 3.47-1.47-0.112 0.427-6.26 4.36-6.82 4.36-0.0715 0-0.0677-0.237 8e-3 -0.526zm-18.3-0.619c5.76e-4 -0.735 0.445-1.65 1.3-1.32 0.874 0.339 0.562 0.374 1.49-0.981 1.01-1.48 2.17-1.47 2.31-0.261 0.192 1.64-2.18 3.07-3.84 2.32-0.563-0.255-0.741-0.223-0.976 0.179-0.228 0.389-0.287 0.402-0.287 0.0615zm4.14-1.53c0.37-0.27 0.429-0.546 0.196-0.69-0.456-0.281-1.39 0.147-1.59 0.657-0.207 0.538 0.669 0.559 1.39 0.0328z" stroke-width=".287"/>
 </g>
</svg>
