<?xml version="1.0" encoding="UTF-8"?>
<!-- Created with Inkscape (http://www.inkscape.org/) -->
<svg width="145" height="137" version="1.1" viewBox="0 0 145 137" xmlns="http://www.w3.org/2000/svg">
 <path d="m61.1 137c-2.44-0.512-5.28-2.12-6.87-3.88-1.68-1.87-3.47-5.4-3.98-7.88-0.442-2.14-0.451-8.54-0.0152-11.2 0.182-1.12 0.277-2.09 0.21-2.16-0.0665-0.0665-0.951 0.165-1.96 0.513-3.39 1.17-6.56 1.64-10.9 1.64-8.64-0.0112-14.1-2.03-18.6-6.86-7.64-8.19-8.61-26.2-2.29-42.4l1.33-3.4-1.01-0.828c-0.554-0.455-1.01-0.936-1-1.07 0.0016-0.132 0.759-0.24 1.68-0.24 1.67-3.2e-4 1.68-0.0062 2.54-1.54 1.29-2.3 5.26-7.49 8.54-11.1l2.9-3.25-1.99-1.74c-2.38-2.08-5.47-4.22-7.06-4.88-1.78-0.742-3.13-0.588-5.54 0.632-2.39 1.21-3 1.35-3 0.702 0-0.644 1.93-6.98 2.42-7.92 0.898-1.75 7.71-4.38 13.7-5.3 7.52-1.15 18.1 0.545 23.4 3.77 2.42 1.46 2.85 2.33 2.17 4.34-0.285 0.844-0.937 2.36-1.45 3.38l-0.929 1.84-5.27 2.63c-2.9 1.45-5.27 2.73-5.27 2.85 0 0.5 3.86 2.59 6.24 3.37 2.19 0.727 3.13 0.851 6.56 0.871 6.87 0.0402 9.22-1.09 16.5-7.9 4.62-4.34 5.87-5.03 5.5-3.04-0.622 3.4-0.61 4.34 0.0711 5.73 1.17 2.39 4.09 3.79 7.93 3.79 4.62 0 7.1-1.68 10.8-7.33 2.8-4.25 3.46-5.02 4.01-4.68 0.466 0.288 0.417 1.32-0.169 3.54-0.467 1.77-0.463 1.98 0.0531 2.95 0.717 1.35 3.02 2.87 4.74 3.13 1.54 0.23 3.76-0.267 4.35-0.974 0.392-0.472 0.286-0.722-1.08-2.54-0.323-0.43 1.55-6.76 2.1-7.1 0.91-0.562 2.5 3.28 2.49 6.01-0.0139 3.47-1.58 8.1-3.47 10.3-1.81 2.06-5.27 3.16-7.8 2.48-1.39-0.374-4.48-3.19-4.88-4.45-0.311-0.981-0.638-0.806-1.76 0.945-1.32 2.05-4.01 4.5-5.98 5.45-2.13 1.03-6.69 1.26-9.07 0.47-3-0.997-5.11-4.07-5.12-7.47-0.0066-1.57-0.411-2.17-1.2-1.78-0.335 0.165-1.81 1.64-3.27 3.29-3.14 3.53-5.1 5.14-7.79 6.42-3.74 1.77-7.92 2.05-12.7 0.849-2.92-0.736-8.07-3.35-10.7-5.45-3.54-2.8-3.3-2.76-5.81-0.769-4.7 3.73-10 9.08-10 10.1-2e-3 0.535 8.13 1.16 22.4 1.72 13.5 0.533 18.8 1.2 21.9 2.78 3.24 1.64 6.11 5.62 6.95 9.63 0.238 1.14 0.318 3.33 0.215 5.83-0.245 5.96-1.79 10.7-5.18 15.8-3.62 5.52-9.44 11-15.1 14.1-1.91 1.07-2.02 1.19-2.26 2.62-0.14 0.826-0.245 2.73-0.234 4.22 0.057 7.74 4.65 12.2 12.6 12.2 4.88 0 11-2.37 17.9-6.94 6.28-4.16 15.2-12.2 17.1-15.6 0.81-1.38 0.873-1.69 0.614-3.03-0.257-1.33-0.374-1.48-1.09-1.42-0.44 0.0398-2.39 0.168-4.33 0.284-9.04 0.542-13.2-2.19-12.5-8.27 0.433-3.82 1.97-6.87 4.76-9.44 2.49-2.29 5.1-2.91 7.53-1.78 1.84 0.854 5.16 4.46 6.93 7.54 0.88 1.53 1.76 2.79 1.96 2.79 0.651 0.0125 9.56-3.79 9.5-4.06-0.0356-0.142-0.36-1.08-0.72-2.09-2.05-5.74 0.465-15 5.57-20.5 0.996-1.07 1.13-1.42 1.13-2.9 0-1.96 0.569-5.35 0.968-5.77 0.327-0.338 10.3 4.44 11.1 5.31 0.753 0.832 0.22 1.22-1.75 1.26-0.909 0.0205-1.58 0.153-1.49 0.294 0.462 0.748 5.34 4.34 8.41 6.19 6.27 3.78 8.17 6.68 8.17 12.5 1.2e-4 3.53-0.595 6.11-1.93 8.39-1.85 3.15-3.79 3.79-10.7 3.52-3.58-0.138-5.36-0.377-8.11-1.09l-3.52-0.908-4.64 2.27c-2.55 1.25-6.25 2.97-8.22 3.83l-3.58 1.56-0.216 1.61c-0.333 2.48-1.67 6.47-3.1 9.23-3.37 6.51-16.5 18.4-25.1 22.7-4.62 2.33-10.6 3.49-14.2 2.74zm-14.2-32.6c1.25-0.346 3.18-0.973 4.28-1.39 1.75-0.665 2.09-0.938 2.67-2.12 0.779-1.59 1.34-1.79 1.06-0.372l-0.198 0.988 2.16-1.18c6.64-3.64 13.4-10.3 15.2-14.9 1.87-4.93-0.636-10.5-6.03-13.4-3.53-1.88-7.04-2.41-19.6-2.94-4.14-0.174-8.73-0.546-10.2-0.826-3.48-0.661-8.62-2.35-12.1-3.99-2.1-0.984-2.82-1.2-3.02-0.889-0.852 1.35-3.7 8.97-4.52 12.1-0.871 3.31-0.969 4.18-0.984 8.64-0.0125 3.81 0.116 5.44 0.554 7.04 2.18 7.94 7.35 12.1 17.2 13.9 0.44 0.0789 3.18 0.0979 6.08 0.0421 4.02-0.0772 5.82-0.251 7.56-0.731zm-10.3-7.88c-1.42-0.613-1.84-1.3-1.81-2.94 0.0296-1.47 1.23-4.58 2.18-5.62 0.452-0.499 0.409-0.589-0.509-1.06-1.46-0.755-1.76-1.82-1-3.54 0.752-1.7 3.29-4.31 4.19-4.31 1.03 0 1.48 1.33 0.798 2.36-0.564 0.861-1.12 1.11-1.12 0.497 0-0.651-1.38-0.134-2.05 0.769l-0.672 0.906 0.755 0.614c1.26 1.03 2.55 0.797 4.11-0.727 0.751-0.737 1.45-1.25 1.56-1.14 0.108 0.108 0.0931 0.671-0.0342 1.25-0.165 0.753-1 1.78-2.93 3.61-2.9 2.74-4.37 4.84-4.2 6.01 0.226 1.59 3.86 1.86 8.36 0.612 1.18-0.327 2.14-0.487 2.14-0.356 0 0.448-2.31 2-3.8 2.56-2.11 0.785-4.79 1.02-5.96 0.511zm58.6-2.86c0.289-0.289-2.01-2.68-3.15-3.28-1.01-0.528-3.54-0.6-4.43-0.126-0.336 0.18-0.769 0.622-0.962 0.981-0.479 0.895 0.33 2.09 1.7 2.51 1.14 0.348 6.48 0.282 6.85-0.0846zm46.6-7.48c0.69-0.691 0.692-0.719 0.136-2.17-0.638-1.67-2.12-2.92-6.58-5.54-1.5-0.88-3.29-2.06-3.99-2.61l-1.27-1.01-0.541 3.07c-0.298 1.69-0.906 4.15-1.35 5.48-0.599 1.78-0.709 2.45-0.418 2.56 1.68 0.645 5.39 1.05 9.09 0.998 3.88-0.0567 4.29-0.12 4.93-0.762zm-17.9-3.52c1.8-1.68 2.53-3.09 2.53-4.88 0-2.58-2.15-7-3.98-8.2-1.2-0.786-2.37-0.247-4.84 2.23-5.63 5.65-5.12 10 1.41 12.2 2.42 0.815 2.58 0.769 4.89-1.39zm-81-46.9 1.43-0.814-1.23-0.513c-1.89-0.788-6.1-1.24-9-0.964l-2.56 0.243 1.11 0.844c0.611 0.464 1.98 1.58 3.04 2.49l1.93 1.65 1.92-1.06c1.06-0.581 2.56-1.42 3.35-1.87zm54.9 100c-1.54-1.54-1.37-5.15 0.413-8.86 0.971-2.02 4.11-6.2 4.43-5.89 0.0919 0.0918-0.49 1.29-1.29 2.66-2.6 4.45-3.38 7.05-2.39 8.03 0.6 0.6 2 0.452 2.98-0.314l0.888-0.698-0.155 1.87c-0.133 1.6-0.303 2-1.17 2.78-1.15 1.03-2.88 1.22-3.69 0.412zm-61.1-5.65c0.258-3.45 1.04-6.83 2.23-9.68 0.63-1.51 1.3-2.83 1.49-2.95 0.224-0.138 0.26-2.5e-4 0.105 0.401-0.13 0.337-0.659 2.11-1.17 3.95-1.14 4.05-1.24 6.76-0.298 7.7 0.896 0.896 1.21 0.817 2.61-0.653 1.35-1.42 1.65-1.02 0.509 0.669-0.906 1.34-2.22 2.1-4.13 2.36l-1.49 0.21zm80.6-7.38c-0.0585-0.22-0.271-1.09-0.472-1.93-0.201-0.842-0.787-2.46-1.3-3.6-0.891-1.97-0.982-2.06-1.87-1.88-0.699 0.14-1.15-6e-3 -1.83-0.589-1.02-0.879-0.977-1.77 0.162-3.22 0.576-0.733 0.77-0.797 1.53-0.51 0.476 0.181 1.14 0.571 1.47 0.867 0.811 0.72 2.34 3.98 2.6 5.55 0.118 0.697 0.276 1.21 0.352 1.13 0.0758-0.0758 0.493-1.6 0.926-3.39 0.902-3.72 1.45-4.94 2.54-5.65 0.958-0.627 1.87-0.231 2.56 1.12 0.372 0.72 0.401 1.14 0.132 1.91-0.418 1.2-0.687 1.23-1.37 0.189-1.24-1.89-2.17-0.607-3.25 4.46-1 4.73-1.84 6.85-2.19 5.54zm-23.8-49.5c-0.199-0.862-0.822-2.6-1.38-3.85-0.97-2.17-1.07-2.28-1.91-2.09-0.69 0.152-1.11-0.0125-1.94-0.75l-1.06-0.944 0.63-1.18c0.346-0.648 0.809-1.33 1.03-1.51 0.595-0.499 2.21 0.276 3.15 1.52 0.83 1.09 2.05 4.18 2.05 5.21 0 1.66 0.52 0.697 1.15-2.13 1.29-5.74 2.9-7.63 4.78-5.6 0.844 0.91 0.997 2 0.432 3.06-0.349 0.652-0.363 0.65-1.13-0.181-1.6-1.72-2.2-0.912-3.41 4.6-1.29 5.87-1.76 6.62-2.39 3.87zm-93.2-12.7c0.172-0.451 0.312-1.66 0.312-2.68 0-2.59 1.29-7.42 2.87-10.7 0.733-1.54 1.38-2.74 1.45-2.68 0.062 0.062-0.385 1.75-0.993 3.76-1.56 5.13-1.95 7.63-1.45 9.27 0.663 2.21 2.57 2.21 4.04-0.0057 0.473-0.715 0.929-1.23 1.01-1.14 0.225 0.225-0.774 2.5-1.41 3.22-0.863 0.971-2.97 1.79-4.62 1.8-1.49 0.0069-1.51-4e-3 -1.2-0.814zm116-7.63c0.258-0.248 2.48-1.63 4.95-3.07 5.12-3 8.1-4.95 9.88-6.48l1.24-1.06-1.33-0.881c-1.61-1.07-2.1-2.02-1.81-3.57 0.264-1.41 2.16-3.61 3.65-4.23 0.938-0.392 1.17-0.386 1.84 0.0563 0.684 0.448 0.766 0.727 0.738 2.5-0.0175 1.1-0.142 2.35-0.277 2.79-0.201 0.655-0.0706 0.95 0.719 1.63 1.03 0.889 1.06 1.71 0.11 3.01-0.465 0.636-0.473 0.636-1.44-0.0778l-0.97-0.717-1.64 1.73c-1.72 1.81-5.22 4.38-7.66 5.62-1.33 0.673-7.87 3.2-8.28 3.2-0.101 0 0.0275-0.203 0.285-0.452zm17.5-14.9c0.0515-0.427-0.12-1.06-0.382-1.42-0.44-0.591-0.542-0.603-1.35-0.16-1.26 0.692-1.27 1.17-0.0672 1.91 1.27 0.775 1.67 0.701 1.8-0.334zm-45.3-11.5c-1.8-1.24-3.28-2.46-3.28-2.72 0-0.659 2.83-6.22 3.16-6.22 0.371 0 5.13 3.1 6.04 3.93 0.395 0.363 0.766 0.6 0.824 0.526 0.058-0.074 0.632-1.26 1.28-2.64l1.17-2.5 1.2 0.682c0.663 0.375 2.33 1.47 3.7 2.44 2.11 1.49 2.47 1.87 2.3 2.46-0.3 1.07-2.49 5.34-2.93 5.71-0.28 0.233-1.23-0.256-3.37-1.73-1.64-1.13-3.15-2.16-3.36-2.28-0.252-0.145-0.729 0.471-1.38 1.78-1.03 2.07-1.53 2.83-1.88 2.81-0.11-0.00442-1.68-1.02-3.48-2.26zm23.3-6.93c2.26-2.6 4.18-5.4 4.38-6.39 0.344-1.72-1.43-2.61-3-1.51-0.68 0.477-0.711 0.462-0.711-0.336 0-1.9 1.61-3.73 3.32-3.78 1.7-0.0482 2.44 0.793 2.44 2.78-3.2e-4 2.9-2.21 6.65-5.54 9.39-2.17 1.79-2.52 1.72-0.883-0.16zm-19.7-3.15c-1.06-0.798-2.53-1.84-3.28-2.31-0.748-0.473-1.36-1.04-1.36-1.27-6.4e-4 -0.437 2.42-5.41 2.96-6.07 0.253-0.314 0.574-0.249 1.48 0.302 2.54 1.54 5.8 4.13 5.8 4.61 0 0.785-2.9 6.21-3.31 6.2-0.202-0.00469-1.23-0.662-2.29-1.46z" stroke-width=".32"/>
 <path d="m35.8 18.3c-0.255-1.84-0.389-3.71-0.296-4.15 0.2-0.946 1.23-1.86 2.1-1.86 0.349 0 0.551-0.116 0.462-0.266-0.218-0.367-1.24-0.334-1.62 0.0531-0.47 0.487-0.398-0.331 0.0912-1.05 0.546-0.808 1.42-0.74 2.26 0.178 0.952 1.03 0.848 1.99-0.23 2.09-0.422 0.0375-1.2 0.192-1.73 0.343-0.856 0.245-0.96 0.366-0.952 1.13 0.0024 0.469 0.167 1.81 0.366 2.98 0.2 1.17 0.282 2.52 0.183 3.02-0.144 0.724-0.267 0.25-0.642-2.46zm31.8-0.739c-0.204-0.212-0.217-0.459-0.0405-0.8 0.207-0.402 0.454-0.575 0.777-0.203 0.689 0.79 0.664 0.339 0.952-0.11 0.263-0.412 0.504-0.34 0.88-0.0549 0.27 0.206 0.388 0.518 0.293 0.777-0.19 0.515-0.646 0.556-1.1 0.1-0.487-0.496-0.374-0.24-0.576 0.133-0.291 0.536-0.764 0.599-1.19 0.159zm-6.97-1c0-0.237 2.82-1.7 2.97-1.54 0.186 0.193-0.378 0.642-1.5 1.2-1.38 0.674-1.46 0.695-1.46 0.351zm-22.6-0.669c0-0.0651 0.793-0.551 1.76-1.08 0.968-0.529 2.02-1.24 2.34-1.59 0.496-0.548 0.535-0.739 0.294-1.45-0.153-0.454-0.514-1.14-0.8-1.52-0.657-0.863-2.06-1.96-2.32-1.8-0.104 0.0664-0.536-0.00498-0.96-0.159-0.661-0.239-0.788-0.438-0.888-1.39-0.0617-0.612-0.0783-1.15-0.0369-1.21 0.0414-0.0543 0.57 0.205 1.18 0.576 1.67 1.03 3.23 2.85 3.9 4.56 0.522 1.34 0.626 1.46 0.785 0.938 0.101-0.329 0.102-1.94 0.0034-3.59-0.124-2.06-0.0928-3.05 0.0992-3.16 0.154-0.0988 0.279-0.0567 0.279 0.093 0 0.149 0.178 1.62 0.394 3.27 0.622 4.72 0.992 5.52 2.58 5.52 0.658 0 1.4-0.0204 1.68-0.808 0.131-0.372 0.246-1.04 0.421-0.988 0.392 0.0996 0.546 0.339 0.154 1.12-0.209 0.417-0.331 0.808-0.272 0.871 0.305 0.316 2.25-0.56 2.82-1.28 0.162-0.2 0.0142-0.626 0.157-0.633 0.478-0.0252 0.578 0.0144 0.219 0.71-0.217 0.42-0.202 0.6 0.064 0.775 0.693 0.456 1.15 0.212 1.69-0.896 0.119-0.248-0.0286-0.657 0.122-0.671 0.5-0.0464 0.408-0.237 0.377 0.32-0.0354 0.624 0.0824 0.813 0.596 0.954 0.352 0.0971 0.824 0.0803 1.05-0.0368 0.374-0.193 0.357-0.537-0.187-3.74-0.33-1.94-0.717-3.81-0.864-4.14-0.237-0.554 0.017-1.64 0.383-1.64 0.322 0 0.816 1.57 0.713 2.27-0.0646 0.442 0.0646 1.8 0.287 3.02 0.558 3.05 0.529 4.42-0.11 5.08-0.48 0.498-0.576 0.507-1.42 0.139-0.88-0.382-0.928-0.372-1.49 0.296-0.565 0.681-0.586 0.685-1.41 0.243-0.668-0.359-0.912-0.383-1.22-0.123-0.232 0.2-1.28 0.334-2.7 0.349-2.21 0.0221-2.35-0.0107-2.82-0.657-0.27-0.374-0.648-1.27-0.84-1.99-0.207-0.784-0.356-1.06-0.37-0.683-0.0348 0.954-1 2.55-1.86 3.08-1 0.614-3.79 1.41-3.79 1.09zm26.7-0.996c-0.31-0.155-0.751-0.694-0.984-1.2-0.377-0.824-0.462-0.88-0.848-0.528-0.976 0.888-2.6 0.855-2.6-0.0505 0-0.592 1.71-2.69 2.19-2.69 0.246 0 0.364-0.303 0.364-0.93 0-1.59 0.398-1.02 0.736 1.07 0.402 2.48 1.03 3.37 2.4 3.37 0.519 0 1.32-0.242 1.78-0.537 0.745-0.477 0.912-0.496 1.48-0.168 0.352 0.203 0.824 0.373 1.06 0.378 0.88 0.02 0.944-0.568 0.433-4.2-0.434-3.08-0.466-4.64-0.0872-4.25 0.0604 0.0627 0.346 1.72 0.635 3.67 0.478 3.24 0.968 4.79 1.5 4.79 0.11 0 0.149-0.44 0.0888-0.979-0.191-1.7 1.02-3.27 2.51-3.27 0.267 0 0.808 0.31 1.2 0.687 0.545 0.521 0.594 0.639 0.206 0.487-1.19-0.466-3.46 0.263-3.46 1.11 0 0.227 0.341 0.765 0.757 1.2 0.747 0.775 0.768 0.78 1.71 0.373 0.523-0.227 1.1-0.547 1.3-0.71 0.192-0.164 0.403-0.238 0.474-0.165 0.255 0.265-0.17 0.888-0.976 1.43-1.94 1.3-4.14 1.45-4.89 0.344-0.354-0.525-0.373-0.526-0.711-0.0395-0.566 0.816-0.904 0.896-1.82 0.444-0.824-0.408-0.928-0.402-1.93 0.129-1.16 0.615-1.69 0.666-2.54 0.242zm-1.62-3.14c0-0.946-0.0679-0.963-1.18-0.244-1.14 0.729-1.09 1.04 0.162 1.04 0.968 0 1.02-0.0442 1.02-0.797zm-4.72-0.702c-0.603-4.07-0.768-6.15-0.462-5.8 0.542 0.607 1.49 7.42 1.16 8.3-0.178 0.491-0.328-0.0523-0.694-2.52zm-8.56-1.36c-0.168-0.0582-0.306-0.417-0.306-0.798 0-0.646 0.222-0.754 0.345-0.203 0.266 1.2 0.976 0.654 0.944-0.471 0.0075-0.54 0.318-0.658 0.348-0.117 0.08 1.41 1.02 0.598 0.848-0.0661-0.0736-0.292-0.0294-0.598 0.0984-0.68 0.127-0.0818 0.232 0.21 0.232 0.648 0 0.438-0.144 0.896-0.32 1.01-0.175 0.116-0.394 0.263-0.721 0.0946-0.065-0.0334-0.129 0.0699-0.176 0.142-0.419 0.641-1.3 0.505-1.3 0.44zm17.1-0.209c0-0.0913 0.254-0.378 0.562-0.639l0.562-0.473-0.553-0.182c-0.304-0.1-0.788-0.0518-1.07 0.108-0.572 0.318-0.701 0.0323-0.214-0.473 0.396-0.411 1.45-0.393 2.2 0.0379 0.56 0.322 0.566 0.357 0.128 0.754-0.588 0.533-1.61 1.09-1.61 0.871zm-33.4-0.571c0.29-0.262 0.808-0.672 1.15-0.913 0.375-0.26 0.693-0.568 0.693-0.568-0.0311-0.111-0.324-0.255-0.55-0.422-0.259-0.192-0.456-0.596-0.0581-1.23 0.45-0.713 1.13-0.888 1.3-0.339 0.0542 0.183 0.169 0.847 0.254 1.48 0.0162 0.12-0.315 0.375-0.246 0.439 0.763 0.705 0.532 1.2-0.0952 0.546-0.0864-0.0905-0.242-0.253-0.242-0.253s-0.35 0.298-0.422 0.37c-0.167 0.167-0.649 0.523-1.24 0.82-0.92 0.465-1 0.473-0.545 0.0626zm2.42-2.46c-0.0936-0.896-0.392-0.783-0.734-0.509-0.134 0.106-0.231 0.375-0.15 0.511 0.13 0.219 0.649 0.598 0.649 0.598 0.108 0.0142 0.246-0.498 0.236-0.6zm11.6 0.24c0.147-0.457 5.33-2.92 5.33-2.54 0 0.189-1.14 0.896-2.53 1.58-2.68 1.31-2.94 1.39-2.8 0.963zm25.3 0.0218c0-0.229 3.34-2.4 3.7-2.4 0.546 0-0.106 0.627-1.62 1.56-1.89 1.16-2.06 1.24-2.06 0.838zm-31.4-2.18c0.0944-0.295 4.02-2.18 4.19-2.01 0.241 0.25-0.498 0.76-2.16 1.49-2.13 0.938-2.17 0.946-2.02 0.516zm27.1 0.0204c0.159-0.495 4.3-2.9 4.3-2.51 0 0.199-0.92 0.913-2.04 1.58-2.15 1.29-2.42 1.39-2.26 0.93zm-11.8-0.72c0.176-0.354 0.487-0.577 0.735-0.526 0.114 0.0231 0.442 0.293 0.571 0.124 0 0 0.287-0.563 0.458-0.773 0.617-0.758 1.17-0.938 1.45-0.467 0.549 0.921-1.25 2.41-2.31 1.9-0.407-0.193-0.665-0.181-0.888 0.0405-0.254 0.248-0.257 0.187-0.0142-0.302zm2.42-0.477c0.222-0.0888 0.405-0.268 0.405-0.398 0-0.38-0.676-0.274-1.02 0.161-0.338 0.422-0.0872 0.519 0.619 0.237zm-21.9-4.08c-0.454-1.71 0.185 0.695-0.0067-0.0108z" stroke-width=".261"/>
</svg>
