<?xml version="1.0" encoding="UTF-8"?>
<!-- Created with Inkscape (http://www.inkscape.org/) -->
<svg width="125" height="130" version="1.1" viewBox="0 0 125 130" xmlns="http://www.w3.org/2000/svg">
 <path d="m64.1 130c-1.42-1.04-0.462-5.54 1.73-8.19 0.496-0.598 0.379-0.136-0.469 1.85-1.19 2.79-1.26 3.48-0.384 4.03 0.415 0.261 0.695 0.201 1.2-0.255 0.653-0.591 0.659-0.586 0.654 0.493-0.0057 1.27-0.217 1.66-1.17 2.16-0.868 0.457-0.813 0.46-1.56-0.0869zm-19.1-1.36c-1.09-1.31-0.15-5.29 1.8-7.63 0.78-0.938 0.777-0.913-0.143 1.12-1.31 2.9-1.45 3.64-0.803 4.29 0.483 0.483 0.614 0.49 1.27 0.0627 0.891-0.584 1.17-0.357 0.912 0.738-0.424 1.79-2.08 2.57-3.03 1.42zm43.5-5.92c-0.858-1.6 0.199-5.49 2.12-7.79 0.715-0.858 0.68-0.698-0.327 1.5-0.62 1.35-1.13 2.83-1.13 3.29 0 0.977 0.788 1.39 1.64 0.861 0.847-0.529 0.922-0.482 0.922 0.59 0 1.89-2.42 3.06-3.22 1.55zm-64.5-3.33c-1.41-0.971-2.68-1.89-2.82-2.03s0.327-1.45 1.05-2.9c0.949-1.89 1.45-2.58 1.79-2.45 0.697 0.267 4.23 2.7 4.46 3.07 0.431 0.697 1.05 0.249 1.77-1.29 0.415-0.886 0.927-1.75 1.14-1.93 0.428-0.355 5.12 2.62 5.72 3.63 0.269 0.451 0.0774 1.07-0.919 2.96-0.692 1.31-1.36 2.39-1.49 2.39-0.13 0-1.41-0.807-2.84-1.79-1.43-0.987-2.66-1.74-2.74-1.66-0.0718 0.0718-0.546 0.908-1.05 1.86s-1.05 1.77-1.21 1.82c-0.158 0.049-1.44-0.705-2.84-1.68zm31.7-4.54c-0.309-1.02-0.877-2.49-1.26-3.29-0.592-1.22-0.828-1.43-1.53-1.34-0.465 0.0539-1.16-0.176-1.59-0.527-0.761-0.616-0.764-0.636-0.215-1.79 0.7-1.47 1.34-1.72 2.4-0.927 1.34 0.998 2.03 2.13 2.62 4.3l0.556 2.03 0.555-2.55c0.732-3.37 1.62-5.22 2.62-5.47 1.09-0.274 2.04 0.651 2.04 1.99 0 1.31-0.543 1.69-1.16 0.804-1.15-1.65-1.89-0.508-2.96 4.59-0.881 4.17-1.32 4.63-2.07 2.18zm16.7-8.13c-1.54-1.06-2.79-2.13-2.79-2.39 0-0.792 2.22-4.93 2.65-4.93 0.45 0 3.53 1.98 4.63 2.98 0.395 0.358 0.774 0.59 0.842 0.516 0.0678-0.074 0.577-1.04 1.13-2.15 0.67-1.34 1.14-1.94 1.4-1.78 1.92 1.13 5.1 3.45 5.25 3.84 0.225 0.585-0.465 2.39-1.6 4.18l-0.849 1.34-5.57-3.8-1.05 1.96c-0.576 1.08-1.09 2-1.15 2.06-0.0552 0.0552-1.36-0.764-2.89-1.82zm41.9 0.485c-0.114-0.185-0.0553-1.76 0.131-3.51 0.429-4.03 0.27-7.63-1.48-33.6-0.784-11.6-1.51-23.1-1.61-25.4-0.103-2.38-0.415-5.35-0.692-6.61-0.502-2.28-0.5-2.31 0.354-4.65 1.16-3.19 1.35-3.46 1.93-2.71 0.455 0.595 5.05 12.8 5.42 14.4 0.33 1.42-0.409 1.39-1.91-0.0897-0.776-0.761-1.41-1.27-1.41-1.13 0 0.139 0.643 9.21 1.43 20.1 0.785 10.9 1.52 21.8 1.64 24.2 0.229 4.75-0.166 9.13-1.18 13.1-0.715 2.8-2.31 6.4-2.61 5.91zm-14.5-1.01c0.119-0.484 0.648-1.33 1.18-1.88l0.958-0.996-1.14-0.673c-0.921-0.544-1.14-0.865-1.14-1.68 0-1.48 0.827-2.97 2.56-4.59 2.44-2.29 4.22-2.35 4.41-0.158 0.0518 0.598-0.104 1.36-0.347 1.69-0.411 0.562-0.493 0.568-1.23 0.0873-0.726-0.475-0.871-0.473-1.89 0.0377-1.45 0.725-1.58 1.5-0.344 2.13 1.44 0.744 2.45 0.613 4.29-0.561 2.82-1.8 3.08-1.79 2.44 0.0395-0.268 0.768-1.4 1.73-4.96 4.21-2.54 1.77-4.7 3.21-4.81 3.21-0.106 0-0.0949-0.396 0.0244-0.88zm-88.3-2.24c-2.38-0.855-3.45-1.76-4.57-3.86-2.01-3.77-2.36-7.12-3.1-29.7-0.718-21.8-1.04-25.5-2.92-33.1-0.921-3.72-0.884-4.94 0.227-7.61 0.879-2.11 1.24-1.89 2.35 1.47 2.25 6.82 3.02 15 3.71 39.4 0.191 6.78 0.471 14.2 0.623 16.5 0.551 8.32 2.62 10.8 8.56 10.3 4.73-0.426 7.03-1.67 12-6.48 2.25-2.2 3.63-3.31 4.11-3.31 0.681 0 0.704 0.0852 0.493 1.77-0.261 2.09 0.363 4.09 1.65 5.3 1.71 1.6 7.37 0.69 9.45-1.52 0.739-0.787 0.745-0.86 0.675-7.73-0.125-12.2-1.04-38.5-1.7-48.9-0.36-5.69-1.38-14.6-2.03-17.7-0.37-1.79-0.351-2.43 0.155-5.25 0.544-3.03 0.971-4.16 1.34-3.54 0.317 0.529 1.49 5.12 1.98 7.76 1.21 6.5 1.83 13.9 2.58 30.4 0.955 21.1 1.76 25.2 5.64 28.6 4.11 3.59 7.28 4.41 17.2 4.45 7.03 0.0268 9.98-0.316 16.1-1.88 6.68-1.69 15.5-5.04 15.5-5.88 0-0.658-1.26-2.83-2.9-5-0.899-1.19-1.75-2.47-1.9-2.85-0.329-0.866 0.744-5.53 1.43-6.21 0.444-0.444 0.602-0.383 1.59 0.618 0.605 0.611 1.62 1.98 2.25 3.03 3.21 5.36 3.2 11.5-0.035 15.7-1.64 2.15-11 6.07-19.3 8.13-6.96 1.71-15.3 2.01-22.2 0.815-4.36-0.761-8.85-3.34-11.4-6.54l-1.23-1.56-0.206 5.17c-0.319 8.01-1.31 11.7-3.91 14.6-1.67 1.85-3.61 2.91-5.7 3.13-4.4 0.454-6.72-1.45-7.41-6.08-0.127-0.844-0.397-1.51-0.614-1.51-0.214 0-1.36 1.12-2.55 2.48-2.65 3.03-5.53 5.3-7.87 6.19-2.48 0.943-6.11 1.11-8.17 0.372zm9.11-26.9c-1.7-0.848-2.22-2.23-2.22-5.9-4.45e-4 -2.78-0.068-3.14-0.64-3.45-0.407-0.218-0.64-0.67-0.64-1.24 0-1.18 1.29-3.08 2.09-3.08 0.579 0 0.64 0.296 0.793 3.84 0.175 4.06 0.675 5.69 1.87 6.07 1.32 0.418 3.66-1.32 3.99-2.95 0.0959-0.48-0.129-2.21-0.5-3.84-0.646-2.85-0.651-3.02-0.121-4.13 0.319-0.67 0.67-1.04 0.831-0.872 0.437 0.451 1.3 4.11 1.61 6.86 0.157 1.38 0.469 2.8 0.693 3.15 0.845 1.35 3.54 1.68 4 0.483 0.103-0.269-0.339-1.61-0.983-2.99-1.47-3.13-1.75-5.2-0.904-6.73 0.855-1.55 1.23-1.54 1.48 0.0421 0.12 0.75 0.787 2.63 1.48 4.17 1.4 3.11 1.57 4.67 0.781 6.99-0.788 2.31-1.78 3.32-3.27 3.32-1.62 0-2.75-0.755-3.5-2.33l-0.593-1.25-0.8 1.46c-1.27 2.31-3.56 3.31-5.46 2.36zm101-7.27c-0.701-1.68 0.0118-4.36 1.86-6.98 1.03-1.46 0.998-0.753-0.057 1.34-1.09 2.16-1.27 3.79-0.459 4.1 0.287 0.11 0.789 0.0337 1.12-0.17 0.826-0.516 0.922-0.475 0.922 0.386 0 1.09-1.17 2.44-2.12 2.44-0.603 0-0.905-0.267-1.26-1.12zm-38.3 0.457c-1.38-0.807-0.852-4.56 1.05-7.44 0.557-0.84 1.07-1.47 1.14-1.4 0.0712 0.0712-0.379 1.19-0.999 2.48-1.22 2.54-1.34 3.15-0.745 3.75 0.522 0.522 1.07 0.482 1.67-0.119 0.457-0.457 0.503-0.399 0.503 0.64 0 0.716-0.239 1.38-0.64 1.78-0.708 0.708-1.17 0.778-1.99 0.302zm-26-3.55c-0.844-1.2-0.65-3.96 0.518-7.36 1.75-5.09 1.36-8.04-1.51-11.4-1.01-1.18-1.08-1.39-0.747-2.14 0.502-1.1 1.04-1.04 2.01 0.233 1.68 2.21 2.25 4 2.24 7.1-0.0093 2.41-0.178 3.35-1.03 5.73-1.12 3.14-1.29 4.99-0.516 5.77 0.655 0.655 0.666 0.652 1.64-0.377l0.832-0.88-0.211 1.12c-0.449 2.39-2.22 3.6-3.21 2.19zm-44-10.9c0.344-0.906 0.77-1.79 0.946-1.97 0.474-0.474 23.2-8.13 23.3-7.86 0.0543 0.129-0.184 0.786-0.53 1.46-0.601 1.17-0.825 1.29-5.06 2.79-4.42 1.56-14.5 5.29-17.6 6.55l-1.68 0.665zm56.3 1.19c0.258-0.257 2.2-1.45 4.32-2.64 5.14-2.9 5.13-2.89 4.89-3.14-0.486-0.486-2.89-0.781-6.42-0.788-2.07-0.0042-3.76-0.0818-3.76-0.172 0-0.688 2.17-3.79 2.93-4.18 1.35-0.699 4.5-0.901 7.76-0.499 3.48 0.428 4.47 0.961 4.02 2.15-0.842 2.22-4.27 6.25-6.09 7.18-0.986 0.503-7.35 2.55-7.93 2.55-0.103 0 0.0239-0.21 0.282-0.468zm26.2-7.9c-0.856-1.6 0.205-5.53 2.1-7.79 0.721-0.859 0.688-0.708-0.316 1.43-0.617 1.32-1.12 2.8-1.12 3.29 0 1.06 0.764 1.48 1.67 0.907 0.837-0.523 1.01-0.283 0.751 1.07-0.327 1.74-2.36 2.46-3.09 1.09zm-42.3-14.5c-0.319-2.22-0.486-4.47-0.37-5 0.25-1.14 1.54-2.24 2.62-2.24 0.436 0 0.689-0.14 0.578-0.32-0.273-0.442-1.55-0.402-2.02 0.064-0.587 0.587-0.498-0.399 0.114-1.27 0.682-0.974 1.77-0.892 2.83 0.214 1.19 1.24 1.06 2.4-0.287 2.52-0.528 0.0452-1.5 0.231-2.16 0.413-1.07 0.295-1.2 0.441-1.19 1.36 0.0032 0.565 0.209 2.18 0.457 3.59 0.25 1.41 0.352 3.04 0.229 3.64-0.18 0.872-0.334 0.301-0.803-2.96zm-32.1 2.76c-0.283-1.32-1.4-4.31-1.9-5.08-0.303-0.466-0.676-0.635-1.19-0.537-0.509 0.0973-0.989-0.12-1.53-0.692l-0.784-0.834 0.597-1.11c1.3-2.41 3.8-0.534 4.96 3.73l0.525 1.92 0.578-2.5c0.729-3.16 1.55-5.07 2.37-5.51 1.37-0.731 2.94 1.66 2.04 3.09-0.198 0.311-0.397 0.255-0.845-0.24-1.28-1.42-2.02-0.429-2.88 3.83-0.537 2.66-1.24 4.8-1.58 4.8-0.0936 0-0.255-0.396-0.358-0.88zm71.9-3.65c-0.255-0.255-0.271-0.553-0.0506-0.964 0.259-0.484 0.567-0.693 0.972-0.245 0.861 0.952 0.83 0.408 1.19-0.132 0.329-0.497 0.63-0.41 1.1-0.0662 0.338 0.248 0.485 0.624 0.366 0.936-0.238 0.621-0.808 0.67-1.37 0.121-0.609-0.598-0.467-0.289-0.72 0.16-0.364 0.646-0.955 0.722-1.49 0.191zm-8.72-1.21c0-0.286 3.52-2.05 3.71-1.86 0.233 0.233-0.473 0.773-1.88 1.44-1.72 0.812-1.83 0.837-1.83 0.423zm-28.2-0.806c0-0.0784 0.992-0.664 2.2-1.3 1.21-0.637 2.52-1.5 2.92-1.92 0.62-0.66 0.669-0.891 0.368-1.75-0.191-0.547-0.642-1.37-1-1.83-0.821-1.04-2.58-2.36-2.9-2.17-0.13 0.08-0.67-0.0059-1.2-0.191-0.827-0.288-0.985-0.528-1.11-1.68-0.0771-0.737-0.0979-1.39-0.0461-1.46 0.0518-0.0654 0.713 0.247 1.47 0.694 2.09 1.24 4.04 3.43 4.87 5.49 0.653 1.61 0.783 1.76 0.982 1.13 0.126-0.397 0.128-2.34 0.0043-4.32-0.155-2.48-0.116-3.67 0.124-3.81 0.192-0.119 0.349-0.0683 0.349 0.112 0 0.18 0.222 1.95 0.493 3.94 0.778 5.69 1.24 6.65 3.23 6.65 0.823 0 1.75-0.0246 2.1-0.974 0.164-0.448 0.308-1.25 0.526-1.19 0.49 0.12 0.682 0.409 0.193 1.35-0.261 0.502-0.414 0.973-0.34 1.05 0.381 0.381 2.81-0.675 3.53-1.54 0.202-0.241 0.0177-0.754 0.196-0.763 0.598-0.0304 0.723 0.0174 0.274 0.856-0.271 0.506-0.252 0.723 0.08 0.934 0.867 0.549 1.44 0.256 2.11-1.08 0.149-0.299-0.0358-0.792 0.152-0.808 0.625-0.0559 0.51-0.285 0.471 0.386-0.0442 0.752 0.103 0.979 0.745 1.15 0.44 0.117 1.03 0.0968 1.31-0.0444 0.467-0.233 0.446-0.647-0.234-4.51-0.412-2.34-0.896-4.59-1.08-4.99-0.296-0.668 0.0213-1.98 0.479-1.98 0.402 0 1.02 1.89 0.892 2.73-0.0808 0.533 0.0808 2.17 0.359 3.64 0.698 3.68 0.661 5.32-0.137 6.12-0.6 0.6-0.72 0.611-1.78 0.167-1.1-0.46-1.16-0.448-1.86 0.357-0.706 0.82-0.732 0.825-1.76 0.293-0.835-0.432-1.14-0.462-1.52-0.148-0.29 0.241-1.6 0.403-3.38 0.42-2.76 0.0266-2.94-0.0129-3.52-0.792-0.338-0.451-0.81-1.53-1.05-2.4-0.259-0.945-0.445-1.28-0.462-0.823-0.0435 1.15-1.25 3.07-2.33 3.71-1.25 0.74-4.74 1.7-4.74 1.31zm33.4-1.2c-0.387-0.187-0.939-0.836-1.23-1.44-0.471-0.993-0.577-1.06-1.06-0.636-1.22 1.07-3.25 1.03-3.25-0.0609 0-0.713 2.14-3.24 2.74-3.24 0.307 0 0.455-0.365 0.455-1.12 0-1.92 0.497-1.23 0.92 1.29 0.503 2.99 1.29 4.06 3 4.06 0.649 0 1.65-0.291 2.23-0.647 0.932-0.575 1.14-0.598 1.85-0.203 0.44 0.244 1.03 0.449 1.32 0.455 1.1 0.0241 1.18-0.684 0.541-5.06-0.543-3.71-0.583-5.59-0.109-5.12 0.0755 0.0755 0.433 2.07 0.794 4.42 0.597 3.9 1.21 5.77 1.88 5.77 0.137 0 0.186-0.53 0.111-1.18-0.239-2.05 1.27-3.94 3.14-3.94 0.334 0 1.01 0.373 1.5 0.828 0.681 0.628 0.743 0.77 0.258 0.587-1.49-0.561-4.32 0.317-4.32 1.34 0 0.273 0.426 0.922 0.946 1.44 0.934 0.934 0.96 0.94 2.14 0.449 0.654-0.273 1.38-0.659 1.62-0.856s0.504-0.287 0.592-0.199c0.319 0.319-0.212 1.07-1.22 1.72-2.42 1.57-5.17 1.75-6.11 0.415-0.443-0.633-0.466-0.634-0.889-0.0476-0.708 0.983-1.13 1.08-2.28 0.535-1.03-0.492-1.16-0.484-2.41 0.155-1.45 0.741-2.11 0.802-3.17 0.291zm-2.02-3.78c0-1.14-0.0849-1.16-1.48-0.294-1.42 0.878-1.36 1.25 0.202 1.25 1.21 0 1.28-0.0533 1.28-0.96zm-5.9-0.846c-0.754-4.9-0.96-7.41-0.577-6.99 0.678 0.731 1.86 8.94 1.45 10-0.223 0.591-0.41-0.063-0.868-3.04zm-10.7-1.64c-0.21-0.0701-0.382-0.503-0.382-0.962 0-0.778 0.278-0.909 0.431-0.244 0.332 1.44 1.22 0.788 1.18-0.567 0.0094-0.651 0.397-0.793 0.435-0.141 0.1 1.7 1.27 0.721 1.06-0.0797-0.092-0.352-0.0368-0.72 0.123-0.819 0.159-0.0986 0.29 0.253 0.29 0.781s-0.18 1.08-0.4 1.22c-0.219 0.14-0.493 0.317-0.902 0.114-0.0813-0.0402-0.161 0.0842-0.22 0.171-0.524 0.772-1.62 0.609-1.62 0.53zm21.4-0.252c0-0.11 0.317-0.456 0.703-0.77l0.703-0.57-0.691-0.219c-0.38-0.121-0.985-0.0624-1.34 0.13-0.715 0.383-0.877 0.0389-0.268-0.57 0.495-0.495 1.81-0.473 2.75 0.0457 0.7 0.388 0.707 0.43 0.16 0.908-0.735 0.642-2.01 1.31-2.01 1.05zm-41.7-0.688c0.362-0.316 1.01-0.81 1.44-1.1 0.469-0.313 0.867-0.684 0.867-0.684-0.0389-0.134-0.405-0.307-0.687-0.508-0.324-0.231-0.57-0.718-0.0726-1.48 0.563-0.859 1.41-1.07 1.62-0.408 0.0678 0.22 0.211 1.02 0.318 1.78 0.0202 0.144-0.394 0.452-0.308 0.529 0.954 0.85 0.665 1.45-0.119 0.658-0.108-0.109-0.302-0.305-0.302-0.305s-0.438 0.359-0.528 0.446c-0.209 0.201-0.811 0.63-1.55 0.988-1.15 0.56-1.25 0.57-0.681 0.0754zm3.02-2.96c-0.117-1.08-0.49-0.943-0.918-0.613-0.167 0.128-0.289 0.452-0.188 0.616 0.163 0.264 0.812 0.72 0.812 0.72 0.135 0.0171 0.308-0.6 0.295-0.723zm14.5 0.289c0.184-0.551 6.66-3.52 6.66-3.06 0 0.228-1.42 1.08-3.16 1.9-3.35 1.58-3.67 1.68-3.5 1.16zm31.6 0.0263c0-0.276 4.18-2.89 4.62-2.89 0.682 0-0.133 0.756-2.03 1.88-2.36 1.4-2.58 1.49-2.58 1.01zm-39.3-2.63c0.118-0.355 5.03-2.63 5.24-2.42 0.301 0.301-0.622 0.916-2.7 1.8-2.66 1.13-2.71 1.14-2.53 0.622zm33.9 0.0246c0.199-0.596 5.38-3.5 5.38-3.02 0 0.24-1.15 1.1-2.55 1.9-2.69 1.55-3.02 1.68-2.83 1.12zm-14.8-0.867c0.22-0.427 0.609-0.695 0.919-0.634 0.142 0.0278 0.553 0.353 0.714 0.15 0 0 0.359-0.678 0.572-0.931 0.771-0.913 1.46-1.13 1.81-0.563 0.686 1.11-1.56 2.9-2.89 2.29-0.509-0.232-0.832-0.218-1.11 0.0488-0.317 0.299-0.321 0.225-0.0177-0.364zm3.03-0.575c0.278-0.107 0.506-0.323 0.506-0.48 0-0.458-0.845-0.33-1.28 0.194-0.422 0.509-0.109 0.625 0.774 0.286zm-56.9-1.35c-0.878-0.97-0.689-3.47 0.431-5.71 0.528-1.06 1.25-2.19 1.61-2.51 0.51-0.462 0.4-0.0579-0.504 1.85-1.25 2.63-1.38 4.16-0.366 4.35 0.321 0.0609 0.861-0.14 1.2-0.447 0.596-0.539 0.616-0.524 0.616 0.466 0 0.661-0.279 1.3-0.785 1.81-0.937 0.937-1.49 0.988-2.2 0.2zm29.5-3.57c-0.568-2.06-1.65-5.09-2.03-5.68-0.334-0.521-0.663-0.674-1.18-0.545-0.468 0.118-0.96-0.0504-1.43-0.489-0.875-0.815-0.889-1.16-0.0954-2.46 0.428-0.703 0.798-0.967 1.2-0.86 1.44 0.387 2.7 2.11 3.48 4.76l0.565 1.91 0.703-2.99c0.682-2.9 1.37-4.28 2.47-4.98 0.41-0.259 0.713-0.161 1.34 0.431 1.34 1.26 0.92 3.67-0.431 2.44-1.39-1.26-1.89-0.529-2.93 4.25-0.689 3.18-1.43 5.05-1.67 4.2z" stroke-width=".32"/>
</svg>
