<?xml version="1.0" encoding="UTF-8"?>
<!-- Created with Inkscape (http://www.inkscape.org/) -->
<svg width="139" height="140" version="1.1" viewBox="0 0 139 140" xmlns="http://www.w3.org/2000/svg">
 <path d="m85 139c0.292-1.03 1.52-2.95 3.13-4.88 1.3-1.56 1.41-2.48 0.294-2.48-0.333 0-1.81 0.559-3.29 1.24-7.55 3.49-15.4 4.49-20.6 2.64-1.05-0.374-1.91-0.679-1.92-0.678-0.0061 9.6e-4 -0.0241 0.688-0.04 1.53s-0.229 1.88-0.473 2.32c-0.425 0.76-0.453 0.708-0.642-1.2-0.15-1.52-0.478-2.45-1.37-3.89-1.28-2.08-1.38-2.51-0.744-3.38 0.401-0.549 0.522-0.516 2.17 0.579 2.78 1.85 5.07 2.53 8.99 2.69 5.29 0.215 8.42-0.489 14.7-3.3 3.5-1.57 4.41-1.72 5.21-0.844 1.18 1.3 0.517 2.97-2.8 7.09-2.78 3.46-2.88 3.55-2.59 2.56zm-38.3 0.125c-0.127-0.127-0.231-0.563-0.231-0.969 0-0.875-1.71-5.66-2.39-6.71-0.386-0.589-0.682-0.698-1.52-0.564-0.865 0.138-1.21-6.4e-4 -1.97-0.804-0.834-0.875-0.888-1.06-0.549-1.87 0.703-1.67 1.47-2.43 2.23-2.19 1.97 0.625 3.84 3.37 4.66 6.82 0.465 1.97 0.553 1.89 1.15-1.05 1.03-5.02 2.35-7.52 3.99-7.52 0.963 0 2.09 1.39 2.09 2.58 0 1.97-0.818 2.5-1.73 1.1-1.23-1.87-2.15-0.629-3.24 4.36-0.437 2-0.933 4.15-1.1 4.77-0.369 1.34-1.06 2.36-1.38 2.04zm-18.7-14.8c-4.24-0.903-7.21-4.41-7.93-9.4-0.204-1.4-0.295-1.53-0.922-1.35-1.82 0.515-5.91 0.548-8.17 0.066-7.01-1.49-10.3-6.9-9.86-16.2 0.19-4.02 0.898-7.03 2.47-10.5 0.828-1.83 0.893-2.16 0.472-2.39-0.77-0.431-0.571-0.881 0.392-0.885 0.713-0.0032 1.24-0.461 2.77-2.41 2.03-2.59 5.6-5.65 8.48-7.29l1.79-1.01-8.47-0.259c-4.66-0.143-8.53-0.313-8.59-0.38-0.0662-0.0662 0.198-1.08 0.587-2.25 0.78-2.34 0.209-1.85 6.83-5.93 3.77-2.32 6.2-4.83 8.98-9.26 3.85-6.13 4.42-5.53 5.77 6.15 0.421 3.65 0.871 6.8 0.998 7.01 0.169 0.273 1.31 0.321 4.17 0.176 2.24-0.114 4.01-0.075 4.12 0.0896 0.0983 0.159-0.161 1.2-0.576 2.31-0.745 2-0.777 2.03-2.4 2.47-0.907 0.245-1.65 0.558-1.65 0.694 0 0.649 3.47 1.42 6.4 1.42 3.95 1.06e-4 5.24-0.587 8.81-4.01 1.49-1.43 2.89-2.54 3.1-2.47 0.245 0.0815 0.35 0.714 0.294 1.76-0.0478 0.901 0.0623 1.92 0.245 2.26 0.883 1.65 5.05 2.2 7.67 1.01 0.769-0.349 2.51-1.71 3.86-3.03 1.36-1.32 2.55-2.4 2.67-2.4s0.0489 0.435-0.136 0.966c-0.962 2.76 1.82 5.25 4.65 4.17 1.26-0.48 3.32-2.51 4.28-4.22 0.481-0.857 1.03-1.56 1.21-1.56 0.193-1.85e-4 0.338 0.687 0.338 1.6 0 1.32 0.158 1.76 0.918 2.56 1.21 1.26 2.64 1.5 5.03 0.839 1.9-0.529 5.53-2.2 5.79-2.67 0.0769-0.136-0.119-1.76-0.435-3.61-0.316-1.85-0.806-5.81-1.09-8.8-0.283-2.99-0.585-5.9-0.671-6.45l-0.156-1.01-2.63 0.793c-14.3 4.31-23.8 7.56-29.7 10.2-1.74 0.772-3.17 1.27-3.17 1.11 0-0.164 0.377-1.24 0.839-2.39 0.629-1.57 1.08-2.22 1.81-2.6 3.52-1.82 16.2-6.18 26.8-9.23 2.9-0.835 5.39-1.62 5.52-1.74 0.134-0.122 0.027-3.96-0.238-8.52-0.265-4.56-0.495-8.52-0.51-8.78-0.015-0.264 0.297-1.34 0.694-2.4l0.721-1.92 0.702 1.6c1.22 2.78 3.45 9.45 3.23 9.66-0.115 0.115-0.659-0.212-1.21-0.728l-1-0.937 0.2 5.57c0.11 3.06 0.245 5.62 0.301 5.67 0.103 0.103 6.95-1.69 7.11-1.87 0.188-0.195-1.48-25.1-1.82-27.1-0.309-1.8-0.272-2.18 0.369-3.76 0.392-0.966 0.808-1.76 0.925-1.76 0.36 0 3.92 9.62 3.81 10.3-0.0924 0.611-0.151 0.597-0.983-0.238-0.487-0.489-0.955-0.818-1.04-0.733-0.0853 0.0853 0.205 5.1 0.645 11.1 0.44 6.04 0.8 11.1 0.8 11.2s4.43-0.917 9.84-2.29c13-3.29 29.2-7.06 29.5-6.83 0.323 0.323-1.49 3.62-2.09 3.8-0.317 0.0924-3.74 0.904-7.62 1.8-5.64 1.31-16.8 4.15-28.1 7.13l-1.24 0.329 0.197 2.77c0.236 3.32-0.194 7.5-1.06 10.3-1.31 4.23-1.45 3.8-1.47-4.36-0.0118-4.14-0.115-7.61-0.229-7.73-0.204-0.204-6.57 1.41-7.02 1.78-0.44 0.363 0.912 14.4 1.73 17.9 0.294 1.27 0.487 1.59 0.879 1.44 0.276-0.107 1.44-0.267 2.58-0.354 2.43-0.185 3.77 0.438 4.67 2.18 1.34 2.59 0.78 7.14-1.05 8.59-2.04 1.6-5.64 0.0032-7.64-3.39l-0.775-1.31-2.8 1.38c-1.54 0.758-3.68 1.56-4.77 1.77-1.87 0.373-2.05 0.353-3.51-0.4-1.23-0.631-1.71-1.13-2.35-2.44-0.876-1.79-1.14-1.99-1.43-1.1-0.102 0.32-0.608 1.25-1.13 2.07-1.62 2.55-4.49 3.48-6.67 2.14-1.05-0.642-2.28-2.76-2.29-3.96-5e-3 -0.433-0.559-4e-3 -1.94 1.5-2.62 2.86-4.67 3.87-7.5 3.69-2.68-0.17-3.81-1.13-4.34-3.67-0.196-0.942-0.444-1.71-0.551-1.71-0.108 0-1.23 1.08-2.48 2.39-3.12 3.27-4.45 3.85-8.64 3.82-4.69-0.0437-7.51-1.31-9.54-4.28-0.509-0.746-0.597-0.765-1.74-0.366-4.65 1.62-9.83 4.72-12.5 7.48l-1.38 1.42 2.34 0.205c1.29 0.113 5.44 0.356 9.22 0.541 7.9 0.386 10.5 0.721 12.2 1.58 1.39 0.71 2.69 2.14 3.43 3.8 0.799 1.78 0.724 6.06-0.157 8.9-1.37 4.42-5.57 9.46-9.96 11.9-3.26 1.85-3.08 1.6-2.36 3.22 2.57 5.78 8.95 6.94 18.3 3.34 5.99-2.3 14.4-7.26 14.4-8.49 0-0.521-1.66-1.16-4.96-1.91-5.96-1.35-7.87-2.48-8.33-4.9-0.301-1.61 0.382-5 1.43-7.11 1.82-3.66 6.73-8.15 9.48-8.67 1.53-0.288 2.4 0.375 3.99 3.05 1.62 2.73 3.29 3.74 5.62 3.42 2.05-0.281 3.24-0.995 5.47-3.3 2.03-2.09 2.6-2.22 1.99-0.459-0.684 1.96 0.874 3.15 3.71 2.83 1.9-0.214 3.04-1.12 4.86-3.84l1.55-2.32 0.162 1.82c0.198 2.23 0.919 3.09 3.74 4.48 3.95 1.94 9.74 1.51 15.3-1.14 1.26-0.606 2.97-1.62 3.79-2.25 2.18-1.67 2.43-1.59 1.83 0.568-0.444 1.6 0.0636 2.89 1.34 3.42 1.96 0.812 10.5-0.249 10.5-1.3 0-0.148-0.285-0.359-0.634-0.47-1.08-0.343-4.28-3.81-5.2-5.63-1.07-2.11-1.64-5.02-1.35-6.81 0.971-5.81 7.13-9.3 13.7-7.75 2.75 0.647 5.88 2.12 6.92 3.25l0.793 0.866-0.8-0.215c-0.44-0.118-1.92-0.385-3.28-0.592-4.26-0.649-11.3 0.499-14.3 2.33-0.98 0.604-1.06 0.769-0.893 1.81 0.442 2.72 4.54 7.51 7.76 9.07 1.87 0.904 4.43 1.16 6.1 0.619 0.68-0.222 3.82-1.53 6.97-2.92 5.51-2.41 6.61-2.8 6.57-2.27-0.0115 0.132-0.479 1.16-1.04 2.27-0.953 1.9-1.14 2.09-2.94 2.83-1.06 0.44-5.72 2.52-10.4 4.62-9.46 4.28-12.8 5.39-16.1 5.39-3.62 0-5.41-1.18-5.84-3.83-0.114-0.71-0.292-1.29-0.397-1.29-0.105 0-0.715 0.41-1.36 0.91-1.73 1.35-3.78 2.48-6.29 3.45-3.04 1.18-7.4 1.25-10.2 0.163-2.64-1.04-4.79-2.58-5.52-3.96-0.352-0.66-0.712-1.19-0.8-1.19-0.088 0.0054-0.592 0.757-1.12 1.67-1.24 2.15-2.68 3.12-4.61 3.12-2.05-0.0016-3.34-0.868-4.04-2.7-0.558-1.46-0.567-1.47-1.05-0.747-1.8 2.71-4.01 4.09-6.53 4.08-2.39-0.0022-3.87-0.989-5.86-3.89-1.05-1.54-1.85-2.38-2.32-2.45-0.389-0.056-1.42 0.284-2.28 0.755-1.86 1.01-5.72 4.47-6.5 5.82-0.493 0.852-0.499 1.01-0.0606 1.64 0.727 1.04 1.93 1.55 6.58 2.78 4.78 1.27 6.14 1.97 6.64 3.4 0.901 2.58-0.03 5.52-2.52 7.96-3.74 3.66-11.6 8.06-17.4 9.72-3.13 0.902-7.05 1.26-9.08 0.829zm-8.37-15.5c0.345-0.143 0.677-0.886 0.911-2.04 0.67-3.3 3.28-9.01 4.13-9.01 0.16 0-0.192 1.12-0.783 2.48-1.14 2.63-2.52 7.24-2.33 7.8 0.0614 0.184 1.46-0.352 3.1-1.19 2.13-1.09 3.71-2.21 5.5-3.89 4.15-3.91 5.03-6.69 3.04-9.7-1.83-2.76-4.52-3.62-12.5-3.97-6.67-0.294-8.07-0.617-14.1-3.25-0.567-0.247-2.87 4.66-3.48 7.42-0.727 3.27-0.534 7.38 0.451 9.59 1.94 4.34 6.08 6.36 12.5 6.11 1.67-0.0642 3.28-0.218 3.58-0.342zm-8.46-10.4-1.83-1.3 0.833-1.66c0.458-0.912 0.886-1.72 0.95-1.79 0.0642-0.0707 0.909 0.397 1.88 1.04 0.968 0.643 1.83 1.17 1.92 1.17s0.455-0.581 0.817-1.29c0.413-0.81 0.803-1.21 1.05-1.08 1.88 1.04 3.41 2.3 3.42 2.82 0.0045 0.337-0.361 1.24-0.812 2.01l-0.821 1.4-1.5-1.08c-2.29-1.65-2.21-1.65-2.93-0.234-0.362 0.71-0.764 1.29-0.892 1.29-0.128 0-1.06-0.586-2.07-1.3zm79.8-23.8c0-0.762-1.33-1.46-2.79-1.46-1.48 0-1.69 0.264-0.809 1.03 0.739 0.644 1.31 0.836 2.56 0.866 0.705 0.0171 1.04-0.124 1.04-0.437zm-69.8-6.82c-0.0107-0.887-1.03-8.87-1.3-10.2-0.492-2.44-1.06-2.19-2.6 1.12-1.61 3.47-3.59 6.3-5.6 8.02l-1.54 1.32 5.52 0.0112c3.04 0.0061 5.52-0.0968 5.52-0.229zm36.3 55.2c0.123-0.396 0.457-1.22 0.744-1.84 0.519-1.11 0.573-1.14 11.6-4.9 6.07-2.08 11.4-3.86 11.8-3.96l0.742-0.177-0.518 1.24c-0.285 0.683-0.632 1.36-0.772 1.5-0.139 0.14-3.41 1.38-7.26 2.75-3.86 1.38-9.07 3.31-11.6 4.31-2.52 0.993-4.65 1.81-4.74 1.81-0.0869 0-0.0577-0.324 0.0649-0.72zm45.3-2.31c0-0.0788 0.289-0.916 0.642-1.86l0.642-1.72 11.5-3.91c6.35-2.15 11.7-3.87 11.8-3.82 0.156 0.0547 0.0253 0.675-0.291 1.38-0.566 1.26-0.653 1.31-5.03 2.85-4.52 1.6-14.6 5.33-17.7 6.55-0.924 0.368-1.68 0.604-1.68 0.525zm-11.3-8.83-1.83-1.27 0.859-1.75c0.473-0.964 0.992-1.75 1.15-1.75s0.997 0.504 1.85 1.12c0.857 0.616 1.63 1.12 1.71 1.12 0.084 0 0.447-0.576 0.806-1.28s0.73-1.28 0.824-1.28 1.02 0.578 2.06 1.29c1.78 1.21 1.87 1.34 1.57 2.13-0.49 1.29-1.36 2.67-1.69 2.67-0.161 0-0.994-0.504-1.85-1.12-0.857-0.616-1.63-1.12-1.71-1.12-0.084 0-0.447 0.576-0.806 1.28s-0.758 1.27-0.887 1.26c-0.128-9e-3 -1.06-0.589-2.07-1.29zm-54.8-46.5c0-2.7-0.0931-3.15-1.03-5.04-0.567-1.14-1.83-2.96-2.81-4.05l-1.78-1.98 0.545-1.14c0.3-0.628 0.689-1.14 0.864-1.14 0.645 0 3.33 3.15 4.13 4.85 1.02 2.15 1.65 5.61 1.39 7.55-0.27 1.97-0.813 3.92-1.09 3.92-0.125-1.22e-4 -0.228-1.34-0.228-2.97zm61.1 0.637c0.513-0.39 2.67-1.67 4.8-2.85 5.35-2.97 7.55-4.33 7.55-4.71 0-0.688-2.88-1.07-8.08-1.07-4.27 6.4e-4 -5.36-0.0865-5.36-0.428 0-0.236 0.645-1.49 1.43-2.79 1.98-3.26 2.57-3.5 8.55-3.49 7.09 0.0103 10.2 0.894 9.69 2.73-0.747 2.55-6 8.73-8.51 10-1.31 0.666-9.96 3.36-10.7 3.33-0.16-0.0056 0.13-0.33 0.643-0.72zm32.3-1.64c-0.2-0.952-0.874-2.84-1.5-4.19-1.1-2.37-1.17-2.45-2.06-2.25-0.718 0.158-1.15 0.0145-1.93-0.641-1.19-1-1.23-1.42-0.305-3.06 0.893-1.59 1.76-1.62 3.42-0.121 1.35 1.22 2.38 3.3 2.97 5.97l0.372 1.71 0.898-3.75c1-4.18 1.49-5.33 2.68-6.27 0.999-0.786 1.89-0.595 2.73 0.589 0.756 1.06 0.813 2.2 0.154 3.05-0.468 0.606-0.497 0.599-1.15-0.259-1.56-2.06-2.42-0.865-3.69 5.14-0.795 3.75-1.49 5.82-1.96 5.82-0.149 0-0.434-0.779-0.633-1.73zm-125-12.8c-0.111-1.19-0.443-3.64-0.739-5.46-0.508-3.12-0.507-3.38 0.0212-4.76 0.6-1.57 1.73-2.41 3.24-2.41 0.724 0 0.794-0.0737 0.457-0.48-0.525-0.632-1.57-0.61-2.29 0.0496-0.546 0.494-0.585 0.492-0.585-0.0306 0-0.308 0.298-0.978 0.662-1.49 1.1-1.55 2.94-1.15 4.44 0.969 0.918 1.29 0.457 2.58-0.921 2.58-1.8 0-4.18 0.678-4.5 1.28-0.215 0.402-0.156 1.43 0.187 3.25 0.666 3.55 0.925 7.41 0.542 8.1-0.233 0.417-0.359 0.0227-0.511-1.6zm52-4.17c-0.831-0.582-0.863-0.771-0.27-1.58 0.423-0.578 0.496-0.609 1.29-0.044 1.17 0.828 0.614 0.851 1.44-0.162 0.566-0.697 0.611-0.703 1.43-0.169 0.806 0.528 0.82 0.587 0.332 1.33-0.492 0.751-0.549 0.772-1.32 0.248-0.917-0.622-0.724-0.756-1.38 0.172-0.624 0.88-0.623 0.831-1.52 0.206zm-11.9-1.36c0.0126-0.583 0.648-1.02 2.8-1.93 2.14-0.906 2.92-0.951 1.91-0.109-0.639 0.53-4.71 2.3-4.7 2.04zm-36.8-1.44c0-0.0954 1.19-0.75 2.64-1.45 1.45-0.704 3.21-1.77 3.91-2.38 1.26-1.09 1.26-1.11 0.883-2.38-0.807-2.69-4.01-5.82-5.74-5.59-1.37 0.179-2.24-0.705-2.49-2.52-0.124-0.899-0.142-1.72-0.0414-1.82 0.32-0.32 4.26 2.45 5.75 4.04 1.66 1.77 2.71 3.69 3.07 5.57l0.25 1.33 0.368-0.901c0.441-1.08 0.461-4.31 0.0468-7.5-0.197-1.52-0.19-2.61 0.0188-3.16 0.176-0.463 0.385-0.778 0.464-0.699 0.0791 0.0791 0.507 2.68 0.951 5.78 0.444 3.1 0.945 6 1.11 6.45 0.563 1.48 1.49 2.11 3.09 2.11 1.3 0 1.63-0.156 2.77-1.29 0.708-0.708 1.33-1.24 1.38-1.19 0.0526 0.0526-0.182 0.717-0.522 1.48l-0.618 1.38 1.36-0.225c1.89-0.313 3.03-0.966 3.8-2.17 0.62-0.966 0.68-0.553 0.118 0.811-0.172 0.418-0.0095 0.639 0.659 0.893 1.23 0.469 1.56 0.26 2.25-1.42 0.692-1.68 1.03-1.89 0.832-0.513-0.118 0.802-0.0029 1.01 0.716 1.28 1.17 0.445 2.41 0.409 2.57-0.0744 0.11-0.316-1.39-8.97-2.27-13-0.0954-0.445 0.0266-1.07 0.275-1.4 0.419-0.565 0.489-0.52 1.14 0.736 0.514 0.987 0.615 1.49 0.384 1.92-0.219 0.41-0.0709 1.91 0.497 5.02 0.828 4.54 0.866 7.39 0.112 8.3-0.532 0.641-1.88 0.568-3.08-0.168l-1.02-0.624-0.683 1.11c-0.77 1.25-1.33 1.36-2.69 0.53-0.895-0.544-0.996-0.545-2.02-0.0208-0.831 0.424-1.89 0.55-4.57 0.545-3.46-0.0063-3.5-0.0157-4.27-0.934-0.439-0.521-0.947-1.73-1.16-2.77-0.209-1.01-0.413-1.99-0.454-2.16-0.0413-0.176-0.319 0.514-0.617 1.53-0.707 2.42-2.29 4.03-4.68 4.77-1.98 0.617-4.48 1.06-4.48 0.801zm43.4-1.88c-0.485-0.382-1.09-1.18-1.33-1.77l-0.452-1.08-0.833 0.655c-1.07 0.838-4.27 0.957-4.27 0.159 0-1.29 1.76-3.71 3.28-4.5 0.62-0.322 0.887-0.716 0.902-1.33 0.0124-0.479 0.14-1.16 0.283-1.51 0.3-0.737 0.233-0.946 1.17 3.64 0.739 3.6 1.5 4.52 3.72 4.52 1.16 0 2.02-0.231 3.01-0.81l1.38-0.81 1.33 0.68c1.07 0.544 1.48 0.611 2.09 0.337 0.937-0.427 0.936-0.473-0.0476-6.96-0.605-3.98-0.716-5.44-0.454-5.93 0.191-0.357 0.393-0.6 0.449-0.541 0.0558 0.0591 0.49 2.7 0.965 5.86 0.904 6.03 1.31 7.33 2.38 7.61 0.546 0.143 0.598 0.0773 0.333-0.418-0.496-0.927-0.371-2.23 0.358-3.74 1.09-2.26 3.27-2.95 5.33-1.7 1.09 0.666 1.49 1.56 0.48 1.09-1.65-0.766-5.26 0.375-5.46 1.72-0.0619 0.417 0.313 1.12 0.984 1.86 0.966 1.05 1.2 1.16 2.18 0.976 0.603-0.114 1.74-0.633 2.52-1.15 1.6-1.06 1.85-1.05 1.27 0.0411-0.497 0.933-1.02 1.36-2.91 2.35-2.72 1.43-5.71 1.34-6.79-0.199-0.43-0.614-0.467-0.605-1.42 0.344-1.14 1.14-1.5 1.19-2.78 0.335-1.23-0.818-1.49-0.804-2.91 0.16-1.53 1.04-3.53 1.08-4.77 0.106zm-2.86-3.24c0.591 0 0.773-0.398 0.769-0.948-0.0101-1.48-0.447-1.67-1.94-0.843-0.754 0.42-1.43 0.931-1.49 1.14-0.132 0.405 0.575 1.12 1.26 0.919 0.234-0.0671 0.974-0.264 1.4-0.264zm-6.71-0.131c-0.118-1.55-0.497-4.18-0.843-5.86-0.682-3.3-0.806-5.3-0.344-5.58 0.521-0.322 2.02 7.71 2.07 11.1 0.0534 3.66-0.612 3.93-0.884 0.354zm-14.5-4.62c-0.461-0.461-0.535-1.75-0.116-2.01 0.156-0.0964 0.362 0.124 0.457 0.489 0.243 0.928 1.31 0.667 1.45-0.355 0.159-1.18 0.693-1.58 0.693-0.517 0 1.33 1.09 1.01 1.22-0.362 0.14-1.45 0.7-1.3 0.7 0.193 0 1.35-0.601 2.09-1.92 2.38-0.44 0.0968-1.09 0.267-1.44 0.378-0.352 0.111-0.82 0.022-1.04-0.198zm28.9-1.05c0.902-0.727 0.921-0.788 0.32-1.01-0.352-0.129-0.722-0.276-0.823-0.328-0.101-0.0519-0.569 0.106-1.04 0.35-1.01 0.524-1.12 0.109-0.217-0.797 0.766-0.766 1.45-0.802 3-0.156 1.49 0.621 1.46 1.15-0.0845 2.02-1.66 0.933-2.35 0.887-1.16-0.078zm-54.7-0.656c1.33-0.894 2.42-1.7 2.42-1.7s-0.654-0.463-0.906-0.741c-0.982-1.08 0.268-3.26 1.58-2.75 0.377 0.145 0.74 0.625 0.523 1.63-0.398 1.85 0.145 1.5 0.306 1.62 1.3 0.937 0.33 1.35-0.743 0.635 0 0-0.635 0.372-1.11 0.721-1.14 0.842-2.81 1.69-3.32 1.69-0.226 0 0.332-0.501 1.24-1.11zm3.09-3.54c-0.216-1.11-1.18-0.708-1.22-0.169-0.0643 0.889 1.21 1.44 1.21 1.44s0.0629-0.996 0.00993-1.27zm101 2.39c-0.115-0.717-0.62-2.21-1.12-3.32-0.841-1.85-0.985-2.01-1.76-1.86-0.914 0.175-2.11-0.631-2.11-1.42 0-0.937 0.982-2.33 1.64-2.33 1.45 0 3.24 2.67 3.97 5.92 0.186 0.822 0.327 0.506 0.983-2.19 0.86-3.54 1.7-5.01 2.85-5.01 1.33 0 2.22 2 1.43 3.2-0.27 0.408-0.407 0.364-0.914-0.29-0.727-0.938-1.51-0.733-1.99 0.522-0.188 0.489-0.62 2.18-0.959 3.77-0.969 4.53-1.62 5.5-2.02 3.02zm10.7 0.799c0.275-0.338 1.12-1.34 1.87-2.22s1.65-2.15 2-2.82c1.02-2 0.129-3.24-1.69-2.33-0.874 0.436-0.922 0.424-0.921-0.235 2e-3 -1.08 1.17-2.74 2.09-2.97 1.16-0.291 2.33 0.325 2.59 1.36 0.641 2.55-2.5 7.58-5.96 9.55-0.407 0.231-0.404 0.179 0.0193-0.343zm-50.9-2.02c0-0.582 0.995-1.39 3.52-2.87 1.5-0.876 2.77-1.54 2.84-1.47 0.0661 0.0661 0.0437 0.319-0.0497 0.563-0.188 0.489-6.31 4.16-6.31 3.78zm-41.3-0.461c0-0.233 2.02-1.37 4.48-2.54 2.83-1.34 4.48-1.96 4.48-1.7 0 0.23-0.18 0.552-0.4 0.715-0.507 0.375-8.06 3.94-8.35 3.94-0.117 0-0.213-0.19-0.213-0.423zm-10.2-3.08c0-0.171 0.18-0.475 0.4-0.676 0.417-0.379 6.73-3.16 6.89-3.03 0.431 0.363-0.71 1.23-2.75 2.09-1.35 0.571-2.93 1.24-3.5 1.48-0.586 0.249-1.04 0.305-1.04 0.129zm44.5-0.138c0-0.462 6.97-4.86 7.25-4.57 0.406 0.406-0.603 1.26-3.49 2.95-3.95 2.31-3.76 2.23-3.76 1.63zm-19.1-1.42c0.404-0.8 0.68-1.01 1.14-0.864 0.433 0.137 0.923-0.153 1.73-1.02 0.938-1.02 1.22-1.16 1.7-0.861 0.925 0.568 0.857 1.34-0.214 2.41-0.908 0.908-1.14 0.985-2.57 0.848-0.913-0.0877-1.73-0.0037-1.94 0.201-0.205 0.193-0.132-0.124 0.161-0.705zm3.96-0.818c0.665-0.369 0.689-0.455 0.234-0.833-0.426-0.353-0.61-0.329-1.14 0.152-1.16 1.05-0.563 1.5 0.908 0.68zm60.7-3.46c-1.01-1.44-0.385-5.79 1.27-8.84 0.451-0.831 0.73-1.22 0.621-0.872-0.792 2.55-1.44 5.25-1.44 6.01 0 2.14 1.36 2.81 2.54 1.27l0.672-0.88-0.203 0.96c-0.561 2.65-2.38 3.89-3.46 2.35zm-79.2-1.64c0.477-0.39 3.07-1.92 5.76-3.39 5.31-2.92 6.65-3.76 6.65-4.2 0-0.663-2.97-1.03-8.24-1.03-3.04 0.0034-5.52-0.0859-5.52-0.198 6.72e-4 -0.113 0.685-1.35 1.52-2.74 2.14-3.58 2.53-3.74 8.81-3.73 6.03 0.00935 9.17 0.611 9.65 1.85 0.383 0.998-2.88 5.96-5.8 8.8-0.848 0.828-2.33 1.85-3.3 2.28-1.62 0.714-9.49 3.11-10.1 3.08-0.152-0.0063 0.114-0.33 0.591-0.72zm24.7-0.84c0.0971-0.157 1.72-1.22 3.62-2.35 6.43-3.87 11.1-7.06 13-8.9 1.04-1.01 1.98-1.84 2.09-1.86 0.114-0.0127 0.251-0.358 0.303-0.766 0.0522-0.409 0.433-1.17 0.846-1.69l0.751-0.942 1.15 0.546c1.88 0.899 3.69 4.06 4.45 7.76 0.171 0.835 0.279 0.514 1.19-3.52 1.02-4.51 2.03-6.24 3.65-6.24 1.18 0 2.54 1.78 2.29 3.01-0.306 1.53-0.708 1.7-1.72 0.734-0.495-0.474-1.07-0.862-1.27-0.862-0.745 0-1.38 1.59-2.32 5.79-0.527 2.36-1.12 4.68-1.31 5.17-0.445 1.1-1.24 1.16-1.24 0.0873 0-0.88-1.16-4.13-2.21-6.18-0.623-1.22-0.759-1.31-1.66-1.13-0.726 0.145-1.23 0.0116-1.94-0.517-0.53-0.392-0.999-0.664-1.04-0.604-0.0428 0.0595-0.453 0.756-0.91 1.55-1.63 2.82-6.04 6.41-10.2 8.29-2.73 1.23-7.71 2.98-7.49 2.62zm0.019-8.05c0.152-0.255 0.953-1.25 1.78-2.22 1.9-2.22 2.65-3.68 2.4-4.67-0.214-0.853-1.32-1.04-2.48-0.411-0.614 0.329-0.647 0.288-0.445-0.56 0.533-2.24 2.44-3.48 3.88-2.54 1.76 1.15 0.677 5.15-2.2 8.13-1.49 1.54-3.37 3-2.93 2.28z" stroke-width=".32"/>
</svg>
