<?xml version="1.0" encoding="UTF-8"?>
<!-- Created with Inkscape (http://www.inkscape.org/) -->
<svg width="1632" height="1632" version="1.1" viewBox="0 0 1632 1632" xmlns="http://www.w3.org/2000/svg">
 <path d="m1022 1583c1.41-9.79 5.04-19.8 6.65-28.9 0.329-1.95 1.67-3.83 3.74-5.25 1.77-1.22 4.1-3.01 5.17-3.99 18-8.07 38.2-24.6 53.5-34.2 28.5-18.6 60.9-32.7 88.8-50.4 3.65-2.33 7.99-4.92 9.64-5.75 52.4-27.8 97-56.3 138-77.9 54.1-38.7 119-60.5 164-103 17.6-16.7 19-17.6 22.5-13.9 2.92 3.11 2.86 3.76-1.82 18.4-70.4 72.7-246 162-315 200-2 0.834-9.2 4.86-16 8.94-55.1 31.8-106 65.7-155 94.7-3.5 2.11-3.75 2.14-3.74 0.415zm-207-9.6c-23-9.2-8.97-50.1 29.3-85.4 5.87-5.42 13.5-12.5 17-15.8 3.48-3.25 6.33-5.46 6.33-4.9 0 1.47-7.35 12.6-9.48 14.3-1.63 1.34-16 17-24 26.1-18.3 20.9-23.2 39.2-12.3 45.9 4.59 2.82 5.69 2.34 10.4-4.5 9.66-14.2 22.4-0.827 13.4 14-5.1 8.4-21.5 13.9-30.6 10.2zm190-107c0-6.59-0.472-15.3-1.05-19.2-3.54-26.7-9.64-47.7-14.8-73.8-1.14-5.78-2.58-13-3.21-16-7.92-38.2-0.779-70.3 16.8-75.6 7.28-2.21 8.05-2.81 8.82-6.94 0.745-3.97 5.5-13.5 9.15-18.3l2.56-3.37 7.26 0.466c19.1 1.22 36.1 25.1 26.8 37.6-5.05 6.76-19.2 10.5-30 7.86-13.7-3.33-29.4-2.11-33.5 2.6-3.15 3.59-3.58 27.4-0.726 39.3-3.94 33.9 32.4 80.2 17.1 125-0.552 1.34-1.28 4.58-1.63 7.19-1.34 10.3-3.5 5.81-3.5-7.23zm35.7-186c0.691-2.07-10.3-9.38-15.1-10-4.18-0.574-4.74-0.37-8.1 2.99-4.75 4.75-4.14 5.31 6.79 6.18 5.09 0.403 10.2 1.1 11.3 1.56 2.52 1.04 4.73 0.752 5.2-0.678zm-666 172c0-3.34 6.38-12.6 11.3-16.5 2.84-2.21 6.06-4.73 7.16-5.6 34.3-24.3 69.2-49.7 106-73.4 10.4-6.69 26.4-18.3 31.5-22.9 8.7-7.82 8.89-1.46 0.345 11.5-1.85 2.82-5.28 6.42-7.61 8-2.33 1.58-4.46 3.1-4.74 3.38-9.4 5.14-18.9 12.3-28 17.9-36.9 30.2-75.6 44.6-108 74.3-5.24 4.88-8.31 6.11-8.31 3.32zm286-28.6c-12.7-9.58-13-9.68-15.9-5.09-4.47 7.09-9.48 8.88-13.8 4.95-5.15-4.66-8.4-7.36-11.6-9.58l-3.25-2.3 5.25-6.87c6.11-8 5.01-7.89 12.2-1.22 11.4 10.6 13.7 10.8 20.1 2.1 4.47-6.09 4.36-6.1 14.5 1.15 4.62 3.31 9.2 6.29 10.2 6.62 3.46 1.18 2.16 6.14-3 11.4-5.87 6.03-5.12 6.1-14.8-1.19zm150-65.4c-10.6-2.6-19.3-10-24.3-20.9-3.63-7.81-4.62-8.83-5.7-5.87-11.3 30.9-49.7 33.1-52.8 3-0.736-7.11-3.72-9.25-7.64-5.48-23.8 22.8-110 35.9-149 22.5-27.1-9.39-35.7-40.9-22.7-83.2 1.18-3.85 2.3-7.53 2.47-8.18 0.512-1.88-3.34-3.44-5.98-2.42-6.07 2.35-18 19.1-32.1 45.2-20.4 37.7-42 48.6-55.2 27.8-10.6-16.6-3.9-57.7 12.3-75.9 5.32-5.97 6.18-4.71 1.41 2.08-20.3 28.9-16.6 62.8 7.16 64.6 12.8 0.976 31.8-18.8 40.5-42.1 0.22-0.59 0.685-1.3 1.03-1.57s2.17-2.98 4.05-6c19.6-31.5 44-44.7 34.5-18.5-7.63 20.9-9.41 28.3-9.42 39-0.0119 32.7 20.4 45.1 74 45 49-0.092 79.9-7.89 106-26.6 9.9-7.17 9.87-7.18 7.76 3.45-1.82 9.16-1.32 12.2 2.69 16.5 10 10.7 29.8 7.75 36.6-5.53 2.84-5.51 2.85-34.6 0.0276-70.2-1.46-18.5-1.14-17.9-7.63-13-2.85 2.18-5.66 3.95-6.25 3.95-0.583 0-1.06 0.338-1.06 0.75-3e-3 0.412-2.49 2.32-5.53 4.25-6.05 3.83-6.09 3.93-6.89 15.5-0.996 14.3-5.84 28.5-10 29.3-1.47 0.284-1.67-0.015-0.986-1.5 1.18-2.56 1.8-29.4 0.703-30.5-0.806-0.806-5.24 1.59-13.5 7.3-1.51 1.04-4.44 3.02-6.5 4.38-2.06 1.37-4.82 3.26-6.13 4.22-4.48 3.26-15.6 11.2-17.5 12.5-5.1 3.49-8.24 5.98-12.2 9.69-3.96 3.71-8.46 5.4-8.46 3.18 0-7.5 21.5-26 57.3-49.3 7.54-4.91 7.19-2.8 5.82-35.1-1.58-37.4-1.93-47.5-3.12-91.6-0.56-20.6-1.27-39.3-1.58-41.6-1.04-7.47 6.26-30.4 9.69-30.4 1.11-0.01 2.91 5.09 2.91 8.23 0 1.72 0.951 5.82 2.11 9.09 2.36 6.65 2.13 12.6-0.598 15.7-1.83 2.02-0.91 76.5 1.59 129 1.15 23.9 1.37 25.9 2.7 23.9 0.383-0.576 2.27-1.91 4.2-2.97s3.72-2.15 4-2.43 2.18-1.63 4.24-3 3.75-2.83 3.75-3.24c4e-3 -0.412 0.612-0.75 1.35-0.75 4.4 0 4.89-2.88 3.68-21.7-2.37-36.9-2.37-36.5-0.669-43.1 1.87-7.28 9.35-21.5 11-20.9 1.2 0.405 1.21 4.52 0.0644 20.2-0.549 7.51 1.17 53.4 2.03 54.3 0.303 0.314 17.3-10.7 25-16.3 13.6-9.76 17.6-12.8 21.4-16.6 2.29-2.29 4.32-3.98 4.51-3.76 5.01 5.59-5.23 20.2-20.9 29.9-5.5 3.39-13.8 8.63-18.5 11.7s-9.04 5.82-9.69 6.2c-0.922 0.539-0.866 4.12 0.246 15.7 0.792 8.24 2.31 26.5 3.37 40.5 1.6 21.1 2.33 26.6 4.25 31.7 6.88 18.3 24.8 27.2 48.9 24.2 10.4-1.3 11.1-1.96 7.09-6.16-4.35-4.52-9.19-10.4-9.19-11.2 0-0.353-1.61-2.98-3.57-5.84-3.7-5.38-3.77-6.11-1.23-12.9 9.57-25.5 34.6-39.3 53.9-29.6 17.7 8.85 18.3 17.9 0.751 11.3-17.6-6.64-43.9-0.506-43.9 10.3 0 2.2 5.22 12.9 6.93 14.1 0.365 0.275 1.72 2.08 3.02 4 9.6 14.3 20 18.3 37.5 14.4 29.8-6.47 30.9-6.5 29.3-0.828-1.82 6.6-6.39 9.92-15.5 11.3-11.6 1.69-33.5 6.94-56.9 13.6-19.1 5.45-30.8 6.59-41.2 4.04zm366-56.4c-8-1.73-19.5-10.8-21.9-17.4-4.38-11.7 3.1-38.2 16.7-59.4 4.07-6.32 12.6-18.6 13.7-19.9 14.1-17.6 32.7-35 49.2-49.9 14.4-13 22.3-19.3 22.3-17.7 0 1.98-9.58 13.6-19.6 23.8-20.9 22.3-51 50.3-60.9 77.5-3.82 12.1 4.61 27.7 9.36 17.3 1.41-3.1 14.9-3.63 20.8-0.815 18 8.55-9.01 50.9-29.6 46.5zm160-6.36c-0.887-3.31-0.759-9.75 0.193-9.75 7.31-51.6-6.13-114-9.37-166-2.96-35.8-6.68-70.7-12.1-104-5.63-34.6-6.42-40-7.4-50-8.55-62.4-18.8-129-28.4-190-1.81-11.3-3.43-23.3-5.04-34.1-2.12-14.3-2.26-13.6 3.38-15.6 2.69-0.954 5.69-1.73 6.68-1.73 0.987 0 4.75-0.863 8.37-1.92 16.7-4.88 15.9-5 17.1 2.56 0.501 3.22 1.8 10.9 2.89 17.1 0.668 15 5.05 29 6.64 43.2 0.269 2.48 0.919 6.52 1.45 9 3.43 26.7 8.88 51.4 11.4 78 0.23 2.48 1.15 8.55 2.05 13.5 5.01 41 12.3 85.9 15 106 9.79 53 9.93 104 16 158 11.4 37.6-7.87 75.1-8.53 110-0.024 2.07-0.74 5.56-1.59 7.76-0.851 2.2-2.8 7.56-4.33 11.9-4.43 12.6-12.8 22.2-14.4 16.3zm-978-1.41c-6.86-8.72 1.45-29.6 19.6-49.5 8.63-9.4 7.2-5.3-2.44 7.03-11.5 14.7-15.9 25.4-13.1 31.6 1.4 3.07 5.4 3.5 6.3 0.679 2.08-6.57 7.54-5.32 7.54 1.72 0 9.19-12.7 15.2-17.9 8.49zm267-10.1c-0.3-0.962-1.22-5.28-2.04-9.59-1.92-10.1-5.64-18.3-8.99-19.8-2.83-1.29-3.11-2.53-1.42-6.24 3.08-6.77 7.98-2.72 10.8 8.9 3.66 15.3 3.82 15.4 7.56 4.75 6.67-19 13.8-27.2 17.5-20.3 2.13 3.97-0.529 10.9-3.17 8.26-2.36-2.36-5.35-1.34-7.51 2.55-3.31 5.98-8.29 21.6-8.29 26 0 2.36-0.659 4.72-1.57 5.63-1.98 1.98-2.17 1.96-2.84-0.179zm185-20.3c-0.604-0.977 4.02-9.24 7.45-13.3 1.86-2.22 14.4-11.7 33.1-25 14.5-11.7 30.1-19.1 44.5-30.4 0.55-0.436 2.58-1.72 4.5-2.85 6.21-3.64 26.4-18.2 29.7-21.3 3.82-3.71 3.95-3.72 4.75-0.574-8.31 27.6-81.2 60.8-113 88.2-6.67 5.83-9.45 7.22-10.6 5.29zm-625-12.2c3.15-1.77 8.77-4.89 12.5-6.94 16.2-8.89 53.1-31.4 64.5-39.5 2.61-1.83 7.11-4.96 10-6.96 15.6-10.8 30.4-24.6 36.3-33.9 3.58-5.59 11.4-20.4 11.4-21.7 3.29-6.58 7.69-12.7 11.9-18.6 1.41-2.01 3.13-3.25 4.5-3.25 1.61 0 3.1-1.45 5.42-5.27 16.3-26.9 33.3-19 34.9 16.3 0.646 13.8 0.0861 16.1-5.69 23.1-5.11 6.21-13.4 5.68-22.6-1.44-17.5-13.5-18.5-13.4-25.9 2.85-9.11 19.9-10.7 22.4-20.9 32.9-5.5 5.63-12 11.8-14.5 13.6-2.48 1.85-4.72 3.62-5 3.92s-2.52 2.1-5 4-4.72 3.69-5 3.98c-7.14 7.59-40.7 23.9-49.3 24-2.51 0.02-15.2 4.56-25.2 9.05-12.8 5.72-15.9 6.97-16.9 6.94-0.619-0.017 1.45-1.48 4.6-3.25zm181-114c0-5.29-7.42-20.4-10.6-21.6-3.78-1.45-13.4 3.03-13.4 6.24 0 1.18 14.7 13.4 17.6 14.8 3.34 1.48 6.35 1.76 6.35 0.604zm115 72.1c-13-2.19-24.6-9.15-29.1-17.6-5.16-9.61-5.88-11.5-6.64-17.8-1.09-9.03-2.63-8.59-10.4 3-16 23.9-26.2 29.9-51.9 30.6-6.88 0.175-11.6 0.094-10.5-0.182 1.1-0.275 6.49-1.62 12-3 23.1-5.77 47.4-24.6 52.9-40.9 3.87-11.4 5.26-72.1 2.85-124l-0.732-15.6-24.8 16.4c-13.6 9-24.8 16.7-24.8 17.1 0 0.626 5.17 8.11 8.79 12.7 11.5 14.6 23.3 36.3 26.4 48.5 3.22 12.6 3.24 37.9 0.0288 46.4-2.77 7.43-4.65 9.54-2.62 2.95 4.14-13.4 2.68-34.8-2.95-43.2-1.75-2.61-4.71-7.22-6.56-10.2-6.91-10.9-13.5-20.4-21.1-31-2.16-3.02-4.4-6.04-4.97-6.71s-1.03-1.68-1.03-2.25-0.344-1.04-0.764-1.04-1.88-1.8-3.24-4-2.96-4-3.56-4c-1.18 0-14.4 9.73-21.1 15.5-5.65 4.88-8.98 4.61-6.49-0.534 3.49-7.23 6.9-11.2 14.4-16.6 9.1-6.58 8.92-5.85 3.42-13.7-10.8-15.4-23.1-38.1-25.6-47.2-1.92-6.99-0.885-30.5 1.35-30.5 1.29 0 4.54 6.17 4.54 8.62 0 2.27 6.95 14.4 10.3 17.9 4.98 12.2-1.57 10.9 7.25 25 3.11 4.95 6.51 9.93 7.57 11.1 1.06 1.14 1.92 2.39 1.92 2.79 0 1.11 7.96 11.6 8.8 11.6 0.407 0 2.31-1.28 4.22-2.84 3.41-2.79 15.4-11.1 37.4-25.9 14.4-9.71 13.5-7.79 12.8-24.8l-0.539-14.4 4.15-6.36c2.28-3.5 4.15-7.09 4.15-7.98 0-2.14 1.65-3.1 2.32-1.35 0.29 0.756 0.852 9.3 1.25 19 0.396 9.69 1.05 17.6 1.45 17.6 0.4 0 4.86-2.81 9.92-6.25 14.2-9.51 30.9-20.2 41.7-29.5 8.39-7.23 8.34-7.21 8.34-3.24 0 8.38-9.48 19.8-22.2 26.8-9.15 6.87-33.6 18.7-37.6 25.1-1.45 3.18 0.579 125 2.28 136 3.03 20.8 7.08 27.8 19.2 33.6 29.1 13.7 89 4.5 109-16.8 3.47-3.68 5.77-3.64 4.36 0.07-7.05 18.5 21.9 23.2 38.4 6.14 2.48-2.55 4.51-5.05 4.51-5.55s0.45-0.908 1-0.908 1 1.99 1 4.42c0 9.94 7.4 13.1 16.5 7.15 2.72-1.78 8.45-9.19 8.47-11 0.0297-2.13 1.66-3.66 3.26-3.05 1.27 0.486 1.51 1.62 1.14 5.28-1.71 16.7 30.2 15.5 34.7-1.26 1.56-5.77 1.37-38.1-0.467-77.6-4.67-100-4.65-102 1.41-115 4.6-9.78 6.06-9.87 7.39-0.449 0.364 2.59 1.57 7.39 2.68 10.7 2.27 6.71 1.93 10.9-1.19 14.9-1.6 2.04-1.91 3.54-1.5 7.35 0.284 2.64 0.768 24.8 1.07 49.3s0.979 50.1 1.49 57c3.17 42.5-1.9 62-20 76.9-12.8 10.6-27.5 10.9-32.9 0.731-1.89-3.52-4.53-3.86-8.61-1.09-11.3 7.67-23.5 7.82-23.5 0.284 0-2.18-5.24-0.449-11.6 3.83-13.8 9.32-30.1 6.8-33.4-5.16-1.58-5.65-3.54-5.87-10.5-1.17-19.6 13.2-61.5 22-85.5 18zm541-36.2c-15.9-2.28-31-6.03-46-11.3-7.61-2.7-11-4.34-22.8-11-15.3-8.62-31-26-35.7-39.8-3.9-10.4-7.04-20.8-7.5-31.8-0.0886-2.59-0.535-6.28-0.991-8.21-13.8-150-36.1-309-55-454-7.27-70.2-23.7-135-29.4-202-2.07-22.4-6.34-46.6-8.61-67.5-2.34-23.3-7.32-51.2 1.24-69.4 2.79-5.82 5.89-12.4 6.88-14.6s2.68-5.58 3.73-7.5c1.06-1.92 2.79-5.3 3.84-7.5 4.24-8.81 9.23-3.58 12.4 13 1.24 6.5 4.03 26.1 4.26 30 0.0974 1.65 0.478 3.23 0.847 3.51 4.75 17.1 1.47 29.7 5.87 47 0.529 1.92 1.4 8.9 1.94 15.5 3.39 20 3.2 40.9 6.47 60.5 6.64 84.2 21.4 162 30.5 236 10.9 83.4 21.2 160 31.1 244 1.67 55.4 8.41 91.1 15.3 141 1.76 13.5 7.99 23.2 13.7 21.4 2.32-0.736 8.2-12 10.4-19.8 3.41-12.2 8.14-22 16.3-33.8 1.78-2.57 3.24-5.12 3.24-5.67 0-0.543 0.418-1.14 0.93-1.32 32.7-36.6 73.6-61.8 116-81.7 12.6-5.11 27.4-8.92 39.2-12.7 24.8-7.87 27.6-6.96 21.6 6.92-5.09 11.7-5.36 16.2-1.76 29.6 1.52 5.65 7.78 18.3 10.1 20.4 1.16 1.05 2.11 2.43 2.11 3.08 0 1.77 4.37 5.51 7.09 6.08 15.5 3.24 31.8 2.58 40-1.61 2.1-1.07 4.35-1.95 4.98-1.95 2.02 0 15.3-9.28 19.2-13.5 6.54-6.91 19.7-31 19.7-36.1 0-0.784 0.867-3.35 1.93-5.7 1.06-2.35 3.17-7.28 4.69-11 3.03-7.33 6.14-10.1 8.84-7.84 1.95 1.62 1.95 4.72-0.01 8.46-4.66 8.94-3.95 24.8 1.67 37.2 1.03 2.26 1.87 4.56 1.87 5.1 0 1.32 10.1 10.6 15.1 14 4.71 3.12 3.82-0.513 9.46 38.6 5.06 35.2 5.07 33.3-0.211 33.6-17.6 1.01-42.7-16-52.3-35.5-6.07-12.4-8.99-11.7-18 4.25-2.46 4.34-5.16 8.77-6 9.85-3.48 4.49-14.6 15.5-15.7 15.5-0.62 0-1.71 0.703-2.42 1.56-9.18 11.1-44.2 13.5-55 3.85-0.868-0.773-2.28-1.41-3.14-1.41-1.77 0-12.4-15.2-15.4-22-1.1-2.48-2.74-6.18-3.65-8.24-2.24-5.08-3.83-15.7-3.59-23.9 0.269-9.22-2.64-12.5-11.9-13.5-19.4-2.54-40.1 15.7-57.2 17.6-3.07 0-25.4 12.7-30.7 17.5-0.62 0.56-2.14 1.69-3.37 2.52-21.9 15.7-49.3 35.2-52 58.3-0.614 5.58-0.519 8.6 0.329 10.5 1.3 2.89 8.15 10.2 9.57 10.2 0.483 0 1.44 0.682 2.14 1.52 27.1 20 68.2 21.8 100 19.3 14.7-1.35 2.41 56.7-14.1 66.6-7.32 4.36-35.3 7.96-51.9 6.67zm-518-16.9c0-1.13 0.456-2.33 1.01-2.68 0.558-0.345 1.87-2.28 2.91-4.31 31.8-26.7 37.5-37.1 74.5-56.1 0.531-0.221 1.44-0.812 2.01-1.31 20.9-14.3 42.2-29.2 62.3-42.5 5.49-3.64 10.2-7.54 16.5-13.5 4.47-4.29 4.93 0.711 0.805 8.88-3.79 7.5-8.35 12.3-16.3 17-7.61 4.53-26.8 17-43.2 28.1-24.7 16.9-53.2 35.1-75 50.7-5.46 3.91-12.2 9.22-15 11.8-5.97 5.49-10.6 7.22-10.6 4zm-235-8.42c-0.225-0.688-0.925-3.95-1.55-7.25-2.32-12.2-5.75-20-9.52-21.7-3.1-1.41-3.12-3.91-0.0465-7.48 3.32-3.86 5.82-1.54 8.71 8.08 5.12 17 5.19 17.1 8.91 5.88 5.98-18 11.4-24.9 16-20.3 4.25 4.25 1.43 11.6-3.27 8.56-2.56-1.68-2.69-1.65-4.97 0.798-2.8 3.02-9.74 22.9-9.74 28 0 5.76-3.12 9.57-4.47 5.46zm352-17.9c-8.3-2.22-7.66-7.6 3.19-26.6 2.59-4.54 5.03-8.25 5.43-8.25 0.651 0-4.3 9.88-7.87 15.7-3.44 5.62 0.456 9.9 8.2 9.03 5.17-0.583 8.44-3.03 8.44-6.32 0-4.35 2.35-12.4 4.2-14.4 1.02-1.1 2.3-3.01 2.85-4.26 0.754-1.72 0.856-1.06 0.425 2.74-1.69 14.9-1.71 15.5-0.387 17.1 4.3 5.18 13.4 4.16 12.6-1.42-1.94-13.3-1.93-13.7 0.282-18.1 2.41-4.73 4.44-4.95 4.78-0.527 0.124 1.6 0.507 6.74 0.85 11.4l0.624 8.5-3.64 4.75c-5.79 7.54-10.9 9.3-18.2 6.25-5.01-2.09-6.37-1.91-10.2 1.41-3.72 3.18-7.26 4.09-11.5 2.96zm-467-5.36c-0.55-0.183-2.12-0.584-3.5-0.89-14.3-3.18-15.3-24.4-2.14-45.9 2.28-3.72 4.14-7.03 4.14-7.34 0-4.14 25.4-31.8 39.8-43.4 4.45-3.58 8.11-7.04 8.14-7.69 0.0556-1.39 1.93-2.76 2.71-1.98 0.828 0.828-6.12 10.8-11.5 16.5-14.2 15-25.9 28.5-30 34.4-11.8 17.3-13.2 29.3-4.18 35.7 4.09 2.91 5.83 2.07 10.5-5.06l4-6.08 4.37 0.467c4.77 0.51 5.61 1.32 7.16 6.9 2.85 10.3-6.65 21.7-19.9 23.8-5.76 0.944-7.88 1.04-9.66 0.447zm362-34.1c-7.43-7.92 3.78-34.2 22.1-51.9 6.44-6.2 5.27-3.88-4.5 9-10.3 13.5-15 23-14.3 28.6 0.864 6.44 5.54 8.17 7.87 2.9 2.69-6.07 6.85-4.45 6.85 2.66 0 9.58-11.9 15.3-18.1 8.74zm844-72.7c-0.82-4-2.5-15.1-3.14-20.8-0.343-3.02-1.5-10.8-2.58-17.4-2.28-13.8-2.89-12.3 5.74-14 8.91-1.74 19.5-6.07 22.4-9.14 6.7-24.5-12.6-51.4-25-70.4-3.73-5.7-11.3-16.5-11.9-17-9.56-10.5-7.35-16.9-4.07-24.5 0.945-2.2 2.27-5.58 2.95-7.5 3.18-9.05 5.19-13.6 7.52-17.1 1.39-2.1 2.53-4.91 2.53-6.23 0-3.95 6.6-16.3 9.05-16.9 3.06-0.8 4.29-0.0845 5.83 3.38 1.16 2.63 12.3 18.5 14 19.9 0.327 0.275 1.04 1.21 1.59 2.08 10.1 15.4 20.5 31.9 26.3 50.4 4.19 13.9 5.66 46.8 2.65 59.5-0.85 3.58-1.7 8.3-1.88 10.5-0.881 10.5-17.7 44.1-28.5 56.9-4.73 5.62-11.5 13.1-12.2 13.4-0.362 0.166-1.71 1.22-3 2.35-4.89 4.26-7.74 5.17-8.26 2.62zm-555-15.7c-0.332-0.537-3.55-2.67-7.16-4.75-3.6-2.08-7.75-4.56-9.21-5.51-19.6-12.7-50.8-30.9-65.2-45.9-3.55-10.2 23.3-37.7 33.1-46.9 2.45-12.4-51.1-36.6-60-41.3-19.6-10.2-20.7-13-9.25-24.6 10.5-11.4 20.8-20.9 31.6-31.9 5-5.05 12.7-7.64 12.7-4.27 0 0.55 0.527 1 1.17 1 19.8 14.6 52 21.3 67.8 40.2 0 0.42 1.35 2.15 3 3.83 6.06 10.7-11.8 29.9-19.6 37.8-11.5 11.6-11.9 12.5-7.18 18.1 19.3 13.7 52.4 38.7 75 47.4 5.54 2.02-12.4 30.4-28.3 44.9-14.9 13.5-16.6 14.6-18.4 11.8zm-712-108c-4.69-10.1-8.01-27.2-8.26-42.5-0.778-39.2 9.86-74.3 24-110 1.23-3.02 2.59-6.39 3.01-7.49 7.41-20.3 21.5-35.6 29.7-53.5 1.23-2.73 12.4-17 18.1-23.1 16.5-17.7 12.6-2.09-4.65 18.7-0.491 0.592-1.18 1.98-1.53 3.07-13 26-32.2 54.6-37.7 80.8-2.24 13.1-3.46 19.1-4.05 20-8.16 35.1 1.4 66.2 25.8 88 43.4 39.7 105 40.2 163 34 66.3-9.3 148-29.3 199-79.4 0.825-0.878 3.85-3.54 6.73-5.92 12.1-10 26.9-27.4 29.1-34.2 13.3-142-12.3-304-31.9-430-0.68-4.4-1.6-8.47-2.04-9.04-9.37-61.1-21.3-124-28-183-1.98-15.4-4.08-31.1-4.66-46l-0.561-15.5 3.01-4.5c8.83-12.1 12.9-29 20.7-40 0.637-0.825 1.78-2.75 2.55-4.28 2.75-5.5 8.73-4.7 10.5 1.41 16.8 47 49.7 94 60.5 140 1.12 4.95 2.5 10.6 3.06 12.5 2.01 6.89 1.65 23.2-0.57 25.8-3.43 5.85-18.5-15.6-18.5-15.9 0-7.65-21.6 5.31-23.3 14-0.657 3.33 1.74 24.6 4.36 38.6 6.93 49.3 14.7 105 20.9 150 9.14 48.4 7.8 96.6 16.9 144 2.08 10.4 3.71 20.5 4.68 29 2.18 13.4 13.4 55 23.4 63.7 1.08 0.757 1.97 2.01 1.97 2.77 7.78 15.9 53.1 27.9 64.5 30.1 4.4 0.85 11.2 2.39 15 3.43 19.5 5.26 100 8.14 135 4.82 30.7-2.93 33.8-2.64 32 2.96-0.347 1.09-0.163 2.28 0.41 2.63 0.775 6.94 6.98 18.7 7.04 24.5 1.06 5.31 3.55 10.4 4.35 15.6l0.61 4.07-5.73 1.65c-20.6 4.63-37.5 6.83-58.7 10.2-16.4 2.31-31.9 3.11-48.5 4.43-23.3 1.87-94.8-2.25-114-6.53-14.2-1.96-30.1-10.2-42.9-13l-7.68-1.67-2.93 3.43c-7.08 9.82-12 20.9-16 31.9-3.13 8.66-14.7 31.2-19.3 37.6-2.02 2.82-3.68 5.44-3.68 5.82-31.1 51-99.2 104-149 123-33.5 14.4-61 25.4-94.3 28.9-5.41 0.554-10.8 1.23-12 1.49-81.5 6.42-151 5.12-189-77.5zm1422 47.2c-17.6-3.16-18-24-0.78-52.1 3.86-6.32 7.3-11.7 7.65-12s2.43-2.75 4.62-5.5c5.54-6.94 12.1-13.4 25.3-24.9 6.2-5.4 11.7-10.7 12.3-11.8 1.81-3.39 2.14-1.18 0.346 2.35-1.86 3.66-7.18 10.5-11.9 15.3-36.3 36.8-47.2 60.9-31.3 69.2 3.6 1.86 4.6 1.27 9.56-5.66 7.67-10.7 16.8-6.24 15.4 7.57-1.18 11.4-16.8 20.2-31.1 17.6zm-1167-166c-1.08-1.75-3.26-11.3-3.98-17.5-3.99-34.1-18.9-69.5-29.4-69.5-5.81-0.0333-6.41-5.31-1.84-16.2 1.58-3.78 9.41-10.8 12.1-10.8 4.34 0 12.1 11.4 15 22 0.832 3.02 2.39 8.65 3.46 12.5s3.17 12.6 4.65 19.5c5.17 23.9 6.74 22.9 16.5-10.5 1.77-6.05 4.02-12.8 5-15s3.43-8.05 5.45-13c12.9-31.5 27.8-40.3 36.5-21.7 3.54 7.53 1.58 17.4-4.46 22.4-2.92 2.44-3.91 2.23-7.86-1.73-7.03-7.03-11.9-4.42-18.7 10.1-5.42 11.5-5.48 11.7-8.06 19.9-1.21 3.85-2.79 8.35-3.53 10-4.57 10.3-7.64 24.3-8.34 38-0.394 7.7-1.25 15-1.89 16.2-2.53 4.67-9.07 7.94-10.7 5.34zm637-18.3c-0.684-0.51-3.83-2.16-7-3.66-10.7-5.1-20.7-15-32.1-31.7-2.31-3.41-4.19-6.92-4.19-7.8 0-7.7-8.3-7.95-19.5-0.574l-9 5.92-2.72-18.2c-3.71-24.8-3.7-25 0.965-27.2 8.6-3.93 13.1-6.3 16-8.35 8.29-3.11 14.8-8.19 22.2-12.7 3.58-2.14 9.89-6.51 14-9.7 7.5-5.78 11-7.15 11-4.34 10.4 31.8 52.9 64.7 80.7 66.5 2.08 8e-3 6.49 0.619 9.79 1.36 38 2.11 79.3 1.97 115-11.5 1.31-0.5 6.71-2.02 12-3.37 23.9-6.11 26.7-7.51 20.4-10.1-21.9-9.02-43-22.4-56.7-35.9-32.4-34.5-64.8-71.9-81.5-115-5.09-25-2.73-45.4 8.44-65.8 5.71-10.4 6.81-12.2 8.25-13.8 0.688-0.748 1.25-2.23 1.25-3.3 0-1.77 9.67-16.1 12.5-18.4 0.651-0.55 2.73-3.08 4.61-5.63 23.3-31.5 56.5-61.9 67.6-61.9 0.485 0 2.9-1.05 5.37-2.34 41.9-17.9 78.8-15.7 122-7.08 28.6 8.05 70 22.5 90.8 37.8 1.46 1.16 5.02 3.68 7.91 5.61 9.48 9.42 28.4 23 33.9 35.6 0 0.644 0.675 1.43 1.5 1.75 2.17 0.833 1.84 2.64-0.482 2.64-1.09 0-4.06-1.99-6.59-4.42-8.24-5.93-22.9-14.7-31.2-18.1-44.4-17.6-96-26.6-135-26.8-18.2-0.758-36.6 1.5-54.5 3.19-25.1 3.64-44.1 12.1-68.6 23.5-10.4 4.78-32.4 28.5-34.6 37.3 2.42 42 80.4 127 104 146 11.7 9.25 11.8 9.35 14.1 10.8 2.66 1.76 14.4 7.23 15.5 7.23 5.58 3.99 19.5 9.22 26.9 10.5 2.46 0.41 5.41 1.36 6.56 2.11 8.9 5.83 86 11.7 103 7.89 37.5-11.2 74.1-23.6 110-34 4.95-1.43 16.9-4.88 26.5-7.65 16.7-4.82 25-7.53 31.5-10.4 4.29-1.86 16.3-6.95 21.1-8.93 7.18-2.98 13-1.85 12.7 2.45-0.156 1.92-0.719 3.65-1.25 3.83-0.531 0.183-0.966 0.757-0.966 1.27 0 1.78-14.3 24-18.9 29.3-8.5 9.85-9.09 10.6-9.09 12.1 0 4.37-10.6 14.9-16.5 16.5-13.3 6.49-28.7 9.11-42.5 14.1-71.7 25.4-146 49.4-215 63.5-60.1 15.7-126 45.4-182 49.5-36.1 0.721-81.7 5-109-10.3zm-763-104c-5.65-0.69-14.6-7.08-18.3-13.1-8.48-13.7 12.7-61 36.8-82.2 1.87-1.64 3.4-3.29 3.4-3.67 0-1.15 18.3-18.6 35.5-33.8 2.2-1.95 4.59-3.55 5.31-3.56 2.77-0.0492-8.91 13.4-32.3 37.3-4.4 4.49-10.4 11.8-13.4 16.2-2.98 4.4-5.68 8.22-6 8.5-10.7 9.1-17 31.8-10.3 37l2.6 2.04 2.36-2.54c2.45-2.64 9.96-3.4 16.2-1.65 5.94 1.66 7.07 10.9 2.51 20.5-3.17 6.68-17.1 20.1-20.2 19.4-0.423-0.088-2.29-0.346-4.16-0.574zm1056-36.4c-25.4-4.68-23.4-2.12-27.9-36.4-3.96-26.9-7.36-52.7-10.6-78.8-3.03-24.4-3.25-38.4-0.673-41.8 6.51-9.76 9.07-20.1 16.3-29.9 1.47-1.92 2.96-5.14 3.31-7.15 0.35-2.01 1.3-4.2 2.11-4.87 0.81-0.673 1.47-1.64 1.47-2.14 0-5.35 9.36-7.01 10.5-1.86 0.339 1.54 1.89 4.82 3.45 7.27 1.56 2.46 3.14 5.54 3.51 6.86 5.21 13.8 11.2 27.3 17 40.4 1.95 4.4 3.98 8.68 4.52 9.5 1.08 1.66 20.8 41.5 23.3 47 13.2 29.4 18.5 76.5 7.86 69.9-1.19-0.743-2.16-1.68-2.16-2.08 0-1.93-6.28-10.3-8.94-11.9-2.11-1.28-2.82-2.33-2.38-3.49 1.8-4.7-11.2-1.16-17.1 4.66-7.2 7.07-7.88 9.25-6.45 21 2.23 18.5 3.37 17.5-17.1 13.8zm-571-93.6c-14.5-2.38-17-22.7-5.31-43.3 1.71-3.02 3.6-6.41 4.19-7.51 3.87-7.21 14.5-20.5 23.6-29.5 13-12.8 28.4-26.9 28.9-26.4 0.724 0.68-4.9 9.3-8.61 13.2-31.1 32.6-43.3 49.9-43.3 61.1 9e-3 10.9 11.4 18.7 14.9 10.4 5-11.8 15.1-12.2 17.5-0.596 2.77 13.3-14.4 25.5-31.9 22.6zm-387-91.6c0.43-0.688 0.856-1.74 0.948-2.35 9.81-19.9 33.7-25.2 45.6-43.2 1.24-2.02 2.88-4.32 3.65-5.11 8.61-8.82 7.49-37.7-1.74-44.8-5.55-4.27-18 2.07-26.3 13.4-11.1 15.1-17.8 21.4-24.6 22.8-3.26 0.688-4.98-2.29-2.29-3.95 0.529-0.327 2.44-3.22 4.25-6.43 3.23-5.73 5.95-9.25 16.6-21.5 2.92-3.36 6.25-7.91 7.39-10.1 5.15-7.88 26.2-31.1 38.4-31.5 16.6 0 24.9 13.6 22.4 36.9-2.37 22.2-16.6 58.6-37.7 70.5-1.82 0.938-4.07 2.39-5 3.23-8.82 8.07-20.8 11.7-30.2 18.8-3.41 2.69-12.6 5.36-11.3 3.27zm672-65.5c0.0318-0.962-0.289-5.58-0.712-10.2s-0.868-14.6-0.988-22c0.586-17.1-2.95-35.4-5.47-51-2.28-14.1-2.65-15.7-8.56-36.5-3.28-23-24-44.9-24.5-62.6 0-1.03-0.402-1.88-0.893-1.88-4.71-8.38 17.9-28.6 19.9-37.4 0-1.62 7.74-3.22 9.08-1.87 2.11 2.11 10.3 27 15.4 46.7 1.96 7.63 3.8 14.2 4.07 14.7 3.66 14.4 6.69 30.7 8.41 44.4 0.616 4.95 1.56 11.8 2.1 15.2 1.5 9.47 0.522 44.5-1.51 53.9-3.76 17.5-10.2 39.1-12.2 41.2-0.705 0.712-1.76 3.07-2.35 5.25-1.12 4.18-1.9 5.13-1.81 2.2zm-270-65.6c-0.614-0.74-1.42-2.86-1.79-4.71-0.37-1.85-1.27-4.51-2-5.9-0.73-1.4-1.35-4.34-1.39-6.54-0.341-23.2-17.5-75.9-28.1-86.2-6.53-6.37-8.02-7.25-12.2-7.25-6.94 0-7.78-7.4-2.25-20 3.33-7.59 14.6-16.2 18.5-14.1 7.35 3.93 19.1 23.5 19.1 31.7 0 0.849 0.652 2.74 1.45 4.2s2.33 6.48 3.41 11.2c2.98 12.9 8 33 9.31 37.3 3.01 9.73 6.34 6.77 11.9-10.6 17.9-56.2 29.6-80 44.3-90.1 14.8-10.2 31.3 5.12 26.2 24.2-3.38 12.7-10.7 17.4-16.9 10.8-4.6-4.93-9.96-6.75-14.2-4.83-4.98 2.27-19.7 29.2-22 40.2-0.399 1.91-2.24 7.07-4.1 11.5-1.85 4.4-3.37 8.39-3.37 8.87 0 0.484-0.634 2.3-1.41 4.03-4.87 10.9-8.54 30.1-8.57 44.9-0.0312 15.4-9.86 28.6-15.9 21.4zm518-35.6c-15.7-3.76-17.3-24.5-3.6-46.8 13.4-21.9 21.1-30.8 40.4-47.2 5.92-5.03 11.3-10 12-11.1 2.02-3.23 2.91-2.19 1.13 1.3-2.27 4.43-6.66 10-13.8 17.7-8.8 9.34-8.41 8.91-16.4 18-19.8 22.5-25.2 38.9-15.5 47.2 2.16 1.88 5.76 2.91 6.99 2.02 1.63-1.19 7.36-9.01 7.36-10 0-3.92 9.81-1.92 12 2.45 6.94 14.1-12.4 30.9-30.5 26.5z"/>
</svg>
