<?xml version="1.0" encoding="UTF-8"?>
<!-- Created with Inkscape (http://www.inkscape.org/) -->
<svg width="132" height="132" version="1.1" viewBox="0 0 132 132" xmlns="http://www.w3.org/2000/svg">
 <path d="m60.9 131c-4.68-1.31-8.07-5.18-9.02-10.3l-0.357-1.92-2.45 1.47c-4.57 2.75-8.58 3.34-11.8 1.76-4.17-2.08-5.75-7.82-4.12-15 0.628-2.77 2.15-6.9 2.34-6.34 0.0636 0.191-0.271 1.84-0.744 3.66-1.12 4.34-1.2 7.87-0.211 9.76 1.48 2.81 3.56 3.79 7.63 3.58 2.43-0.128 2.95-0.283 5.79-1.72 1.71-0.868 3.21-1.79 3.33-2.06 0.121-0.264 0.381-1.54 0.579-2.84 0.392-2.58 1.55-5.63 1.6-4.22 0.0148 0.426-0.2 1.99-0.478 3.47s-0.441 2.76-0.364 2.83c0.451 0.451 8.28-6.42 9.28-8.15 0.554-0.954 0.552-1-0.0592-1.61-0.834-0.834-2.64-1.31-4.99-1.31-2.56-5e-3 -4.24-0.509-5.33-1.61-2.24-2.24-0.279-8.22 3.32-10.1 2.22-1.16 4.43-0.169 6.51 2.92 1.85 2.75 2.55 5.13 2.53 8.62-0.015 3.71-0.652 5.56-2.82 8.19-1.56 1.89-5.79 5.86-7.59 7.12l-0.754 0.528 0.835 1.68c2.25 4.53 6.47 6.96 12.1 6.96 2.51 0 6.98-0.807 9.89-1.79 5.22-1.75 11.8-5.56 15.1-8.7 1.43-1.38 1.61-1.7 1.58-2.82-0.0175-0.692-0.132-1.62-0.254-2.06-0.222-0.797-0.23-0.798-3.63-0.69-3.96 0.126-5.31-0.213-6.51-1.64-0.779-0.925-0.836-1.18-0.695-3.15 0.243-3.4 2.23-6.19 5-7.02 1.05-0.314 1.39-0.272 2.54 0.313 1.31 0.669 3.3 2.99 4.36 5.09 0.378 0.747 0.693 1.01 1.08 0.881 1.48-0.479 13-4.95 12.8-4.96-0.144-7e-3 -3.31-0.44-7.04-0.962-3.73-0.522-7.98-1.1-9.44-1.27-1.46-0.178-2.79-0.405-2.95-0.504-0.32-0.198 0.821-3.59 1.42-4.24 0.207-0.222 2.46-1.31 5-2.41 5.62-2.44 6.99-3.35 9.8-6.55 4.34-4.93 5.41-5.9 6.4-5.78 0.811 0.0929 0.988 0.344 1.71 2.42 0.44 1.28 1.07 2.57 1.4 2.88 0.584 0.547 0.594 0.471 0.401-2.96-0.669-11.9-0.892-14.8-1.2-15.8-0.3-0.923-0.225-1.39 0.526-3.31 0.481-1.23 0.986-2.11 1.12-1.96 0.428 0.462 3.88 9.74 4.08 10.9 0.177 1.1 0.156 1.13-0.427 0.69-0.337-0.256-0.855-0.758-1.15-1.12-0.296-0.357-0.597-0.579-0.67-0.494-0.0725 0.0854 0.0891 3.36 0.359 7.28 0.528 7.66 0.499 7.57 2.22 6.67 1.15-0.602 2.22-1.82 3.88-4.43 1.36-2.13 2.55-2.93 2.14-1.44-0.626 2.28-0.584 2.95 0.236 3.72 1.02 0.956 3.29 1.26 4.21 0.571 0.619-0.467 0.622-0.517 0.0816-1.55-0.532-1.01-0.531-1.15 0.0123-2.96 0.314-1.04 0.726-1.95 0.916-2.01 0.692-0.231 1.53 2.23 1.51 4.39-0.0926 6.82-6.33 10.3-9.34 5.27-0.358-0.601-0.39-0.603-0.721-0.0499-0.702 1.17-2.33 2.83-3.26 3.31l-0.956 0.494 0.226 3.56c0.137 2.16 0.374 3.66 0.604 3.8 0.208 0.132 1.41 0.243 2.68 0.245 1.27 0.0026 2.37 0.122 2.46 0.265 0.187 0.303-1.13 4.08-1.58 4.52-0.168 0.166-1.02 0.346-1.89 0.401l-1.58 0.0992-0.0931 3.28c-0.0512 1.8-0.297 4.25-0.547 5.44-0.502 2.39-1.72 5.84-2.06 5.84-0.119 9e-5 -0.217-3.08-0.217-6.85 0-3.77-0.0876-6.94-0.195-7.05-0.436-0.438-10.5 2.97-17.8 5.99l-3.24 1.35-0.183 2.57c-0.274 3.85-1.18 5.93-3.64 8.35-3.91 3.86-11.9 8.48-17.4 10-3.21 0.919-9.34 1.16-11.8 0.459zm28.2-25.7c0-0.661-2.29-2.27-3.23-2.27-1.93 0-2.99 1.43-1.65 2.21 0.692 0.403 4.88 0.454 4.88 0.0588zm-30.4-8.86c-1.48-1.59-3.4-2.15-4.8-1.4-0.844 0.452-0.786 1.54 0.101 1.9 0.396 0.159 1.79 0.299 3.1 0.31l2.38 0.0203-0.776-0.83zm55.9-2.45c-0.111-0.924-0.203-2.35-0.205-3.16-3e-3 -1.43-0.0436-1.49-1.07-1.68-1.48-0.277-2.63-1.62-3.26-3.81-0.295-1.02-0.735-1.94-0.978-2.03-0.75-0.288-2.58 1.1-5.01 3.8-1.28 1.42-3.22 3.35-4.32 4.28-1.1 0.934-1.89 1.77-1.75 1.85 0.562 0.347 13.4 2.34 15.6 2.4l1.24 0.0395zm-13.2 30.7c-1.68-1.44-0.798-4.25 2.26-7.23 0.806-0.785 1.47-1.61 1.47-1.83 0-0.558-1.35-0.851-3.05-0.66l-1.41 0.159 0.457-0.885c0.557-1.08 2.12-1.67 3.65-1.4 1.67 0.301 2.26 0.694 2.26 1.5 0 0.954-0.639 1.86-3.25 4.59-2.33 2.43-2.77 3.62-1.57 4.26 0.903 0.483 3.57 0.405 6.14-0.18 1.24-0.281 2.32-0.432 2.42-0.336 0.263 0.263-2.76 2.09-4.05 2.45-2.11 0.586-4.36 0.399-5.34-0.441zm-77.8-21.6c-0.201-0.841-0.739-2.37-1.2-3.41-0.715-1.61-0.929-1.85-1.52-1.7-0.833 0.218-1.74-0.218-2.18-1.05-0.251-0.469-0.17-0.882 0.344-1.75 0.37-0.627 0.869-1.14 1.11-1.14 0.24 0 0.939 0.441 1.55 0.979 1.11 0.977 2.43 3.78 2.43 5.18 0 1.32 0.536 0.0849 1.13-2.6 0.69-3.12 1.58-4.67 2.69-4.67 1.06 0 2.04 1.4 1.77 2.5-0.262 1.05-0.652 1.08-1.45 0.137l-0.611-0.72-0.621 0.732c-0.341 0.402-0.859 1.84-1.15 3.2-0.82 3.82-1.06 4.68-1.51 5.29-0.362 0.494-0.451 0.382-0.773-0.97zm46.5-5.38-2.12-1.42 0.76-1.64c0.418-0.902 0.899-1.78 1.07-1.95 0.37-0.37 1.76 0.288 3.24 1.53 0.557 0.468 1.06 0.798 1.12 0.732 0.0589-0.0659 0.416-0.732 0.793-1.48s0.778-1.36 0.891-1.36c0.362 0 3.19 1.91 3.76 2.53 0.519 0.574 0.505 0.689-0.268 2.21-0.448 0.885-0.961 1.7-1.14 1.81-0.179 0.111-1.14-0.383-2.14-1.1-0.997-0.714-1.91-1.3-2.03-1.3-0.121 0-0.482 0.583-0.803 1.3-0.321 0.713-0.679 1.35-0.794 1.43-0.115 0.0714-1.16-0.511-2.33-1.29zm-35.1-5.13c-1.52-0.661-2.19-1.32-3.06-3.04-1.44-2.83-1.24-7.66 0.491-12.2 0.863-2.28 1.18-2.19 0.509 0.148-0.901 3.15-1.22 6.16-0.819 7.67 0.476 1.77 2.05 3.33 3.85 3.82 3.98 1.08 10.6-2.25 16.4-8.27 1.7-1.77 2.16-2.45 2.16-3.21v-0.972l-2.16 0.178c-2.45 0.203-4.61-0.261-5.54-1.19-1.27-1.27-0.503-5.24 1.33-6.92 2.47-2.27 4.07-1.57 7.43 3.24 0.428 0.614 0.451 0.614 2-0.0287 1.41-0.583 1.56-0.745 1.5-1.58-0.0386-0.512-0.0845-2.11-0.102-3.56-0.0367-3.04 0.687-5.12 2.1-6.05 0.778-0.51 0.953-0.52 1.71-0.0981 0.464 0.258 1.25 1.23 1.75 2.15 0.739 1.37 0.905 2.07 0.892 3.76-0.016 2.09-0.79 4.46-1.83 5.61-0.441 0.487-0.39 0.605 0.551 1.28 1.4 0.997 4.01 1.16 7.2 0.451 2.49-0.554 4.6-1.37 4.6-1.78 0-0.331-2.25-1.81-3.62-2.38-0.952-0.396-1.47-0.434-2.4-0.177-0.651 0.181-1.29 0.33-1.42 0.331-0.332 0.0026 1.3-3.6 1.77-3.91 1.68-1.1 7.99-1.94 11.4-1.51 2.31 0.29 5.39 1.45 6.48 2.43 0.525 0.475 0.513 0.585-0.215 2.02-0.718 1.42-0.949 1.59-3.39 2.58-2.62 1.06-2.62 1.06-1.91 1.63 1.48 1.2 4.64 1.58 6.53 0.797 0.574-0.24 2.15-1.46 3.51-2.72 1.35-1.26 2.57-2.28 2.71-2.28 1.41 0.0284 1.54 2.52 0.285 5.27-0.989 2.16-1.59 2.33-0.97 0.27 0.247-0.821 0.37-1.57 0.273-1.67-0.0968-0.0968-1.29 0.996-2.64 2.43-2.96 3.13-4 3.57-7.13 3.02-1.9-0.336-3.35-1.1-6.07-3.21l-0.813-0.631-1.59 0.989c-2.62 1.63-6.39 2.86-8.95 2.91-2.64 0.051-3.68-0.408-5.84-2.56l-1.45-1.45-4.32 1.74-0.517 2.1c-0.712 2.89-1.7 4.43-4.82 7.53-6.13 6.09-12 8.72-15.8 7.07zm16.4-20.6c-1.39-1.26-3.27-1.26-3.27 0.017 0 0.749 0.418 0.898 2.56 0.918l1.76 0.0159-1.05-0.951zm11.6-2.89c0.78-0.536 1.42-1.22 1.42-1.53 0-0.728-1.45-2.83-2.24-3.26-0.806-0.431-1.77 0.135-2.26 1.33-0.304 0.735-0.233 1.15 0.453 2.65 0.448 0.978 0.904 1.78 1.01 1.78 0.11 0 0.838-0.439 1.62-0.975zm18.3 0.21c1.82-0.951 1.38-1.23-2.2-1.41l-2.73-0.136 1.28 1.14c1.51 1.35 1.79 1.38 3.65 0.404zm3.47 17.8c-0.836-0.608-1.52-1.24-1.52-1.41 0-0.772 1.33-2.84 1.69-2.63 0.213 0.124 0.977 0.625 1.7 1.11l1.31 0.886 0.525-1.1c0.289-0.605 0.65-1.1 0.802-1.1 0.616 0 2.93 1.96 2.93 2.48-6.4e-4 0.307-0.294 1.04-0.653 1.63-0.716 1.18-0.561 1.2-3.02-0.478-0.881-0.601-0.998-0.558-1.45 0.536-0.22 0.532-0.49 1.02-0.599 1.08-0.109 0.0602-0.882-0.388-1.72-0.997zm-65.4-6.53c-0.704-0.527-1.4-1.08-1.55-1.22-0.321-0.316 0.939-2.9 1.41-2.9 0.526 0 3.17 1.91 3.17 2.29 0 0.446-1.34 2.83-1.58 2.81-0.0996-0.012-0.757-0.453-1.46-0.98zm14.4-5.4c0.468-1.9 1.78-4.19 3.93-6.85 1.27-1.57 2.25-3.01 2.18-3.2-0.246-0.688-2.4-0.192-7.26 1.67-10.2 3.93-15.5 5.24-21.1 5.29-4.1 0.0375-6.07-0.442-8.22-2-3.47-2.51-4.22-8.25-1.77-13.5 1.11-2.36 1.24-1.61 0.241 1.36-1.27 3.77-0.981 5.57 1.19 7.48 1.85 1.62 4.37 2.41 8.29 2.59 6.21 0.285 11.5-0.899 20.9-4.63 8.05-3.22 9.97-3.31 9.89-0.475-0.0418 1.6-0.956 3.28-3.21 5.93-1.6 1.88-3.21 4.04-4.83 6.48-0.373 0.563-0.39 0.547-0.209-0.188zm69.8-8.79c0.162-2.6-0.647-4.65-2.72-6.89l-1.75-1.89 1.02-1.98 0.836 0.658c2.9 2.28 4.32 6.9 3.28 10.6-0.482 1.73-0.8 1.47-0.674-0.55zm18.5 0.398c-0.815-1.16-0.608-3.68 0.622-7.61 0.616-1.96 1.12-4.04 1.12-4.61 0-1.91-0.954-4.32-2.42-6.12l-1.43-1.76 1.06-2.05 1.24 1.4c1.7 1.91 2.65 5.05 2.43 7.98-0.0899 1.17-0.612 3.46-1.16 5.09-1.11 3.29-1.25 4.9-0.494 5.65 0.665 0.665 0.666 0.664 1.76-0.537l0.95-1.04-0.466 1.55c-0.794 2.64-2.18 3.53-3.21 2.06zm-46.8-10.8c-0.204-0.857-0.706-2.26-1.12-3.12-0.622-1.3-0.892-1.56-1.63-1.58-1.22-0.0205-2.3-1.15-2.03-2.12 0.112-0.412 0.414-1.02 0.669-1.35 1.04-1.35 3.5 0.918 4.34 4 0.211 0.774 0.454 1.62 0.54 1.89 0.0858 0.264 0.475-0.816 0.865-2.4 1.18-4.81 2.29-6.12 3.89-4.61 0.802 0.753 0.979 1.71 0.465 2.53-0.252 0.399-0.421 0.356-1.09-0.274-1.33-1.25-1.76-0.568-2.82 4.44-0.975 4.58-1.46 5.19-2.08 2.6zm-17.9 0.0737c-0.701-0.465-1.39-0.952-1.54-1.08-0.207-0.184 0.738-2.57 1.24-3.14 0.054-0.061 0.783 0.36 1.62 0.937 1.4 0.965 1.55 1 1.86 0.483 0.956-1.59 1.03-1.64 1.85-1.19 0.429 0.229 1.18 0.737 1.67 1.13l0.892 0.711-0.718 1.42c-0.395 0.783-0.766 1.48-0.824 1.54-0.0582 0.0652-0.717-0.331-1.46-0.88-0.747-0.549-1.47-0.999-1.61-0.999-0.137 0-0.472 0.432-0.745 0.96s-0.603 0.96-0.734 0.96c-0.131 0-0.811-0.38-1.51-0.845zm-46.5-5.72c-0.2-0.794-0.713-2.23-1.14-3.2-0.697-1.58-0.878-1.76-1.75-1.76-0.892 0-2.26-0.921-2.26-1.52 0.0028-0.567 1.31-2.32 1.73-2.32 0.585 0 2.33 1.46 2.82 2.35 0.206 0.377 0.612 1.55 0.903 2.6l0.529 1.91 0.751-3.16c1.05-4.4 2.5-5.99 3.98-4.35 0.643 0.711 0.752 2.12 0.207 2.66-0.271 0.271-0.489 0.183-0.858-0.344-1.13-1.62-1.8-0.751-2.73 3.54-1.16 5.41-1.56 6.06-2.18 3.59zm11-3.47c-0.12-1.32-0.429-3.6-0.686-5.06-1.14-6.49-0.0895-9.2 3.6-9.23l1.22-0.0106-0.755-0.629c-0.969-0.808-2.13-0.804-2.7 0.0086-0.593 0.846-0.911 0.475-0.508-0.591 1.01-2.65 2.81-2.97 4.93-0.856 1.5 1.5 1.63 1.85 1.12 3.19-0.288 0.756-0.464 0.821-2.25 0.821-2.15 0-4.06 0.643-4.38 1.48-0.116 0.301 0.105 2.29 0.49 4.41 0.713 3.94 0.895 7.69 0.41 8.45-0.167 0.263-0.351-0.488-0.487-1.98zm66.3 0.181c0.193-0.361 1.42-0.914 3.29-1.48 4.41-1.34 4.14-1.29 3.92-0.714-0.155 0.403-6.41 2.77-7.32 2.77-0.107 0-0.0551-0.259 0.114-0.576zm2.05-4.03c-0.504-0.424-1.26-1.5-1.68-2.39-0.68-1.45-0.844-1.6-1.56-1.42-0.654 0.164-0.764 0.104-0.599-0.327 0.175-0.457-0.0741-0.528-1.85-0.528-1.13 0-2.14 0.144-2.25 0.32-0.36 0.583-2.89 0.343-4.39-0.417l-1.46-0.737-0.84 0.723c-1.82 1.57-4.45 1.15-5.5-0.886-0.28-0.542-0.784-3.17-1.12-5.83s-0.771-5.53-0.969-6.37c-0.366-1.55-0.179-3.28 0.323-2.97 0.327 0.202 1.13 4.55 1.62 8.77 0.526 4.54 1.46 6.12 3.62 6.12 1.28 0 2.06-0.493 3.92-2.45 0.888-0.939 1.77-1.71 1.97-1.71s0.824 0.54 1.4 1.2c1.44 1.65 2.11 1.98 4.14 1.98 2.76 0.0109 2.95-0.108 3.93-2.53 0.887-2.18 2.56-4.81 3.05-4.81 0.141 0 0.536 0.205 0.878 0.455 0.474 0.347 0.615 0.82 0.596 2-0.0279 1.69-0.579 2.98-1.86 4.36-0.458 0.493-0.832 0.932-0.832 0.975 0 0.0433 1.04-0.023 2.32-0.147 3.7-0.36 5.29-0.882 6.51-2.14 1.2-1.23 1.35-1.17 0.608 0.26-0.471 0.91-0.459 0.947 0.464 1.42 1.47 0.762 3.42 0.644 4-0.243 0.433-0.662 0.388-1.33-0.468-6.91-0.835-5.45-0.895-6.28-0.502-7.03l0.445-0.85 0.192 1.12c0.106 0.616 0.551 3.54 0.99 6.5s1.01 5.78 1.27 6.28c0.38 0.734 1.07 1.3 1.59 1.3 0.0478 0 0.0197-0.698-0.0623-1.55-0.196-2.04 0.757-4.26 2.22-5.18 1.48-0.93 3.83-0.726 4.99 0.435 0.459 0.459 0.732 0.937 0.606 1.06s-0.399 0.058-0.607-0.15c-0.941-0.941-4.81-0.0632-5.99 1.36-0.564 0.68 0.0457 2.15 1.35 3.25 1.19 1 2.21 0.862 4.71-0.662 0.968-0.588 1.81-1.02 1.86-0.964 0.318 0.318-1.05 2.09-2.19 2.85-1.91 1.26-3.63 1.79-5.83 1.79-1.77 0-2-0.0852-2.95-1.09l-1.03-1.09-0.548 0.927c-0.936 1.58-2.83 1.63-4.63 0.122l-0.962-0.809-1.06 0.643c-0.581 0.354-1.8 0.808-2.7 1.01-1.61 0.359-1.64 0.386-1.32 1.23 0.421 1.12 0.0403 3.09-0.748 3.88-0.838 0.838-1.98 0.783-3.09-0.149zm2.75-1.76c1.17-0.74-1.29-2.4-3.26-2.21l-0.985 0.0978 1.14 1.2c1.13 1.2 2.17 1.5 3.11 0.907zm-12.1-4.65c0-0.327-1.36-2.42-1.58-2.42-0.128 0-0.568 0.357-0.979 0.794l-0.746 0.794 1.09 0.473c1.06 0.459 2.21 0.645 2.21 0.357zm9.91-2.25c1.52-0.961 1.99-1.7 1.58-2.48-0.611-1.14-1.51-0.662-2.52 1.35-0.533 1.06-0.82 1.92-0.638 1.92s0.895-0.356 1.58-0.791zm7.3 8.71c-0.862-0.707-0.866-0.73-0.292-1.47 0.572-0.741 0.758-0.974 1.64-0.207 1.06 0.92 0.906 0.846 1.32 0.115 0.785-1.38 0.812-1.35 1.85-0.617 0.815 0.58 0.935 0.815 0.671 1.31-0.498 0.93-0.95 1.17-1.9 0.486-1.2-0.865-0.979-0.466-1.49 0.307-0.641 0.979-0.711 0.982-1.81 0.0817zm-71.6-3.02c0-0.155 1.13-0.81 2.52-1.46 3.44-1.61 5.81-3.5 5.8-4.65-0.0091-1.13-0.939-3.15-2.06-4.48-1.31-1.55-3.47-2.95-4.25-2.74-1.13 0.295-2.86-0.754-3.08-1.87-0.304-1.52-0.232-3.14 0.138-3.14 0.717 0 5.08 3.24 6.52 4.83 1.81 2.01 2.37 3.02 3.09 5.57 0.537 1.89 0.551 1.91 0.901 1.02 0.434-1.1 0.455-4.91 0.0475-8.45-0.207-1.8-0.194-2.95 0.0394-3.62 0.188-0.54 0.409-0.915 0.49-0.834 0.0814 0.0814 0.495 2.57 0.918 5.54 1.15 8.05 1.32 8.72 2.59 9.98 0.987 0.987 1.23 1.08 2.49 0.934 1.67-0.188 3.19-1.19 3.92-2.59 0.775-1.49 0.894-0.488 0.143 1.21l-0.644 1.46h0.864c1.53 0 3.03-0.604 4.12-1.66 0.583-0.565 1.06-1.22 1.06-1.45 0-0.229 0.144-0.417 0.32-0.417 0.42 0 0.407 0.133-0.152 1.47l-0.472 1.13 1.03 0.434c1.28 0.54 1.64 0.283 2.64-1.9l0.737-1.61 0.0262 1.21c0.0215 0.99 0.174 1.26 0.847 1.52 1.2 0.455 2.69 0.382 2.89-0.141 0.199-0.519-1.94-12.9-2.5-14.5-0.304-0.842-0.272-1.16 0.186-1.86l0.552-0.842 0.801 1.51c0.672 1.26 0.744 1.64 0.448 2.36-0.251 0.606-0.256 1.28-0.0173 2.35 0.184 0.822 0.632 3.32 0.994 5.55 0.552 3.4 0.599 4.31 0.286 5.61-0.542 2.26-1.71 2.72-3.91 1.54-0.657-0.352-1.25-0.64-1.33-0.64-0.0743 0-0.447 0.504-0.827 1.12-0.8 1.29-1.58 1.42-3.09 0.5-1-0.611-1.03-0.611-2.24 0.0122-0.915 0.47-1.8 0.618-3.47 0.582-1.23-0.0265-2.76 0.0533-3.4 0.177-2.44 0.474-4.36-1.76-4.95-5.75l-0.235-1.6-0.371 1.63c-0.74 3.25-2.53 5.19-5.7 6.16-2.55 0.782-4.71 1.14-4.71 0.782zm38.9-3.46c-0.105-0.704-0.281-2.22-0.391-3.36-0.11-1.14-0.554-3.81-0.988-5.92-0.737-3.59-0.793-5.92-0.143-5.92 0.486 0 2.27 10.1 2.24 12.7-0.0275 3.03-0.43 4.42-0.72 2.48zm-17.4-7.9c-0.518-0.518-0.443-1.22-0.122-2.09 0.299-0.92 0.94-0.954 0.614 0.219-0.0519 0.538 0.146 1.12 0.54 1.2 0.795 0.165 1.48-0.234 1.46-1.71-0.0038-0.418 0.131-1.13 0.307-1.13s0.333 0.734 0.333 1.17c0 0.466 0.184 0.8 0.441 0.8 0.593 0 1.27-0.849 1.01-1.27-0.115-0.185-0.111-0.643 7e-3 -1.02 0.295-0.928 0.774-0.164 0.781 1.25 6e-3 1.31-0.963 2.32-2.22 2.32-0.518 0-0.803 0.0105-1.14 0.32-0.193 0.389-1.55 0.402-2.02-0.064zm26.5-0.318c0.313-0.846 10-6.18 10.2-5.62 0.197 0.557-1.05 1.4-5.89 3.95-2.46 1.3-4.51 2.37-4.55 2.37s0.0463-0.316 0.189-0.702zm22.8-0.189c0-0.138 0.432-0.506 0.96-0.818 0.528-0.312 0.96-0.7 0.96-0.863 0-0.5-1.66-0.745-2.62-0.385-1.1 0.414-1.16 0.106-0.163-0.828 0.888-0.834 1.51-0.866 3.34-0.167 1.78 0.679 1.68 1.28-0.407 2.42-1.69 0.924-2.08 1.04-2.08 0.636zm-78.2-1.38c2.62-1.82 2.6-1.78 1.62-2.55-0.647-0.509-0.814-0.855-0.658-1.37 0.293-0.969 1.42-2.13 2.08-2.13 0.687 0 0.938 0.633 0.938 2.36 0 0.371-0.38 1.1-0.296 1.4 0.0779 0.283 0.587 0.397 0.685 0.495 0.497 0.497-0.0022 0.923-0.705 0.7-0.108-0.0344-0.365-0.413-0.551-0.363-0.458 0.122-1.03 0.879-1.88 1.47-1.01 0.71-2.13 1.29-2.48 1.29-0.436 0-0.0379-0.418 1.25-1.31zm3.2-4.32c-0.147-0.384-0.316-0.404-0.879-0.102-0.909 0.397 0.416 1.81 0.783 1.8 0 0 0.241-0.218 0.332-0.632 0.0589-0.266-0.235-1.07-0.235-1.07zm85.6 2.11c0.19-0.354 1.93-1.44 3.88-2.42 2.82-1.42 3.51-1.66 3.43-1.2-0.0673 0.364-1.4 1.25-3.63 2.4-1.94 1.01-3.63 1.83-3.77 1.84-0.138 7e-3 -0.0961-0.277 0.0934-0.631zm-63.7-0.75c0-0.268 0.18-0.602 0.4-0.742 0.944-0.599 9.62-4.59 9.73-4.48 0.483 0.483-0.858 1.38-4.91 3.3-5.66 2.68-5.23 2.51-5.23 1.93zm55-2.2c3e-3 -0.221 0.116-0.578 0.252-0.792 0.261-0.411 8.14-4.25 8.34-4.06 0.0657 0.0587 0.0358 0.325-0.0665 0.591-0.248 0.646-8.53 4.79-8.53 4.27zm-67.2-1.74c0.0026-0.147 0.122-0.451 0.265-0.677 0.274-0.432 7.72-3.7 7.94-3.49 0.565 0.565-2.54 2.26-7.93 4.32-0.153 0.0587-0.276-0.0133-0.273-0.16zm29.4-0.134c0-0.914 0.262-2.15 1.7-1.77 0.495 0.128 0.868 0.47 1.76-1.11 0.642-1.13 1.29-1.26 1.94-1.19 0.631 0.0731 0.864 0.301 0.935 0.915 0.217 1.87-2.42 3.51-4.48 2.79-0.845-0.294-1.06-0.258-1.43 0.243-0.325 0.444-0.431 0.474-0.431 0.12zm5.51-2.16c0.154-0.154 0.0528-0.46-0.228-0.693-0.424-0.352-0.628-0.3-1.29 0.325-0.435 0.409-0.791 0.852-0.791 0.985 0 0.289 1.92-0.224 2.31-0.617zm27.6-3.48c-0.122-0.653-0.635-2.1-1.14-3.21-0.817-1.8-0.999-2-1.67-1.84-0.535 0.134-1-0.0463-1.63-0.632l-0.885-0.82 0.718-1.28c0.395-0.703 0.896-1.28 1.11-1.28 1.26 0 3.38 2.9 3.82 5.22 0.253 1.35 0.79 1.91 0.79 0.822 0-1.48 1.36-5.72 2.1-6.51 0.957-1.03 1.53-1.03 2.36 0.0306 0.718 0.913 0.823 1.61 0.355 2.35-0.251 0.397-0.432 0.346-1.14-0.32l-0.844-0.792-0.563 0.694c-0.31 0.382-0.866 2.12-1.24 3.86-1.07 5.01-1.69 6.09-2.14 3.7zm-17.9-5.45c0.338-0.915 1.6-2.83 2.67-4.05 1.89-2.15 0.548-2.29-3.69-0.403-3.64 1.62-5.92 2.17-9.78 2.36-3.19 0.157-4.92-0.0994-7.26-1.08-0.278-0.116-0.407 0.208-0.422 1.06-0.0123 0.675-0.135 1.51-0.272 1.87-0.192 0.493-0.303 0.274-0.483-0.96-0.129-0.879-0.654-2.26-1.17-3.07-1.63-2.56-0.971-3.96 1.11-2.38 2.78 2.12 7.5 2.88 12.3 1.98 1.44-0.273 4.3-1.21 6.35-2.08 2.13-0.905 4-1.51 4.36-1.42 1.01 0.264 1.35 1.39 0.808 2.66-0.409 0.963-4.25 6.05-4.57 6.05-0.0667 0-0.0283-0.252 0.0853-0.56z" stroke-width=".32"/>
</svg>
