<?xml version="1.0" encoding="UTF-8"?>
<!-- Created with Inkscape (http://www.inkscape.org/) -->
<svg width="131" height="128" version="1.1" viewBox="0 0 131 128" xmlns="http://www.w3.org/2000/svg">
 <path d="m62.5 127c-4.56-1.13-7.89-4.73-9.26-10-1.38-5.32 0.0487-16 2.99-22.2 0.751-1.61 0.94-1.83 0.962-1.15 0.0151 0.468-0.326 2.2-0.757 3.84-2.01 7.65-2.29 12.9-0.86 16.1 1.49 3.33 4.29 5.26 8.58 5.93 6.88 1.07 16.4-3.55 27.3-13.3 1.94-1.72 4.39-4.21 5.44-5.52 1.67-2.07 1.92-2.56 1.91-3.73-3e-3 -0.738-0.111-1.49-0.24-1.66-0.141-0.192-2.47-0.32-5.84-0.32-5.22 0-5.7-0.0505-7.12-0.747-2.49-1.22-2.96-2.19-2.96-5.97 3e-3 -2.85 0.101-3.4 0.894-5.02 1.86-3.81 5.03-6.34 7.94-6.34 2.69 0 5.74 2.66 8.52 7.44 0.795 1.36 1.58 2.48 1.73 2.48 0.743 0 3.71-1.8 5.08-3.09 1.84-1.73 2.81-3.66 3.06-6.12 0.156-1.56-0.313-10.7-1.04-20.1l-0.199-2.6-2.44 0.94c-2.78 1.07-8.65 3.13-8.92 3.13-0.722 0 1.72-1.69 6.03-4.17 3.37-1.94 5.09-3.11 5.08-3.46-2e-3 -0.293-0.353-5.57-0.781-11.7s-0.866-13.2-0.973-15.7c-0.107-2.46-0.429-5.44-0.715-6.62l-0.521-2.14 1.09-2.92c1.38-3.69 1.47-3.83 2.03-3.1 0.657 0.858 5.99 14.9 6.18 16.3 0.228 1.62-0.435 1.59-2.19-0.0806-0.74-0.704-1.4-1.22-1.47-1.15-0.0697 0.0697 0.242 5.39 0.693 11.8 0.451 6.43 0.819 12 0.819 12.4 0 0.367 0.119 0.667 0.264 0.667 0.887 0 10.3-7.03 10.3-7.69 0-0.129-0.44-0.416-0.978-0.639-1.44-0.598-3.72-2.95-3.97-4.1-0.572-2.61 1.78-6.5 5.07-8.39 1.98-1.14 3.17-1.2 4.16-0.211 1.26 1.26 1.34 4.67 0.195 8.55-0.294 1-0.253 1.17 0.391 1.6 0.396 0.264 1.15 0.861 1.68 1.33l0.956 0.846-0.732 1.55c-1.35 2.87-1.37 2.88-3.08 1.58l-1.49-1.14-2.94 2.97c-2.41 2.44-5.92 5.22-8.98 7.1-0.478 0.295-0.477 1.02 0.0169 9.27 0.442 7.38 0.469 9.55 0.154 12.4-0.663 5.96-2.66 11.5-5.5 15.2-1.34 1.75-2.52 2.74-4.78 4.02-1.33 0.752-1.47 0.958-1.67 2.35-0.952 6.65-4.3 11.9-12 19-7.62 6.99-14.4 11.1-20.3 12.3-2.87 0.594-4.59 0.608-6.81 0.0584zm31.8-39.4c0.311-0.311-2.07-2.48-3.36-3.07-2.14-0.966-4.6-0.275-4.6 1.29 0 1.1 0.605 1.65 2.18 1.98 1.17 0.248 5.48 0.0924 5.78-0.208zm31.2-52.3c0.139-0.826 0.0417-1.64-0.293-2.44-0.479-1.15-0.557-1.19-1.68-1.01-1.54 0.25-2.62 1.29-2.15 2.06 0.334 0.543 3.27 2.64 3.7 2.64 0.119 0 0.31-0.558 0.425-1.24zm-89.8 80.3c-0.539-1.98-1.65-5.09-2.03-5.68-0.334-0.521-0.663-0.674-1.18-0.545-0.468 0.118-0.96-0.0504-1.43-0.489-0.849-0.791-0.871-1.02-0.229-2.26 1.13-2.18 3.76-0.166 4.8 3.67l0.586 2.16 0.742-3.08c0.859-3.57 1.12-4.14 2.21-4.86 0.761-0.499 0.839-0.488 1.59 0.216 0.786 0.738 1.02 2.01 0.52 2.8-0.198 0.311-0.397 0.255-0.845-0.24-1.46-1.62-2.12-0.474-3.36 5.79-0.39 1.98-1.14 3.36-1.37 2.52zm33.9-7.59c-0.122-0.653-0.635-2.1-1.14-3.21-0.817-1.8-0.999-2-1.67-1.84-0.535 0.134-1-0.0463-1.63-0.632l-0.885-0.82 0.718-1.28c0.395-0.703 0.896-1.28 1.11-1.28 1.26 0 3.38 2.9 3.81 5.21 0.122 0.652 0.316 1.19 0.43 1.19 0.114 0 0.469-1.19 0.79-2.64 0.645-2.92 1.8-5.04 2.75-5.04 0.694 0 1.94 1.42 1.93 2.2-0.0026 0.284-0.139 0.729-0.303 0.988-0.253 0.4-0.413 0.363-1.06-0.24-0.417-0.391-0.853-0.712-0.969-0.712-0.538 0-1.23 1.72-1.8 4.49-1 4.86-1.65 5.98-2.1 3.6zm-35.7-3.73c-1.09-1.31-0.64-5.42 0.954-8.68 0.515-1.06 0.856-1.64 0.758-1.3-1.53 5.37-1.7 7.56-0.595 7.99 0.717 0.275 0.716 0.275 1.63-0.689l0.831-0.88-0.228 0.96c-0.58 2.44-2.34 3.81-3.35 2.6zm76.8-0.781c0-0.156 0.305-0.558 0.677-0.894 0.758-0.683 2.31-2.89 2.61-3.7 0.106-0.291 2e-3 -0.789-0.231-1.11-0.36-0.492-0.547-0.522-1.26-0.198-0.75 0.342-0.835 0.315-0.835-0.267 0-0.836 1.38-2.22 2.22-2.22 0.356 0 0.887 0.367 1.18 0.815 0.661 1.01 0.297 2.49-1.14 4.64-0.939 1.41-3.22 3.48-3.22 2.93zm-87-16.2c-6.81-1.48-16.7-5.4-16.7-6.62 0-0.246 2.22-0.289 7.6-0.147 6.7 0.177 13.3-0.0566 16.7-0.594 0.939-0.146 1.52-0.647 3.5-3.03 1.31-1.57 2.78-3.45 3.28-4.19l0.902-1.34v-6.82c0-4.91-0.357-11.6-1.27-23.7-0.699-9.29-1.43-19.6-1.62-23-0.196-3.38-0.555-6.71-0.809-7.5-0.627-1.94-0.597-2.24 0.541-5.23 1.41-3.71 1.69-3.93 2.53-1.97 1.38 3.22 5.35 14.1 5.56 15.2 0.324 1.77-0.301 1.81-1.93 0.108-0.792-0.827-1.51-1.44-1.59-1.35-0.0815 0.0815 0.356 6.04 0.972 13.2 0.616 7.19 1.23 14.4 1.37 16l0.251 2.95 3.36-1.96c6.39-3.72 10.6-6.45 13-8.34 1.3-1.05 2.36-2 2.35-2.12-0.0064-0.118-0.662-0.626-1.46-1.13-1.83-1.16-2.52-2.21-2.46-3.75 0.0888-2.23 1.96-4.87 4.31-6.08 3.64-1.88 5.03 1.19 3.28 7.25-0.15 0.521 0.0876 0.847 1.11 1.52 0.716 0.474 1.3 1.04 1.3 1.26 0 0.423-1.16 2.76-1.61 3.23-0.149 0.158-0.789-0.15-1.46-0.703l-1.19-0.984-1.99 2.14c-3.59 3.87-9 7.29-15.1 9.51l-3.23 1.19-0.214 4c-0.117 2.2-0.508 6.3-0.868 9.11-0.36 2.81-0.609 5.16-0.553 5.21 0.0556 0.0515 1.61-1.27 3.46-2.94 7.09-6.41 13.7-10.6 18.6-11.8 3-0.744 6.13-0.482 8.3 0.696 2.09 1.14 4.5 3.74 5.65 6.08 0.778 1.59 0.847 2 0.665 3.96-0.466 5.01-2.64 9.22-6.1 11.8-9.12 6.78-37.7 13.1-48.5 10.8zm18-8.45c8.78-1.3 18.1-3.62 24.4-6.08 4.12-1.61 8.4-3.76 8.4-4.23 0-1.18-4.04-5.31-6.32-6.48-4.69-2.38-11.8-0.271-20.1 5.94-3.07 2.3-9.3 7.93-11 9.95l-1.29 1.52 0.899-0.0016c0.494-9.6e-4 2.77-0.279 5.06-0.618zm21.9-47.7c0-0.974-0.175-1.71-0.465-1.95-0.847-0.703-3.2 0.52-2.83 1.47 0.213 0.556 2.32 2.03 2.89 2.03 0.272 0 0.406-0.514 0.406-1.56zm59.1 44.9c-0.0929-0.69-0.612-2.23-1.15-3.42-0.905-1.99-1.05-2.15-1.78-1.97-0.602 0.151-1-0.0044-1.63-0.628-0.714-0.714-0.777-0.928-0.455-1.55 0.987-1.91 1.65-2.07 3.13-0.754 0.876 0.773 2.27 3.55 2.27 4.54 8e-3 1.63 0.499 0.884 1.12-1.7 0.736-3.07 1.58-4.79 2.49-5.07 1.08-0.344 2.35 1.3 2.02 2.62-0.183 0.73-1.14 1.12-1.14 0.461 0-0.17-0.293-0.465-0.651-0.657-0.581-0.311-0.715-0.201-1.25 1.03-0.331 0.757-0.853 2.65-1.16 4.2-0.306 1.55-0.799 3.13-1.1 3.49-0.534 0.659-0.545 0.65-0.711-0.585zm-98.2-6.77c-0.089-0.66-0.608-2.18-1.15-3.38-0.86-1.89-1.08-2.16-1.66-1.97-0.875 0.278-2.23-0.623-2.23-1.48 0-1.03 1.2-2.53 1.85-2.3 1.47 0.519 3.58 3.71 3.59 5.44 0.0074 1.66 0.553 0.811 1.11-1.71 0.597-2.72 1.42-4.38 2.52-5.04 0.475-0.287 0.72-0.189 1.36 0.548 0.823 0.946 0.964 1.68 0.475 2.45-0.255 0.403-0.379 0.392-0.9-0.08-0.333-0.301-0.833-0.547-1.11-0.547-0.598 0-1.34 1.86-1.84 4.64-0.408 2.25-1.23 4.64-1.58 4.64-0.138 0-0.324-0.54-0.413-1.2zm-23.9-5.22c0.264-0.167 2.81-1.75 5.66-3.52 5.69-3.53 7.78-5.29 7.78-6.53 0-0.886-1.41-4.84-1.97-5.51-0.205-0.247-0.626-0.348-0.981-0.235-0.715 0.227-2.17-0.953-2.17-1.76 8.64e-4 -0.277 0.342-0.929 0.757-1.45l0.756-0.945 0.916 0.6c1.45 0.952 2 1.78 2.74 4.15l0.691 2.22 0.713-2.97c0.692-2.88 1.38-4.26 2.47-4.95 0.41-0.259 0.713-0.161 1.34 0.431 0.84 0.789 1.03 1.74 0.506 2.57-0.253 0.4-0.413 0.363-1.06-0.24-0.417-0.391-0.852-0.712-0.969-0.712-0.454 0-1.25 2.09-1.86 4.86-0.349 1.6-0.801 3.21-1.01 3.58-0.205 0.372-0.403 0.858-0.44 1.08-0.335 2-3.75 5.23-7.58 7.16-2.85 1.44-7.88 3.17-6.31 2.17zm85.9-3.74c-0.199-0.836-0.731-2.35-1.18-3.37-0.754-1.7-0.886-1.83-1.65-1.64-0.568 0.143-1.02 0.03-1.45-0.36-0.755-0.683-0.782-1.16-0.139-2.4 1.1-2.12 3.49-0.3 4.66 3.54l0.718 2.36 0.694-3.11c0.759-3.41 1.55-4.8 2.81-4.95 1.36-0.163 2.34 1.85 1.53 3.13-0.251 0.397-0.432 0.346-1.14-0.32l-0.844-0.792-0.563 0.694c-0.31 0.382-0.866 2.12-1.24 3.86-1.12 5.25-1.58 5.96-2.2 3.37zm-5.71-17.5c0.352-0.283 2.25-1.4 4.22-2.48 4.47-2.45 5.23-3.01 4.61-3.41-0.657-0.427-5.81-0.774-7.68-0.517-2.25 0.31-2.46 0.0666-1.45-1.7 1.69-2.95 1.92-3.08 5.96-3.2 4.37-0.134 6.74 0.136 7.65 0.873 0.666 0.539 0.672 0.599 0.166 1.66-0.864 1.81-3.71 5.39-4.95 6.24-1.13 0.774-5.79 2.42-8.05 2.84-1.07 0.201-1.09 0.187-0.48-0.305zm-60.1-12.2c-0.089-0.66-0.608-2.18-1.15-3.38-0.86-1.89-1.08-2.16-1.66-1.97-0.791 0.251-2.23-0.592-2.23-1.31 0-0.973 0.969-2.38 1.64-2.38 1.45 0 3.23 2.66 3.97 5.92 0.187 0.818 0.322 0.504 0.914-2.11 0.725-3.2 1.35-4.51 2.43-5.09 1.36-0.726 2.98 2.18 1.78 3.18-0.366 0.304-0.528 0.248-0.811-0.281-0.503-0.94-1.46-0.829-1.89 0.219-0.198 0.484-0.647 2.2-0.998 3.82-0.974 4.49-1.69 5.69-2 3.38zm31.2-12.9c-0.222-1.67-0.402-3.55-0.4-4.17 5e-3 -1.34 0.764-2.55 1.6-2.55 0.332 0 0.693-0.145 0.802-0.322 0.309-0.499-0.751-0.758-1.29-0.314-0.679 0.564-0.594-0.106 0.126-0.996 0.527-0.651 0.704-0.697 1.42-0.37 1.01 0.462 1.89 1.75 1.64 2.4-0.12 0.312-0.759 0.541-1.79 0.64-0.88 0.0845-1.75 0.306-1.94 0.492-0.238 0.238-0.223 1.13 0.0506 3.01 0.214 1.47 0.339 3.24 0.277 3.95-0.0857 0.982-0.206 0.571-0.516-1.76zm34.8-1.25c-0.694-0.44-0.175-1.4 0.62-1.14 0.178 0.0566 0.444 0.389 0.647 0.357 0.21-0.0337 0.224-0.333 0.49-0.547 0.512-0.411 0.569-0.31 0.933 0.0536 0.696 0.697 0.11 1.42-0.769 0.952-0.266-0.142-0.469-0.38-0.598-0.369-0.14 0.0122-0.198 0.287-0.277 0.495-0.216 0.563-0.416 0.601-1.05 0.201zm-7.71-1.24c0-0.141 0.72-0.561 1.6-0.932s1.6-0.539 1.6-0.372c0 0.167-0.66 0.587-1.47 0.932-1.66 0.711-1.73 0.727-1.73 0.372zm-22.8-1.66c1.05-0.525 2.23-1.3 2.63-1.72 0.672-0.715 0.69-0.841 0.27-1.85-0.562-1.34-2.93-3.53-3.56-3.29-0.254 0.0975-0.761 0.0172-1.13-0.179-0.504-0.27-0.665-0.667-0.665-1.65v-1.29l1.92 1.35c2.05 1.44 3.84 3.76 3.84 4.99 0 0.41 0.127 0.745 0.283 0.745 0.499 0 0.633-1.69 0.34-4.28-0.165-1.47-0.166-2.74-0.0016-3.03 0.218-0.39 0.323-0.252 0.456 0.604 0.095 0.611 0.382 2.45 0.638 4.08 0.256 1.63 0.698 3.33 0.982 3.76 0.737 1.12 2.39 1.23 3.41-0.147 0.963-1.3 1.21-0.809 0.579 0.364-0.34 0.635-0.297 0.657 0.88 0.469 0.799-0.128 1.61-0.397 1.83-1.11 0.363-1.18 0.944-0.948 0.682-0.104-0.153 0.492-0.0693 0.856 0.214 1.04 0.702 0.445 0.866 0.348 1.54-0.915 0.542-1.02 0.628-1.08 0.568-0.4-0.0633 0.71 0.0649 0.811 1.14 0.9 1.12 0.0924 1.2 0.0437 1.05-0.64-0.0896-0.407-0.391-2.11-0.67-3.78-0.279-1.67-0.639-3.36-0.8-3.76-0.305-0.746-0.114-1.68 0.343-1.68 0.368 0 0.741 1.23 0.779 2.56 0.0175 0.616 0.233 2.44 0.479 4.06 0.346 2.28 0.363 3.13 0.0753 3.76-0.416 0.912-1.23 1.05-2.16 0.358-0.561-0.414-0.687-0.376-1.3 0.385-0.646 0.804-0.714 0.819-1.46 0.331-0.597-0.391-0.927-0.43-1.4-0.165-0.34 0.191-1.67 0.387-2.95 0.436-2.73 0.104-3.33-0.278-3.93-2.5l-0.369-1.37-0.418 1.21c-0.23 0.668-0.662 1.48-0.96 1.81-0.614 0.678-3.07 1.6-4.27 1.6-0.596 0-0.318-0.238 1.12-0.955zm26.8-0.471c-0.432-0.432-0.785-1.03-0.785-1.33 0-0.507-0.0401-0.508-0.585-0.0145-0.795 0.72-2.93 0.72-2.93-1.9e-4 0-0.734 1.46-2.58 2.24-2.83 0.452-0.144 0.65-0.502 0.673-1.22 0.0236-0.722 0.197-0.342 0.596 1.31 0.31 1.28 0.821 2.61 1.14 2.96 0.733 0.81 2.27 0.815 3.49 0.0122 0.829-0.547 1.01-0.565 1.59-0.158 0.851 0.596 1.76 0.586 2-0.0219 0.102-0.265-0.067-2.15-0.375-4.18-0.357-2.36-0.448-3.81-0.252-4.01 0.196-0.196 0.512 1.08 0.875 3.54 0.353 2.39 0.77 4.1 1.1 4.51 0.52 0.642 0.535 0.626 0.568-0.636 0.0641-2.44 1.67-3.72 3.64-2.91 1.33 0.55 1.19 0.928-0.268 0.733-0.973-0.131-1.4-9e-3 -2.11 0.595l-0.883 0.759 0.688 0.875c0.821 1.04 1.7 1.1 3.16 0.217 1.37-0.833 1.64-0.588 0.555 0.497-1.75 1.75-4.3 2.24-5.75 1.1-0.724-0.569-0.871-0.594-1.03-0.172-0.291 0.758-1.3 0.925-2.16 0.358-0.728-0.477-0.855-0.468-1.85 0.142-1.42 0.864-2.37 0.827-3.33-0.129zm-1.11-2.39c0-0.162-0.086-0.518-0.191-0.792-0.17-0.443-0.291-0.446-1.1-0.0285-1.44 0.746-1.45 1.11-8e-3 1.11 0.714 0 1.3-0.132 1.3-0.294zm-4.86 1.25c-0.259-1.03-0.949-5.49-1.14-7.36-0.255-2.54 0.455-0.992 1.03 2.24 0.507 2.87 0.597 7.05 0.11 5.12zm-10.2-4.73c-0.052-1.02 0.276-1.66 0.466-0.0791 0.288 0.822 1.27 0.159 1.16-0.727-0.104-0.819 0.237-0.801 0.252-0.117 0.0256 1.11 0.951 0.753 1.05-0.165 0.0971-0.876 0.398-0.951 0.24 0.102-0.0685 0.458-0.145 0.99-0.368 1.16-0.432 0.334-1.07 0.283-1.07 0.283-0.782 0.342-1.44 0.52-1.73-0.46zm19.5 0.104c0.707-0.394 0.734-0.471 0.235-0.665-0.311-0.121-0.859-0.142-1.22-0.0483-0.536 0.14-0.586 0.089-0.276-0.284 0.436-0.525 1.84-0.593 2.54-0.123 0.41 0.274 0.369 0.414-0.275 0.955-0.416 0.348-0.992 0.628-1.28 0.622-0.362-8e-3 -0.276-0.15 0.275-0.457zm-36.1-0.68s1.14-0.744 1.17-0.966c0 0-0.276-0.224-0.479-0.448-0.42-0.464-0.456-0.724-0.173-1.25 0.394-0.735 1.19-0.875 1.44-0.267 0.238 0.593 0.293 1.35-0.117 1.75 0 0 0.355 0.196 0.422 0.368 0.0746 0.19-0.143 0.357-0.288 0.357-0.129 0-0.39-0.313-0.487-0.296 0 0-0.739 0.761-1.02 0.935-1.53 0.931-1.89 0.785-0.458-0.187zm1.81-2c-0.0459-0.949-0.38-0.694-0.69-0.503-0.331 0.205 0.345 0.99 0.508 1.01 0 0 0.189-0.359 0.182-0.505zm12.6 0.251c0.17-0.275 5.41-2.86 5.79-2.86 0.0634 0 0.115 0.12 0.115 0.267 0 0.258-5.35 2.93-5.86 2.93-0.14 0-0.16-0.151-0.0461-0.336zm27.7 0.0839c0-0.389 3.86-2.72 4.1-2.47 0.257 0.257-0.198 0.611-2.26 1.76-1.01 0.564-1.84 0.885-1.84 0.713zm-34.2-2.41c0.631-0.642 4.48-2.18 4.48-1.79 0 0.291-2.66 1.59-4.21 2.06-0.671 0.202-0.7 0.174-0.272-0.262zm29.4 0.127c0-0.161 0.972-0.845 2.16-1.52 2.69-1.53 2.64-1.51 2.64-1.12 0 0.264-4.25 2.93-4.67 2.93-0.0725 0-0.132-0.132-0.132-0.292zm-12.7-0.908c0.182-0.22 0.505-0.4 0.716-0.4 0.212 0 0.713-0.35 1.11-0.777 0.746-0.794 1.62-0.788 1.62 0.0111 0 0.935-1.24 1.74-2.54 1.65-0.954-0.0668-1.17-0.181-0.914-0.487zm2.81-0.781c0-0.425-1.04-0.185-1.19 0.276-0.0794 0.238 0.115 0.312 0.533 0.203 0.362-0.0947 0.658-0.31 0.658-0.478z" stroke-width=".32"/>
</svg>
