<?xml version="1.0" encoding="UTF-8"?>
<!-- Created with Inkscape (http://www.inkscape.org/) -->
<svg width="149" height="146" version="1.1" viewBox="0 0 149 146" xmlns="http://www.w3.org/2000/svg">
 <path d="m74.7 145c-4.2-1.45-6-4.58-5.97-10.4 0.0102-1.74-0.078-3.12-0.196-3.06-0.118 0.0551-0.968 0.496-1.89 0.981-4.92 2.59-9.22 2.13-10.6-1.13-0.86-1.98-1.05-4.18-0.651-7.43 0.678-5.48 3.63-12.4 7.83-18.2l2.05-2.86-0.668-0.939c-1.28-1.8-8.18-9.04-12.3-12.9l-4.13-3.88-2.23 1.13c-6.34 3.21-13.4 5.97-18.6 7.32-2.8 0.718-4.16 0.886-7.28 0.897-4.09 0.0139-6.19-0.365-9.11-1.64-3.9-1.71-7.1-5.15-9-9.66-3.62-8.6-1.85-23.8 3.98-34.2 1.48-2.65 2.91-4.49 3.24-4.16 0.122 0.119-0.576 2.07-1.55 4.34-3.48 8.09-4.67 12.7-4.68 18.2-0.0114 5.81 1.42 9.77 4.86 13.4 5.16 5.51 13.5 6.62 24.7 3.29 3-0.89 10.4-3.78 10.4-4.07 0-0.125-1.25-1.59-2.77-3.26-8.57-9.36-16.9-20.6-23.5-31.7-1.31-2.2-2.99-4.59-3.74-5.31l-1.36-1.31 0.0049-3.65c5e-3 -3.75 0.225-4.68 1.03-4.37 0.763 0.293 14.9 12.4 15.3 13 0.179 0.334 0.325 0.761 0.325 0.949 0 0.517-1.56 0.391-3.52-0.286-0.966-0.333-1.81-0.551-1.88-0.484-0.25 0.25 2.97 5.37 5.68 9.02 4.47 6.03 13.3 16.4 18.5 21.9l2.35 2.45 2.94-1.62c7.05-3.88 11.7-7.18 11.2-7.94-0.624-1.01-5.21-2.57-17.8-6.07-3.31-0.917-6.33-1.92-6.71-2.23l-0.688-0.557 0.628-2.83c0.769-3.46 0.704-3.41 7.71-6.19 8.8-3.49 11.3-4.57 11.3-4.83 0-0.142-2.2-2.12-4.88-4.39-7.51-6.35-8.39-7.58-8.39-11.8-0.0048-2.21 0.112-2.76 0.848-4 1.16-1.95 2.95-3.61 5.07-4.7 1.72-0.88 1.88-0.901 6.88-0.887 5.75 0.0168 9.11 0.503 19.8 2.88 6.79 1.5 28.3 7.34 28.8 7.81 0.293 0.293-0.195 1.99-1.77 6.13l-0.923 2.43-4.71 1.22c-5.78 1.49-20.6 5.91-28.2 8.42l-5.65 1.86-0.2 3.28c-0.11 1.8-0.302 3.38-0.426 3.5-0.38 0.38-1.13-0.942-1.82-3.21-0.361-1.19-0.769-2.23-0.905-2.31-0.289-0.179-7.37 3.05-7.37 3.36 0 0.115 0.9 0.474 2 0.798 3.58 1.06 7.72 2.73 8.82 3.57 1.74 1.33 2.3 2.53 2.3 4.97 0.0032 5.65-4.43 12.2-11.4 16.8l-1.71 1.14 6.19 6.26c3.41 3.45 6.87 7.06 7.7 8.02l1.51 1.76 0.873-0.987c6.91-7.82 24.8-29 24.6-29.2-0.209-0.209-8.38 3.01-13.5 5.33-2.8 1.26-5.28 2.38-5.51 2.47-0.361 0.154 0.0762-1.27 1.36-4.42 0.427-1.05 10.7-5.48 18.7-8.03l4.27-1.37 7.92-9.6c9.28-11.3 17.1-21 21.5-26.9 1.74-2.31 3.37-4.38 3.64-4.6 0.735-0.61 0.633 0.448-0.345 3.58-1.3 4.15-6.73 11.9-19.3 27.6-3.1 3.86-5.74 7.19-5.86 7.4-0.136 0.219 1.89-0.157 4.8-0.892 10.9-2.76 19.9-4.65 19.9-4.19 0 0.681-1.58 3.63-2.01 3.76-0.213 0.0639-3.55 0.849-7.43 1.74-3.87 0.895-9.96 2.45-13.5 3.46l-6.48 1.83-7.63 9.13c-4.2 5.02-10.9 13-15 17.7-4.03 4.72-7.58 8.92-7.89 9.32-0.543 0.711-0.516 0.807 1.04 3.77 2.35 4.46 2.9 6.27 3.1 10.2 0.144 2.77 0.056 3.83-0.502 6.04-0.944 3.73-2 5.86-3.75 7.56l-1.5 1.46 0.364 1.83c0.704 3.54 2.24 4.63 6.75 4.81 5.32 0.206 9.8-1.36 13-4.53 1.33-1.34 1.99-2.45 3.52-5.9 1.04-2.34 2.08-4.41 2.31-4.6 0.235-0.195 1.21-1.46 2.16-2.82 6.81-9.72 14.4-8.74 16.7 2.15 1.11 5.26-0.0189 12.3-2.39 14.7-1.85 1.93-9.77-0.01-15.6-3.82-1.11-0.718-2.06-1.25-2.12-1.18-0.0591 0.0681-0.644 1.2-1.3 2.52-2.21 4.45-5.46 8.28-8.82 10.4-3.15 2-7.52 2.6-10.7 1.49zm36-18.3c0-1.79-1.94-4.58-3.9-5.61-1.71-0.894-4.52-0.361-5.83 1.1-0.58 0.651-0.582 0.714-0.0538 1.3 1.14 1.26 7.34 4.11 9.06 4.16 0.594 0.0193 0.72-0.147 0.72-0.953zm-45.6-1.89c2.19-0.77 6.25-3.12 8.06-4.67 2.14-1.83 1.91-2.6-2.73-9.36l-2.73-3.97-0.771 0.91c-6.65 7.85-9.07 11.8-9.06 14.9 0.0026 0.744 0.111 1.51 0.24 1.7 0.833 1.23 4.18 1.45 6.99 0.468zm6.36-84.5c5.47-1.83 15.9-4.89 18.9-5.51 1.03-0.217-1.05-0.997-7.79-2.93-6.52-1.87-12.9-3.33-18.4-4.23-4.53-0.732-14.2-0.829-15-0.15-0.503 0.417-0.501 0.488 0.0302 1.09 0.312 0.352 2.8 2.52 5.53 4.82 2.73 2.3 6.04 5.28 7.36 6.63 1.32 1.35 2.47 2.47 2.56 2.49 0.088 0.0209 3.18-0.975 6.88-2.21zm-33.1 86.4c-0.204-2.18-0.66-5.45-1.01-7.26-1.1-5.62-0.753-7.32 1.69-8.36 1.3-0.55 1.31-0.579 0.618-0.952-0.629-0.337-0.823-0.274-1.56 0.509l-0.842 0.893 0.181-1.41c0.0997-0.775 0.489-1.83 0.866-2.34 0.67-0.907 0.673-0.961 0.14-2.59-0.3-0.916-0.886-2.35-1.3-3.18-0.681-1.36-0.845-1.49-1.64-1.34-0.672 0.134-1.06-0.0192-1.66-0.651-0.76-0.809-0.765-0.851-0.239-1.95 0.296-0.62 0.763-1.21 1.04-1.32 1.46-0.56 3.47 1.89 4.32 5.27l0.528 2.1 0.562-2.53c0.742-3.35 1.35-4.81 2.32-5.57 0.91-0.716 1.68-0.482 2.49 0.757 0.388 0.592 0.412 0.937 0.121 1.77l-0.361 1.04-1.89-1.8-0.596 0.732c-0.328 0.402-0.829 1.84-1.11 3.2-0.286 1.36-0.71 3.09-0.943 3.85-0.404 1.32-0.391 1.39 0.278 1.65 0.908 0.345 2.67 1.83 3.08 2.6 0.226 0.422 0.189 0.913-0.126 1.67-0.393 0.94-0.692 1.14-2.49 1.62-1.12 0.305-2.36 0.799-2.74 1.1l-0.702 0.544 0.778 2.66c1.37 4.68 1.73 10.1 0.84 12.6-0.189 0.511-0.375-0.435-0.637-3.25zm85.3-5.64c-0.102-1.73-0.502-4.77-0.889-6.77-0.849-4.38-0.621-5.79 1.07-6.65 1.36-0.693 1.41-0.748 0.863-1.08-0.322-0.199-0.703-0.0708-1.24 0.417l-0.77 0.705 0.192-1.24c0.105-0.682 0.431-1.5 0.723-1.83 0.666-0.736 0.449-2.02-0.755-4.45-0.643-1.3-1.02-1.73-1.46-1.66-0.797 0.136-2.14-0.788-2.13-1.47 4e-3 -0.304 0.272-0.897 0.596-1.32 1.26-1.64 3.39 0.233 4.3 3.8 0.486 1.9 0.515 1.87 1.22-1.4 0.45-2.1 1.45-3.82 2.32-3.98 0.831-0.16 1.8 0.863 1.8 1.9 0 1.21-0.475 1.41-1.32 0.57l-0.703-0.703-0.526 0.65c-0.768 0.948-2.13 7.23-1.6 7.4 0.778 0.259 2.87 2.37 2.87 2.9 0 0.917-0.919 1.89-2 2.13-0.572 0.123-1.59 0.504-2.27 0.845-0.92 0.466-1.17 0.756-1.01 1.16 0.118 0.297 0.507 1.62 0.865 2.94 0.741 2.73 0.994 9.31 0.382 9.92-0.257 0.257-0.403-0.499-0.538-2.78zm-34.9 0.637c-0.33-1.66-1.6-5.28-2.26-6.45-0.581-1.03-0.78-1.15-1.76-1.06-0.891 0.0774-1.3-0.0974-2.05-0.889-0.943-0.984-0.943-0.986-0.38-2.02 1.17-2.14 1.36-2.28 2.45-1.83 1.52 0.628 3.14 2.76 3.85 5.06 0.348 1.13 0.632 2.32 0.632 2.65 0 0.333 0.144 0.606 0.32 0.606s0.323-0.324 0.326-0.72c0.0089-0.995 1.39-6.3 1.9-7.28 0.68-1.31 1.68-2.24 2.42-2.24 1.22 0 2.44 1.87 2.16 3.31-0.237 1.24-0.931 1.41-1.72 0.407-1.43-1.81-2.16-0.727-3.49 5.19-0.996 4.41-1.38 5.64-1.89 5.95-0.186 0.115-0.408-0.186-0.508-0.689zm-65.8-5.98c-0.296-1.13-0.974-3.01-1.51-4.19-0.927-2.05-1.01-2.13-1.89-1.93-0.718 0.158-1.15 0.0143-1.93-0.641-0.552-0.464-1-1.12-1-1.46 0-1.04 1.36-2.84 2.15-2.84 1.67-9e-3 4.19 3.48 4.74 6.56 0.387 2.15 0.641 2.17 1.06 0.0842 0.831-4.11 1.68-6.42 2.75-7.49 0.773-0.773 1.22-0.99 1.76-0.849 1.04 0.272 2 1.96 1.78 3.13-0.283 1.51-0.756 1.74-1.49 0.73-0.853-1.16-1.73-1.12-2.37 0.107-0.281 0.543-0.923 2.91-1.43 5.26-0.891 4.15-1.37 5.59-1.85 5.59-0.129 0-0.476-0.923-0.772-2.05zm70-15c0.421-1.1 0.86-2.24 0.977-2.52 0.438-1.08 10.2-5.22 19.4-8.22 10.5-3.42 35.1-9.53 35.8-8.86 0.114 0.114-0.221 1.02-0.745 2.02l-0.953 1.81-2.56 0.561c-18.6 4.06-35.3 9.36-48 15.2-2.44 1.12-4.49 2.04-4.56 2.04-0.0671 0 0.222-0.9 0.643-2zm4.67-12.9c0-0.116 0.708-1.01 1.57-1.98 1.88-2.11 3.09-4.27 2.81-5.01-0.295-0.769-1.13-1-2.19-0.602-0.776 0.293-0.913 0.265-0.912-0.188 0.0019-0.882 1.23-2.61 2.08-2.93 0.956-0.364 2.22 0.0404 2.52 0.802 0.683 1.78-0.481 4.94-2.71 7.36-1.38 1.5-3.16 2.93-3.16 2.55zm23.5-5.52c-0.199-0.833-0.73-2.35-1.18-3.36-0.744-1.68-0.893-1.83-1.62-1.65-0.6 0.151-1-0.0064-1.63-0.634l-0.834-0.834 0.719-1.28c0.819-1.46 1.41-1.47 2.92-0.0588 0.906 0.848 2.16 3.72 2.16 4.94 0 1.28 0.522 0.11 1.1-2.48 0.635-2.84 1.48-4.5 2.45-4.81 1.13-0.359 2.41 1.24 2.07 2.6-0.183 0.73-1.14 1.12-1.14 0.461 0-0.17-0.283-0.46-0.629-0.645-0.943-0.505-1.47 0.55-2.41 4.81-0.975 4.41-1.45 5.12-1.97 2.94zm-106-8.62c-0.399-1.35-1.09-3.24-1.54-4.18-0.756-1.6-0.873-1.7-1.72-1.52-1.01 0.221-2.35-0.477-2.9-1.5-0.255-0.476-0.142-0.928 0.506-2.03 0.472-0.805 1.07-1.42 1.38-1.42 1.83 4e-3 4.21 3.11 4.91 6.4 0.419 1.96 0.912 2.81 0.922 1.58 0.0114-1.39 1.48-6.58 2.25-7.95 1.15-2.05 2.53-2.15 3.92-0.283 0.534 0.715 0.564 0.968 0.231 1.98-0.452 1.37-0.623 1.41-1.61 0.355-0.413-0.44-0.951-0.8-1.19-0.8-0.663 0-1.61 2.43-2.33 5.97-0.668 3.3-1.49 5.87-1.88 5.87-0.126 0-0.556-1.11-0.954-2.46zm123-0.788c2.41-2.84 3.25-4.29 3.02-5.2-0.235-0.937-1.18-1.21-2.26-0.652-0.71 0.368-0.821 0.359-0.821-0.067 0-0.944 0.996-2.58 1.79-2.95 1.14-0.518 1.87-0.453 2.48 0.221 1.36 1.5 0.0266 5.38-2.83 8.25-2.51 2.52-3.41 2.78-1.39 0.397zm-19-0.854c-1.12-1.24-0.37-6.48 1.38-9.65 0.805-1.46 0.79-1.3-0.159 1.76-0.918 2.95-1.02 5.01-0.292 5.74 0.708 0.708 0.941 0.641 1.88-0.537l0.825-1.04-0.459 1.55c-0.763 2.57-2.03 3.45-3.17 2.18zm-33.4-12.5c-0.382-1.37-1.08-3.32-1.56-4.32-0.846-1.79-0.891-1.82-1.94-1.63-0.908 0.17-1.22 0.0524-2.05-0.781l-0.982-0.982 0.629-1.23c0.999-1.96 1.41-2.17 2.83-1.44 1.47 0.752 3.07 3.27 3.6 5.63 0.205 0.913 0.446 1.88 0.537 2.14s0.583-1.22 1.09-3.3c0.992-4.04 1.28-4.77 2.31-5.9 0.918-1.01 1.93-0.906 2.94 0.298 0.672 0.799 0.815 1.23 0.662 1.99-0.306 1.53-0.708 1.7-1.72 0.734-0.495-0.474-1.07-0.862-1.27-0.862-0.677 0-1.38 1.91-2.33 6.31-0.762 3.55-1.55 5.86-1.99 5.84-0.0399-0.0013-0.385-1.13-0.767-2.5zm45.2-13.9c2.14-1.77 5.01-4.54 5.33-5.13 0.542-1.01-0.212-1.84-1.67-1.84-0.709 0-1.58 0.156-1.94 0.346-0.934 0.5-1.1 0.122-0.501-1.14 1.2-2.53 5.93-3.15 6.53-0.866 0.314 1.2 0.16 1.93-0.726 3.46-1.06 1.82-3.22 3.65-5.98 5.05l-2.32 1.17zm-99.4-8.81c-0.089-0.66-0.608-2.18-1.15-3.38-0.86-1.89-1.08-2.16-1.66-1.97-0.791 0.251-2.23-0.592-2.23-1.31 0-0.269 0.22-0.913 0.488-1.43 1.25-2.42 4.03 0.277 5.13 4.98 0.196 0.836 0.304 0.61 0.836-1.76 0.707-3.15 1.41-4.72 2.41-5.36 0.641-0.413 0.78-0.38 1.52 0.36 0.844 0.844 1.04 1.93 0.487 2.76-0.27 0.408-0.407 0.364-0.914-0.29-1.2-1.55-1.9-0.553-2.94 4.18-1 4.56-1.65 5.62-1.97 3.23zm-1.65-10.7c-1.01-1.44-0.385-5.79 1.27-8.84 0.451-0.831 0.73-1.22 0.621-0.872-0.792 2.55-1.44 5.25-1.44 6.01 0 2.14 1.36 2.81 2.54 1.27l0.672-0.88-0.203 0.96c-0.561 2.65-2.38 3.89-3.46 2.35zm73.1-0.987c0-0.682-0.848-3.2-1.67-4.95-0.556-1.19-0.732-1.33-1.48-1.18-0.637 0.127-1.04-0.0338-1.61-0.636l-0.758-0.807 0.616-1.06c0.861-1.48 1.81-1.53 3.1-0.166 1 1.06 2.12 3.77 2.12 5.12 0 1.2 0.349 0.33 1.01-2.53 0.944-4.07 2.06-5.67 3.42-4.94 0.965 0.517 1.4 1.69 1.01 2.72l-0.348 0.914-0.731-0.687c-1.47-1.38-1.82-0.889-2.95 4.19-0.437 1.98-1.01 3.81-1.27 4.07-0.419 0.419-0.474 0.412-0.474-0.0631zm-63.7-7.74c0-0.108 0.785-1.12 1.74-2.25 2.75-3.24 3.38-4.92 2.1-5.6-0.48-0.257-0.875-0.218-1.6 0.157-1.09 0.561-1.18 0.337-0.517-1.25 0.513-1.23 1.62-2.11 2.64-2.11 2.64 0 2.14 4.71-0.879 8.15-1.06 1.21-3.49 3.24-3.49 2.91zm45.3-1.86c-0.0585-0.22-0.279-1.12-0.49-2-0.211-0.879-0.843-2.54-1.4-3.68-0.92-1.88-1.11-2.07-1.9-1.99-1.09 0.114-2.01-0.357-2.67-1.38-0.485-0.74-0.466-0.864 0.333-2.23 0.929-1.58 1.37-1.72 2.79-0.886 1.37 0.81 2.75 3.15 3.45 5.87 0.335 1.3 0.677 2.15 0.76 1.89 0.083-0.264 0.517-2.03 0.965-3.92 0.91-3.85 1.8-5.58 3.02-5.88 1-0.252 1.67 0.132 2.4 1.39 0.459 0.784 0.497 1.14 0.209 1.97-0.194 0.555-0.438 1.01-0.543 1.01s-0.586-0.379-1.07-0.842c-0.514-0.492-1.08-0.764-1.37-0.654-0.714 0.274-1.39 2.12-2.12 5.78-0.353 1.78-0.867 3.84-1.14 4.59-0.493 1.34-1.01 1.74-1.21 0.96zm16.6-1.7c-1.13-1.13-0.301-6.74 1.44-9.74 0.359-0.616 0.574-0.863 0.478-0.55-0.0955 0.314-0.473 1.56-0.839 2.76-0.802 2.64-0.75 5.07 0.118 5.6 0.489 0.295 0.738 0.171 1.53-0.765l0.944-1.12-0.466 1.55c-0.761 2.53-2.04 3.43-3.21 2.26zm-38.6-4.16c-1.67-1.16-3.25-2.22-3.5-2.37-0.38-0.217-0.217-0.806 0.926-3.34 0.763-1.69 1.57-3.22 1.79-3.41 0.299-0.248 1.31 0.277 3.87 2.02 3.11 2.11 3.46 2.45 3.4 3.24-0.0686 0.953-2.6 5.68-3.14 5.85-0.176 0.057-1.69-0.843-3.36-2z" stroke-width=".32"/>
</svg>
