<?xml version="1.0" encoding="UTF-8"?>
<!-- Created with Inkscape (http://www.inkscape.org/) -->
<svg width="147" height="142" version="1.1" viewBox="0 0 147 142" xmlns="http://www.w3.org/2000/svg">
 <g>
  <path d="m54.7 142c3.2e-4 -0.132 1.91-1.38 4.24-2.76 7.11-4.23 13.1-8.34 15.2-10.4 1.09-1.08 2.11-1.96 2.27-1.96 0.331 0 0.671-0.781 0.674-1.55 9.6e-4 -0.294 0.336-0.952 0.745-1.46 0.605-0.755 0.901-0.889 1.59-0.715 2.15 0.54 4.29 3.6 5.32 7.62 0.671 2.61 0.653 2.63 1.61-1.82 1.2-5.59 3.3-8.82 5.11-7.85 1.96 1.05 2.52 3.77 1.11 5.41-0.056 0.0652-0.595-0.405-1.2-1.04-0.688-0.729-1.28-1.09-1.59-0.976-0.784 0.301-1.81 3.11-2.66 7.26-0.784 3.86-1.75 6.64-2.31 6.64-0.163 0-0.391-0.586-0.505-1.3-0.267-1.67-2.29-6.95-3.04-7.94-0.491-0.647-0.677-0.704-1.27-0.389-0.765 0.409-1.59 0.119-2.81-0.991l-0.679-0.618-0.963 1.7c-2.76 4.86-7.96 8.6-16.4 11.8-4.6 1.73-4.51 1.71-4.5 1.36zm-21.5-10.8c-5.92-1.6-8.96-7.03-9.88-17.6-0.42-4.85-0.878-14.7-1.3-27.8-0.508-16-0.948-27-1.15-28.9-0.18-1.66-0.211-1.7-1.03-1.5-1.91 0.479-12 4.21-15.7 5.81-2.19 0.941-4.01 1.68-4.05 1.63-0.0428-0.0428 0.35-1.19 0.874-2.54 0.933-2.42 0.986-2.48 2.77-3.31 2.69-1.25 8.35-3.41 12.5-4.78 2.02-0.663 3.8-1.31 3.94-1.44 0.393-0.356-0.962-8.2-2.39-13.8-1.18-4.64-1.25-5.16-0.914-6.72 0.469-2.2 2-6.07 2.41-6.1 0.511-0.0362 1.99 3.2 2.88 6.31 1.02 3.58 1.9 8.39 2.56 14.1 0.283 2.44 0.566 4.49 0.629 4.55 0.063 0.063 3.62-0.894 7.9-2.13 10.9-3.14 18-5.03 31.2-8.34 9.72-2.43 27.9-6.75 28.4-6.75 0.376 0 0.108 1.09-0.626 2.54-0.713 1.41-0.934 1.59-2.32 1.91-20 4.59-42.5 10.6-61.5 16.3l-2.99 0.899 0.188 2.56c0.286 3.89 0.773 16.8 1.15 30.6 0.477 17.4 0.87 24.7 1.47 27 1.14 4.41 3.22 7.16 5.95 7.91 4.83 1.32 13.5-1.3 25.2-7.62l3.38-1.82-2.56-0.399c-4.97-0.776-15.1-2.02-22.8-2.8-4.27-0.433-7.91-0.875-8.08-0.981-0.549-0.339-0.353-0.931 1.45-4.38 1.95-3.73 2.67-4.51 7.68-8.29 18.2-13.7 37.3-24.6 46-26.2 4.05-0.747 5.27 0.142 9.11 6.63 2.38 4.03 3.38 5.06 6.09 6.3 3.11 1.42 9.4 0.702 14-1.61 4.28-2.15 5.96-4.17 8.78-10.6 0.951-2.16 2.1-4.32 2.55-4.8 0.453-0.481 1.39-1.74 2.08-2.79 1.62-2.49 4.74-5.52 6.84-6.65 2.5-1.35 4.45-1.47 6.6-0.422 2.65 1.3 4.44 4.14 5.53 8.8 0.654 2.8 0.636 9.15-0.0326 11.7-0.665 2.55-2.05 5.23-3.12 6.02-0.815 0.605-1.05 0.622-3.85 0.278-4.8-0.59-9.25-2.31-13.7-5.28l-2.05-1.38-1.41 2.9c-1.86 3.83-3.61 6.23-6.71 9.18-1.79 1.71-3.3 2.81-5.06 3.68l-2.51 1.24h-8.71l-2.41-1.19c-2.96-1.46-4.9-3.45-7.45-7.61-2.93-4.78-3.13-4.92-6.36-4.47-6.19 0.876-15 5.06-25.8 12.2-4.95 3.28-12.5 8.68-12.5 8.95-0.0042 0.132 1.28 0.24 2.86 0.24 1.64 0 6.66 0.545 11.8 1.28 15.4 2.22 23.9 3.07 34.4 3.47 3.29 0.125 6.07 0.317 6.18 0.427 0.309 0.309-3.92 8.52-4.55 8.85-0.311 0.16-2.87 0.378-5.68 0.483-5.9 0.221-9.91 0.779-15.5 2.16-5.68 1.41-8.29 2.49-19.5 8.1-5.5 2.75-11.1 5.36-12.4 5.8-2.67 0.895-6.3 1.04-8.84 0.358zm107-60.2c0-1.55-0.675-3.03-2.1-4.62-1.56-1.73-2.63-2.26-4.52-2.25-2.82 0.0129-5.55 1.86-4.55 3.07 1.08 1.3 8.7 4.88 10.5 4.91 0.613 0.0101 0.72-0.156 0.72-1.12zm-31.8 56.6c-0.528-0.436-2.22-1.62-3.75-2.63-1.75-1.15-2.8-2.05-2.8-2.4-4e-3 -0.473 2.96-6.78 3.41-7.27 0.216-0.231 2.49 1.13 5.48 3.28 1.46 1.05 2.71 1.86 2.77 1.79 0.0627-0.0633 0.607-1.2 1.21-2.52 0.602-1.32 1.3-2.57 1.56-2.78 0.38-0.313 1.14 0.0714 4.11 2.08 2 1.36 3.79 2.7 3.97 2.99 0.467 0.759-0.133 2.51-1.89 5.49-1.36 2.31-1.52 2.47-2.09 2.08-0.34-0.233-2.12-1.47-3.96-2.74l-3.35-2.32-1.49 2.88c-0.817 1.58-1.65 2.87-1.85 2.87-0.202-6e-3 -0.8-0.368-1.33-0.804zm10.1-21.3c0-0.169 0.301-1.01 0.669-1.86l0.669-1.55 3.25-1.14c7.95-2.79 20.2-6.86 20.3-6.75 0.0689 0.0689-0.215 0.742-0.631 1.5-0.717 1.3-0.931 1.43-4.11 2.57-7.96 2.84-11.9 4.31-15.9 5.88-2.33 0.92-4.24 1.53-4.24 1.37zm-107-4.12c-0.895-0.359-1.67-2.1-1.66-3.73 0.00892-1.6 1.29-5.17 2.53-7.06 1.21-1.85 3.16-4.08 3.38-3.86 0.086 0.086-0.295 0.866-0.848 1.73-2.63 4.14-3.77 7.71-2.76 8.71 0.573 0.573 1.67 0.465 2.58-0.256 0.447-0.352 0.918-0.64 1.05-0.64 0.389 0-0.143 2.95-0.681 3.77-0.397 0.606-2.32 1.75-2.76 1.65-0.0496-0.0112-0.421-0.153-0.824-0.315zm69.7-3.31c0-0.639-0.872-3.2-1.67-4.9-0.556-1.19-0.732-1.33-1.48-1.18-0.637 0.127-1.04-0.0338-1.61-0.636l-0.758-0.807 0.616-1.06c0.861-1.48 1.81-1.53 3.1-0.166 1 1.06 2.12 3.77 2.12 5.12 0 1.16 0.332 0.377 0.96-2.25 0.772-3.23 1.48-4.72 2.46-5.17 0.664-0.303 0.879-0.234 1.56 0.496 0.878 0.947 0.982 1.64 0.374 2.47-0.388 0.531-0.444 0.526-1.01-0.0988-1.3-1.44-2.01-0.447-2.85 3.99-0.267 1.41-0.63 2.94-0.806 3.4-0.378 0.994-1 1.48-1 0.778zm-70.6-23c-0.207-0.775-0.733-2.22-1.17-3.2-0.671-1.52-0.92-1.79-1.63-1.79-1.99 0-2.72-1.16-1.73-2.76 0.825-1.34 1.25-1.35 2.67-0.105 1.11 0.974 2.43 3.78 2.43 5.17 0 1.21 0.341 0.387 1-2.42 1.06-4.5 2.68-6.03 4.22-3.97 0.558 0.748 0.595 0.991 0.262 1.72l-0.389 0.853-0.728-0.684c-0.4-0.376-0.876-0.684-1.06-0.684-0.501 0-1.33 2.12-1.87 4.8-0.587 2.89-1.08 4.48-1.39 4.48-0.126 0-0.399-0.634-0.606-1.41zm32.3-5.54c-2.16-1.48-3.92-2.9-3.92-3.16 0-0.608 3.08-6.74 3.52-7.01 0.384-0.237 4.28 2.1 6.75 4.05 1.42 1.13 1.6 1.39 1.42 2.14-0.265 1.07-2.89 5.93-3.44 6.36-0.296 0.23-1.49-0.424-4.33-2.37zm73.2-6.33c0-3.06-0.558-7.63-1.62-13.3-1.13-5.98-1.17-7.64-0.249-9.54 0.561-1.16 1-1.57 2.41-2.21 1.41-0.646 1.66-0.873 1.35-1.24-0.626-0.754-1.69-0.515-2.61 0.587l-0.871 1.04-2e-3 -1.28c-2e-3 -1.4 0.863-3.59 1.69-4.28 0.651-0.538 0.538-1.08-1.11-5.36-1.36-3.52-2.19-4.63-2.97-3.98-0.531 0.441-1.43 0.0921-2.67-1.03-0.879-0.801-0.894-1.19-0.103-2.74 0.912-1.79 1.43-2.12 2.54-1.66 2.09 0.865 4.11 3.99 4.97 7.68 0.493 2.11 0.828 2.8 0.828 1.7 0-1.32 1.86-7.96 2.56-9.14 1.34-2.27 3.09-2.5 4.44-0.604 0.747 1.05 0.841 1.83 0.367 3.07-0.408 1.07-0.785 1.04-1.88-0.193-1.7-1.9-2.42-0.81-4.05 6.13-0.56 2.38-1.12 4.54-1.23 4.82-0.156 0.357 0.104 0.649 0.93 1.04 0.631 0.301 1.86 1.21 2.73 2.03 1.75 1.64 1.93 2.39 1.01 4.24-0.481 0.962-0.827 1.17-2.94 1.78-3.29 0.952-5.23 1.98-5.03 2.67 0.0852 0.296 0.536 1.83 1 3.41 1.66 5.62 2.31 13.2 1.43 16.7-0.543 2.16-0.92 2.02-0.92-0.337zm-57.6-0.595c0.258-0.236 2.12-1.41 4.15-2.61 6.82-4.04 12.8-8.12 14.8-10.1 1.1-1.09 2.1-2 2.21-2.01 0.41-0.0433 0.673-0.488 0.76-1.28 0.0802-0.731 1.27-2.74 1.62-2.74 0.7 0 2.42 1.09 3.3 2.1 1.28 1.45 2.17 3.36 2.92 6.22 0.438 1.68 0.579 1.92 0.724 1.28 1.71-7.56 2.24-9.09 3.68-10.6 1.03-1.1 1.98-1.12 3.05-0.0477 1.04 1.04 1.29 1.81 1.03 3.18-0.289 1.54-0.723 1.64-1.94 0.457-0.688-0.667-1.26-0.967-1.59-0.84-0.825 0.317-1.73 2.77-2.72 7.39-1.25 5.84-2.23 7.66-2.72 5.06-0.27-1.45-2.25-6.67-2.92-7.69-0.401-0.614-0.657-0.698-1.59-0.524-0.904 0.17-1.32 0.0478-2.25-0.661-0.626-0.478-1.18-0.818-1.22-0.756-0.0451 0.0618-0.494 0.83-0.997 1.71-1.78 3.1-5.62 6.5-10.1 8.9-2.07 1.12-9.54 4.07-10.3 4.07-0.284 0-0.264-0.123 0.0694-0.428zm74.6-20.7c3.5-4.08 4.33-6.41 2.37-6.63-0.495-0.0567-1.11 0.0718-1.37 0.286-0.679 0.564-0.799 0.26-0.428-1.08 0.513-1.86 2.71-2.87 3.97-1.82 0.87 0.722 0.614 3.44-0.508 5.4-1.05 1.83-3.23 4.2-4.49 4.86-0.613 0.326-0.526 0.129 0.447-1.01zm-52.8-22.5c0.476-0.434 2.78-1.84 5.12-3.12 5.36-2.93 6.66-3.74 6.66-4.12 0-0.669-2.91-1.05-7.92-1.05-3.67 0.0044-5.2-0.1-5.19-0.357 0.0049-0.2 0.627-1.37 1.38-2.6 2.05-3.33 2.52-3.53 8.37-3.5 5.3 0.0274 8.11 0.477 8.98 1.44 0.554 0.612 0.551 0.684-0.0856 1.99-0.952 1.96-4.39 6.42-5.82 7.55-1.83 1.45-4.48 2.44-11.7 4.37-0.531 0.142-0.493 0.037 0.225-0.618zm-28.1-13.9c-0.29-0.453-0.657-0.637-1.06-0.531-0.81 0.212-1.87-0.372-2.12-1.17-0.282-0.888 0.767-2.56 1.6-2.56 1.42 0 3.89 3.88 4.02 6.31 0.0168 0.312 0.349-0.74 0.739-2.34 0.832-3.41 1.69-5.05 2.71-5.2 1.43-0.206 2.51 1.77 1.69 3.07-0.198 0.311-0.397 0.255-0.845-0.24-1.31-1.45-1.99-0.477-3.02 4.27-1.88 8.2-1.71 2.48-3.72-1.61z" stroke-width=".32"/>
  <path d="m27.8 36.4c-0.0635-0.175-0.17-0.94-0.236-1.7-0.0663-0.76-0.252-2.25-0.414-3.32-0.195-1.29-0.233-2.21-0.113-2.76 0.24-1.1 1.21-2 2.16-2 0.855 0 0.925-0.259 0.166-0.616-0.475-0.224-0.63-0.198-1.13 0.185-0.731 0.558-0.782 0.165-0.112-0.865 0.707-1.09 1.36-1.07 2.54 0.0739 0.846 0.826 0.937 1 0.815 1.58-0.134 0.631-0.175 0.651-1.59 0.773-1.78 0.154-2.44 0.546-2.44 1.45 0 0.358 0.19 1.79 0.423 3.18 0.315 1.89 0.375 2.76 0.236 3.43-0.109 0.526-0.236 0.768-0.303 0.582zm34.8-4.01c-0.416-0.33-0.452-0.454-0.25-0.845 0.276-0.533 0.579-0.568 1.14-0.131 0.778 0.609 0.343 0.391 0.826-0.236l0.424-0.55 0.559 0.454c0.527 0.429 0.541 0.482 0.241 0.955-0.308 0.486-0.38 0.56-0.917 0.147-0.749-0.577-0.455-0.382-0.924 0.124-0.47 0.506-0.47 0.58-1.1 0.0816zm-7.9-1.09c0.1-0.397 3.08-1.84 3.31-1.61 0.202 0.208-0.211 0.491-1.84 1.26-1.34 0.631-1.56 0.682-1.47 0.352zm-24.7-0.779c-0.0686-0.0708 0.643-0.527 1.58-1.01 1.99-1.03 3.42-2.14 3.42-2.64-8e-3 -1.41-2.84-4.88-3.74-4.59-0.587 0.192-1.61-0.317-1.83-0.909-0.211-0.575-0.257-2.18-0.0618-2.18 0.366 0 3.02 2.04 3.86 2.97 1.06 1.17 1.97 2.96 1.98 3.88 0.0011 0.321 0.087 0.584 0.191 0.584 0.409 0 0.559-1.86 0.363-4.49-0.202-2.7-0.0693-4.37 0.279-3.48 0.092 0.234 0.365 1.92 0.606 3.76 0.511 3.88 0.68 4.6 1.25 5.35 0.344 0.451 0.596 0.556 1.34 0.556 1.15 0 1.96-0.423 2.52-1.32 0.342-0.553 0.229-0.462 0.504-0.377 0.148 0.208-0.211 0.768-0.373 1.06-0.45 0.813-0.378 0.916 0.536 0.765 1.22-0.201 2-0.686 2.49-1.53 0.18-0.315 0.145-0.563 0.262-0.572 0.437-0.0327 0.303 0.107 0.0364 0.765-0.299 0.74-0.296 0.751 0.284 0.999 0.758 0.324 0.962 0.174 1.56-1.14 0.0437-0.859 0.681-1.28 0.493-0.287 0.0017 0.664 0.0925 0.837 0.529 1.01 0.779 0.306 1.53 0.252 1.66-0.121 0.137-0.368-1.06-7.73-1.41-8.66-0.224-0.597 0.0299-1.64 0.396-1.63 0.348 0.012 0.866 1.61 0.756 2.34-0.0615 0.406 0.129 2.17 0.423 3.92 0.537 3.2 0.534 4.05-0.0165 4.94-0.379 0.619-1.47 0.641-2.2 0.044l-0.534-0.434-0.47 0.75c-0.541 0.863-0.398 1.32-1.99 0.353-0.517-0.313-0.521-0.378-1.13-0.0187-0.807 0.475-4.74 0.718-5.43 0.335-0.709-0.392-1.11-1.15-1.48-2.77l-0.34-1.5-0.152 0.836c-0.212 1.17-0.81 2.3-1.56 2.95-0.77 0.669-4.27 1.8-4.58 1.49zm29.5-1.09c-0.446-0.23-0.876-0.695-1.13-1.22-0.226-0.467-0.43-0.885-0.452-0.927-0.0223-0.0425-0.289 0.125-0.593 0.372-0.654 0.531-2.96 0.667-2.96 0.174 0-0.655 1.37-2.6 2.16-3.06 0.452-0.266 0.793-0.599 0.756-0.742-0.1-0.393 0.165-1.66 0.348-1.66 0.0884 0 0.273 0.76 0.411 1.69 0.339 2.29 0.792 3.57 1.4 3.99 0.793 0.537 2.12 0.435 3.25-0.247l0.976-0.591 0.919 0.474c0.748 0.386 1.01 0.431 1.41 0.241 0.632-0.298 0.631-0.575-0.0226-5.02-0.393-2.68-0.463-3.62-0.292-3.96 0.124-0.239 0.256-0.403 0.294-0.364 0.0379 0.0392 0.32 1.79 0.626 3.9 0.607 4.17 0.855 5.04 1.54 5.42 0.414 0.229 0.436 0.21 0.284-0.248-0.251-0.759-0.123-1.81 0.334-2.73 0.714-1.45 2.28-1.9 3.62-1.04 1.03 0.66 0.893 1.11-0.188 0.602-0.986-0.464-3.23 0.607-3.23 1.54 0 0.237 0.326 0.767 0.724 1.18 0.624 0.644 0.816 0.729 1.39 0.613 0.365-0.0745 1.12-0.424 1.67-0.777 0.552-0.353 1.04-0.606 1.08-0.561 0.255 0.264-1.02 1.61-2.04 2.15-2.05 1.08-4.39 0.928-4.78-0.318-0.13-0.423-0.174-0.404-0.749 0.316-0.713 0.894-0.883 0.919-2.1 0.31l-0.908-0.456-0.588 0.432c-0.479 0.352-1.9 0.9-2.34 0.903-0.0566 4.24e-4 -0.427-0.166-0.823-0.371zm-1.89-3.2c0.146-1.06-0.0878-1.17-1.19-0.556-1.51 0.846-1.52 1.19-0.0621 1.11 1.06-0.057 1.19-0.115 1.25-0.557zm-4.97 0.659c-0.0708-1.03-0.315-2.83-0.544-3.99-0.434-2.22-0.545-4.14-0.24-4.14 0.405 0 1.56 6.98 1.41 8.55-0.17 1.82-0.492 1.61-0.631-0.42zm-9.75-3.17c-0.305-0.133-0.347-1.48-0.0514-1.67 0.113-0.0722 0.419-0.226 0.206 0.294-0.0882 0.215 0.12 0.765 0.223 0.83 0.355 0.226 0.976-0.258 0.877-0.922-0.0404-0.27-0.206-0.548 0.135-0.627 0.134-0.0313 0.206 0.104 0.206 0.412 0 0.553 0.397 0.823 0.9 0.494 0.175-0.114 0.21-0.518 0.0771-0.779-0.274-0.539-0.0589-0.953 0.194-0.54 0.261 0.426 0.306 1.23 0.0057 1.66-0.144 0.204-1.22 0.315-1.22 0.315-0.218-0.106-0.46 0.433-0.884 0.537-0.16 0.0394-0.42 0.146-0.668-0.0033zm18.9-0.375c0-0.047 0.296-0.279 0.658-0.516l0.658-0.431-0.57-0.268c-0.431-0.203-0.717-0.211-1.17-0.0335-0.684 0.267-0.781 0.0796-0.226-0.439 0.444-0.415 1.28-0.451 2.23-0.0965 0.914 0.341 0.86 0.682-0.209 1.33-0.811 0.491-1.37 0.677-1.37 0.455zm-36.9-0.405c0.21-0.139 0.804-0.581 1.32-0.981 0.593-0.46 1.06-0.624 1.04-0.711 0 0-0.391-0.214-0.551-0.324-0.818-0.561-0.315-2.17 0.679-2.17 0.372 0 0.518 0.148 0.621 0.633 0.074 0.348 0.0776 0.818 8e-3 1.04-0.0425 0.138-0.0833 0.354-0.087 0.409-0.0037 0.0536 0.126 0.117 0.175 0.14 1.15 0.54 1.19 0.953 0.715 0.983-0.202 0.0124-1.13-0.528-1.18-0.534-0.0572-0.0068-0.738 0.583-1.34 1.01s-1.25 0.771-1.44 0.765c-0.293-0.0108-0.288-0.0467 0.0427-0.266zm2.68-3.52c-0.116-0.12-0.518-0.0166-0.612 0.0322-0.253 0.132-0.391 0.539 0.0765 0.906 0.272 0.213 0.553 0.303 0.553 0.303s0.0531-0.176 0.077-0.343c0.0265-0.185 0.0218-0.778-0.0943-0.898zm12.9 1.3c0.0087-0.43 0.543-0.779 3.16-2.06 1.56-0.765 2.87-1.39 2.9-1.39 0.0361 0 0.021 0.176-0.0335 0.392-0.0915 0.362-0.907 0.807-4.95 2.71-0.594 0.279-1.08 0.437-1.08 0.35zm28-0.195c0.07-0.376 4-2.98 4.2-2.77 0.23 0.237-0.203 0.735-1.1 1.27-0.536 0.317-1.47 0.873-2.07 1.24-0.932 0.559-1.09 0.6-1.03 0.272zm-34.8-2.39c0.29-0.452 4.48-2.46 4.68-2.25 0.356 0.368-0.759 0.984-4.78 2.64-0.116 0.0478-0.0726-0.128 0.0963-0.391zm29.9 0.0195c0.0566-0.224 1.08-0.973 2.39-1.75 2.8-1.66 2.6-1.57 2.48-1.09-0.0803 0.317-4.48 3.24-4.88 3.24-0.0511 0-0.0484-0.176 0.0058-0.391zm-13.1-0.459c4.11e-4 -0.545 0.318-1.23 0.931-0.978 0.625 0.252 0.402 0.278 1.06-0.728 0.721-1.1 1.55-1.09 1.65-0.194 0.137 1.21-1.56 2.28-2.74 1.72-0.402-0.189-0.53-0.165-0.698 0.133-0.163 0.289-0.206 0.298-0.205 0.0456zm2.96-1.14c0.265-0.2 0.307-0.406 0.14-0.512-0.326-0.208-0.994 0.109-1.13 0.488-0.148 0.399 0.478 0.414 0.995 0.0243z" stroke-width=".209"/>
 </g>
</svg>
