<?xml version="1.0" encoding="UTF-8"?>
<!-- Created with Inkscape (http://www.inkscape.org/) -->
<svg width="145" height="139" version="1.1" viewBox="0 0 145 139" xmlns="http://www.w3.org/2000/svg">
 <g>
  <path d="m62 135c-0.0966-1.89-0.541-5.39-0.988-7.77-1.1-5.86-0.829-7.08 1.84-8.28l1.31-0.591-0.934-0.25c-0.75-0.201-1.04-0.117-1.48 0.425-0.3 0.371-0.619 0.602-0.709 0.512-0.297-0.297 0.349-2.46 0.995-3.33l0.636-0.861-0.741-2.12c-1.09-3.12-1.82-4.24-2.69-4.11-0.915 0.132-2.28-0.749-2.28-1.47 0.0019-0.866 1.21-2.63 1.8-2.63 0.294 0 1.09 0.583 1.77 1.3 0.921 0.968 1.41 1.91 1.94 3.71l0.71 2.41 0.73-3.12c1.07-4.6 2.6-6.26 4.24-4.62 0.672 0.672 0.836 2.08 0.334 2.87-0.244 0.386-0.441 0.311-1.13-0.429-0.661-0.713-0.924-0.82-1.28-0.523-0.547 0.454-1.27 2.59-1.9 5.6-0.256 1.23-0.556 2.47-0.666 2.76-0.14 0.366 0.02 0.578 0.539 0.713 1.06 0.276 3.14 2.3 3.14 3.06 0 1.39-0.68 2.2-2.2 2.61-2.4 0.649-3.97 1.55-3.79 2.16 1.61 5.66 2.2 10.5 1.69 13.9-0.368 2.45-0.722 1.69-0.909-1.95zm23.3 2.72c-0.0585-0.22-0.279-1.12-0.49-2-0.211-0.879-0.843-2.54-1.4-3.68-0.92-1.88-1.11-2.07-1.9-1.99-1.09 0.114-2.01-0.357-2.67-1.38-0.485-0.74-0.466-0.864 0.333-2.23 0.929-1.59 1.47-1.75 2.83-0.856 1.71 1.13 3.38 4.34 3.84 7.41 0.157 1.04 0.289 0.677 1.31-3.59 0.897-3.74 1.85-5.59 3.05-5.9 0.949-0.247 1.62 0.152 2.35 1.4 0.459 0.784 0.497 1.14 0.209 1.97-0.194 0.555-0.438 1.01-0.543 1.01s-0.6-0.392-1.1-0.871c-1.58-1.52-2.28-0.442-3.46 5.35-0.928 4.54-1.95 6.87-2.35 5.36zm-44.5-5.58c-0.113-0.113-0.205-0.546-0.205-0.963 0-0.816-2.05-6.36-2.59-7.01-0.196-0.236-0.741-0.33-1.35-0.233-0.835 0.133-1.19-0.0131-1.95-0.808-0.834-0.875-0.888-1.06-0.549-1.87 0.207-0.492 0.63-1.23 0.939-1.63 0.499-0.653 0.672-0.696 1.51-0.379 2.02 0.764 3.56 3.09 4.32 6.48 0.225 1.01 0.463 1.79 0.528 1.72 0.0651-0.0651 0.476-1.61 0.914-3.44 0.959-4.01 1.27-4.82 2.25-5.87 0.962-1.04 1.89-1.03 2.88 0.038 0.761 0.821 0.996 2.07 0.59 3.13-0.275 0.715-0.738 0.63-1.59-0.294-0.408-0.44-0.889-0.8-1.07-0.8-0.697 0-1.35 1.67-2.27 5.79-1.2 5.38-1.73 6.76-2.34 6.14zm60.3-15.5c-4.2-0.499-11.9-2.88-16.1-5.01-7.43-3.71-13.1-9.41-16.3-16.5-1.8-3.92-2.8-7.39-4.32-14.9l-0.87-4.33-0.383 3.12c-0.211 1.71-0.595 3.62-0.853 4.24-0.865 2.07-6.03 8.55-9.91 12.4-8.26 8.28-17.2 14.4-24.8 16.8-2.52 0.826-3.59 1-6.24 1.03-2.98 0.0338-3.32-0.0287-4.9-0.907-4.16-2.3-6.12-7.35-5.71-14.7 0.243-4.43 0.913-8.35 2.16-12.6 1.16-3.98 2.78-8.26 3.22-8.53 0.706-0.436 0.665 0.336-0.189 3.63-2.13 8.21-2.51 10.4-2.54 14.3-0.0254 3.38 0.0556 4 0.677 5.16 2.67 5 9.76 5.23 18.9 0.636 5.9-2.97 14.9-9.61 21-15.5 3.67-3.56 5.7-6.12 6.98-8.84l0.918-1.94-0.5-2.7c-0.739-3.99-2.53-10.7-4.37-16.3-0.89-2.73-1.68-5.06-1.75-5.18-0.159-0.273-6.5 2.68-10.1 4.69-1.43 0.805-2.65 1.42-2.7 1.37-0.0535-0.0535 0.295-1.24 0.774-2.65l0.872-2.55 9.67-4.87-5.45-14.9 0.649-3.23c0.815-4.05 1.19-5.03 1.83-4.79 1.26 0.485 5.61 8.49 8.49 15.6 0.922 2.29 1.72 4.21 1.78 4.27 0.0547 0.0593 2.74-0.757 5.96-1.81 7.62-2.5 9.11-2.93 17.9-5.16 4.04-1.03 7.35-1.77 7.35-1.64 0 0.695-1.07 3.23-1.54 3.63-0.298 0.258-1.62 0.725-2.94 1.04-6.06 1.43-23.8 6.91-25.2 7.77-0.283 0.177-0.222 0.797 0.244 2.47 0.342 1.23 1.06 4.61 1.59 7.51 3.66 20 4.69 24.1 7.47 29.9 2.69 5.68 5.45 9.31 8.99 11.8 2.25 1.6 5.49 3.25 5.8 2.95 0.116-0.116 0.331-1.5 0.476-3.07 0.444-4.81 2.3-9.04 4.76-10.9 1.84-1.36 8.39-4.44 15.7-7.38l2.4-0.966-18.9-0.0166c-11.5-0.01-19.3-0.139-19.8-0.329-0.635-0.241-0.821-0.534-0.821-1.29 0-1.93 1.03-5.95 2.08-8.16 3.21-6.72 15.3-16.7 29.1-24 1.93-1.02 3.57-1.9 3.63-1.95 0.0658-0.051-0.577-1.65-1.43-3.55-1.41-3.15-1.55-3.67-1.54-5.85 7e-3 -3.41 0.792-5.5 2.82-7.52 3.73-3.71 8.19-3.29 15.5 1.46 3.22 2.08 6.83 5.32 7.61 6.84 0.328 0.632 0.428 1.41 0.308 2.4-0.165 1.36-1.56 5.94-2.16 7.09-0.165 0.316-2.83 1.27-7.16 2.56l-6.9 2.06-2e-5 1.81c-2e-5 2.24-0.211 2.83-1.01 2.83-0.432 0-0.82-0.444-1.26-1.44-0.35-0.792-0.776-1.44-0.947-1.44-0.617 0-8.23 3.97-12.3 6.41-8.1 4.86-16.9 11.5-16.2 12.3 0.531 0.531 32.2 0.37 49.6-0.252 8-0.286 14.7-0.403 14.8-0.259 0.231 0.231-2.18 6.88-2.91 8.02-0.155 0.242-6.89 2.64-15 5.32-24.9 8.28-35.6 12.6-37 14.9-0.942 1.53 2.13 3.97 9.86 7.83 3 1.5 5.64 2.9 5.86 3.12 0.545 0.529-0.156 7.73-0.817 8.39-0.475 0.475-0.763 0.483-3.91 0.108zm13.9-76.9c1.48-0.591 2.6-1.23 2.66-1.52 0.202-1.05-6.62-4.44-9.87-4.91-2.36-0.342-2.49 0.158-0.947 3.67 0.712 1.62 1.51 3.35 1.77 3.86l0.475 0.918 1.68-0.497c0.924-0.273 2.83-0.958 4.24-1.52zm3.13 72c-1.59-0.692-2.4-2.22-2.21-4.2 0.226-2.42 1.42-4.44 4.81-8.13 1.67-1.82 2.97-3.42 2.89-3.56-0.553-0.894-5.07-1.19-6.55-0.424-1.19 0.614-1.23 0.209-0.156-1.62 0.991-1.69 2.18-2.2 5.04-2.15 2.94 0.0545 4.21 0.755 4.35 2.39 0.142 1.68-0.432 2.56-4.72 7.23-4.77 5.2-5.15 6.26-2.67 7.3 2.15 0.9 8.05 0.306 13.7-1.38 0.49-0.146 0.386 0.0754-0.44 0.943-1.35 1.42-4.15 2.93-6.61 3.57-2.33 0.607-6.04 0.614-7.42 0.0155zm-82.4-22.9c-0.0704-0.251-0.29-1.13-0.487-1.96-0.197-0.828-0.817-2.53-1.38-3.79-1-2.25-1.03-2.28-2.04-2.09-0.84 0.158-1.2 0.0239-2.03-0.743-0.551-0.514-0.999-1.06-0.996-1.21 0.0141-0.726 1.53-2.84 2.08-2.92 1.84-0.249 3.91 2.43 4.92 6.36 0.335 1.3 0.675 2.15 0.757 1.89 0.0812-0.264 0.473-1.92 0.871-3.68 1.29-5.69 2.75-7.44 4.79-5.72 0.756 0.636 0.968 1.07 0.964 1.99-0.0026 0.644-0.14 1.39-0.305 1.65-0.252 0.398-0.447 0.333-1.21-0.4-0.502-0.481-1.08-0.874-1.29-0.874-0.754 0-1.38 1.59-2.43 6.21-0.995 4.38-1.89 6.5-2.23 5.29zm-22-23.8c0.626-0.23 1.75-0.733 2.51-1.12 0.959-0.489 1.69-0.765 2.32-0.49 0.6 0.266 1.01 0.538 1.41-0.179 0.235-0.415 0.467-0.302 0.467 0.0109 0 0.318 0.097 0.318 0.48 0 0.268-0.222 0.48-0.257 0.48-0.0784 0 0.834-2.38 1.3-3.32 0.721-0.174-0.108-1.27 0.375-2.31 0.803-1.04 0.428-2.18 0.772-2.53 0.763-0.407-0.0095-0.227-0.167 0.497-0.434zm-10.1-2.19c1.91-1.05 2.74-1.72 3.25-2.63 0.919-1.62 1.46-1.88 2.83-1.39 0.776 0.28 1.38 0.308 1.99 0.0911 0.805-0.283 0.884-0.453 0.884-1.9v-1.59l-2.4-0.193c-1.32-0.106-2.69-0.308-3.04-0.447-1.16-0.458-2.39-1.85-2.59-2.93l-0.199-1.06-0.808 0.636c-0.853 0.671-2.78 0.862-3.13 0.309-0.386-0.625 0.944-2.7 2.14-3.34 0.906-0.485 1.23-0.889 1.39-1.75 0.283-1.51 0.65-0.766 0.908 1.83 0.369 3.72 1.57 4.85 5.46 5.13 2 0.143 2.19 0.105 2-0.394-0.117-0.304-0.212-0.795-0.212-1.09 0-0.358-0.542-0.731-1.62-1.11-2.65-0.942-3.49-3.16-2.38-6.3 0.691-1.96 0.597-2.2-0.4-1-0.739 0.885-1.06 1.04-2 0.948-0.894-0.0848-1.23-0.317-1.64-1.15-0.447-0.894-0.576-0.973-0.919-0.56-0.385 0.464-2.57 0.681-2.96 0.294-0.459-0.459 0.584-2.15 1.87-3.04 1-0.688 1.41-1.19 1.41-1.73 0-0.421 0.123-0.842 0.274-0.935 0.151-0.0933 0.358 0.827 0.46 2.04 0.243 2.89 0.594 3.53 1.96 3.53 1.65 0 1.9-0.546 1.64-3.64-0.151-1.81-0.111-2.76 0.122-2.9 0.19-0.118 0.347-0.0972 0.348 0.0452 0.00134 0.142 0.153 1.19 0.338 2.34 0.427 2.65 0.98 3.52 2.23 3.52 1.12 0 1.14-0.164 0.329-2.76-0.561-1.79-0.584-3.32-0.0498-3.32 0.296 0 1.32 4.11 1.32 5.29-0.0015 0.533-0.238 1.31-0.526 1.72-0.437 0.624-0.724 0.721-1.74 0.584-1.13-0.151-1.24-0.0914-1.56 0.811-0.453 1.3-0.431 1.71 0.165 2.97 0.43 0.907 2.04 2.07 2.86 2.07 0.128 0 0.142-0.972 0.0299-2.16-0.182-1.93 0.107-3.4 0.575-2.93 0.0932 0.0932 0.267 1.22 0.386 2.5 0.121 1.3 0.383 2.39 0.592 2.47 0.557 0.214 5.47-1.41 5.93-1.96 0.323-0.389 0.259-0.522-0.363-0.754-0.415-0.155-1.44-0.382-2.27-0.505-0.836-0.123-1.52-0.336-1.52-0.474 0-0.138 0.667-0.858 1.48-1.6l1.48-1.35-0.181-1.98c-0.0993-1.09-0.36-3.14-0.579-4.56-0.34-2.2-0.251-4.06 0.173-3.62 0.0678 0.0692 0.429 1.85 0.802 3.97 0.373 2.11 0.829 4.31 1.01 4.87 0.4 1.24 1.68 2.33 2.74 2.33 0.693 0 0.754-0.106 0.597-1.04-0.621-3.7-0.783-6.42-0.422-7.07 0.327-0.59 0.456-0.101 0.889 3.38 0.279 2.24 0.613 4.17 0.743 4.3s0.677-0.205 1.22-0.744l0.979-0.979 0.756 0.756c0.416 0.416 0.87 0.75 1.01 0.743 0.097 0.0087 0.714-0.638 1.28-1.4 1.24-1.69 3.5-2.89 4.86-2.59 3.1 0.68 2.06 4.02-1.58 5.1-0.932 0.277-2.38 0.503-3.21 0.503-0.913 0-1.56-0.0961-1.56-0.0961-0.385 0.493-1.14 1.16-1.15 0.829-0.0139-0.308 0.621-1.01 0.537-1.01-0.177 0.0037-0.527-0.265-0.793-0.531-0.432-0.432-0.578-0.39-1.36 0.39l-0.875 0.875 0.376 3.05c0.34 2.75 0.47 3.14 1.34 3.93 0.531 0.484 1.09 0.88 1.23 0.88s0.201-0.699 0.119-1.55c-0.132-1.37-0.0414-1.68 0.786-2.6 0.761-0.851 1.23-1.08 2.54-1.2 1.4-0.135 1.72-0.0482 2.54 0.699 0.924 0.84 0.927 0.85 0.139 0.622-1.74-0.502-5.44 0.282-5.44 1.15 0 0.828 1.01 2.19 1.83 2.48 1.01 0.354 2.92-0.0964 4.34-1.02 1.04-0.683 1.17-0.158 0.201 0.814-2.34 2.34-7.54 2.76-9.39 0.752l-0.716-0.772-0.362 0.794c-0.429 0.941-1.52 1.05-2.98 0.289-0.914-0.473-1.08-0.461-2.57 0.182-0.878 0.378-2.2 0.789-2.93 0.915-1.29 0.22-1.33 0.263-1.23 1.34 0.183 2.01 0.707 3.48 1.42 3.98 1.47 1.03 5.73 0.18 6.6-1.32 0.147-0.252 0.162-0.348 0.225-0.357 0.863-0.12 0.104 0.67-0.194 1.23-0.293 0.548-0.221 0.619 0.625 0.619 1.29 0 2.45-0.568 2.85-1.4 0.106-0.288 0.0102-0.695 0.104-0.712 0.641-0.116 0.15 0.714 0.249 0.715 0.0212 0.671 0.58 1.07 1.49 1.07 0.281 0 0.456-0.336 0.459-0.88 0.0027-0.484-0.087-1.16 0.17-1.33 0.332-0.215 0.328-0.391 0.51 0.0824 0.329 0.857 0.0115 2.62-0.695 3.26-0.544 0.492-0.808 0.524-1.8 0.22-0.926-0.284-1.35-0.262-2.06 0.109-0.523 0.27-1.68 0.449-2.75 0.425-1.02-0.0225-2.61 0.0668-3.53 0.198-1.93 0.275-2.92-0.183-3.91-1.81-0.376-0.618-0.671-0.837-0.816-0.603-0.125 0.201-0.572 0.498-0.995 0.659-0.44 0.167-0.769 0.553-0.769 0.901 0 0.335-0.23 0.8-0.512 1.03-0.429 0.356-0.754 0.338-2-0.108-1.46-0.526-1.49-0.523-2.29 0.215-1.09 1.02-1.83 1.35-3.52 1.61-1.44 0.216-1.44 0.216 1.12-1.2zm6.35-2.31c-0.24-0.626-1.66-0.98-2.11-0.528-0.254 0.254-0.138 0.436 0.423 0.66 1.2 0.48 1.9 0.425 1.69-0.133zm7.66-7.71c0.728-0.257 1.67-0.786 2.1-1.18l0.774-0.709-0.203 0.847c-0.219 0.914 0.179 1.23 1.54 1.23 1.35 0 1.56-0.669 1.25-4.07l-0.279-3.11-1.27-0.262c-1.37-0.283-2.6-1.24-2.93-2.27-0.185-0.583-0.267-0.536-0.792 0.451-0.785 1.47-0.763 1.58 0.324 1.58 2.02 0 2.6 2.01 1.01 3.5-0.953 0.891-4.08 2.26-5.15 2.26-0.805 0-0.985 0.387-0.743 1.6 0.202 1.01 0.224 1.02 1.63 0.809 0.781-0.117 2.02-0.423 2.74-0.68zm-13.6-3.25c0.14-0.986-0.786-0.947-2.02 0.0839l-0.96 0.801 1.44-0.0823c1.22-0.0697 1.46-0.192 1.54-0.802zm28.6-6.48c0.624-0.173 1.42-0.533 1.76-0.798 0.619-0.478 0.619-0.488 0.0041-0.963-1.25-0.965-3.39-0.425-4.95 1.25l-0.776 0.83 1.42-0.00192c0.779-9.6e-4 1.93-0.144 2.55-0.317zm-29.2-2.03 0.104-0.912-1.01 0.592c-1.75 1.03-1.9 1.45-0.458 1.34 1.12-0.0912 1.27-0.206 1.36-1.02zm22.5 22.7-1.44-0.391 1.95-0.183c1.07-0.101 2.41-0.423 2.98-0.716 1.12-0.582 3.55-2.67 3.55-3.05 0-0.132-0.521-0.223-1.16-0.203-1.66 0.0524-2.08-0.719-1.24-2.28 1.05-1.95 2.5-1.72 2.91 0.463 0.568 3.03-2.51 6.91-5.38 6.79-0.402-0.0173-1.38-0.207-2.17-0.422zm6.23-6.29c-0.238-0.384-1.11-0.388-1.11-0.00455 0 0.347 0.695 0.64 1.05 0.441 0.135-0.0764 0.162-0.273 0.0611-0.437zm102 6.21c-0.117-0.117-0.213-0.555-0.213-0.972 0-0.816-2.05-6.36-2.59-7.01-0.196-0.236-0.741-0.33-1.35-0.233-0.839 0.134-1.19-0.0136-1.97-0.832l-0.948-0.995 0.788-1.46c0.968-1.79 1-1.81 2.12-1.39 2.03 0.768 3.39 2.84 4.29 6.54 0.494 2.03 0.567 2.15 0.768 1.28 1.4-6.04 1.83-7.41 2.68-8.46 1.17-1.46 2.05-1.59 3.09-0.471 0.863 0.931 1.04 2.29 0.454 3.39-0.342 0.638-0.376 0.629-1.26-0.341-0.501-0.548-1.06-0.997-1.24-0.997-0.646 0-1.59 2.49-2.4 6.36-0.702 3.33-1.51 5.8-1.9 5.8-0.0541 0-0.194-0.096-0.312-0.213zm-131-5.05c0.492-0.482 4.8-2.2 5.01-1.99 0.233 0.233-0.729 0.799-2.75 1.62-2.32 0.939-2.94 1.04-2.25 0.373zm12.5-0.923c-0.796-0.576-0.838-0.344-0.221-1.11 0.605-0.75 0.438-0.764 1.16-0.357 1.14 0.644 0.666 0.985 1.43-0.058 0.44-0.6 0.849-0.332 1.31 0.127 0.505 0.505 0.505 0.574 0.0024 1.08-0.788 0.742-0.605 0.919-1.36 0.162-0.741-0.744-0.44-0.721-1.01 0.103-0.435 0.633-0.374 0.578-1.31 0.0561zm6.15-0.837c0.101-0.164 1.01-0.469 2.01-0.678 1-0.209 2.05-0.455 2.31-0.549 0.365-0.127 0.399-0.0729 0.136 0.214-0.337 0.367-3.35 1.3-4.23 1.31-0.23 0.0022-0.336-0.131-0.234-0.295zm-21.9-1.16c0-0.258 3.57-1.8 3.75-1.62 0.0836 0.0836-0.577 0.522-1.47 0.974-1.59 0.804-2.28 1-2.28 0.644zm25.5-8c0.0851-0.222 0.468-0.487 0.852-0.59 0.383-0.103 1.82-0.539 3.2-0.97 1.42-0.445 2.45-0.632 2.38-0.433-0.0642 0.193-1.57 0.811-3.35 1.37-2.09 0.66-3.18 0.88-3.08 0.62zm-11.5-4.3c-0.61-2.6-1.27-9.2-0.971-9.74 0.33-0.59 0.405-0.25 1.36 6.22 0.289 1.95-0.0489 4.99-0.392 3.52zm12-5.49c0.139-0.429 7.23-4.28 7.46-4.05 0.295 0.295-0.568 0.864-3.96 2.61-2 1.03-3.57 1.68-3.49 1.44zm-7.37-2.52c0.129-0.388 5.26-3.48 5.8-3.5 0.625-0.0222-0.29 0.687-2.74 2.12-3.19 1.87-3.23 1.89-3.06 1.38zm42.3-6.89c-1.26-0.881-1.76-2.34-1.91-5.58-0.106-2.22-0.278-3.15-0.635-3.43-0.752-0.594-0.297-2.59 0.853-3.74l0.955-0.955 0.335 0.88c0.184 0.484 0.335 2.25 0.335 3.92 0 3.24 0.421 4.61 1.62 5.25 0.967 0.517 2.86-0.514 3.65-1.98l0.629-1.17-0.73-3.03c-0.686-2.85-0.699-3.1-0.222-4.24 0.312-0.746 0.622-1.1 0.804-0.919 0.44 0.441 1.28 3.87 1.49 6.06 0.269 2.86 0.69 3.95 1.73 4.49 1.22 0.633 2.02 0.598 2.67-0.118 0.506-0.559 0.468-0.736-0.648-3.09-1.48-3.12-1.72-5.29-0.762-6.82 0.734-1.17 1.29-1.1 1.29 0.151 0 0.45 0.598 2.13 1.33 3.74 1.05 2.3 1.33 3.3 1.33 4.68-0.0043 1.92-0.699 3.9-1.77 5.04-1.46 1.55-4.39 0.536-5.38-1.87l-0.416-1-0.758 1.49c-1.24 2.44-3.99 3.5-5.78 2.25zm-34.5-4.75c1.38-4.56 1.44-4.66 3.15-5.65 9.27-5.38 25-10.8 45.7-15.8 1.1-0.265 1.12 0.0742 0.0967 2.27-0.599 1.29-0.984 1.72-1.68 1.87-0.495 0.111-3.56 0.918-6.82 1.79-13 3.5-25.5 8.14-35 13-3.06 1.57-5.52 2.69-5.46 2.5zm59-0.608c0.264-0.266 2.64-1.74 5.28-3.27 6.05-3.52 10.5-6.41 12.3-8.04l1.41-1.27-1.17-0.722c-1.74-1.08-2.46-2.15-2.46-3.7 0-1.79 1.44-4.03 3.28-5.11 2.74-1.61 4.08-0.874 4.07 2.24-9.6e-4 1.04-0.159 2.46-0.35 3.15-0.34 1.23-0.32 1.28 0.87 2.28l1.22 1.02-0.597 1.32c-0.859 1.91-1.21 2.1-2.1 1.16-0.411-0.438-0.921-0.796-1.13-0.796s-0.909 0.639-1.55 1.42c-1.37 1.67-5.41 4.79-8.33 6.42-1.76 0.986-7.86 3.42-10.4 4.16-0.713 0.206-0.748 0.179-0.32-0.252zm20.8-17.5c0-1.19-0.513-2.2-1.12-2.2-0.89 0-2.08 0.752-2.08 1.31 0 0.598 2.48 2.29 2.94 2.01 0.143-0.0881 0.259-0.593 0.259-1.12z" stroke-width=".32"/>
  <path d="m6.6 35.6c-0.264-0.131-0.3-1.46-0.0445-1.65 0.0979-0.0712 0.362-0.223 0.178 0.289-0.0763 0.212 0.104 0.754 0.193 0.818 0.307 0.223 0.844-0.255 0.758-0.908-0.0349-0.266-0.178-0.54 0.116-0.618 0.116-0.0308 0.178 0.103 0.178 0.406 0 0.545 0.344 0.811 0.778 0.487 0.151-0.113 0.182-0.51 0.0667-0.768-0.237-0.531-0.051-0.939 0.168-0.532 0.226 0.42 0.264 1.22 0.0049 1.63-0.125 0.201-1.05 0.311-1.05 0.311-0.188-0.105-0.398 0.427-0.765 0.529-0.139 0.0388-0.364 0.144-0.578-0.0033z" stroke-width=".193"/>
  <path d="m15.6 32.1c-0.3-0.151-0.341-1.67-0.0505-1.89 0.111-0.0816 0.411-0.256 0.202 0.332-0.0866 0.243 0.118 0.864 0.219 0.939 0.348 0.256 0.959-0.292 0.861-1.04-0.0397-0.305-0.202-0.619 0.132-0.709 0.131-0.0353 0.202 0.118 0.202 0.466 0 0.625 0.39 0.93 0.884 0.558 0.171-0.129 0.206-0.585 0.0757-0.88-0.269-0.609-0.0579-1.08 0.191-0.61 0.257 0.481 0.3 1.4 0.0056 1.87-0.142 0.231-1.2 0.356-1.2 0.356-0.214-0.12-0.452 0.49-0.869 0.607-0.158 0.0445-0.413 0.165-0.657-0.0038z" stroke-width=".22"/>
 </g>
</svg>
