<?xml version="1.0" encoding="UTF-8"?>
<!-- Created with Inkscape (http://www.inkscape.org/) -->
<svg width="133" height="140" version="1.1" viewBox="0 0 133 140" xmlns="http://www.w3.org/2000/svg">
 <path d="m73.9 139c-0.112-0.66-0.67-2.35-1.24-3.76-1.03-2.54-1.05-2.56-2.2-2.56-1.26 0-2.51-0.867-2.51-1.73 6.4e-4 -0.281 0.287-0.978 0.635-1.55 0.861-1.41 1.89-1.38 3.34 0.121 1.03 1.06 2.42 3.98 2.42 5.06 0 0.243 0.0958 0.691 0.213 0.997 0.133 0.347 0.486-0.664 0.943-2.7 0.824-3.67 1.82-5.73 2.91-6.01 1.07-0.268 1.63 0.0495 2.2 1.24 0.396 0.831 0.427 1.25 0.149 1.98l-0.353 0.928-0.887-0.849c-0.488-0.467-1.06-0.849-1.26-0.849-0.619 0-1.25 1.58-1.96 4.96-0.735 3.47-1.54 5.92-1.94 5.92-0.139 0-0.344-0.54-0.456-1.2zm-33.9-10.3c-1.02-0.327-2.42-0.967-3.11-1.42-2.65-1.75-4.8-5.48-5.36-9.26-0.238-1.61-0.266-1.65-1.19-1.49-0.522 0.088-2.24 0.156-3.83 0.151-3.43-0.0112-4.81-0.592-6.83-2.89-2.13-2.42-2.74-4.41-2.75-8.94-0.0117-4.33 0.564-7.39 2.16-11.5 1.28-3.3 1.45-2.44 0.357 1.8-0.492 1.91-0.923 4.62-1.02 6.37-0.14 2.67-0.0703 3.26 0.56 4.72 1.58 3.66 5.5 5.42 10.2 4.57l2.19-0.391 0.21-1.5c0.402-2.86 1.49-6.31 2.9-9.18 2.55-5.2 3.87-6.04 1.74-1.12-1.87 4.31-3.65 10.9-2.95 10.9 1.08-3e-3 7.74-4.25 11.3-7.22 2.56-2.13 6.7-6.35 6.7-6.84 0-1.6-1.57-2.28-6.04-2.62-6.07-0.453-7.95-1.9-7.58-5.83 0.423-4.44 3.68-8.21 7.1-8.21 3.53 0 7.23 5.1 8.22 11.3 0.445 2.81-0.0891 6.74-1.24 9.08-1.57 3.21-8.61 9.87-14.7 13.9-1.56 1.03-3 1.93-3.2 2.01-0.644 0.235 1.66 4.28 3.22 5.65 2.29 2.02 4.4 2.68 8.57 2.69 2.66 5e-3 4.19-0.17 6.24-0.716 3.62-0.962 9.37-3.26 13.1-5.23 3.94-2.08 10.2-6.19 10.5-6.87 0.367-0.956-1.07-1.63-6-2.81-2.64-0.635-5.57-1.44-6.5-1.79-3.27-1.22-4.64-3.5-4.21-7.01 0.345-2.87 0.812-4.51 2.01-7.06 2.14-4.54 9.46-10.9 12.6-10.9 1.23 0 2.66 1.31 3.96 3.64 1.91 3.42 3.33 4.37 6.51 4.36 3.37-0.013 4.98-1.22 7.88-5.86 2.04-3.28 3.02-3.19 2.09 0.184-0.236 0.849-0.229 1.39 0.0222 1.86 0.894 1.67 4.15 2.48 5.68 1.41l0.711-0.498-1.4-2.42 0.618-2.35c0.34-1.29 0.791-2.4 1-2.47 0.491-0.161 1.56 1.94 1.84 3.61 0.312 1.87-0.564 5.67-1.72 7.48-1.22 1.89-2.96 2.91-5 2.91-1.43 0-1.65-0.114-3.12-1.64-1.43-1.48-1.62-1.59-1.91-1.06-0.774 1.38-3.07 3.49-4.55 4.19-2.93 1.37-6.66 0.773-8.68-1.39-0.458-0.492-1.44-1.83-2.18-2.98-0.743-1.14-1.59-2.28-1.88-2.52-1.26-1.03-4.59 0.711-8.8 4.61-5.78 5.35-4.95 6.83 5.24 9.42 7.58 1.92 8.62 2.76 8.59 6.94-0.024 3.18-1.04 5.18-4.06 7.97-3.12 2.89-7.18 5.53-12.5 8.14-7.25 3.53-11.8 4.81-16.9 4.78-1.94-0.0114-3.57-0.219-4.8-0.612zm7.45-42c-0.501-0.935-3.15-2.54-4.19-2.54-1.22 0-2.5 0.534-2.73 1.14-0.365 0.952 0.745 1.57 3.18 1.77 4.34 0.354 4.14 0.375 3.74-0.37zm41.5 40.7c-1.86-0.469-2.86-1.09-4.35-2.71-1.72-1.87-2.49-3.59-2.97-6.66-0.606-3.9 0.514-10.8 2.43-15 1.02-2.24 1.01-1.37-0.0395 2.84-1.16 4.64-1.24 9.54-0.205 11.5 0.817 1.51 2.08 2.75 3.63 3.54 1.64 0.84 5.8 0.999 8.17 0.311 5.24-1.52 13.1-6.87 18.4-12.5 2.32-2.48 2.96-3.62 2.72-4.83l-0.18-0.903h-4.38c-3.8 0-4.52-0.0842-5.46-0.64-2.36-1.39-3.02-3.43-2.14-6.65 0.92-3.38 3.3-6.02 5.89-6.51 2.22-0.42 5.26 1.98 7.28 5.76 0.482 0.9 0.921 1.69 0.976 1.76 0.0547 0.067 0.876-0.194 1.83-0.579l1.73-0.701 0.178-3.26c0.357-6.55 3.5-13.2 6.51-13.8 2.84-0.567 4.95 4.62 4.28 10.5-0.526 4.61-2.28 7.05-7.04 9.8-1.79 1.03-2.08 1.33-2.17 2.22-0.112 1.15-0.669 1.37-0.929 0.376-0.19-0.727-0.676-0.66-2.73 0.374-0.815 0.411-1.25 0.881-1.38 1.48-1.01 4.82-2.33 7.57-5.16 10.7-5.6 6.23-12.4 11.3-17.5 13-2.22 0.765-5.59 1.06-7.29 0.63zm23.7-30c0.747-0.209 0.737-0.235-0.552-1.4-1.49-1.35-2.36-1.65-3.71-1.27-1.34 0.374-1.75 1.15-1.02 1.95 0.81 0.895 3.39 1.25 5.27 0.719zm14.7-4.5c1.49-0.835 2.98-1.88 3.31-2.33 0.584-0.782 0.586-0.884 0.063-2.68-1.38-4.76-3.65-4.9-5.96-0.369-0.684 1.34-1.55 4.9-1.56 6.42-5e-3 0.785 0.0874 0.874 0.714 0.69 0.396-0.116 1.94-0.895 3.43-1.73zm-3.95 24.8c-0.737-0.737-0.938-2.43-0.524-4.43 0.42-2.02 1.94-5.27 2.87-6.1 0.474-0.429 0.348 0.0622-0.541 2.11-1.44 3.31-1.61 5.49-0.45 5.65 0.411 0.0581 1.02-0.144 1.36-0.45 0.595-0.539 0.614-0.517 0.614 0.731 0 2.31-2 3.81-3.32 2.48zm-118-28.6c-0.488-1.54-1.17-3.27-1.51-3.83-0.525-0.864-0.767-0.999-1.51-0.851-0.703 0.14-1.08-0.0265-1.82-0.796l-0.93-0.972 0.854-1.29c0.486-0.735 1.11-1.29 1.45-1.29 1.55 0 3.57 2.78 4.31 5.94 0.496 2.11 0.568 2.02 1.32-1.5 0.679-3.2 1.9-5.65 2.94-5.91 1.62-0.407 3.03 2.15 2.04 3.71-0.252 0.398-0.447 0.333-1.21-0.4-0.502-0.481-1.02-0.874-1.15-0.874-0.468 0-1.44 2.76-2.12 6.04-0.678 3.25-1.2 4.84-1.57 4.84-0.104-3.2e-4 -0.588-1.26-1.08-2.81zm54.8-9.7c-0.044-3.56-1.02-5.78-3.98-9.04-1.12-1.23-1.12-1.24-0.602-2.32 0.285-0.597 0.605-1.09 0.712-1.09 0.515 0 2.94 2.92 3.73 4.48 0.736 1.46 0.908 2.27 1.01 4.8 0.0952 2.25 2e-3 3.33-0.359 4.16l-0.488 1.12-0.0261-2.11zm49.7-1.48c0.115-0.187 2.77-1.87 5.89-3.74 3.13-1.87 6.37-3.99 7.21-4.71l1.53-1.31-1.45-1.35c-0.797-0.742-1.45-1.62-1.45-1.95 0-1.18 1.36-3.4 2.57-4.2 2.61-1.73 4.01-0.28 3.25 3.36-0.376 1.79-0.376 1.79 0.578 2.54l0.955 0.747-1.3 2.54-1.86-1.33-1.37 1.49c-2.53 2.74-6.58 5.23-11.3 6.94-1.23 0.446-2.52 0.921-2.85 1.05-0.401 0.159-0.54 0.125-0.403-0.097zm16.1-13.4c0.286-0.747-0.431-2.06-1.13-2.06-0.334 0-0.801 0.232-1.04 0.517-0.369 0.445-0.306 0.623 0.459 1.28 1.04 0.891 1.44 0.953 1.7 0.263zm-104 11.9c-6.39-1.39-11.4-7.09-12.2-14-0.443-3.53 0.676-11.3 1.91-13.3 0.667-1.08 0.601 0.118-0.188 3.39-1.47 6.09-0.581 10.2 3.05 14 2.98 3.15 6.3 4.37 11.8 4.37 7.31-0.0091 15.7-2.88 23.4-8.03 3.28-2.19 7.05-5.67 7.05-6.5 0-0.288-0.782-2.08-1.74-3.99-0.956-1.91-2.25-4.94-2.88-6.74-0.627-1.8-1.41-3.62-1.74-4.04-0.569-0.724-0.577-0.907-0.138-3.25 0.256-1.37 0.589-2.61 0.739-2.77 0.3-0.308 5.85 5.33 6.03 6.13 0.0935 0.406-0.138 0.455-1.36 0.287-0.81-0.111-1.47-0.144-1.47-0.0728 0 0.071 0.792 1.76 1.76 3.75 2.42 4.98 2.95 7.27 2.46 10.6-0.529 3.63-1.53 5.47-4.5 8.26-9.17 8.63-23.1 13.8-32 11.9zm63.6-2.36c-3.69-0.801-5.6-3.54-6.38-9.13-0.189-1.36-0.344-2.63-0.344-2.82 0-0.19-0.828 0.443-1.84 1.41-3.22 3.07-6.09 3.54-9.16 1.51-1.87-1.24-3.29-3.17-3.97-5.4-1.04-3.41-0.487-10.1 1.29-15.6 0.617-1.9 0.714-2.04 0.807-1.16 0.058 0.548-0.19 2.78-0.55 4.96-0.853 5.15-0.864 9.56-0.0299 11.4 1.14 2.51 3.85 3.32 6.62 1.99 1.53-0.741 4.48-3.77 5.7-5.84l0.801-1.37-0.324-8.77c-0.178-4.82-0.362-8.81-0.409-8.85-0.0468-0.0468-1.01 0.288-2.14 0.744-3.02 1.22-5.62 1.59-7.76 1.11-6.27-1.4-9.03-7.63-7.44-16.8 0.485-2.78 2.2-8.15 2.79-8.72 0.41-0.401 0.269 0.474-0.829 5.12-1.9 8.03-0.583 12.4 4.26 14.1 2.2 0.778 5.53 0.633 8.42-0.365l2.48-0.859-6e-3 -1.46c-0.0104-2.43-0.889-8.28-1.78-11.8-0.517-2.06-0.761-3.72-0.64-4.33 0.341-1.72 1.23-3.73 1.59-3.62 0.543 0.169 2 4.85 2.56 8.23 0.278 1.67 0.665 4.84 0.862 7.04s0.405 4.05 0.463 4.11c0.0584 0.0617 1.38-0.76 2.93-1.83 4.47-3.07 9.43-7.62 10.8-9.9 0.38-0.637-0.619-1.89-1.83-2.29-0.595-0.196-2.67-0.472-4.6-0.612-4.1-0.296-5.7-0.935-6.6-2.63-1.27-2.4 3e-3 -6.9 2.65-9.38 3.92-3.66 7.43-2.29 10.6 4.12 2.32 4.71 2.44 10.1 0.314 14.4-1.02 2.09-6.06 7.37-9.94 10.4-1.14 0.9-2.56 2.02-3.14 2.49l-1.06 0.852 0.528 15.4 1.72-2.72c4.22-6.67 8.98-11.6 13.1-13.7 2.17-1.07 2.7-1.2 4.88-1.2 2.18 0 2.57 0.096 3.61 0.893 0.644 0.491 1.35 1.21 1.56 1.6 0.414 0.754 0.572 5.46 0.195 5.84-0.124 0.124-0.831-0.294-1.57-0.928-2.22-1.9-4.94-1.96-8.3-0.167-3.91 2.08-7.62 6.26-12.4 14l-2.66 4.27 0.349 3.07c0.574 5.05 2.03 7.1 5.26 7.36 1.69 0.14 5.21-0.397 5.48-0.837 0.0771-0.125-0.15-1.08-0.504-2.13-0.513-1.52-0.6-2.33-0.426-3.99 0.393-3.76 2.35-8.24 4.46-10.2 0.682-0.64 0.825-1.06 0.825-2.44 0-2.43 0.31-3.67 0.92-3.66 0.872 0.0094 7.77 3.86 7.63 4.26-0.0679 0.207-0.686 0.448-1.37 0.536l-1.25 0.16 1.43 1.17c0.789 0.643 2.66 1.92 4.15 2.83 3.44 2.1 4.38 2.97 5.32 4.96 0.571 1.21 0.757 2.15 0.76 3.86 6e-3 4.7-1.86 7.85-4.93 8.31-2.01 0.302-6.8-0.0292-9.4-0.65l-2.01-0.482-1.67 1.12c-3.39 2.29-8.15 3.64-10.8 3.07zm26.6-8.85c1.41-0.546 0.277-2.81-2.15-4.31-0.997-0.616-2.74-1.72-3.87-2.45l-2.06-1.33v1.05c0 0.579-0.348 2.26-0.774 3.73-0.884 3.05-0.894 3.04 1.73 3.33 0.97 0.109 1.91 0.257 2.08 0.329 0.45 0.184 4.36-0.0885 5.04-0.351zm-12.6-2.15c1.52-1.22 2.34-2.96 2.1-4.5-0.256-1.71-1.91-4.62-2.87-5.06-1.37-0.625-3.92 1.46-5.43 4.43-1.3 2.56 0.0871 4.8 3.64 5.88 0.986 0.3 1.42 0.175 2.56-0.743zm-9.47-55.3c-1.3-1.37-2.43-1.89-4.1-1.89-1.34 0-2.44 0.576-2.44 1.28 0 0.546 1 1.26 2.01 1.43 1.15 0.194 5.11 0.378 5.33 0.248 0.0752-0.0458-0.285-0.527-0.8-1.07zm-88.8 60.8c-0.963-1.8 0.294-6.44 2.43-8.99 1.02-1.21 0.997-0.964-0.125 1.28-2.18 4.36-2 6.59 0.433 5.33 0.482-0.25 0.948-0.455 1.04-0.455 0.336 0-0.311 2.43-0.789 2.96-0.73 0.813-2.52 0.739-2.99-0.123zm31.1-13.9c-1.14-0.801-2.12-1.57-2.18-1.71-0.117-0.309 1.73-4.03 2.12-4.27 0.369-0.228 4.53 2.59 4.77 3.23 0.253 0.66-1.51 4.07-2.15 4.15-0.264 0.0336-1.42-0.594-2.56-1.4zm87.1-6.29c-0.197-0.937-0.799-2.68-1.34-3.87-0.926-2.04-1.03-2.15-1.87-1.97-0.649 0.139-1.14-0.011-1.82-0.557-1.05-0.847-1.02-1.73 0.13-3.19 0.587-0.747 0.756-0.797 1.63-0.491 1.27 0.444 2.71 2.45 3.36 4.7 0.286 0.987 0.637 2.08 0.78 2.43 0.234 0.574 0.263 0.58 0.283 0.0567 0.0373-1 1.36-6.1 1.81-6.99 1.07-2.09 2.54-2.47 3.63-0.941 0.758 1.06 0.785 1.27 0.331 2.46l-0.331 0.87-0.887-0.849c-0.488-0.467-1.06-0.849-1.26-0.849-0.619 0-1.25 1.58-1.96 4.96-0.718 3.39-1.53 5.92-1.91 5.92-0.125 0-0.388-0.767-0.585-1.7zm-108-3.77c0.125-0.423 0.466-1.27 0.757-1.89 0.527-1.11 0.594-1.14 11.6-4.9 6.07-2.08 11.4-3.86 11.8-3.96l0.742-0.179-0.518 1.24c-0.285 0.683-0.632 1.36-0.772 1.5s-3.41 1.38-7.26 2.76c-5.77 2.06-9.55 3.48-16.1 6.03-0.329 0.129-0.381-0.0189-0.21-0.598zm8.32-13.5c-0.122-1.31-0.102-2.57 0.0442-2.8 0.147-0.234 0.27-0.626 0.275-0.87 0.0142-0.747 0.999-1.18 1.58-0.698 0.891 0.739 0.628 1.57-0.533 1.68l-1.04 0.1 0.0903 2.48c0.0497 1.36 0.026 2.48-0.0527 2.48s-0.243-1.07-0.365-2.37zm1.45-3.53c0-0.338-0.491-0.348-0.797-0.184-0.841 0.451 0.0235 0.325 0.298 0.325 0.274 0 0.499-0.0635 0.499-0.141zm22.9 5.31c0.172-0.157 0.813-0.453 1.43-0.657 0.612-0.205 0.972-0.244 0.8-0.0874-0.172 0.157-0.813 0.453-1.43 0.657-0.612 0.205-0.972 0.244-0.8 0.0874zm0.247-1.92c-0.683-0.874-0.728-1.14-2.96-1.16-0.21-0.0025-0.527 0.259-0.758 0.165l-0.635-0.26-2.46 0.174-0.294-1.16c-0.383-1.52-0.786-5.06-0.549-4.82 0.101 0.0987 0.321 1.15 0.49 2.34s0.477 2.37 0.686 2.62c0.543 0.655 1.51 0.566 1.98-0.182 0.471-0.754 1.38-0.843 1.64-0.16 0.212 0.552 2.44 0.681 2.44 0.141 0-0.186 0.543-1.26 0.298-0.155-0.0416 0.188-0.19 0.792 0.694-0.0513 0.462-0.435 0.363-0.563 0.499-0.817 0 0 0.343-0.0102 0.458 0.0091 0.122 0.0204 0.13 0.422-0.319 1.1-0.389 0.589 1.19 0.422 2.13-0.242 0.638-0.447 0.688-0.447 0.517 0-0.147 0.384 0.0422 0.495 0.843 0.495 0.876 0 0.974 0.0722 0.641 0.473-0.293 0.353-0.548 0.39-1 0.146-0.87-0.466-2.8 0.0261-2.57 0.625 0.196 0.512-0.327 1.7-0.75 1.7-0.147 0-0.61-0.438-1.03-0.973zm1.19-0.529c-0.115-0.323-0.588-0.413-0.829-0.48-0.168-0.0466-0.455-0.259-0.504-0.194-0.063 0.0854 0.196 0.515 0.257 0.674 0.101 0.264 0.474 0.691 0.829 0.691 0.537 0 0.43-0.174 0.247-0.691zm-4.59-1.97c-0.0946-0.0946-0.341-0.0676-0.547 0.06-0.278 0.172-0.263 0.634 0.0587 0.834 0.427 0.265 0.84-0.543 0.489-0.894zm6.35 2.77c-0.212-0.343 0.11-0.494 1.03-0.486 0.393 0.0035 0.753 0.134 0.8 0.291 0.113 0.371-1.61 0.555-1.83 0.195zm-23.9-1.81c1.69-1.09 1.84-1.79 1.7-4.3-0.511-2.09 0.216-2.5 0.363-0.29 0.859 4.47 1.28 5.04 2.86 3.87 0.275-0.204 0.308-0.493 0.468-0.566 0.333-0.152 0.579 0.131 0.232 0.552-0.529 0.643 0.251 0.793 1.31-0.0375 0.158-0.124 0.156-0.411 0.257-0.479 0.304-0.202 0.499 0.0378 0.391 0.319-0.127 0.33-0.0131 0.502 0.332 0.502 0.288 0 0.606-0.212 0.705-0.472 0.158-0.412 0.244-0.409 0.673 0.0206 1.16 1.16 1.22-0.578 0.177-4.95-0.134-0.559-0.0638-0.722 0.263-0.613 0.245 0.0816 0.457 0.568 0.473 1.08 0.015 0.513 0.129 1.8 0.254 2.85 0.266 2.26-0.0765 3.09-1.03 2.5-0.485-0.3-0.708-0.274-1.11 0.133-0.38 0.38-0.615 0.419-0.935 0.154-0.273-0.226-0.596-0.247-0.896-0.0574-0.258 0.163-1.07 0.299-1.81 0.302-1.49 0.0055-2.34-0.612-2.34-1.7-1e-3 -0.606-0.0824-0.564-0.623 0.322-0.665 1.09-1.55 1.7-2.46 1.7-0.352 0-0.0689-0.322 0.752-0.854zm27.6 0.301c-0.264-0.1-0.574-0.327-0.688-0.502-0.307-0.471-1.02-5.34-0.817-5.55 0.0974-0.0974 0.273 0.52 0.39 1.37 0.318 2.31 0.782 3.95 1.12 3.95 0.164 0 0.214-0.217 0.112-0.482-0.289-0.754 0.751-2.08 1.63-2.08 0.426 0 0.862 0.142 0.969 0.316 0.112 0.182-0.0169 0.235-0.304 0.125-0.274-0.105-0.875 0.055-1.34 0.356-0.835 0.547-0.835 0.549-0.199 1.18 0.616 0.616 0.673 0.618 1.72 0.0779 1.04-0.538 1.06-0.538 0.601 0.0199-0.396 0.477-2.31 1.51-2.63 1.41-0.0497-0.0139-0.306-0.107-0.57-0.208zm-15.6-3.06c-0.237-1.55-0.358-2.89-0.268-2.98 0.235-0.235 0.94 4.17 0.809 5.06-0.0602 0.408-0.304-0.526-0.541-2.08zm59 1.73c0.167-0.161 2.1-1.34 4.3-2.61 5.1-2.96 7.54-4.58 9.02-5.99l1.18-1.12-1.26-0.909c-1.45-1.05-1.8-2.03-1.28-3.6 0.429-1.3 2.49-3.29 3.74-3.6 0.67-0.168 0.992-0.0554 1.45 0.507 0.673 0.831 0.739 2 0.227 4.03-0.341 1.36-0.318 1.46 0.48 2.08 0.994 0.782 1.06 1.55 0.229 2.58-0.583 0.72-0.637 0.728-1.23 0.195-0.339-0.306-0.748-0.556-0.911-0.555-0.162 9.6e-4 -0.993 0.725-1.85 1.61-2.65 2.75-6.26 4.93-11.1 6.72-2.66 0.979-3.52 1.17-2.98 0.652zm15.9-14.5c-0.358-0.941-0.69-1.05-1.65-0.537-0.911 0.488-0.756 1.19 0.421 1.91 0.987 0.602 1.05 0.606 1.3 0.064 0.143-0.315 0.11-0.959-0.0721-1.44zm-65.9 14c-5e-3 -0.186 0.184-0.604 0.422-0.929 0.472-0.646 1.1-0.425 1.17 0.366 0.0287 0.349 0.199 0.346-0.413 0.296-0.0361-0.0029 0.021-0.0772-0.0416-0.173-0.256-0.39-0.438-0.193-0.79 0.201-0.396 0.443-0.34 0.425-0.346 0.239zm-20.6-1.29c-0.492-0.577-1.21-1.09-1.6-1.15-0.449-0.0639-0.744-0.363-0.809-0.82-0.131-0.923 0.118-0.906 1.43 0.0965 0.938 0.716 2.49 2.83 2.2 3.06-0.057 0.0443-0.734-0.606-1.23-1.18zm5.76-0.334c-0.361-0.361 5.11e-4 -1.29 0.132-0.575 0.151 0.823 0.623 0.364 0.635-0.221 0.236-0.372 0.28-0.373 0.284-0.0018 4e-3 0.357 0.317 0.681 0.492 0.0347 0.139-0.511 0.414-0.681 0.286 0.121-0.0488 0.306-0.341 0.603-0.461 0.525-0.203-0.131-0.489-0.135-0.702 0.17-0.149 0.214-0.543 0.0695-0.666-0.0533zm9.51-0.0797c0.27-0.436 3.39-2.06 3.58-1.87 0.0736 0.0736-0.753 0.607-1.84 1.18s-1.87 0.885-1.74 0.682zm-20.1-0.493c0.245-0.18 1.07-0.637 1.16-0.747 0 0-0.364-0.13-0.541-0.425-0.202-0.337 0.18-0.776 0.4-0.85 0.22-0.0742 0.397 0.0296 0.4 0.231 0.0252 1.56-0.0734 0.277-0.32 0.168-0.189-0.0835-0.32-0.0607-0.32 0.107s0.0725 0.529 0.542 0.513c0.169-6e-3 0.263 0.032 0.278 0.106 0.0099 0.0514 0.349 0.286 0.18 0.42-0.0248 0.0196-0.311-0.167-0.338-0.14-0.126 0.125-0.326 0.276-0.608 0.447-1.19 0.726-1.75 0.839-0.835 0.17zm28.6 0.171c0.303-0.192 0.327-0.341 0.08-0.494-0.195-0.12-0.52-0.116-0.724 0.0094-0.229 0.141-0.283 0.0878-0.141-0.141 0.291-0.471 1.36-0.48 1.65-0.0137 0.22 0.356-0.38 0.914-0.982 0.914-0.176 0-0.125-0.124 0.114-0.275zm-19.5-1.26c0-0.265 0.639-0.616 2.8-1.54 1.74-0.745 1.16-0.186-0.88 0.844-1.06 0.533-1.92 0.846-1.92 0.696zm24-0.376c0.616-0.337 1.26-0.613 1.44-0.613s-0.184 0.276-0.8 0.613c-0.616 0.337-1.26 0.613-1.44 0.613s0.184-0.276 0.8-0.613zm-4.16-0.469c0-0.088 0.72-0.525 1.6-0.971 0.88-0.446 1.6-0.739 1.6-0.651s-0.72 0.525-1.6 0.971c-0.88 0.446-1.6 0.739-1.6 0.651zm-24-0.751c0-0.321 2.59-1.41 2.82-1.19 0.0812 0.0812-0.242 0.296-0.718 0.477-0.476 0.181-1.14 0.478-1.48 0.66s-0.618 0.204-0.618 0.0483zm11.3-0.341c0.143 0.0364 0.055-0.311 0.239-0.604 0.433-0.69 1.26-0.524 1.26-0.139 0 0.517-0.657 1.27-1.55 0.956l-0.867 0.148-0.17-0.133c-0.128-0.0999 0.141-0.468 1.09-0.228zm1.02-0.359c0.109-0.176 0.0538-0.32-0.122-0.32-0.176 0-0.41 0.143-0.518 0.32-0.274 0.452-0.231 0.37 0.122 0.32 0.174-0.0246 0.409-0.144 0.518-0.32zm14.2-7.29c-1.15-3.62-1.96-5.01-2.71-4.6-0.654 0.366-2.15-0.308-2.61-1.18-0.366-0.684 0.81-3.04 1.59-3.19 0.847-0.163 2.63 1.31 3.39 2.81 0.403 0.792 0.937 2.23 1.19 3.2 0.498 1.93 0.539 1.88 1.33-1.6 0.885-3.87 2.07-6.08 3.25-6.08 1.35 0 2.5 2.58 1.7 3.83-0.253 0.4-0.413 0.363-1.06-0.24-1.62-1.53-2.12-0.844-3.3 4.56-0.788 3.59-1.33 5.29-1.69 5.28-0.111-3.84e-4 -0.6-1.26-1.09-2.81z" stroke-width=".32"/>
</svg>
