<?xml version="1.0" encoding="UTF-8"?>
<!-- Created with Inkscape (http://www.inkscape.org/) -->
<svg width="145" height="138" version="1.1" viewBox="0 0 145 138" xmlns="http://www.w3.org/2000/svg">
 <path d="m42.6 136c-2.33-2.48-0.0586-10 4.26-14.1 0.978-0.936 1.42-1.23 1.13-0.744-0.263 0.44-1.04 1.73-1.72 2.86-1.54 2.57-2.7 5.34-2.71 6.5-0.0042 0.484 0.288 1.18 0.649 1.54 0.737 0.737 1.51 0.638 2.94-0.373l0.88-0.623v1.3c0 1.82-0.739 3.39-1.88 3.98-1.43 0.737-2.69 0.632-3.56-0.296zm62.6-3.79c-2.34-2.34-0.316-9.57 3.92-14l1.72-1.78-0.868 1.6c-0.477 0.88-1.41 2.61-2.08 3.84-1.61 2.96-2.06 4.54-1.62 5.68 0.276 0.721 0.533 0.88 1.42 0.88 0.62 0 1.45-0.29 1.94-0.676 0.473-0.372 0.935-0.601 1.03-0.509 0.321 0.321-0.268 3.05-0.872 4.04-1.04 1.72-3.31 2.15-4.59 0.877zm-37.4-6.8c-7.17-1.3-12.7-5.72-15-12l-0.65-1.78-3.5 2.31c-9.59 6.33-17.8 6.89-22.7 1.53-2.89-3.17-3.85-6.11-3.86-11.8-0.0037-3.81 0.487-7.42 1.49-11 0.779-2.77 2.36-6.72 2.69-6.72 0.391 0 0.445-0.322-0.792 4.72-0.599 2.44-1.24 5.72-1.44 7.3-0.77 6.35 1.18 10.7 5.71 12.7 2.04 0.917 6.79 1.11 9.62 0.381 2.22-0.57 7.56-3.02 9.91-4.55l1.43-0.926 0.0606-4.79c0.0592-4.67 0.603-9.09 1.56-12.6 0.463-1.72 0.457-1.77-0.29-2.56-2.25-2.38-1.58-7.7 1.46-11.8 2.27-3.03 5.72-4.35 8.1-3.11 0.842 0.439 0.988 0.439 1.43-0.0047 0.445-0.445 0.323-0.644-1.24-2.01-0.953-0.834-3.33-2.78-5.27-4.32-1.95-1.54-4.08-3.46-4.74-4.27-4.34-5.34-0.349-12.2 7.64-13.2 2.21-0.266 9.61-0.0276 18.7 0.602 7.24 0.503 22.4 1.91 22.8 2.11 0.151 0.0931 0.274 0.484 0.274 0.869 0 0.718-1.41 5.19-1.86 5.9-0.138 0.217-3.12 1.67-6.64 3.24-6.94 3.09-16.8 7.93-20.7 10.2l-2.47 1.42-0.211 1.86c-0.268 2.37-0.538 2.86-1.25 2.26-0.289-0.24-0.745-0.861-1.01-1.38-0.425-0.822-0.547-0.884-0.949-0.481-0.402 0.402-0.224 0.843 1.38 3.42 1.51 2.43 1.96 2.93 2.49 2.8 4.71-1.15 7.3-1.52 11.7-1.7 13.5-0.527 21.1 2.8 23.7 10.5 0.555 1.62 0.702 2.79 0.702 5.57 1.5e-4 7.98-3.12 15-9.51 21.4-8.24 8.24-18.5 11.8-28.7 9.95zm14-8.29c6.3-1.86 12.1-5.3 16.6-9.93 4.72-4.78 6.04-7.66 5.34-11.7-0.213-1.24-0.663-2.79-0.999-3.44-0.787-1.52-3.02-3.65-4.71-4.5-3.95-1.97-11.2-2.87-18.7-2.31-4.13 0.306-8.83 1.03-9.53 1.46-0.131 0.0812-0.325 0.873-0.43 1.76-0.262 2.21-1.84 6.67-3.14 8.88-0.609 1.03-3.19 3.98-5.93 6.78l-4.85 4.95 1.15 1.73c1.71 2.58 4.65 4.74 8.21 6.04 4.45 1.62 12 1.74 17 0.266zm-24.6-16.4c3.48-2.96 7.54-7.04 8.6-8.65 0.711-1.07 0.858-1.62 0.777-2.88-0.0963-1.51-0.125-1.55-1.06-1.48-2.48 0.198-8.73 0.198-9.47-6.4e-4 -0.792-0.213-0.863-0.118-1.68 2.25-1.19 3.45-1.52 6.34-1.17 9.99 0.163 1.67 0.3 3.15 0.305 3.29 0.0148 0.428 1.03-0.267 3.69-2.53zm4.24-20c0.894-0.0054 0.929-0.676 0.0749-1.45-0.625-0.566-0.66-0.565-1.13 0.0304-0.264 0.338-0.638 0.887-0.831 1.22-0.312 0.539-0.266 0.584 0.405 0.404 0.416-0.111 1.08-0.204 1.48-0.207zm-5.04-1.85c1.11-1.66 1.11-1.68 0.222-1.68-1.27 0-2.28 1.01-2.02 2.03 0.294 1.17 0.856 1.06 1.8-0.35zm14.1-14c4.31-2.81 10.3-6.11 14.1-7.75 2.07-0.906 3.33-1.62 3.09-1.75-2.3-1.22-29.3-2.27-32.9-1.28l-1.43 0.4 1.13 1.01c0.622 0.555 2.99 2.47 5.27 4.26 2.28 1.79 5.01 4.05 6.06 5.03 1.06 0.975 1.95 1.78 1.99 1.79 0.0379 0.0079 1.26-0.762 2.72-1.71zm52.3 48.5c-2.25-0.829-3.59-2.07-4.69-4.32-2.04-4.19-2.25-6.4-3.08-31.9-0.271-8.35-0.565-15.3-0.653-15.3-0.461-0.461-15.9 5.33-22.2 8.32-2.18 1.04-4.02 1.89-4.08 1.89-0.285 0-0.0496-0.948 0.725-2.92l0.839-2.14 3.08-1.45c4.58-2.15 7.49-3.28 14.9-5.79l6.68-2.27-0.0575-3.52c-0.134-8.21-0.898-14.3-2.62-21-0.842-3.26-0.918-3.91-0.609-5.12 0.592-2.31 1.66-4.75 1.99-4.55 0.987 0.61 2.8 7.07 3.58 12.8 0.67 4.89 0.803 6.46 1.16 13.7 0.173 3.51 0.366 6.43 0.429 6.49 0.0624 0.0624 2.91-0.595 6.32-1.46 8.16-2.07 19.8-4.63 20-4.4 0.278 0.278-0.822 2.93-1.44 3.48-0.302 0.267-2.28 0.867-4.39 1.33-4.38 0.967-15.3 3.72-18.5 4.69l-2.17 0.645 0.166 1.98c0.0912 1.09 0.317 8.75 0.502 17 0.412 18.4 0.582 20.4 1.99 23.2 1.42 2.8 2.24 3.35 5.26 3.5 1.34 0.0674 2.97-0.0407 3.64-0.24 1.36-0.407 2.86-1.97 2.86-2.99 0-0.368-0.72-2.02-1.6-3.66-1.77-3.32-1.96-4.55-1.12-7.32 0.743-2.45 1-2.69 1.81-1.74 1.25 1.47 2.8 5.21 3.18 7.68 0.419 2.74 0.181 6.84-0.546 9.36-0.615 2.13-2.32 4.65-3.85 5.68-1.56 1.05-5.26 1.25-7.56 0.403zm-121-20.7c-1.45-1.84-1.12-5.17 0.914-9.27 1.05-2.12 4.73-6.89 4.78-6.2 0.00808 0.11-0.908 1.81-2.04 3.77-2.44 4.24-3.08 6.36-2.29 7.55 0.674 1.03 1.78 1.02 3.02-0.0137 1.17-0.988 1.44-0.663 1.14 1.37-0.317 2.12-1.8 3.6-3.6 3.6-0.998 0-1.43-0.183-1.93-0.809zm127-15.9c-1.61-1.09-2.95-2.16-2.96-2.39-0.0379-0.599 2.49-5.51 2.84-5.51 0.162 0 1.6 0.873 3.2 1.94 2.19 1.46 2.9 2.11 2.9 2.64-5e-3 0.757-2.43 5.35-2.81 5.32-0.126-0.0118-1.55-0.912-3.16-2zm-122-8.18c-1.48-0.483-3.34-1.92-4.57-3.53-3.26-4.28-3.48-9.89-0.702-17.9 2.06-5.92 4.97-11.5 4.97-9.57 0 0.235-0.991 3.31-2.2 6.84-2.58 7.52-3.24 11-2.62 13.7 1.25 5.57 6.86 6.14 13.1 1.33 0.946-0.729 4.06-3.85 6.92-6.93 6.98-7.53 9.97-10.1 16.6-14.5 3.7-2.42 7.91-4.64 11.2-5.89 1.25-0.48 2.32-0.897 2.36-0.927 0.0488-0.0296-0.408-1.09-1.02-2.36-1.37-2.86-1.63-4.31-1.16-6.55 0.948-4.57 4.89-6.7 9.29-5.03 2.31 0.876 7.71 4.56 9.25 6.31 1.58 1.8 1.64 2.55 0.499 6.17l-0.81 2.56-4.71 1.47c-5.71 1.78-6.24 1.99-5.98 2.41 0.112 0.182 0.108 0.901-0.0101 1.6-0.28 1.66-1.02 1.66-1.67-0.0117-0.277-0.704-0.627-1.28-0.779-1.28-0.152 0-2.11 0.81-4.35 1.8-12.7 5.61-15.9 8.07-30 23-5.96 6.3-7.29 7.23-10.7 7.4-1.16 0.058-2.48-0.0153-2.93-0.163zm51.9-40.1c1.36-0.52 2.48-1.13 2.48-1.35 0-0.892-5.81-3.39-7.89-3.39-1.4 0-1.38 0.363 0.223 3.54 1.46 2.91 0.978 2.8 5.19 1.19zm-41.8 10.3c-0.793-0.482-1.49-2.24-1.49-3.75 0-1.58 0.787-4.22 1.93-6.49 0.903-1.79 4.1-5.89 4.37-5.62 0.0809 0.0809-0.723 1.71-1.79 3.61-2.26 4.05-2.91 6.06-2.35 7.29 0.478 1.05 2.23 1.15 3.11 0.181 0.95-1.05 1.21-0.767 1.05 1.14-0.119 1.44-0.331 1.97-1.1 2.73-1.05 1.05-2.81 1.47-3.75 0.902zm58.8-0.582c0.167-0.159 2.82-1.76 5.9-3.57 7.92-4.64 12.8-8.05 12.8-8.94 0-0.132-0.581-0.625-1.29-1.09-2.89-1.91-2.84-4.52 0.159-7.44 2.17-2.11 3.5-2.48 4.55-1.26 0.839 0.975 0.96 2.63 0.387 5.31l-0.351 1.64 2.39 2.06-0.677 1.33c-0.373 0.73-0.802 1.4-0.954 1.5-0.152 0.0941-0.74-0.171-1.31-0.589l-1.03-0.76-2.3 2.31c-3.71 3.73-8.13 6.36-14.5 8.64-3.25 1.16-4.36 1.42-3.79 0.867zm20.6-17.8c0-1.58-0.623-2.2-1.77-1.77-1.64 0.622-1.59 1.5 0.162 2.67 1.29 0.858 1.61 0.678 1.61-0.902zm28.5 17.4c-3.75-1.39-1.48-10.6 3.84-15.5l1.04-0.96-1.03 1.76c-2.06 3.51-3.87 7.5-3.87 8.49 0 1.14 0.826 2.07 1.84 2.07 0.369 0 1.11-0.373 1.65-0.828l0.985-0.828v1.48c0 1.51-0.546 2.95-1.39 3.65-0.761 0.632-2.24 0.936-3.07 0.63zm-85.7-19.2c-0.778-0.937-0.758-2.92 0.0589-6 0.734-2.77 0.76-3.07 0.29-3.43-0.436-0.332-0.842-0.0862-2.65 1.6-1.17 1.1-2.94 2.47-3.93 3.06-1.84 1.09-7.56 3.39-7.81 3.14-0.0767-0.0767 2.1-1.48 4.84-3.13 2.74-1.64 5.64-3.55 6.45-4.24l1.47-1.25-0.93-0.589c-1.92-1.22-2.11-2.86-0.524-4.74 1.21-1.44 2.51-2.05 3.37-1.59 0.634 0.339 0.668 0.54 0.489 2.86-0.156 2.02-0.103 2.53 0.275 2.67 0.644 0.247 0.586 1.36-0.189 3.59-0.885 2.55-0.971 5.04-0.199 5.8 0.562 0.551 0.62 0.531 1.54-0.548l0.956-1.12-0.215 0.96c-0.436 1.95-1.23 3.2-2.09 3.3-0.455 0.0529-0.989-0.0982-1.19-0.336zm-0.0666-13.8c0-1.06-0.742-1.6-1.58-1.15-0.878 0.47-0.833 0.792 0.216 1.56 1.01 0.739 1.36 0.635 1.36-0.405zm29.8 6.27c0.42-0.326 2.52-1.56 4.66-2.74 6.01-3.31 5.96-3.49-0.941-3.65-2.6-0.0601-4.72-0.187-4.72-0.281 0-0.566 2.12-3.72 2.79-4.17 1.69-1.11 10.3-0.78 11.7 0.442 0.666 0.603 0.433 1.38-1.08 3.58-1.56 2.27-3.45 4.2-4.77 4.88-0.946 0.482-7.6 2.54-8.22 2.54-0.0812 0 0.196-0.267 0.615-0.593z" stroke-width=".32"/>
 <path d="m16.6 79.6c-0.185-1.24-0.282-2.51-0.215-2.8 0.145-0.639 0.895-1.26 1.52-1.26 0.253 0 0.4-0.0785 0.336-0.179-0.159-0.248-0.901-0.225-1.17 0.0359-0.341 0.329-0.289-0.224 0.0662-0.712 0.396-0.546 1.03-0.5 1.64 0.12 0.692 0.695 0.616 1.35-0.167 1.41-0.307 0.0253-0.872 0.13-1.26 0.232-0.622 0.165-0.697 0.247-0.692 0.763 0.0017 0.317 0.121 1.22 0.266 2.01 0.145 0.791 0.205 1.7 0.133 2.04-0.105 0.489-0.194 0.169-0.467-1.66zm23.1-0.499c-0.148-0.143-0.158-0.31-0.0294-0.54 0.151-0.271 0.33-0.389 0.565-0.137 0.5 0.534 0.482 0.229 0.692-0.074 0.191-0.279 0.366-0.23 0.639-0.0371 0.196 0.139 0.282 0.35 0.213 0.525-0.138 0.348-0.47 0.376-0.796 0.0678-0.354-0.335-0.271-0.162-0.418 0.0897-0.212 0.362-0.555 0.405-0.866 0.107zm-5.07-0.678c0-0.16 2.05-1.15 2.16-1.04 0.135 0.131-0.275 0.433-1.09 0.807-1 0.455-1.06 0.469-1.06 0.237zm-16.4-0.452c0-0.044 0.577-0.372 1.28-0.729 0.703-0.357 1.46-0.841 1.7-1.08 0.36-0.37 0.389-0.5 0.214-0.981-0.111-0.307-0.373-0.768-0.581-1.03-0.477-0.583-1.5-1.32-1.69-1.22-0.0756 0.0449-0.389-0.0034-0.697-0.107-0.481-0.161-0.572-0.296-0.645-0.942-0.0448-0.413-0.0569-0.779-0.0268-0.819 0.0301-0.0367 0.414 0.138 0.854 0.389 1.21 0.695 2.35 1.92 2.83 3.08 0.38 0.903 0.455 0.987 0.571 0.634 0.0732-0.223 0.0744-1.31 0.0025-2.42-0.0901-1.39-0.0674-2.06 0.0721-2.14 0.112-0.0667 0.203-0.0383 0.203 0.0628 0 0.101 0.129 1.09 0.287 2.21 0.452 3.19 0.721 3.73 1.88 3.73 0.478 0 1.02-0.0138 1.22-0.546 0.0953-0.251 0.179-0.701 0.306-0.667 0.285 0.0673 0.396 0.229 0.112 0.757-0.152 0.281-0.241 0.546-0.198 0.589 0.221 0.214 1.63-0.378 2.05-0.863 0.117-0.135 0.0103-0.423 0.114-0.428 0.348-0.017 0.42 0.0098 0.159 0.48-0.158 0.284-0.146 0.405 0.0465 0.524 0.504 0.308 0.837 0.144 1.23-0.606 0.0866-0.168-0.0208-0.444 0.0883-0.453 0.363-0.0313 0.296-0.16 0.274 0.216-0.0257 0.422 0.0599 0.549 0.433 0.645 0.256 0.0656 0.599 0.0543 0.761-0.0249 0.271-0.131 0.259-0.363-0.136-2.53-0.239-1.31-0.521-2.57-0.628-2.8-0.172-0.375 0.0124-1.11 0.278-1.11 0.234 0 0.593 1.06 0.518 1.53-0.047 0.299 0.047 1.22 0.209 2.04 0.406 2.06 0.384 2.98-0.0796 3.43-0.349 0.336-0.418 0.343-1.03 0.0936-0.639-0.258-0.674-0.251-1.08 0.2-0.41 0.46-0.425 0.463-1.02 0.164-0.485-0.242-0.663-0.259-0.883-0.083-0.169 0.135-0.93 0.226-1.96 0.235-1.6 0.0149-1.71-0.0072-2.05-0.444-0.196-0.253-0.471-0.858-0.61-1.35-0.151-0.53-0.259-0.718-0.269-0.461-0.0253 0.645-0.726 1.72-1.35 2.08-0.726 0.415-2.75 0.953-2.75 0.734zm19.4-0.673c-0.225-0.105-0.546-0.469-0.715-0.807-0.274-0.557-0.335-0.594-0.616-0.357-0.709 0.6-1.89 0.577-1.89-0.0341 0-0.4 1.24-1.82 1.59-1.82 0.178 0 0.264-0.205 0.264-0.628 0-1.08 0.289-0.69 0.535 0.723 0.292 1.68 0.75 2.28 1.74 2.28 0.377 0 0.959-0.163 1.3-0.363 0.542-0.322 0.663-0.335 1.08-0.114 0.256 0.137 0.599 0.252 0.767 0.255 0.639 0.0135 0.686-0.384 0.314-2.84-0.316-2.08-0.339-3.13-0.0634-2.87 0.0439 0.0423 0.252 1.16 0.461 2.48 0.347 2.19 0.703 3.24 1.09 3.24 0.0796 0 0.108-0.297 0.0645-0.662-0.139-1.15 0.738-2.21 1.82-2.21 0.194 0 0.587 0.209 0.872 0.464 0.396 0.352 0.432 0.432 0.15 0.329-0.866-0.315-2.51 0.178-2.51 0.751 0 0.153 0.248 0.517 0.55 0.807 0.543 0.524 0.558 0.527 1.24 0.252 0.38-0.153 0.802-0.369 0.942-0.48 0.139-0.11 0.293-0.161 0.344-0.112 0.185 0.179-0.123 0.6-0.709 0.964-1.41 0.88-3 0.981-3.55 0.233-0.257-0.355-0.271-0.355-0.517-0.0267-0.411 0.551-0.657 0.606-1.33 0.3-0.599-0.276-0.674-0.271-1.4 0.0869-0.843 0.415-1.23 0.45-1.84 0.163zm-1.17-2.12c0-0.639-0.0493-0.65-0.86-0.165-0.825 0.492-0.79 0.701 0.117 0.701 0.703 0 0.744-0.0299 0.744-0.538zm-3.43-0.474c-0.438-2.75-0.558-4.15-0.335-3.92 0.394 0.41 1.08 5.01 0.843 5.61-0.13 0.331-0.238-0.0353-0.504-1.7zm-6.22-0.92c-0.122-0.0393-0.222-0.282-0.222-0.539 0-0.436 0.162-0.51 0.25-0.137 0.193 0.807 0.709 0.442 0.686-0.318 0.0054-0.365 0.231-0.445 0.253-0.079 0.0581 0.953 0.738 0.404 0.616-0.0447-0.0535-0.197-0.0214-0.404 0.0715-0.459 0.0924-0.0553 0.169 0.142 0.169 0.438s-0.105 0.606-0.232 0.684c-0.127 0.0785-0.287 0.178-0.524 0.0639-0.0472-0.0225-0.0936 0.0472-0.128 0.0959-0.305 0.433-0.942 0.341-0.942 0.297zm12.4-0.141c0-0.0617 0.184-0.256 0.409-0.432l0.409-0.32-0.402-0.123c-0.221-0.0678-0.572-0.035-0.779 0.0729-0.416 0.215-0.51 0.0218-0.156-0.32 0.288-0.278 1.05-0.265 1.6 0.0256 0.407 0.218 0.411 0.241 0.093 0.509-0.427 0.36-1.17 0.734-1.17 0.589zm-24.2-0.386c0.21-0.177 0.587-0.454 0.837-0.617 0.273-0.175 0.504-0.384 0.504-0.384-0.0226-0.0751-0.235-0.172-0.399-0.285-0.188-0.13-0.331-0.403-0.0422-0.83 0.327-0.482 0.819-0.6 0.942-0.229 0.0394 0.123 0.123 0.572 0.185 0.998 0.0117 0.0807-0.229 0.253-0.179 0.297 0.554 0.477 0.386 0.813-0.0692 0.369-0.0628-0.0611-0.176-0.171-0.176-0.171s-0.255 0.201-0.307 0.25c-0.121 0.113-0.471 0.353-0.901 0.554-0.668 0.314-0.726 0.32-0.396 0.0423zm1.76-1.66c-0.068-0.606-0.285-0.529-0.534-0.344-0.0971 0.0718-0.168 0.253-0.109 0.345 0.0947 0.148 0.472 0.404 0.472 0.404 0.0785 0.0096 0.179-0.336 0.171-0.405zm8.43 0.162c0.107-0.309 3.87-1.97 3.87-1.72 0 0.128-0.825 0.606-1.84 1.07-1.95 0.886-2.13 0.942-2.03 0.65zm18.4 0.0148c0-0.155 2.43-1.62 2.69-1.62 0.396 0-0.0773 0.424-1.18 1.05-1.37 0.785-1.5 0.835-1.5 0.566zm-22.8-1.47c0.0686-0.199 2.92-1.47 3.05-1.36 0.175 0.169-0.361 0.514-1.57 1.01-1.55 0.634-1.58 0.639-1.47 0.349zm19.7 0.0138c0.116-0.334 3.13-1.96 3.13-1.69 0 0.135-0.668 0.617-1.48 1.07-1.56 0.869-1.76 0.942-1.64 0.628zm-8.6-0.486c0.128-0.239 0.354-0.39 0.534-0.355 0.0825 0.0156 0.321 0.198 0.415 0.0841 0 0 0.209-0.38 0.332-0.522 0.448-0.512 0.849-0.634 1.05-0.316 0.399 0.622-0.907 1.63-1.68 1.28-0.296-0.13-0.484-0.122-0.645 0.0274-0.184 0.168-0.187 0.126-0.0103-0.204zm1.76-0.322c0.162-0.06 0.294-0.181 0.294-0.269 0-0.257-0.491-0.185-0.744 0.109-0.245 0.285-0.0634 0.35 0.45 0.16zm-15.9-2.76c-0.33-1.15 0.135 0.469-0.0048-0.0072z" stroke-width=".183"/>
</svg>
