<?xml version="1.0" encoding="UTF-8"?>
<!-- Created with Inkscape (http://www.inkscape.org/) -->
<svg width="156" height="128" version="1.1" viewBox="0 0 156 128" xmlns="http://www.w3.org/2000/svg">
 <path d="m92.3 126c0.52-1.25 1.64-2.88 2.97-4.32 0.862-0.938 0.778-1.86-0.17-1.86-0.318 0-1.62 0.496-2.88 1.1-6.73 3.22-13.9 4.16-18.8 2.44l-1.74-0.612v1.23c0 0.679-0.169 1.64-0.375 2.14-0.363 0.871-0.383 0.84-0.596-0.923-0.148-1.22-0.551-2.34-1.22-3.39-1.07-1.66-1.3-3.17-0.542-3.47 0.254-0.0976 1.12 0.276 1.93 0.829 2.66 1.83 4.67 2.36 8.97 2.36 4.44 6e-3 6.99-0.581 11.6-2.67 3.39-1.53 4.66-1.83 5.32-1.28 0.57 0.473 0.632 2.32 0.112 3.3-0.408 0.773-4.75 6.3-4.95 6.3-0.0691 0 0.0967-0.532 0.368-1.18zm-40.4-4c-0.217-0.915-0.819-2.57-1.34-3.68-0.882-1.89-0.999-2-1.84-1.83-0.712 0.142-1.09-0.0186-1.8-0.769l-0.906-0.948 0.83-1.32c0.927-1.47 1.14-1.54 2.41-0.792 1.16 0.684 2.39 2.62 2.88 4.52 0.216 0.836 0.465 1.74 0.554 2 0.0885 0.264 0.504-0.927 0.924-2.65 0.89-3.65 1.43-4.82 2.58-5.57 0.82-0.537 0.85-0.529 1.75 0.482 1 1.12 1.14 1.87 0.508 2.74-0.388 0.531-0.444 0.526-1.01-0.0988-1.01-1.12-1.67-0.839-2.36 1.02-0.342 0.924-0.791 2.67-0.998 3.87-0.385 2.24-1.21 4.69-1.59 4.69-0.115 0-0.387-0.748-0.605-1.66zm60.4-5.04c0-0.788-1.53-5.06-2.16-6.01-0.357-0.545-0.664-0.674-1.26-0.525-0.562 0.141-1-0.011-1.56-0.538-0.957-0.899-0.975-1.36-0.109-2.76 0.832-1.35 1.53-1.23 3.24 0.537 0.884 0.916 1.38 1.86 1.9 3.65l0.711 2.42 0.73-3.04c0.924-3.84 1.76-5.52 2.88-5.8 1.43-0.36 2.76 1.62 2.15 3.22-0.267 0.695-0.72 0.634-1.38-0.187-0.698-0.862-1.5-0.614-1.97 0.605-0.187 0.489-0.685 2.44-1.1 4.33-0.788 3.55-1.22 4.72-1.76 4.72-0.17 0-0.309-0.279-0.309-0.621zm-81.1-5.45c-0.781-0.863-0.53-3.11 0.793-7.1 1.13-3.42 2.01-5.07 2.69-5.07 0.371 0 0.343 0.291-0.154 1.6l-0.608 1.6 1.27 1.27c1.48 1.48 1.76 2.33 1.5 4.59-0.157 1.35-0.396 1.84-1.32 2.69-1.36 1.26-3.23 1.44-4.17 0.405zm3.6-2.56c0.572-0.349 1.04-0.851 1.04-1.12 0-0.447-2.36-2.41-2.89-2.41-0.485 0-1.33 2.99-1.05 3.72 0.245 0.637 1.7 0.54 2.9-0.195zm34.7-4.05c-3.14-1.11-5.76-4.76-6.52-9.08-0.725-4.11 0.435-11.5 2.61-16.5 1.07-2.49 1.05-1.29-0.0498 3.16-2.22 9.01-1.13 13.9 3.55 15.9 4.8 2.06 10.3 0.696 18-4.45 3.85-2.58 9.42-7.49 11.4-10 1.21-1.57 1.37-1.96 1.28-3.17-0.0851-1.18-0.193-1.37-0.74-1.28-0.352 0.0594-2.3 0.125-4.32 0.145-3.12 0.0312-3.91-0.0666-5.19-0.646-2.24-1.01-2.88-2.22-2.72-5.1 0.304-5.36 4.74-9.95 8.42-8.73 1.5 0.494 4.02 3.08 5.47 5.61 0.653 1.13 1.37 2.06 1.6 2.06 0.326 0 6.03-2.7 6.41-3.03 0.0476-0.042-0.0729-0.82-0.268-1.73-0.469-2.19 0.288-6.05 1.81-9.23 1.41-2.94 4.13-5.94 6.07-6.68 1.37-0.522 1.46-0.52 2.08 0.0454 0.359 0.325 1.24 1.71 1.95 3.08 1.16 2.23 3.32 4.74 4.08 4.74 0.159 0 1.52-1.99 3.02-4.42 4.97-8.04 8.31-11.9 11.9-13.7 2.64-1.31 6.2-1.5 8.9-0.488 3.61 1.36 7.89 6.29 7.9 9.12 4e-3 1.69-1.4 5.86-2.56 7.58-2.07 3.08-9.3 7.25-15.2 8.76-4.03 1.03-9.17 1.17-12.3 0.336-1.12-0.302-2.07-0.505-2.11-0.451-0.0401 0.0539-0.286 0.649-0.547 1.32-0.432 1.12-0.42 1.38 0.142 3.04 0.825 2.43 0.652 6.33-0.369 8.31-1.37 2.65-3.97 3.32-7.01 1.8-1.76-0.877-4.31-3.45-5.14-5.18-0.276-0.577-0.653-0.981-0.838-0.898-0.185 0.0835-1.99 0.876-4.02 1.76-3.4 1.49-3.7 1.69-3.94 2.66-1.63 6.66-2.64 8.42-7.74 13.5-6.37 6.39-12.5 10.6-17.3 11.8-2.33 0.606-5.95 0.589-7.71-0.0369zm51.2-29.5c0.302-0.489-0.115-1.16-1.08-1.73-1.19-0.701-4.5-0.764-4.5-0.0849 0 0.445 1.27 1.51 2.24 1.87 0.788 0.296 3.15 0.253 3.34-0.0602zm-24.5-1.89c0-0.351-1.59-1.82-2.46-2.26-1.95-1-4.74 0.0587-3.97 1.51 0.188 0.351 0.523 0.712 0.746 0.801 0.676 0.273 5.68 0.231 5.68-0.047zm18-5.98c2.46-0.716 5.67-0.748 6.71-0.0674 1.08 0.705 1.07 0.706 1.27-0.332 0.139-0.726-0.101-1.16-1.37-2.51-0.848-0.897-2.06-2.67-2.7-3.93-0.638-1.27-1.37-2.38-1.62-2.48-0.639-0.245-2.39 0.902-3.93 2.57-1.62 1.76-2.31 3.07-2.3 4.42 2e-3 1.36 1.13 3.26 1.78 3.01 0.263-0.101 1.24-0.405 2.17-0.676zm24-6.2c5.07-1.05 11.6-3.93 14.6-6.43 1.26-1.05 1.1-1.68-0.941-3.71-3.38-3.35-6.54-4.79-9.98-4.54-3.03 0.214-5.03 1.35-8.5 4.84-2.87 2.89-7.37 9.09-6.92 9.55 0.974 0.974 7.63 1.14 11.7 0.285zm-13.3 36.1c1.14-0.745 2.87-2.22 3.84-3.28 5.43-5.94 7.59-7.53 10.3-7.53 1.17 0 1.5-0.194 3.14-1.85 2.15-2.19 3.54-2.89 4.69-2.36 1.94 0.885 0.861 4.29-1.9 5.97-1.45 0.885-1.87 0.975-5.28 1.13-4.7 0.209-5.5 0.608-9.64 4.83-2.98 3.04-5.02 4.42-6.54 4.44-0.403 0.0044 0.126-0.491 1.44-1.35zm20-11.1c1.92-0.719 2.29-1.44 0.915-1.78-0.936-0.235-3.15 0.748-4.13 1.84-0.526 0.581-0.508 0.605 0.45 0.605 0.549 0 1.8-0.298 2.77-0.663zm-101 9.1-2.47-1.76 1.15-2.3c0.633-1.26 1.2-2.36 1.27-2.43 0.0653-0.0712 1.16 0.577 2.44 1.44 1.28 0.863 2.42 1.62 2.55 1.67 0.123 0.0557 0.608-0.664 1.08-1.6 0.47-0.936 0.902-1.75 0.959-1.82 0.148-0.165 4.45 2.73 4.95 3.32 0.34 0.41 0.289 0.755-0.296 2-0.389 0.829-0.966 1.85-1.28 2.27l-0.575 0.762-2.47-1.67c-1.36-0.918-2.5-1.62-2.53-1.56-1.05 2.1-1.77 3.29-2 3.35-0.162 0.0429-1.41-0.715-2.77-1.68zm-34.5-0.894c-4.36-1.21-7.16-4.49-8.55-10-0.755-3.01-0.744-10.6 0.0212-13.7 0.596-2.42 2.37-6.56 2.81-6.56 0.382 0 0.349 0.212-0.395 2.56-2.63 8.29-1.85 15.2 2.17 19.1 2.04 1.98 4.32 2.76 8.1 2.77 3.42 0.0116 5.59-0.479 9.65-2.18 7.36-3.09 19.5-12.5 20.8-16 0.356-1.01 0.444-3.62 0.422-12.5-0.0343-13.7-0.681-22.6-2.52-34.4-0.712-4.59-0.714-4.67-0.145-7.48 0.317-1.56 0.663-2.92 0.771-3.03 0.346-0.346 0.701 0.581 1.56 4.06 1.92 7.8 2.89 15.9 3.4 28.2 0.938 22.7 1.06 24.1 2.32 26.8 1.1 2.34 2.7 2.98 6.43 2.58 3.53-0.377 5.81-1.65 9.66-5.39 2.06-2.01 3.55-3.2 3.97-3.2 0.63 0 0.662 0.118 0.472 1.73-0.165 1.4-0.0728 2 0.482 3.15 0.808 1.67 1.7 2.16 3.97 2.15 2.02-6.4e-4 3.86-0.838 4-1.81 0.0543-0.381-0.27-1.42-0.72-2.31-0.45-0.889-0.819-1.99-0.819-2.46 0-1.09 1.27-5.26 1.6-5.26 0.357 0 1.51 2.54 1.96 4.31 0.514 2.04 0.203 6.63-0.589 8.69-1.33 3.45-3.52 5.24-6.39 5.23-2.99-0.0102-5.09-2.05-5.46-5.29-0.0881-0.781-0.321-1.42-0.518-1.42-0.197 0-1.66 1.36-3.25 3.02-2.33 2.43-3.32 3.23-5.12 4.07-2.77 1.3-6.09 1.61-8.31 0.761-2.71-1.04-4.74-4.39-5.18-8.55-0.237-2.27-0.488-2.1-1.03 0.692-0.61 3.13-1.7 4.82-5.09 7.89-7.54 6.82-16 12-22 13.6-2.74 0.702-6.23 0.77-8.41 0.166zm10.1-20.6c-0.329-1.54-1.75-5.39-2.27-6.12-0.4-0.572-0.584-0.633-0.961-0.32-0.372 0.309-0.635 0.26-1.31-0.241-1.43-1.07-1.55-1.51-0.756-2.79 0.855-1.38 1.54-1.46 2.89-0.324 1.22 1.02 1.88 2.25 2.6 4.76 0.515 1.82 0.556 1.87 0.768 0.96 1.42-6.09 2.35-8.16 3.65-8.16 0.887 0 1.96 1.36 1.96 2.48 0 1.31-0.516 1.59-1.4 0.752-0.394-0.37-0.895-0.674-1.11-0.674-0.576 0-1.32 1.99-1.99 5.35-0.57 2.83-1.35 5.21-1.71 5.21-0.0936 0-0.255-0.396-0.358-0.88zm65.8-16.5c0-0.0874 2.56-1.69 5.68-3.55 3.12-1.87 6.32-3.95 7.1-4.62l1.42-1.22-1.38-1.32c-1.26-1.2-1.37-1.42-1.19-2.47 0.366-2.25 3.35-4.9 4.62-4.1 0.938 0.589 1.2 1.88 0.788 3.85-0.364 1.74-0.351 1.81 0.416 2.42 0.933 0.734 0.991 1.42 0.207 2.44-0.569 0.739-0.573 0.74-1.34 0.119l-0.769-0.622-1.79 1.82c-2.28 2.31-5.96 4.61-9.52 5.94-3.41 1.27-4.23 1.53-4.23 1.33zm15.7-13.1c0-1.69-0.621-2.16-1.93-1.46-0.764 0.409-0.509 1.15 0.607 1.75 1.16 0.632 1.32 0.597 1.32-0.291zm-38.4 10.2c0-0.49 0.381-1.17 0.96-1.71 1.13-1.05 1.15-1.15 0.353-1.36-0.334-0.0874-0.849-0.527-1.14-0.977-0.506-0.772-0.501-0.898 0.0779-2.2 0.84-1.89 3.29-4.1 4.53-4.1 1.36 0 1.78 0.91 1.14 2.44-0.481 1.15-0.503 1.16-1.13 0.591-0.608-0.55-0.707-0.553-1.76-0.0519-1.38 0.657-1.42 1.33-0.119 2 1.2 0.62 2.01 0.452 4.13-0.853 1.9-1.17 2.33-1.11 1.77 0.22-0.296 0.7-1.63 1.83-4.62 3.9-3.94 2.74-4.2 2.87-4.2 2.1zm-53.1-1.19c0-0.238 0.302-1.16 0.672-2.05l0.672-1.62 5.17-1.77c5.08-1.74 17.6-6 19.6-6.68 0.572-0.191 1.12-0.265 1.22-0.164 0.305 0.305-1.1 2.76-1.79 3.13-0.356 0.191-3.42 1.33-6.8 2.53-5.61 1.99-12.8 4.69-17.1 6.39-1.3 0.514-1.68 0.567-1.68 0.233zm65.9-11.2c0.258-0.256 2.63-1.67 5.27-3.15 2.64-1.48 4.8-2.88 4.8-3.12 0-0.695-1.28-0.88-6.32-0.914-2.73-0.0185-4.72-0.159-4.72-0.335 0-0.167 0.511-1.17 1.14-2.24 1.66-2.84 2.23-3.06 7.66-3.03 6.13 0.0344 8.2 0.748 7.5 2.59-0.498 1.31-2.23 3.66-4.24 5.78-2.06 2.16-2.98 2.61-8.19 4.08-3.34 0.939-3.51 0.96-2.89 0.341zm32.5-4.1c0.119-0.396 0.47-1.31 0.781-2.03l0.565-1.31 8.44-2.82c4.64-1.55 10.4-3.53 12.9-4.39s4.52-1.49 4.63-1.38-0.156 0.86-0.592 1.67l-0.793 1.47-8.64 3.1c-4.75 1.71-10.5 3.84-12.8 4.75-2.3 0.91-4.29 1.65-4.42 1.65s-0.148-0.324-0.0298-0.72zm-85.9-4c1.7-1.82 3.14-4 3.14-4.73 0-0.894-0.933-1.52-1.62-1.09-0.712 0.451-0.943 0.362-0.943-0.362 0-0.78 1.64-2.54 2.38-2.54 0.802 0 1.78 1.2 1.78 2.18 0 1.4-1.52 4.11-3.28 5.84-1.68 1.65-2.88 2.23-1.46 0.699zm30-4.03c0-0.611-0.279-2.98-0.62-5.28-0.471-3.16-0.542-4.45-0.294-5.35 0.464-1.68 1.59-2.7 2.98-2.7 1.32 0 1.49-0.52 0.314-0.968-0.879-0.334-1.87-0.0014-2.17 0.724-0.0894 0.222-0.174 0.0686-0.188-0.341-0.0282-0.832 1.57-2.62 2.34-2.62 0.566 0 2.63 1.73 3.09 2.58 0.198 0.369 0.196 0.869-0.0043 1.4-0.278 0.732-0.488 0.821-1.93 0.821-0.89 0-2.12 0.209-2.73 0.464-0.99 0.414-1.11 0.595-1.11 1.68 3.2e-5 0.669 0.216 2.34 0.48 3.72 0.548 2.86 0.634 6.48 0.16 6.77-0.19 0.117-0.32-0.254-0.32-0.912zm51.4-5.13c-0.69-0.523-0.71-0.952-0.0691-1.48 0.399-0.331 0.712-0.43 1.31 0.0293 1.29 0.998 0.684 0.644 1.4-0.344 0.567-0.776 0.6-0.77 1.25-0.179 0.75 0.678 0.834 1.16 0.297 1.7-0.277 0.277-0.59 0.253-1.27-0.0979-0.831-0.429-0.316-0.896-1.24 0.176-0.549 0.635-0.888 0.798-1.68 0.196zm-11.6-1.6c0.0943-0.246 1.17-0.894 2.39-1.44 2.49-1.11 2.54-1.13 2.54-0.652 0 0.283-4.38 2.54-4.93 2.54-0.094 0-0.0938-0.201 6.4e-4 -0.447zm-36.4-1.13c0-0.155 0.963-0.732 2.14-1.28 2.56-1.2 5.22-3.16 5.22-3.84-0.0142-2.25-4.14-6.93-5.74-6.51-0.813 0.213-2.58-0.765-2.58-1.43-0.00192-0.303-0.0928-1.09-0.202-1.75-0.255-1.54 0.0671-1.54 2.38 0.0429 3.59 2.45 5.49 4.8 6.26 7.72l0.459 1.76 0.386-0.96c0.279-0.692 0.316-1.99 0.135-4.64-0.328-4.8-0.314-5.71 0.0897-6.11 0.234-0.234 0.447 0.471 0.703 2.33 1.22 8.84 1.61 10.3 2.98 11.3 1.44 1.01 3.85 0.253 5.05-1.58 0.125-0.19 0.0988-0.493 0.219-0.535 0.654-0.227 0.556 0.457-0.0716 1.67l-0.488 0.944 1.05-5.12e-4c1.47-7.04e-4 3.14-0.924 4.04-2.24 0.151-0.22 0.0599-0.638 0.209-0.652 0.863-0.0795 0.442 0.047-0.0327 1.57-0.143 0.458 0.0422 0.679 0.78 0.936 1.13 0.393 1.3 0.25 2.27-1.87 0.111-0.243 0.131-0.824 0.252-0.95 0.46-0.477 0.381-0.228 0.334 0.486-0.0929 1.42 0.269 1.76 1.85 1.76 1.26 0 1.42-0.0814 1.42-0.72-6.4e-4 -1.18-1.92-11.5-2.25-12.1-0.299-0.558 0.17-2.22 0.624-2.21 0.104 0.00144 0.487 0.552 0.851 1.22 0.505 0.931 0.588 1.39 0.348 1.92-0.226 0.506-0.102 1.85 0.44 4.78 1.1 5.97 0.935 8.37-0.626 8.87-0.491 0.156-2.11-0.353-3.23-1.02-0.0931-0.055-0.425 0.333-0.738 0.863-0.649 1.1-1.7 1.26-2.92 0.462-0.682-0.447-0.864-0.449-1.69-0.0238-0.611 0.316-2.14 0.512-4.53 0.581l-3.61 0.104-0.771-0.96c-0.424-0.528-0.944-1.79-1.15-2.8-0.374-1.8-0.895-2.49-0.895-1.19 0 0.935-1.07 2.89-2.13 3.88-1.22 1.15-6.83 2.96-6.83 2.21zm43.3-1.49c-0.634-0.322-1.29-1.05-1.7-1.91-0.661-1.37-0.68-1.38-1.28-0.774-1.11 1.11-4.21 1.31-4.4 0.284-0.158-0.836 1.92-3.61 3.22-4.3 0.934-0.494 1.17-0.789 1.05-1.29-0.195-0.796 0.109-2.07 0.495-2.07 0.155 0 0.285 0.324 0.288 0.72 0.0078 1.01 0.874 5.02 1.32 6.1 0.787 1.91 3.26 2.33 5.76 0.97 1.53-0.835 1.6-0.843 2.69-0.32 1.39 0.663 2.18 0.679 2.7 0.0517 0.325-0.391 0.242-1.56-0.431-6.12-0.614-4.15-0.744-5.8-0.496-6.26 0.185-0.346 0.383-0.58 0.441-0.521 0.0574 0.0591 0.487 2.7 0.955 5.87 0.57 3.86 1.03 6.02 1.41 6.54 0.919 1.28 1.26 1.16 1.09-0.389-0.18-1.6 0.697-3.69 1.9-4.53 1.03-0.725 3.19-0.642 4.21 0.162 0.991 0.779 1.15 1.44 0.224 0.948-1-0.537-2.65-0.372-4.02 0.403-1.54 0.872-1.72 1.5-0.786 2.81 1.24 1.74 2.51 1.75 5.21 0.0603 0.677-0.423 1.28-0.716 1.35-0.652 0.0649 0.0649-0.152 0.562-0.482 1.1-0.88 1.45-4.12 2.98-6.3 2.98-1.43 0-1.87-0.152-2.78-0.95l-1.08-0.95-0.428 0.799c-0.615 1.15-1.73 1.32-3.21 0.491l-1.24-0.695-1.25 0.826c-1.62 1.07-3.13 1.28-4.45 0.615zm-2.71-4.85c0.127-1.32-0.564-1.39-2.27-0.228-1.65 1.12-1.52 1.48 0.486 1.37 1.64-0.0943 1.68-0.123 1.78-1.14zm-6.96 3.59c-0.119-1.74-0.805-6.39-1.34-9.06-0.606-3.05-0.621-4.85-0.0388-4.85 0.37 0 2 9.25 1.97 11.2-0.0194 1.47-0.524 3.76-0.596 2.71zm-15-7.43c-0.167-0.319-0.176-0.87-0.0216-1.28 0.322-0.853 0.681-0.958 0.547-0.16-0.0676 0.402 0.154 0.588 0.786 0.661 0.794 0.0914 0.88 0.0034 0.88-0.899 0-0.585 0.133-0.918 0.32-0.802 0.176 0.109 0.32 0.488 0.32 0.842 0 0.442 0.176 0.611 0.56 0.536 0.391-0.0754 0.563-0.417 0.571-1.13 0.0144-1.33 0.381-1.67 0.648-0.609 0.343 1.37-0.0796 2.41-1.06 2.61-0.481 0.101-1.13 0.32-1.43 0.485-0.866 0.469-1.79 0.355-2.12-0.259zm28.9-0.576c0.807-0.666 0.883-0.844 0.48-1.12-0.489-0.329-1.29-0.269-2.36 0.179-0.529 0.221-0.555 0.172-0.231-0.435 0.495-0.924 1.74-1.18 3.27-0.679 1.58 0.523 1.52 1.15-0.204 2.13-1.68 0.952-2.16 0.911-0.957-0.082zm-55-0.0747c0.378-0.302 1.33-0.997 2.06-1.37 0.714-0.367 1.17-0.726 1.21-0.907 0.0281-0.155-0.587-0.351-0.889-0.562-0.883-0.619-0.839-1.56 0.118-2.52 1.15-1.15 1.65-0.743 1.78 1.15 0.052 0.745-0.0891 1.55-0.0891 1.55 0.032 0.209 0.33 0.15 0.395 0.19 0.168 0.104 0.559 0.683 0.455 0.953-0.123 0.319-0.636 0.109-0.838-0.0937-0.203-0.203-0.99 0.126-2.25 0.938-1.94 1.26-3.23 1.71-1.95 0.68zm3.95-3.67c-0.00256-0.22-0.0498-1-0.216-1.27-0.235-0.371-0.517-0.197-0.815 0.101-0.298 0.298-0.237 0.675 0.0648 1.07 0.445 0.584 0.821 0.818 0.821 0.818 0.102-0.0759 0.149-0.724 0.146-0.724zm18.8 0.208c0.171-0.445 3.19-2.01 7.67-3.97 1.22-0.536 1.31-0.539 1.18-0.039-0.12 0.458-8.06 4.54-8.81 4.53-0.126-0.0017-0.142-0.234-0.0334-0.515zm41.3-0.0479c0.133-0.494 5.85-4.04 6.1-3.79 0.368 0.368-0.629 1.23-3.11 2.68-1.57 0.92-2.93 1.67-3 1.67-0.0778 0-0.0736-0.252 9e-3 -0.56zm-51.4-3.18c0.0641-0.333 1.3-1.06 3.27-1.92 3.41-1.48 3.83-1.6 3.63-0.982-0.148 0.453-0.613 0.699-4.35 2.3-2.18 0.932-2.64 1.04-2.56 0.603zm44.2 0.0313c0.0715-0.371 1.44-1.36 3.6-2.61 1.92-1.11 3.54-1.96 3.6-1.89 0.355 0.355-0.441 1.15-2.06 2.06-1.01 0.565-2.6 1.48-3.54 2.03-1.48 0.87-1.7 0.926-1.6 0.409zm-19.2-0.771c-0.0253-0.806 0.791-1.63 1.39-1.4 0.114 0.0437 0.656 0.161 0.656 0.161 0.183-0.0945 0.378-0.546 0.862-1.13 1.16-1.41 2.28-1.48 2.44-0.149 0.072 0.621-0.173 1.06-0.948 1.72-0.914 0.769-1.23 0.857-2.56 0.7-0.568-0.0673-0.951-0.269-1.23-0.22-0.221 0.0395-0.179 0.529-0.437 0.423-0.237-0.0978-0.161 0.201-0.171-0.0975zm4.59-1.64c0.191-0.175 0.174-0.409-0.0456-0.628-0.425-0.425-1.52 0.0762-1.81 0.825-0.0784 0.204-0.261 0.347-0.261 0.347 0.105 0.0374 0.605 0.0202 0.944-0.0597 0.479-0.113 1.01-0.331 1.18-0.484z" stroke-width=".32"/>
</svg>
