<?xml version="1.0" encoding="UTF-8"?>
<!-- Created with Inkscape (http://www.inkscape.org/) -->
<svg width="146" height="143" version="1.1" viewBox="0 0 146 143" xmlns="http://www.w3.org/2000/svg">
 <g>
  <path d="m74.9 142c0-0.176 0.44-1.38 0.978-2.67l0.978-2.35 4.06-1.83c7.87-3.56 18-6.98 29.8-10 6.52-1.69 20.9-4.88 21.1-4.68 0.0864 0.0864-0.259 0.989-0.767 2.01-0.87 1.74-1.02 1.87-2.52 2.24-0.88 0.217-4.91 1.19-8.96 2.17-16.3 3.94-30.1 8.53-40.7 13.6-2.16 1.03-3.92 1.72-3.92 1.55zm-13.5-2.73c-0.117-0.117-0.213-0.554-0.213-0.97 0-0.836-1.76-5.61-2.47-6.71-0.355-0.548-0.668-0.662-1.47-0.534-0.833 0.133-1.19-0.0139-1.94-0.808-0.834-0.875-0.888-1.06-0.549-1.87 0.207-0.492 0.63-1.23 0.939-1.63 0.499-0.653 0.672-0.696 1.51-0.379 0.52 0.197 1.29 0.673 1.71 1.06 1.05 0.964 2.56 4.22 2.8 6.07 0.112 0.842 0.263 1.47 0.336 1.4 0.073-0.0731 0.475-1.65 0.894-3.5 1.01-4.46 2.32-6.95 3.67-6.95 1.64 0 2.77 2.12 2.05 3.84l-0.453 1.08-0.932-1.02c-0.513-0.561-1.09-1.02-1.29-1.02-0.605 0-1.62 2.77-2.41 6.57-0.414 2-0.981 4.07-1.26 4.61-0.545 1.05-0.593 1.09-0.918 0.769zm-30.3-5.93c-1.5-1.03-2.76-2.08-2.82-2.33-0.137-0.621 2.06-5.29 2.48-5.29 0.469 0 2.75 1.44 4.41 2.78l1.35 1.1 1.03-2.1c0.569-1.15 1.2-2.1 1.39-2.1 0.198 0 1.57 0.841 3.05 1.87 2.27 1.58 2.67 1.99 2.58 2.64-0.141 1.02-2.23 4.77-2.66 4.77-0.185 0-1.46-0.792-2.83-1.76s-2.58-1.76-2.68-1.76-0.537 0.684-0.966 1.52c-1.44 2.8-1.29 2.78-4.35 0.66zm75.2-15.9c0-0.515 0.211-1.64 0.468-2.49 0.258-0.856 0.438-1.58 0.4-1.61-0.0375-0.0298-0.572-0.306-1.19-0.615-2.79-1.4-5.44-4.59-5.44-6.55 0-0.996-0.349-0.776-2.01 1.27-1.94 2.38-5.26 4.89-7.75 5.83-3.34 1.27-11.4 0.805-15.7-0.906l-1.96-0.772-2.19 1.28c-2.92 1.71-4.84 2.31-7.32 2.29-4.31-0.0331-7.5-2.56-9.06-7.18l-0.612-1.81-0.377 1.68c-0.54 2.4-2.27 5.34-3.86 6.56-1.09 0.836-1.65 1.04-2.85 1.03-1.71-8e-3 -3.73-0.838-4.76-1.96-0.869-0.946-1.69-3.19-1.69-4.61 0-1.16-0.393-1.6-1.06-1.2-0.236 0.142-1.53 1.51-2.88 3.03-2.9 3.28-5.54 5.14-8.6 6.07-4.49 1.36-9.42 0.191-11.4-2.71-2.79-4.05-3.12-6.89-4.05-34.4-0.282-8.36-0.564-15.3-0.625-15.3-0.14-0.14-4.22 1.43-8.15 3.13-1.65 0.715-3.03 1.26-3.08 1.22-0.0439-0.0439 0.343-1.17 0.859-2.51l0.939-2.43 2.47-1.16c1.36-0.636 3.41-1.51 4.55-1.94l2.08-0.782-0.0965-1.55c-0.143-2.29-1.23-8.19-2.1-11.4-0.834-3.09-0.791-3.74 0.467-7.1 0.588-1.57 0.739-1.75 1.14-1.35 1.24 1.24 3.02 8.66 3.72 15.5 0.239 2.33 0.5 4.3 0.58 4.38 0.0801 0.0801 2.37-0.573 5.1-1.45 6.39-2.06 19.2-5.75 29.1-8.4 16-4.26 43.8-10.9 44.1-10.6 0.182 0.182-0.797 2.76-1.32 3.47-0.266 0.364-2.19 0.952-5.83 1.79-20.1 4.61-45.4 11.5-63.8 17.4l-7.12 2.28-9.92e-4 1.78c-5.34e-4 0.981 0.145 6.25 0.324 11.7 0.903 27.5 0.947 28 2.72 31.1 1.09 1.86 2.75 2.67 5.47 2.68 5.35 0.0192 8.41-1.43 13.8-6.56 4.6-4.37 5.1-4.53 4.93-1.53-0.212 3.77 1.22 5.85 4.19 6.1 3.31 0.274 5.35-1.44 5.36-4.48 0.0013-1.75-1.62-9.69-2.75-13.5-0.424-1.42-0.77-3.31-0.77-4.21 0-1.93 0.807-5.27 1.43-5.89 0.371-0.374 0.533-0.253 1.07 0.8 1.16 2.28 2.57 7.29 3.9 13.8 0.723 3.57 1.61 7.23 1.97 8.15 1.68 4.28 4.31 5.77 8.79 4.99 2.91-0.507 3.08-0.697 2.51-2.84-1.37-5.19 0.407-11.1 4.78-15.9 2.87-3.14 4.69-3.75 6.53-2.2 1.61 1.35 2.41 3.7 2.57 7.52 0.173 4.18-0.316 7-1.68 9.72-1.24 2.47-1.43 2.31 3.03 2.62 6.26 0.437 9.2-0.765 14.6-5.94 2.03-1.96 3.87-3.51 4.09-3.43 0.22 0.0731 0.506 0.985 0.637 2.03 0.159 1.27 0.532 2.32 1.13 3.17 0.925 1.33 4.71 4.11 5.32 3.91 0.192-0.0639 1.76-2.41 3.48-5.21 5.65-9.18 9.52-13.6 13.7-15.8 5.37-2.72 11-1.59 15.7 3.17 2.48 2.52 3.81 4.93 3.81 6.92 0 1.57-1.54 6.27-2.7 8.26-2.59 4.42-12.5 9.76-20.6 11.2-4.85 0.832-7.6 0.696-13.3-0.657-0.552-0.131-0.777 0.159-1.44 1.85-0.871 2.22-1.59 2.82-1.59 1.32zm17-9.19c3.96-0.608 6.98-1.47 10.6-3.03 3.42-1.48 7.62-3.94 8.79-5.17 0.783-0.817 0.8-0.906 0.338-1.8-0.881-1.7-4.65-4.91-7.23-6.13-2.26-1.08-2.63-1.16-5.46-1.16-2.85 0-3.17 0.0684-5.12 1.11-3.01 1.6-7.88 6.58-11 11.2-1.35 2.02-2.46 3.85-2.46 4.06 2e-3 0.327 0.692 0.531 4 1.18 1.44 0.284 4.66 0.169 7.52-0.271zm-47.7-4.74c1.92-1.21 3.18-2.25 3.7-3.03 0.445-0.68 0.442-0.927-0.0345-2.57-0.602-2.07-1.49-3.93-2.24-4.68-0.583-0.583-1.21-0.361-2.87 1.02-1.25 1.04-3.89 4.34-4.16 5.2-0.292 0.92 0.928 2.66 2.7 3.84 0.778 0.521 1.5 0.943 1.6 0.937 0.102-6e-3 0.692-0.33 1.31-0.72zm-44.3-12c-0.26-1.38-1.93-5.71-2.62-6.77-0.376-0.583-0.574-0.663-0.922-0.374-0.6 0.498-1.46 0.176-2.54-0.95l-0.898-0.937 0.855-1.46c1.02-1.73 1.87-1.89 3.38-0.617 1.4 1.18 2.59 3.65 3.38 7 0.19 0.811 0.341 0.438 0.97-2.4 1.2-5.42 2.89-7.97 4.64-7.03 0.938 0.502 1.66 2.13 1.42 3.21-0.29 1.32-0.795 1.49-1.51 0.509-1.49-2.05-2.62-0.482-3.74 5.23-0.648 3.29-1.49 5.76-1.96 5.76-0.13 0-0.335-0.528-0.456-1.17zm70.5-4.26c0-0.797-1.75-5.62-2.4-6.61-0.377-0.576-0.684-0.702-1.37-0.565-1.05 0.21-2.63-0.87-2.63-1.8 0-0.867 1.26-2.88 1.81-2.88 2.05 0 4.15 3.05 5.08 7.35 0.217 1.01 0.323 0.764 1.16-2.69 0.509-2.09 1.22-4.28 1.57-4.86 1.09-1.76 2.78-1.82 3.66-0.116 0.566 1.09 0.577 1.29 0.146 2.42l-0.331 0.87-0.887-0.849c-0.488-0.467-1.06-0.849-1.26-0.849-0.741 0-1.38 1.58-2.32 5.73-0.524 2.32-1.1 4.51-1.28 4.85-0.429 0.802-0.949 0.796-0.949-0.0108zm-97.6-2.9c2.06-2.45 3.06-4.25 2.79-4.98-0.269-0.701-1.14-0.915-2.16-0.53-1.05 0.395-1.13 0.167-0.558-1.48 0.419-1.2 1.92-2.1 3.05-1.82 1.85 0.464 1.77 3.48-0.17 6.48-1.09 1.69-3.99 4.57-4.6 4.57-0.133 0.00128 0.609-1.01 1.65-2.25zm110-7.47c0-0.0673 0.972-0.747 2.16-1.51 1.24-0.799 4.06-3.3 6.64-5.9 5.61-5.66 6.38-6.08 10.4-5.78 3.29 0.249 3.79 0.0721 4.94-1.74 0.951-1.51 1.49-1.64 1.22-0.306-0.188 0.942-0.167 0.96 1.12 0.96 1.3 0 1.31-0.0126 1.27-1.14-0.0252-0.671 0.17-1.35 0.477-1.66 0.479-0.479 0.546-0.448 0.869 0.4 0.457 1.2-0.126 3.73-1.13 4.89-0.707 0.822-0.776 0.836-2.23 0.446-1.45-0.388-1.56-0.367-3.13 0.598-1.59 0.977-1.69 0.995-4.3 0.777-2.49-0.207-2.8-0.163-4.41 0.625-1.07 0.521-3.16 2.19-5.42 4.32-3.62 3.4-6.23 5.13-7.75 5.13-0.405 0-0.737-0.0551-0.737-0.122zm-42.3-2.78c-1.54-1.05-2.8-2.09-2.8-2.31 0-0.541 2.1-4.9 2.47-5.13 0.31-0.192 5.08 2.86 5.77 3.7 0.331 0.398 0.173 0.939-0.902 3.09-0.717 1.43-1.4 2.6-1.52 2.59-0.121-0.01-1.48-0.878-3.02-1.93zm27.7-0.328c-0.506-0.561-0.604-1.14-0.579-3.44 0.0248-2.28 0.211-3.25 1.06-5.53 0.564-1.52 1.25-3.03 1.52-3.36 0.475-0.58 0.484-0.579 0.281 0.0409-1.74 5.32-2.17 8.44-1.33 9.59 0.613 0.838 1.9 0.429 2.73-0.864 0.788-1.23 0.848-0.907 0.218 1.19-0.829 2.75-2.58 3.83-3.89 2.38zm-55.5-2.21c-1.49-1.04-2.76-2.01-2.81-2.16-0.112-0.336 2.06-5.09 2.43-5.32 0.287-0.177 5.09 2.93 5.74 3.72 0.322 0.388 0.307 0.705-0.0785 1.63-0.576 1.38-2.18 4.07-2.4 4.04-0.0893-0.011-1.38-0.868-2.88-1.9zm15.4-7.05c3.17-3.95 3.78-4.92 3.68-5.89-0.0782-0.801-0.256-1-0.96-1.08-0.475-0.0548-1.16 0.0607-1.53 0.257-0.616 0.33-0.651 0.29-0.464-0.54 0.311-1.38 1.22-2.46 2.35-2.79 0.864-0.248 1.14-0.183 1.73 0.406 1.91 1.91-0.491 7.08-4.63 9.99l-1.07 0.751zm25.1-1.53c0.394-0.349 2.59-1.68 4.89-2.96 2.29-1.28 4.12-2.48 4.06-2.66-0.194-0.583-1.55-0.766-5.92-0.799l-4.26-0.0319 1.04-1.95c1.54-2.89 1.83-3.01 7.14-2.99 3.42 0.0157 4.78 0.146 5.69 0.544 0.66 0.288 1.2 0.682 1.2 0.875 0 0.941-1.88 3.79-3.98 6.03-1.62 1.73-2.8 2.34-6.61 3.44-1.66 0.476-3.23 0.929-3.49 1.01-0.271 0.0811-0.169-0.132 0.236-0.491zm29.1-5.71c-0.117-0.117-0.218-1.31-0.223-2.64-6e-3 -1.33-0.3-4.01-0.654-5.95-1.42-7.74-1.23-9.27 1.27-10.5l1.47-0.753-0.924-0.235c-0.753-0.192-1.04-0.0935-1.54 0.53l-0.621 0.766 0.161-1.41c0.0886-0.775 0.456-1.81 0.816-2.3 0.649-0.878 0.65-0.902 0.0551-2.59-1.43-4.05-1.84-4.64-3.12-4.47-0.734 0.0948-2.02-0.945-2.02-1.63 2e-3 -0.692 1.25-2.48 1.73-2.48 0.676 0 2.37 1.52 2.98 2.68 0.29 0.551 0.762 1.85 1.05 2.88l0.522 1.88 0.401-1.88c0.957-4.48 2.02-6.52 3.4-6.52 1.34 0 2.26 2.22 1.45 3.51-0.244 0.386-0.438 0.314-1.12-0.418-0.451-0.487-0.979-0.788-1.17-0.669-0.551 0.341-1.17 2.07-1.85 5.14-0.343 1.56-0.723 3.09-0.845 3.4-0.142 0.36-0.0715 0.56 0.196 0.56 0.699 0 2.87 1.67 3.31 2.54 0.337 0.671 0.336 1-4e-3 1.81-0.335 0.798-0.719 1.08-1.95 1.41-1.56 0.422-3.94 1.49-3.94 1.76 0 0.0818 0.358 1.39 0.796 2.9 0.984 3.4 1.5 8.52 1.11 10.9-0.309 1.9-0.402 2.13-0.735 1.79zm17.3-1.92c-0.117-0.117-0.213-0.554-0.213-0.97 0-0.959-1.84-5.83-2.49-6.57-0.312-0.358-0.74-0.49-1.21-0.373-0.865 0.217-2.27-0.621-2.56-1.52-0.233-0.735 1.22-3.15 1.89-3.15 0.86 0 2.62 1.5 3.4 2.89 0.437 0.785 1.03 2.36 1.33 3.51 0.43 1.67 0.57 1.92 0.716 1.28 0.0999-0.44 0.501-2.15 0.891-3.79 1.15-4.86 3.08-6.75 4.73-4.64 0.749 0.953 0.879 2.74 0.237 3.27-0.326 0.271-0.59 0.166-1.12-0.441-0.38-0.437-0.916-0.795-1.19-0.795-0.735 0-1.59 2.24-2.37 6.21-0.377 1.92-0.898 3.9-1.16 4.4-0.509 0.984-0.559 1.02-0.882 0.7zm-111-0.859c0-0.0856 0.66-0.923 1.47-1.86 0.806-0.938 1.83-2.33 2.28-3.09 0.683-1.16 0.758-1.51 0.461-2.16-0.386-0.846-1.56-1.06-2.22-0.401-1.05 1.05-0.82-1.02 0.267-2.41 0.811-1.03 2.48-1.17 3.29-0.267 1.21 1.34 0.0991 4.88-2.39 7.58-1.29 1.4-3.16 2.94-3.16 2.6zm29.3-10.6c1.76-2.16 2.23-3.1 1.95-3.84-0.161-0.42-0.46-0.5-1.34-0.358-1.05 0.17-1.12 0.131-0.928-0.519 0.239-0.831 1.6-2.14 2.23-2.14 0.758 0 1.45 0.964 1.45 2.03 0 1.29-1.01 3.22-2.51 4.8-1.9 1.99-2.46 2.01-0.843 0.0308zm54.1-3.54c1.71-2.1 2.21-3.08 1.95-3.77-0.23-0.599-1.51-0.66-2.11-0.1-0.35 0.33-0.385 0.231-0.199-0.56 0.31-1.32 1.07-2.08 2.08-2.08 2.58 0 2.09 3.32-0.977 6.56-2.17 2.29-2.62 2.26-0.744-0.0508zm25.2 0.621c-0.728-1.11-0.706-4.34 0.0474-6.93 0.613-2.11 2.05-5.49 2.24-5.29 0.0718 0.0718-0.226 1.35-0.663 2.85-1.02 3.5-1.22 5.38-0.683 6.4 0.622 1.18 1.61 1.18 2.6-0.0079 0.49-0.582 0.842-0.807 0.842-0.537 0 0.789-0.949 3.2-1.5 3.81-0.798 0.882-2.22 0.739-2.89-0.291z" stroke-width=".32"/>
  <path d="m28.5 40.8c-0.0916-0.251-0.245-1.35-0.341-2.44-0.0957-1.09-0.364-3.23-0.597-4.75-0.281-1.84-0.336-3.17-0.163-3.96 0.346-1.58 1.74-2.86 3.11-2.86 1.23 0 1.33-0.371 0.24-0.882-0.685-0.32-0.909-0.284-1.63 0.265-1.05 0.8-1.13 0.237-0.161-1.24 1.02-1.56 1.97-1.53 3.66 0.106 1.22 1.18 1.35 1.44 1.18 2.26-0.194 0.904-0.252 0.933-2.29 1.11-2.56 0.22-3.52 0.783-3.52 2.07 0 0.513 0.275 2.57 0.61 4.56 0.454 2.7 0.541 3.96 0.34 4.92-0.158 0.754-0.34 1.1-0.437 0.835zm50.3-5.74c-0.6-0.473-0.653-0.651-0.36-1.21 0.398-0.764 0.836-0.815 1.64-0.187 1.12 0.873 0.494 0.56 1.19-0.338l0.612-0.788 0.806 0.651c0.761 0.614 0.78 0.691 0.348 1.37-0.445 0.697-0.548 0.803-1.32 0.21-1.08-0.827-0.656-0.547-1.33 0.177-0.678 0.725-0.678 0.831-1.58 0.117zm-11.4-1.56c0.145-0.568 4.44-2.64 4.77-2.3 0.291 0.299-0.305 0.703-2.65 1.8-1.93 0.904-2.25 0.978-2.12 0.504zm-35.6-1.12c-0.0989-0.102 0.928-0.755 2.28-1.45 2.87-1.48 4.93-3.06 4.93-3.78-0.0115-2.02-4.1-7-5.39-6.58-0.847 0.276-2.32-0.454-2.64-1.3-0.305-0.824-0.371-3.13-0.0891-3.13 0.529 0 4.35 2.92 5.57 4.26 1.53 1.68 2.85 4.25 2.85 5.56 0.0015 0.461 0.126 0.837 0.276 0.837 0.59 0 0.807-2.67 0.523-6.43-0.292-3.88-0.1-6.26 0.403-4.99 0.133 0.335 0.527 2.76 0.875 5.38 0.738 5.56 0.981 6.59 1.81 7.67 0.496 0.647 0.86 0.796 1.94 0.796 1.67 0 2.83-0.606 3.63-1.89 0.494-0.792 0.33-0.662 0.728-0.541 0.214 0.298-0.305 1.1-0.538 1.52-0.649 1.16-0.545 1.31 0.773 1.1 1.75-0.288 2.89-0.983 3.59-2.19 0.259-0.451 0.209-0.807 0.378-0.82 0.631-0.0469 0.437 0.153 0.0525 1.1-0.432 1.06-0.428 1.08 0.41 1.43 1.09 0.465 1.39 0.25 2.25-1.64 0.063-1.23 0.982-1.83 0.711-0.412 0.0024 0.952 0.133 1.2 0.764 1.45 1.12 0.439 2.2 0.361 2.4-0.173 0.197-0.527-1.53-11.1-2.03-12.4-0.323-0.856 0.0432-2.36 0.571-2.34 0.502 0.0172 1.25 2.31 1.09 3.35-0.0887 0.582 0.186 3.11 0.61 5.62 0.775 4.58 0.771 5.8-0.0239 7.09-0.547 0.887-2.12 0.918-3.18 0.063l-0.771-0.622-0.679 1.08c-0.781 1.24-0.574 1.89-2.88 0.505-0.746-0.449-0.751-0.542-1.63-0.0268-1.16 0.681-6.84 1.03-7.84 0.48-1.02-0.562-1.61-1.65-2.14-3.96l-0.491-2.14-0.219 1.2c-0.306 1.68-1.17 3.29-2.25 4.23-1.11 0.959-6.17 2.59-6.61 2.13zm42.5-1.56c-0.643-0.33-1.26-0.996-1.63-1.75-0.326-0.67-0.62-1.27-0.652-1.33-0.0322-0.061-0.417 0.179-0.856 0.533-0.943 0.761-4.28 0.956-4.28 0.25 0-0.939 1.98-3.73 3.12-4.39 0.653-0.381 1.14-0.859 1.09-1.06-0.145-0.563 0.239-2.37 0.502-2.37 0.128 0 0.394 1.09 0.593 2.42 0.489 3.28 1.14 5.12 2.02 5.71 1.14 0.769 3.06 0.624 4.69-0.355l1.41-0.847 1.33 0.68c1.08 0.553 1.46 0.617 2.04 0.346 0.912-0.426 0.91-0.824-0.0326-7.2-0.568-3.84-0.668-5.2-0.421-5.67 0.179-0.343 0.37-0.578 0.425-0.521 0.0547 0.0562 0.461 2.57 0.903 5.58 0.875 5.97 1.23 7.23 2.22 7.77 0.598 0.328 0.629 0.301 0.41-0.356-0.362-1.09-0.177-2.59 0.481-3.92 1.03-2.07 3.29-2.72 5.23-1.49 1.49 0.946 1.29 1.59-0.272 0.863-1.42-0.665-4.66 0.87-4.66 2.21 0 0.34 0.47 1.1 1.04 1.69 0.9 0.924 1.18 1.05 2 0.878 0.527-0.107 1.61-0.608 2.41-1.11 0.796-0.506 1.5-0.868 1.56-0.805 0.369 0.378-1.48 2.3-2.95 3.07-2.96 1.55-6.34 1.33-6.89-0.455-0.187-0.606-0.252-0.579-1.08 0.453-1.03 1.28-1.27 1.32-3.02 0.444l-1.31-0.653-0.848 0.619c-0.691 0.504-2.74 1.29-3.37 1.29-0.0816 6.09e-4 -0.616-0.238-1.19-0.531zm-2.72-4.59c0.21-1.52-0.127-1.68-1.71-0.796-2.17 1.21-2.2 1.71-0.0896 1.59 1.52-0.0817 1.71-0.165 1.8-0.798zm-7.17 0.945c-0.102-1.48-0.455-4.05-0.784-5.72-0.626-3.18-0.787-5.93-0.346-5.93 0.585 0 2.25 10 2.04 12.3-0.245 2.61-0.709 2.31-0.911-0.602zm-14.1-4.54c-0.441-0.191-0.501-2.12-0.0742-2.39 0.163-0.104 0.604-0.324 0.297 0.421-0.127 0.308 0.173 1.1 0.321 1.19 0.512 0.325 1.41-0.37 1.26-1.32-0.0583-0.386-0.297-0.785 0.194-0.899 0.193-0.0448 0.297 0.149 0.297 0.591 0 0.793 0.573 1.18 1.3 0.708 0.252-0.164 0.303-0.742 0.111-1.12-0.395-0.773-0.085-1.37 0.281-0.774 0.377 0.61 0.441 1.77 0.0083 2.38-0.208 0.292-1.76 0.452-1.76 0.452-0.314-0.152-0.664 0.621-1.28 0.77-0.231 0.0564-0.607 0.21-0.964-0.0048zm27.2-0.537c0-0.0673 0.428-0.4 0.95-0.74l0.95-0.617-0.823-0.385c-0.622-0.291-1.03-0.303-1.69-0.048-0.987 0.382-1.13 0.114-0.327-0.629 0.64-0.595 1.85-0.647 3.22-0.138 1.32 0.489 1.24 0.977-0.302 1.91-1.17 0.704-1.98 0.97-1.98 0.652zm-53.3-0.581c0.303-0.199 1.16-0.832 1.91-1.41 0.856-0.659 1.53-0.894 1.51-1.02 0 0-0.565-0.307-0.795-0.464-1.18-0.805-0.455-3.11 0.98-3.11 0.537 0 0.747 0.213 0.895 0.907 0.107 0.499 0.112 1.17 0.0115 1.5-0.0613 0.198-0.12 0.507-0.126 0.586-0.0053 0.0768 0.181 0.167 0.252 0.2 1.67 0.775 1.72 1.37 1.03 1.41-0.291 0.0178-1.63-0.756-1.71-0.765-0.0826-0.0098-1.06 0.835-1.94 1.45-0.873 0.613-1.81 1.11-2.08 1.1-0.423-0.0155-0.415-0.0669 0.0616-0.381zm3.87-5.05c-0.168-0.172-0.748-0.0238-0.883 0.0462-0.365 0.189-0.563 0.773 0.11 1.3 0.392 0.306 0.797 0.435 0.797 0.435s0.0766-0.252 0.111-0.491c0.0382-0.265 0.0315-1.12-0.136-1.29zm18.6 1.86c0.0125-0.617 0.784-1.12 4.56-2.95 2.25-1.1 4.14-1.99 4.19-1.99 0.0521 0 0.0303 0.253-0.0484 0.562-0.132 0.518-1.31 1.16-7.15 3.88-0.857 0.4-1.56 0.626-1.55 0.502zm40.4-0.279c0.101-0.538 5.78-4.26 6.06-3.98 0.332 0.34-0.293 1.05-1.59 1.82-0.773 0.455-2.12 1.25-2.99 1.77-1.34 0.801-1.57 0.86-1.48 0.39zm-50.2-3.43c0.419-0.647 6.46-3.53 6.76-3.23 0.513 0.527-1.1 1.41-6.89 3.79-0.167 0.0685-0.105-0.184 0.139-0.56zm43.2 0.028c0.0816-0.32 1.56-1.39 3.45-2.51 4.04-2.38 3.75-2.26 3.58-1.57-0.116 0.455-6.46 4.64-7.04 4.64-0.0737 0-0.0698-0.252 0.0084-0.56zm-18.9-0.658c5.93e-4 -0.782 0.459-1.76 1.34-1.4 0.901 0.361 0.58 0.398 1.53-1.04 1.04-1.57 2.24-1.56 2.38-0.278 0.198 1.74-2.25 3.27-3.96 2.47-0.581-0.272-0.764-0.237-1.01 0.19-0.235 0.414-0.297 0.428-0.296 0.0654zm4.27-1.63c0.382-0.287 0.443-0.581 0.202-0.734-0.471-0.299-1.43 0.156-1.64 0.699-0.214 0.572 0.69 0.594 1.44 0.0349z" stroke-width=".301"/>
 </g>
</svg>
