<?xml version="1.0" encoding="UTF-8"?>
<!-- Created with Inkscape (http://www.inkscape.org/) -->
<svg width="147" height="128" version="1.1" viewBox="0 0 147 128" xmlns="http://www.w3.org/2000/svg">
 <path d="m64.8 127c-1.26-1.39-0.248-5.78 1.93-8.36 1.05-1.25 1.02-1.09-0.315 1.7-1.18 2.46-1.4 3.81-0.703 4.38 0.303 0.251 0.653 0.223 1.28-0.102 0.855-0.444 0.863-0.438 0.863 0.63 0 0.783-0.23 1.26-0.843 1.74-1.06 0.83-1.46 0.832-2.21 0.0107zm33.6-9.45c-0.885-0.885-0.662-3.88 0.457-6.12 0.528-1.06 1.25-2.18 1.6-2.5 0.506-0.458 0.404-0.0647-0.48 1.85-0.618 1.34-1.12 2.86-1.12 3.38 0 1.16 0.768 1.53 1.78 0.871 0.889-0.583 1.13-0.163 0.731 1.26-0.461 1.64-1.95 2.27-2.97 1.26zm-50.9-2.76c-0.116-0.756-0.673-2.31-1.24-3.45-0.872-1.76-1.14-2.06-1.77-1.98-0.935 0.131-2.3-0.743-2.3-1.47 6.4e-4 -0.304 0.292-1.03 0.647-1.61 0.522-0.856 0.782-1.02 1.36-0.843 1.68 0.51 3.04 2.51 3.75 5.54l0.405 1.72 0.851-3.39c0.929-3.7 1.73-5.11 2.99-5.27 1.4-0.169 2.5 2.35 1.47 3.38-0.284 0.284-0.561 0.17-1.16-0.478l-0.789-0.852-0.571 0.705c-0.314 0.388-0.814 1.82-1.11 3.18-0.782 3.59-1.54 5.94-1.95 6.07-0.211 0.0663-0.449-0.46-0.572-1.26zm23.6-2.11c-1.44-1-2.63-2.01-2.64-2.23-0.0164-0.508 2.11-4.76 2.5-5 0.158-0.0974 1.51 0.668 3 1.7l2.71 1.88 2.03-4.12 1.19 0.674c1.94 1.09 4.25 2.87 4.47 3.43 0.21 0.546-2.01 5.21-2.48 5.21-0.145 0-1.45-0.82-2.91-1.82-1.45-1-2.69-1.69-2.75-1.52-0.325 0.905-1.9 3.47-2.17 3.54-0.176 0.0465-1.5-0.736-2.95-1.74zm-47.7-3.74c-0.206-2.29-0.668-5.58-1.03-7.32-0.358-1.74-0.65-3.75-0.65-4.48 0.0016-1.75 0.944-3.24 2.37-3.76 0.878-0.318 1.05-0.503 0.783-0.829-0.536-0.645-1.12-0.504-1.89 0.46l-0.707 0.88 0.18-1.41c0.0989-0.775 0.489-1.83 0.867-2.34 0.67-0.906 0.674-0.973 0.16-2.59-0.29-0.913-0.841-2.31-1.22-3.1-0.612-1.26-0.822-1.44-1.73-1.44-0.646 0-1.3-0.272-1.76-0.727l-0.727-0.727 0.639-1.19c0.861-1.61 1.79-1.71 3.16-0.336 1.06 1.06 2.44 4.15 2.44 5.45 0 1.21 0.341 0.387 1-2.42 0.648-2.75 1.53-4.48 2.61-5.14 0.479-0.29 0.743-0.168 1.53 0.712 0.702 0.779 0.9 1.25 0.746 1.76-0.362 1.2-0.796 1.4-1.33 0.618-1.13-1.67-2.07-0.469-2.98 3.79-0.353 1.66-0.774 3.32-0.936 3.7-0.25 0.583-0.158 0.747 0.599 1.06 0.492 0.204 1.43 0.923 2.09 1.6 1.15 1.18 1.19 1.27 0.823 2.37-0.348 1.05-0.55 1.2-2.57 1.8-1.2 0.358-2.49 0.901-2.85 1.21l-0.663 0.555 0.649 1.92c1.36 4.02 1.91 10.3 1.14 12.8-0.375 1.23-0.403 1.13-0.765-2.88zm79.9-2.84c0-0.0673 0.967-0.751 2.15-1.52 1.19-0.775 4.08-3.35 6.49-5.78 5.41-5.47 6.17-5.87 10.4-5.58 2.88 0.203 2.92 0.196 3.74-0.677 0.453-0.485 0.989-1.21 1.19-1.6 0.546-1.06 1.11-0.907 0.876 0.24-0.188 0.938-0.163 0.96 1.08 0.96 1.23 0 1.27-0.038 1.27-1.06 0-0.582 0.197-1.33 0.438-1.66 0.422-0.577 0.452-0.572 0.831 0.135 0.508 0.948 0.195 3.07-0.659 4.47-0.641 1.05-0.681 1.07-2.43 0.889-1.56-0.161-1.98-0.0705-3.44 0.752-1.57 0.886-1.79 0.925-4.25 0.736-3.47-0.267-4.52 0.266-9.22 4.69-3.61 3.39-6.22 5.12-7.74 5.12-0.405 0-0.737-0.0551-0.737-0.122zm-9.9-4.24c-0.205-0.813-0.788-2.4-1.3-3.52-0.87-1.92-0.977-2.03-1.83-1.86-0.701 0.14-1.08-0.0068-1.69-0.655l-0.785-0.836 0.617-1.15c0.766-1.42 1.13-1.57 2.34-0.942 1.23 0.635 2.28 2.35 2.95 4.81 0.583 2.13 0.544 2.18 1.43-1.74 0.981-4.32 2.73-5.94 4.29-3.96 0.764 0.971 0.777 1.06 0.332 2.23l-0.331 0.87-0.887-0.849c-0.488-0.467-0.983-0.849-1.1-0.849-0.461 0-1.26 2.1-1.86 4.9-0.77 3.58-1.22 5.02-1.56 5.02-0.141 0-0.425-0.665-0.63-1.48zm-25.9-6.51c-1.76-0.797-4.27-3.16-5.57-5.24-0.569-0.907-1.06-1.69-1.1-1.75-0.0372-0.0559-1.81 0.756-3.93 1.8-6.49 3.2-10.9 3.74-14.4 1.78-3.84-2.09-5.12-6.33-5.63-18.8-0.121-2.95-0.291-5.36-0.378-5.36s-1.41 0.495-2.94 1.1c-7.52 2.98-15.7 3.75-20.7 1.96-4.59-1.62-8.09-4.78-10.4-9.4-1.94-3.87-2.27-5.63-2.05-10.9 0.184-4.45 0.995-8.68 2.04-10.7 0.877-1.65 0.853-0.385-0.0668 3.48-1.49 6.26-0.927 10.2 2.08 14.5 3.67 5.23 9.08 7.46 17 6.99 1.85-0.111 4.61-0.482 6.15-0.824 2.97-0.663 8.19-2.38 8.66-2.85 0.368-0.368-0.246-11.8-0.903-16.8-0.436-3.32-1.09-6.69-2.47-12.7-0.289-1.25-0.227-1.78 0.454-3.82 0.434-1.3 0.96-2.42 1.17-2.49 0.536-0.179 1.58 2.42 2.47 6.17 1.31 5.47 2.7 18.4 2.7 25.2 0.0019 2.05 0.112 2.8 0.408 2.8 0.654 0 7.03-3.9 9.64-5.9 2.98-2.28 5.63-5.05 5.63-5.88 0-0.344-1-2.69-2.23-5.22-1.23-2.53-2.67-5.96-3.21-7.63-0.541-1.67-1.35-3.57-1.79-4.21l-0.81-1.17 0.528-2.82c0.29-1.55 0.634-3.01 0.764-3.24 0.165-0.295 1.29 0.641 3.74 3.12 1.93 1.95 3.55 3.78 3.61 4.06 0.0969 0.444-0.14 0.49-1.68 0.331-0.986-0.102-1.79-0.14-1.79-0.0841 0 0.0555 0.931 2.03 2.07 4.38 1.14 2.35 2.29 5.13 2.56 6.18 0.911 3.54 0.426 8.36-1.15 11.5-1.49 2.92-7.51 8.14-13.4 11.6l-2.68 1.58 0.222 5.93c0.244 6.5 0.734 9.35 1.98 11.5 2.06 3.51 7.05 3.52 14.1 0.032 2.66-1.31 3.26-1.73 3.09-2.16-1.01-2.52-0.203-7.67 1.86-11.9 2.33-4.77 7.05-8.74 8.72-7.35 0.285 0.237 1.17 1.73 1.96 3.33 2.4 4.82 4.25 6.26 8.05 6.26 3.72 0 6.45-1.37 7.81-3.94 0.679-1.27 0.72-1.77 0.828-9.98 0.103-7.86-0.315-20.8-0.793-24.5l-0.191-1.49-3.72 1.28c-4.85 1.67-12.4 4.72-17 6.88-2.01 0.944-3.7 1.68-3.75 1.62-0.0507-0.0507 0.367-1.24 0.929-2.64l1.02-2.55 3.04-1.52c3.42-1.71 11-4.75 15.8-6.32 1.76-0.575 3.23-1.07 3.27-1.09 0.125-0.0932-1.2-9.95-1.86-13.8-0.629-3.69-0.634-3.96-0.128-6.77 0.29-1.61 0.712-3.19 0.938-3.5 0.367-0.502 0.467-0.393 0.929 1.01 1.23 3.76 3 12.9 3.57 18.5 0.107 1.06 0.259 2.23 0.337 2.61l0.142 0.69 2.8-0.782c10.1-2.81 29.1-7.22 29.4-6.8 0.0871 0.141-0.279 1.12-0.814 2.18-0.658 1.3-1.21 1.98-1.69 2.09-0.395 0.0886-2.37 0.532-4.4 0.986-8.13 1.82-24.4 6.17-24.9 6.65-0.0732 0.0732 0.014 4 0.194 8.73 0.18 4.73 0.479 12.7 0.665 17.6 0.514 13.7 1.2 16.6 4.26 18.3 2.15 1.14 7.58 0.416 10.8-1.43 0.792-0.458 2.95-2.3 4.8-4.09 3.3-3.2 4.53-4.15 4.9-3.77 0.104 0.104 0.113 1.29 0.0195 2.63-0.144 2.07-0.0727 2.59 0.462 3.44 1 1.58 3.24 2.49 6.12 2.46 4.13-0.0329 5.93-1.25 9.17-6.25 2.84-4.38 3.72-4.64 3.01-0.906-0.491 2.6-0.222 3.28 1.81 4.53 1.61 0.993 4.3 1.04 5.24 0.095l0.65-0.65-0.652-0.829c-0.816-1.04-0.819-0.969 0.168-4.09 0.499-1.58 0.969-2.55 1.2-2.48 0.927 0.287 1.66 2.61 1.64 5.2-0.0432 6.05-3.03 10.1-7.49 10.2-1.53 0.0286-2-0.108-3.01-0.872-0.654-0.498-1.57-1.49-2.05-2.2l-0.856-1.29-0.489 0.759c-1.07 1.67-3.78 4.23-5.29 5.02-1.35 0.702-2.03 0.834-4.32 0.842-2.31 0.0085-2.93-0.109-4.15-0.787-1.72-0.961-2.77-2.42-3.04-4.24-0.394-2.61-0.544-3.11-0.935-3.11-0.217 0-1.45 1.22-2.75 2.71-4.04 4.65-7.57 6.64-11.8 6.68-2.94 0.0255-4.49-0.474-6.17-1.99-1.6-1.45-2.64-3.63-3.11-6.57-0.667-4.14-0.617-4.05-1.24-2.2-1.31 3.87-4.12 6.27-7.94 6.79-3.49 0.474-6.99-0.663-8.85-2.87-0.455-0.541-1.49-2.26-2.29-3.82-0.805-1.56-1.69-2.92-1.97-3.03-1.22-0.468-5.14 2.92-6.53 5.65-0.741 1.45-0.768 2.54-0.0977 3.95 0.79 1.66 1.12 1.82 2.73 1.25 0.773-0.275 2.56-0.583 3.97-0.684 3.23-0.232 4.82 0.448 6.22 2.66 2.62 4.13 1.95 11.3-1.26 13.5-1.36 0.914-3.79 0.953-5.69 0.0912zm4.66-7.29c-0.139-1.21-1.79-2-4.16-2-1-2.72e-4 -1.9 0.121-1.99 0.271-0.219 0.355 1.35 1.84 2.37 2.25 0.44 0.175 1.49 0.327 2.34 0.338 1.5 0.0197 1.54-0.0052 1.44-0.86zm31.3-23.2c-0.112-1.82-0.566-5.24-1.01-7.59-0.444-2.36-0.807-4.73-0.806-5.28 2e-3 -1.41 1.1-3.03 2.42-3.59 0.619-0.259 1.04-0.61 0.934-0.781-0.324-0.523-1.19-0.347-2.02 0.41l-0.783 0.72 0.22-1.28c0.121-0.704 0.51-1.68 0.864-2.18 0.787-1.09 0.642-2-0.831-5.21-0.981-2.14-1.09-2.26-1.97-2.14-0.684 0.1-1.12-0.0723-1.68-0.666l-0.753-0.801 0.733-1.3c0.403-0.717 0.886-1.3 1.07-1.3 1.52 0.0053 3.8 3.15 4.23 5.84 0.106 0.66 0.283 1.2 0.394 1.2 0.111 0 0.467-1.19 0.79-2.64 1.05-4.72 2.66-6.45 4.26-4.59 0.826 0.96 0.915 1.52 0.398 2.48-0.345 0.644-0.353 0.644-1.13-0.0903-1.43-1.34-2.11-0.253-3.33 5.32-0.364 1.66-0.503 2.92-0.328 2.98 0.166 0.0554 0.893 0.529 1.61 1.05 1.71 1.24 2.14 2.16 1.56 3.37-0.346 0.723-0.92 1.09-2.72 1.72-3.39 1.19-3.38 1.18-2.5 3.93 1.02 3.21 1.55 7.21 1.35 10.2-0.273 3.98-0.742 4.1-0.977 0.258zm8.43-9.35c0.258-0.243 3.13-1.99 6.39-3.89 7.06-4.11 9.86-5.96 12-7.95 1.51-1.4 1.56-1.5 0.966-1.86-0.348-0.208-1.21-0.919-1.92-1.58-1.16-1.08-1.28-1.35-1.26-2.68 0.0749-3.57 5.33-7.72 7.29-5.76 0.803 0.803 0.934 2.52 0.395 5.17-0.447 2.19-0.451 2.52-0.0311 2.75 0.262 0.146 0.833 0.583 1.27 0.969l0.794 0.703-0.614 1.28c-1.1 2.28-1.1 2.29-2.42 1.2l-1.19-0.978-2.1 2.22c-3.8 4.03-8.33 6.79-15.4 9.39-4.19 1.54-4.97 1.73-4.2 1.01zm21.9-18.1c0.231-1.05-0.257-2.55-0.914-2.81-0.625-0.24-2.43 0.739-2.43 1.32 0 0.442 2.37 2.39 2.9 2.39 0.136 0 0.336-0.407 0.445-0.904zm-66.7 16.7c0.429-0.308 2.73-1.65 5.11-2.98 2.38-1.33 4.33-2.63 4.33-2.88 0-0.657-1.38-0.859-6.16-0.902-2.89-0.0258-4.24-0.152-4.24-0.396 0-0.197 0.504-1.19 1.12-2.2 1.52-2.5 2.17-2.73 7.36-2.67 4.32 0.048 6.38 0.473 6.99 1.44 0.429 0.688-1.19 3.41-3.62 6.11-1.98 2.2-3.42 2.95-8.04 4.22-3.56 0.974-3.88 1-2.85 0.264zm-45.8-14.5-2.79-1.93 0.749-1.67c1.43-3.18 1.58-3.43 2.06-3.43 0.611 0 4.19 2.31 5.13 3.32l0.707 0.753-1.23 2.34c-0.678 1.29-1.37 2.39-1.53 2.44-0.166 0.0519-1.56-0.773-3.09-1.83zm-8.39-10.9c-1.05-1.49-0.177-5.35 1.75-7.78 1.15-1.44 1.19-1.25 0.191 0.746-2.04 4.08-1.71 6.37 0.685 4.69 0.686-0.481 0.711-0.465 0.711 0.437 0 2.11-2.29 3.42-3.34 1.91zm15.8-6.48c0-0.492-0.229-2.24-0.509-3.88-0.705-4.13-0.0816-5.89 2.09-5.89 0.364 0 0.661-0.129 0.661-0.286 0-0.485-0.973-0.69-1.62-0.342-0.79 0.423-0.795-0.0418-0.0103-1.01 0.516-0.637 0.738-0.702 1.49-0.435 1.2 0.427 2.19 1.81 1.92 2.68-0.18 0.566-0.468 0.678-1.73 0.678-0.835 0-1.79 0.197-2.12 0.438-0.563 0.412-0.574 0.604-0.184 3.23 0.429 2.88 0.513 5.23 0.2 5.54-0.0988 0.0988-0.18-0.223-0.18-0.714zm73.8-3.96c-0.0925-0.69-0.652-2.24-1.24-3.45-0.918-1.88-1.18-2.18-1.82-2.09-0.935 0.131-2.3-0.743-2.3-1.47 6.4e-4 -0.304 0.292-1.03 0.647-1.61 0.522-0.856 0.782-1.02 1.36-0.843 1.69 0.512 3.16 2.7 3.79 5.63l0.357 1.66 0.854-3.41c0.932-3.72 1.73-5.13 2.99-5.28 1.39-0.167 2.39 2.09 1.53 3.45-0.244 0.385-0.448 0.304-1.16-0.462l-0.862-0.93-0.578 0.714c-0.318 0.393-0.812 1.82-1.1 3.18-0.714 3.4-1.53 5.93-1.96 6.06-0.203 0.0638-0.429-0.428-0.524-1.14zm-36 0.15c-0.201-0.242-0.276-0.671-0.167-0.954 0.156-0.405 0.332-0.443 0.832-0.175 0.486 0.26 0.766 0.221 1.2-0.168 0.515-0.466 0.606-0.458 1.1 0.0886 0.482 0.533 0.488 0.64 0.0519 1-0.395 0.328-0.586 0.324-0.999-0.019-0.431-0.358-0.559-0.339-0.816 0.121-0.369 0.66-0.714 0.69-1.2 0.105zm-8.53-1.13c0.136-0.22 0.892-0.677 1.68-1.01 1.64-0.703 1.7-0.714 1.7-0.328 0 0.245-0.649 0.564-3.17 1.56-0.303 0.12-0.371 0.0467-0.205-0.222zm-26.7-0.776c0-0.0975 0.996-0.701 2.21-1.34 2.75-1.45 3.23-1.95 2.99-3.17-0.239-1.24-3.31-4.43-4.01-4.17-0.858 0.329-1.8-0.429-2.02-1.63-0.259-1.38-0.0906-1.59 0.877-1.08 2.49 1.31 4.82 3.96 5.43 6.19 0.602 2.19 0.912 0.516 0.705-3.81-0.237-4.94 0.253-4.56 0.986 0.774 0.606 4.41 1.09 5.68 2.28 5.98 1.08 0.272 2.63-0.417 3.22-1.44 0.0802-0.138-0.0438-0.492 0.0526-0.509 0.569-0.102 0.372-0.0509 0.291 0.313-0.0782 0.352-0.255 0.915-0.392 1.25-0.428 1.04 2.05 0.441 3.14-0.765 0.251-0.278 0.136-0.741 0.323-0.771 0.497-0.0819 0.629 0.0334 0.223 0.792-0.277 0.517-0.209 0.671 0.4 0.901 0.924 0.349 1.17 0.198 1.71-1.05 0.0855-0.197-0.0246-0.519 0.0872-0.573 0.334-0.161 0.354-0.164 0.361 0.257 0.0174 0.953 1.92 1.55 2.41 0.76 0.204-0.33-0.927-7.19-1.44-8.76-0.199-0.602-0.184-1.13 0.0423-1.55 0.329-0.614 0.363-0.603 0.813 0.264 0.258 0.498 0.394 1.19 0.302 1.55-0.0923 0.353 0.114 2.23 0.459 4.17 0.662 3.72 0.557 5.12-0.431 5.74-0.417 0.261-0.793 0.205-1.56-0.23-1.05-0.598-1.05-0.598-1.84 0.727-0.249 0.415-0.414 0.412-1.35-0.0232-0.888-0.412-1.2-0.427-1.86-0.0867-0.486 0.251-1.77 0.383-3.33 0.343-2.32-0.0598-2.59-0.137-3.15-0.893-0.34-0.455-0.701-1.45-0.802-2.21l-0.185-1.38-0.611 1.64c-0.865 2.32-1.59 2.82-5.45 3.75-0.484 0.117-0.88 0.133-0.88 0.0352zm31.6-1.2c-0.308-0.179-0.782-0.755-1.05-1.28-0.465-0.9-0.532-0.926-1.19-0.464-0.746 0.523-2.65 0.666-2.92 0.22-0.296-0.478 0.961-2.43 1.99-3.09 0.702-0.451 1-0.895 1.01-1.5 0.0255-1.78 0.549-1.09 0.941 1.24 0.524 3.12 1.36 4.1 3.28 3.85 0.704-0.0945 1.56-0.425 1.9-0.735 0.584-0.528 0.691-0.53 1.73-0.035 2.22 1.06 2.39 0.495 1.56-4.96-0.288-1.88-0.41-3.68-0.271-4 0.167-0.384 0.496 0.91 0.976 3.84 0.651 3.97 1.09 5.35 1.69 5.34 0.11-5.44e-4 0.208-0.575 0.216-1.28 0.0293-2.42 1.92-3.87 3.94-3.02 1.41 0.594 1.26 0.959-0.355 0.831-1.02-0.0815-1.58 0.0626-2.24 0.579-0.838 0.659-0.854 0.725-0.391 1.62 0.692 1.34 1.76 1.5 3.5 0.518 1.54-0.859 1.89-0.655 0.781 0.453-1.75 1.75-5.06 2.4-6.3 1.25l-0.694-0.646-0.646 0.646c-0.783 0.783-1.23 0.808-2.21 0.126-0.696-0.488-0.82-0.478-1.95 0.16-1.31 0.738-2.4 0.849-3.28 0.335zm-2.07-2.71c0.422-0.162 0.417-1.74-0.00592-1.74-0.384 0-2.32 1.36-2.32 1.63 0 0.32 1.59 0.401 2.33 0.118zm-5.03 0.016c-0.131-1.06-0.441-2.93-0.689-4.16-0.509-2.53-0.595-4.61-0.172-4.14 0.621 0.678 1.69 8.22 1.33 9.42-0.188 0.642-0.281 0.421-0.473-1.12zm-10.7-3.52c-0.182-0.313-0.293-0.71-0.15-1.04 0.232-0.534 0.338-0.547 0.383 0.0142 0.147 1.86 1.43 0.87 1.23-0.208-0.162-0.883 0.263-1.04 0.454-0.237 0.33 1.38 1.25 0.839 0.972-0.48-0.164-0.782 0.2-0.832 0.35-0.288 0.226 0.818 0.304 1.47-0.383 1.91-0.224 0.146-0.845 0.0332-0.988 0.196-0.461 0.525-1.11 0.652-1.4 0.569-0.259-0.0748-0.285-0.12-0.471-0.44zm21.1-0.492c0.644-0.536 0.678-0.656 0.235-0.825-0.284-0.109-0.803-0.124-1.15-0.0324-0.83 0.217-0.819-0.293 0.0153-0.74 0.479-0.256 0.944-0.242 1.76 0.053 0.61 0.221 1.11 0.505 1.11 0.631 0 0.273-2.03 1.57-2.44 1.55-0.155-0.00586 0.0564-0.293 0.47-0.638zm-39.7-0.634c0.236-0.16 1.63-1.37 1.63-1.37-0.157-0.125-0.298-0.241-0.476-0.409-0.497-0.469-0.373-1.48 0.241-1.86 0.747-0.467 1.39-0.0418 1.3 1.66-0.0114 0.221-0.352 0.474-0.352 0.474 0.227 0.356 0.726 0.413 0.724 0.556-0.0056 0.366-0.347 0.429-0.567 0.225-0.0405-0.0375-0.444-0.381-0.444-0.381-0.345 0.0881-0.769 0.794-1.35 1.16-1.89 1.2-2.39 1.16-0.71-0.0569zm2.29-2.22c0.125-1.55-0.694-1-0.853-0.552-0.108 0.306 0.307 1.12 0.685 1.12 0 0 0.155-0.402 0.168-0.567zm13.8 0.271c0-0.391 6.06-3.29 6.33-3.03 0.248 0.248 0.201 0.279-2.44 1.6-3.12 1.56-3.89 1.84-3.89 1.43zm30.3-0.068c0.165-0.429 4.27-2.92 4.47-2.72 0.251 0.251-0.427 0.811-2.35 1.95-2.26 1.33-2.34 1.36-2.12 0.772zm-5.3-2.27c0-0.387 5.07-3.54 5.31-3.3 0.243 0.243-0.553 0.874-2.83 2.25-1.59 0.957-2.48 1.34-2.48 1.06zm-32.3-0.216c0.118-0.354 4.18-2.21 4.84-2.21 0.711 0-0.615 0.87-2.6 1.71-2.28 0.962-2.4 0.988-2.24 0.503zm18.2-0.609c0-0.403 0.754-0.949 1.11-0.76 0.808 0.426 0.634-0.216 0.928-0.665 0.699-1.07 1.8-1.1 1.8-0.0553 0 0.418-0.221 0.945-0.492 1.17-0.287 0.238-1.53 0.534-2.15 0.263-0.141-0.062-1.2 0.201-1.2 0.0484zm3.44-1.2c0.19-0.576-0.726-0.493-1.23 0.111-0.37 0.446-0.327 0.497 0.336 0.4 0.418-0.0609 0.819-0.291 0.891-0.511z" stroke-width=".32"/>
</svg>
