<?xml version="1.0" encoding="UTF-8"?>
<!-- Created with Inkscape (http://www.inkscape.org/) -->
<svg width="144" height="138" version="1.1" viewBox="0 0 144 138" xmlns="http://www.w3.org/2000/svg">
 <g>
  <path d="m65.6 138c0-0.0728 0.433-1.26 0.963-2.63l0.963-2.5 9.84-3.3c5.41-1.81 12.7-4.3 16.2-5.51 3.48-1.22 6.47-2.17 6.64-2.11s-0.105 0.966-0.604 2.02l-0.908 1.92-10.1 3.6c-5.55 1.98-13 4.74-16.5 6.12s-6.44 2.46-6.44 2.38zm42.9-7.84c0-0.805 0.316-1.37 1.35-2.42 0.741-0.755 1.15-1.37 0.91-1.37s-0.918-0.367-1.51-0.816c-1.25-0.955-1.36-1.89-0.456-3.82 0.661-1.41 2.85-3.77 4.35-4.69 1.18-0.724 2.5-0.76 3.06-0.0832 0.564 0.68 0.482 2.52-0.156 3.5-0.515 0.786-0.517 0.786-1.15 0.152-0.801-0.801-1.48-0.801-2.8 9.6e-4 -1.52 0.928-1.38 1.81 0.409 2.6 1.68 0.743 2.16 0.648 4.6-0.907 2.33-1.49 3.23-1.82 3.23-1.19 0 1.41-0.974 2.64-3.4 4.28-1.39 0.939-3.86 2.64-5.48 3.77l-2.96 2.06zm-22.1-9.85c-2.88-0.57-5.78-3.19-7.44-6.71-0.881-1.87-1.01-2.52-1.12-5.55-0.139-3.91 0.332-6.53 2.08-11.6 1.38-3.98 4.43-10.5 4.91-10.5 0.532 0 0.196 1.28-1.98 7.52-3.38 9.69-3.94 13.8-2.31 17.1 1.17 2.35 2.32 3.07 5.09 3.21 2.09 0.101 2.42 0.0195 4.8-1.18 3.33-1.67 4.86-3.08 13.1-12 8.8-9.54 13.2-13.5 18.4-16.3 1.28-0.701 2.32-1.35 2.32-1.43 0-0.0864-0.499-7.53-1.11-16.5-0.61-9.01-1.24-19-1.41-22.2-0.201-3.89-0.484-6.38-0.861-7.57-0.56-1.78-0.56-1.78 0.272-4.13 1.24-3.48 1.8-4.75 2.13-4.75 0.294 0 2.27 4.82 4.98 12.2 1.37 3.72 2.14 7.04 1.63 7.04-0.12 0-0.934-0.67-1.81-1.49s-1.67-1.41-1.76-1.32c-0.0915 0.0915 0.415 8.14 1.12 17.9 0.71 9.75 1.29 18 1.29 18.4 0 0.692 0.0611 0.702 2.98 0.51 2.39-0.157 3.32-0.0828 4.69 0.371 2.2 0.729 4.3 2.77 4.83 4.69 0.454 1.64 0.0606 5.13-0.805 7.15l-0.55 1.28-0.534-0.743c-2.45-3.41-4.39-4.53-7.85-4.53l-2.2-0.0032 0.231 2.47c0.4 4.27 0.238 12.5-0.307 15.6-0.827 4.71-2.63 10.3-3.58 11.1-0.523 0.434-0.533-0.14-0.108-5.8 0.221-2.94 0.169-6.32-0.198-12.8-0.274-4.84-0.55-8.85-0.611-8.91-0.207-0.211-3.81 1.95-6.23 3.74-3.39 2.5-5.16 4.25-13.8 13.5-4.19 4.51-8.33 8.72-9.2 9.36-3.11 2.28-6.43 3.3-9.05 2.79zm-40.6-2.94c-1.79-1.24-3.26-2.45-3.26-2.7 0-0.775 2.68-5.9 3.09-5.9 0.366 0 3.26 1.85 5.47 3.5 0.57 0.425 1.09 0.711 1.17 0.636 0.0711-0.0755 0.568-1.11 1.1-2.3 0.589-1.3 1.17-2.16 1.47-2.16 0.908 0 6.42 3.97 6.53 4.7 0.0542 0.375-0.402 1.67-1.01 2.87-1.89 3.72-1.49 3.64-5.23 1.06l-3.27-2.26-1.12 2.23c-0.618 1.23-1.25 2.31-1.39 2.4-0.149 0.0922-1.74-0.843-3.53-2.08zm-18.5-0.56c-0.204-0.857-0.706-2.26-1.12-3.12-0.616-1.29-0.912-1.58-1.71-1.67-0.528-0.0581-1.28-0.404-1.67-0.769l-0.713-0.663 0.692-1.23c0.398-0.709 0.934-1.23 1.26-1.23 1.04 0 2.76 2.1 3.33 4.07 0.829 2.84 0.858 2.9 1.01 2.17 1.34-6.63 2.76-8.76 4.56-6.82 0.696 0.747 0.831 1.72 0.344 2.49-0.251 0.397-0.432 0.346-1.14-0.32l-0.844-0.792-0.563 0.694c-0.31 0.382-0.866 2.12-1.24 3.86-1.12 5.28-1.58 5.96-2.2 3.33zm11.3-19.6c-5.07-1.19-7.66-5.49-8.55-14.2-0.411-4.03-0.97-15.2-0.97-19.4 0-1.72-0.11-3.2-0.245-3.29-0.554-0.342-17.4 6.36-25.4 10.2-2.31 1.08-3.12 1.34-3.12 0.989 0-0.26 0.468-1.63 1.04-3.05l1.04-2.57 3.04-1.45c5.61-2.68 11.7-5.11 22.1-8.86l1.12-0.403-0.086-5.1c-0.249-14.7-1.13-23.6-3.14-31.5l-1.13-4.41 0.986-3.08c0.543-1.69 1.13-3.17 1.3-3.27 0.453-0.28 1.74 2.71 2.69 6.25 1.67 6.23 2.51 14.2 3.1 29.6 0.209 5.46 0.406 9.96 0.439 10 0.0322 0.0462 2.78-0.767 6.11-1.81 6.62-2.07 14.8-4.4 22.5-6.4 5.1-1.33 14.7-3.55 15.3-3.55 0.554 0 0.414 0.66-0.593 2.79-0.67 1.42-1.15 2.04-1.68 2.15-8.91 1.97-22.5 5.73-33.7 9.31-3.7 1.18-6.97 2.22-7.28 2.31-0.679 0.19-0.704 1.56-0.237 13.4 0.356 9.01 0.797 11.7 2.33 14.3 1.34 2.23 2.57 2.92 5.49 3.11 3.36 0.215 6.53-0.419 9.48-1.9 2.05-1.03 3.31-2.03 6.78-5.38 2.34-2.26 4.47-4.14 4.73-4.18 1.22-0.175 1.28-0.046 1.06 2.24-0.247 2.65 0.32 4.5 1.82 5.94 2.53 2.42 10.5 0.717 14.6-3.1 1.66-1.57 1.96-2.06 4.41-7.36 0.785-1.7 1.63-3.21 1.87-3.36 0.245-0.152 0.911-1.01 1.48-1.91 1.29-2.04 4.3-4.95 6.07-5.84 1.56-0.796 4.16-0.905 5.45-0.23 4.67 2.43 6.45 14.2 3.08 20.3-1.12 2.06-1.89 2.37-4.91 1.94-3.85-0.546-7.57-2.07-11.7-4.79l-0.981-0.643-1.56 3.08c-2.12 4.19-5.91 8.23-9.27 9.89-3.07 1.52-6.6 1.85-8.88 0.841-2.4-1.06-3.77-3.49-4.16-7.43-0.157-1.56-1.06-1.06-3.78 2.08-4.04 4.66-7.36 6.92-11.4 7.79-1.96 0.417-4.81 0.423-6.55 0.0135zm59.9-19.7c0-2.02-2.13-4.97-4.04-5.6-1.56-0.516-3.85-0.123-4.8 0.824-0.418 0.418-0.76 0.912-0.76 1.1 0 0.561 3.45 2.59 6.05 3.55 3.1 1.15 3.55 1.17 3.55 0.126zm-82.5 15.1c-1-3.24-1.73-4.36-2.68-4.18-0.517 0.0988-0.992-0.112-1.52-0.675l-0.769-0.819 0.605-1.12c1.3-2.42 3.76-0.55 4.94 3.76l0.536 1.96 0.699-3.02c0.828-3.58 1.63-5.09 2.71-5.09 1.01 0 1.81 0.949 1.81 2.13 0 1.32-0.307 1.51-1.16 0.711-0.4-0.376-0.936-0.603-1.19-0.506-0.529 0.203-1.21 2.18-1.96 5.7-0.285 1.34-0.694 2.68-0.909 2.97-0.335 0.458-0.497 0.197-1.12-1.81zm-1.26-9.26c-1.07-1.29-0.528-5.9 1.03-8.78 0.464-0.856 0.753-1.27 0.643-0.917-1.03 3.28-1.46 5.83-1.15 6.65 0.515 1.34 1.27 1.46 2.22 0.365l0.805-0.934-0.219 1.12c-0.425 2.18-2.38 3.64-3.33 2.5zm28.1-10.3c0.0733-0.0691 1.79-1.12 3.81-2.35 6.35-3.83 11-7.02 12.6-8.69 0.866-0.885 1.69-1.54 1.84-1.45 0.146 0.0905 0.267-0.168 0.267-0.574 6.4e-4 -0.406 0.292-1.22 0.647-1.8 0.524-0.86 0.78-1.02 1.36-0.838 2.25 0.698 3.83 3.19 4.88 7.66 0.19 0.813 0.341 0.445 0.983-2.4 0.871-3.86 1.5-5.43 2.58-6.44 0.626-0.588 0.919-0.663 1.62-0.416 0.472 0.166 1.12 0.747 1.44 1.29 0.476 0.814 0.515 1.17 0.226 2-0.425 1.22-0.6 1.24-1.57 0.209-0.413-0.44-0.951-0.8-1.19-0.8-0.684 0-1.58 2.38-2.46 6.53-0.44 2.08-1.05 4.15-1.34 4.61l-0.543 0.829-0.591-2.16c-0.325-1.19-1.02-3.1-1.54-4.25-0.92-2.03-0.981-2.09-1.91-1.88-0.718 0.158-1.21 0.0331-1.95-0.488-0.54-0.385-1.03-0.648-1.08-0.585-0.0555 0.0632-0.351 0.606-0.656 1.21-1.25 2.46-5.31 5.96-9.13 7.88-2.96 1.49-9.05 3.62-8.29 2.91zm94.7-2.92c-0.2-0.794-0.713-2.23-1.14-3.2-0.697-1.58-0.878-1.76-1.75-1.76-0.892 0-2.26-0.921-2.26-1.52 3e-3 -0.567 1.31-2.32 1.73-2.32 0.585 0 2.33 1.46 2.82 2.35 0.206 0.377 0.611 1.54 0.901 2.59l0.527 1.9 0.73-2.95c0.797-3.23 1.74-4.96 2.79-5.11 0.9-0.13 2.11 1.39 1.84 2.31-0.347 1.15-0.741 1.33-1.27 0.577-1.13-1.62-1.8-0.751-2.73 3.54-1.16 5.41-1.56 6.06-2.18 3.59zm-1.2-9.91c-0.959-0.672-1.16-2.32-0.61-4.97 0.43-2.06 1.85-5.76 2.21-5.76 0.079 0-0.209 1.11-0.641 2.47-0.755 2.38-1.04 5.12-0.599 5.83 0.348 0.563 1.39 0.382 2.08-0.361 0.359-0.385 0.652-0.532 0.652-0.326 0 0.815-1.07 2.98-1.62 3.28-0.732 0.392-0.675 0.398-1.47-0.162zm-29.4-0.908c-2.18-2.18-0.633-8.25 3.22-12.7 0.806-0.921 1.54-1.6 1.63-1.51 0.0897 0.0897-0.278 0.853-0.816 1.7-1.44 2.25-3.26 6.2-3.26 7.06 0 1.96 1.48 2.57 3.23 1.33l0.929-0.662v1.17c0 1.74-0.888 3.35-2.12 3.87-1.46 0.609-1.95 0.556-2.8-0.3zm-92.6-8.47c-0.199-0.833-0.73-2.35-1.18-3.36-0.734-1.66-0.9-1.83-1.59-1.66-0.543 0.136-1.03-0.0309-1.65-0.569-0.875-0.753-0.879-0.774-0.348-1.8 0.295-0.571 0.755-1.12 1.02-1.22 1.37-0.525 3.29 1.69 4.08 4.7 0.498 1.91 0.533 1.87 1.31-1.4 0.615-2.59 1.53-4.52 2.29-4.81 0.726-0.279 1.99 0.597 2.23 1.54 0.106 0.421 0.0163 1.09-0.199 1.5l-0.391 0.731-0.588-0.726c-1.3-1.61-1.86-0.665-3.3 5.56-0.704 3.04-1.21 3.5-1.68 1.52zm27.2-6.55c0.0175-2.65-0.0769-3.15-0.916-4.82-0.514-1.02-1.79-2.8-2.84-3.94l-1.91-2.08 0.524-1.1c0.288-0.604 0.722-1.1 0.965-1.1 0.732 0 3.4 3.1 4.23 4.92 1.04 2.27 1.52 5.05 1.25 7.22-0.2 1.61-0.903 3.85-1.21 3.85-0.0679 0-0.115-1.33-0.104-2.96zm48.5 1.86c0.436-0.429 3.95-2.53 7.81-4.67 8.21-4.55 8.5-4.73 8.5-5.27 0-0.936-2.07-1.22-10-1.36-4.36-0.0776-7.92-0.225-7.92-0.328s0.815-1.61 1.81-3.36c2.39-4.18 3.15-4.7 7.55-5.13 3.85-0.381 11.6 0.108 14.2 0.893 3.02 0.911 3.14 2.13 0.625 5.91-3.48 5.22-6.56 8.48-9.33 9.85-1.83 0.908-12.6 4.24-13.7 4.24-0.179 0 0.0307-0.351 0.467-0.78zm-77.3-5.52c-1.11-1.11-0.0693-7.61 1.59-9.88 0.29-0.396 0.17 0.362-0.334 2.1-0.905 3.12-0.914 5.34-0.023 5.89 0.48 0.293 0.74 0.173 1.53-0.704l0.952-1.06-0.215 0.897c-0.278 1.16-1.08 2.75-1.53 3.05-0.596 0.394-1.4 0.273-1.97-0.295zm48.1-1.92c-0.646-2.48-2.47-6.37-2.95-6.28-0.176 0.031-0.552 0.147-0.835 0.257-0.661 0.257-2.52-1.28-2.52-2.08 0-1.11 1.29-2.87 2.1-2.87 1.67 0 4.17 3.36 4.77 6.4 0.484 2.46 0.592 2.38 1.37-1.11 1.23-5.53 2.76-7.86 4.52-6.91 1.16 0.62 1.74 2.12 1.32 3.4-0.432 1.31-0.758 1.38-1.46 0.3-0.569-0.869-1.45-1.04-1.99-0.389-0.375 0.452-1.31 3.83-2.13 7.66-0.289 1.36-0.771 2.77-1.07 3.14-0.532 0.657-0.558 0.623-1.11-1.51zm52.1-18.3c-0.112-0.66-0.665-2.14-1.23-3.28-0.898-1.82-1.12-2.07-1.84-1.99-0.535 0.0619-1.07-0.177-1.56-0.701l-0.747-0.795 0.704-1.14c0.387-0.626 0.959-1.14 1.27-1.14 1.33 0 3.33 2.9 3.73 5.42 0.116 0.726 0.27 1.26 0.343 1.19 0.0725-0.0725 0.412-1.31 0.755-2.74 0.665-2.79 1.24-4.14 2.04-4.81 1.28-1.07 3.25 0.996 2.42 2.54l-0.374 0.699-0.713-0.67c-0.392-0.369-0.872-0.67-1.07-0.67-0.47 0-1.25 2.17-1.85 5.12-0.832 4.12-1.52 5.2-1.9 2.96z" stroke-width=".32"/>
  <path d="m37.4 28.9c-0.0875-0.235-0.234-1.26-0.326-2.28-0.0916-1.02-0.348-3.02-0.571-4.45-0.269-1.73-0.321-2.97-0.156-3.71 0.331-1.48 1.66-2.68 2.98-2.68 1.18 0 1.28-0.347 0.23-0.827-0.655-0.3-0.869-0.266-1.56 0.248-1.01 0.75-1.08 0.222-0.154-1.16 0.976-1.46 1.88-1.43 3.5 0.0992 1.17 1.11 1.29 1.35 1.12 2.12-0.185 0.847-0.241 0.874-2.19 1.04-2.45 0.206-3.36 0.733-3.36 1.94 0 0.481 0.263 2.4 0.584 4.27 0.435 2.53 0.518 3.71 0.325 4.61-0.151 0.706-0.325 1.03-0.418 0.782zm48.1-5.38c-0.573-0.443-0.624-0.61-0.345-1.13 0.381-0.716 0.8-0.763 1.57-0.175 1.07 0.818 0.473 0.525 1.14-0.316l0.585-0.738 0.771 0.609c0.728 0.575 0.746 0.647 0.332 1.28-0.425 0.653-0.524 0.752-1.27 0.197-1.03-0.774-0.627-0.513-1.28 0.166-0.648 0.679-0.649 0.778-1.51 0.109zm-10.9-1.46c0.138-0.532 4.25-2.47 4.57-2.16 0.278 0.28-0.292 0.659-2.53 1.68-1.85 0.847-2.15 0.916-2.03 0.472zm-34.1-1.05c-0.0946-0.0951 0.887-0.707 2.18-1.36 2.74-1.38 4.72-2.87 4.71-3.54-0.011-1.89-3.92-6.56-5.16-6.16-0.81 0.258-2.22-0.426-2.52-1.22-0.292-0.771-0.355-2.93-0.0852-2.93 0.505 0 4.16 2.74 5.32 3.99 1.46 1.57 2.72 3.98 2.73 5.21 0.0017 0.431 0.12 0.784 0.264 0.784 0.564 0 0.772-2.5 0.501-6.02-0.279-3.63-0.0956-5.86 0.385-4.67 0.127 0.314 0.504 2.58 0.837 5.04 0.706 5.21 0.938 6.18 1.73 7.19 0.474 0.606 0.822 0.746 1.85 0.746 1.59 0 2.71-0.567 3.47-1.77 0.473-0.742 0.316-0.62 0.696-0.506 0.205 0.279-0.292 1.03-0.515 1.42-0.621 1.09-0.521 1.23 0.739 1.03 1.68-0.27 2.76-0.92 3.43-2.05 0.248-0.422 0.2-0.756 0.362-0.768 0.604-0.0439 0.418 0.144 0.0502 1.03-0.413 0.994-0.409 1.01 0.392 1.34 1.05 0.435 1.33 0.234 2.15-1.54 0.0603-1.15 0.939-1.71 0.68-0.386 0.0027 0.892 0.128 1.12 0.731 1.35 1.08 0.411 2.1 0.338 2.3-0.162 0.188-0.494-1.47-10.4-1.94-11.6-0.309-0.802 0.0413-2.21 0.546-2.19 0.48 0.0162 1.19 2.16 1.04 3.14-0.0849 0.545 0.178 2.91 0.583 5.26 0.741 4.29 0.737 5.43-0.0228 6.64-0.523 0.831-2.03 0.86-3.04 0.059l-0.737-0.583-0.649 1.01c-0.746 1.16-0.549 1.77-2.75 0.473-0.713-0.421-0.719-0.508-1.56-0.0252-1.11 0.638-6.54 0.963-7.5 0.45-0.978-0.526-1.54-1.54-2.05-3.71l-0.47-2.01-0.21 1.12c-0.293 1.57-1.12 3.09-2.15 3.96-1.06 0.898-5.9 2.42-6.32 1.99zm40.7-1.46c-0.615-0.309-1.21-0.933-1.56-1.64-0.312-0.627-0.593-1.19-0.624-1.24-0.0308-0.0571-0.399 0.167-0.819 0.499-0.902 0.713-4.09 0.895-4.09 0.234 0-0.879 1.89-3.49 2.98-4.11 0.624-0.357 1.09-0.805 1.04-0.996-0.138-0.527 0.228-2.22 0.481-2.22 0.122 0 0.377 1.02 0.567 2.27 0.467 3.07 1.09 4.8 1.93 5.35 1.09 0.721 2.93 0.585 4.49-0.332l1.35-0.793 1.27 0.637c1.03 0.518 1.4 0.578 1.95 0.324 0.872-0.399 0.87-0.772-0.0312-6.74-0.543-3.59-0.639-4.87-0.403-5.31 0.171-0.321 0.354-0.541 0.406-0.488 0.0523 0.0526 0.441 2.41 0.864 5.23 0.837 5.59 1.18 6.77 2.12 7.27 0.572 0.308 0.601 0.282 0.392-0.334-0.346-1.02-0.17-2.43 0.46-3.67 0.985-1.94 3.15-2.54 5-1.4 1.43 0.886 1.23 1.49-0.26 0.808-1.36-0.623-4.46 0.815-4.46 2.07 0 0.318 0.45 1.03 0.999 1.58 0.861 0.865 1.13 0.979 1.92 0.822 0.504-0.1 1.54-0.57 2.3-1.04 0.761-0.474 1.43-0.813 1.49-0.754 0.352 0.354-1.41 2.16-2.82 2.88-2.83 1.46-6.06 1.25-6.59-0.427-0.179-0.568-0.241-0.542-1.03 0.425-0.984 1.2-1.22 1.23-2.89 0.416l-1.25-0.612-0.811 0.58c-0.661 0.472-2.62 1.21-3.22 1.21-0.078 5.7e-4 -0.589-0.223-1.14-0.498zm-2.6-4.3c0.201-1.43-0.121-1.57-1.64-0.746-2.08 1.14-2.1 1.6-0.0856 1.49 1.46-0.0765 1.64-0.155 1.72-0.748zm-6.85 0.885c-0.0976-1.38-0.435-3.8-0.75-5.36-0.599-2.98-0.752-5.56-0.331-5.56 0.56 0 2.15 9.38 1.95 11.5-0.234 2.45-0.678 2.16-0.871-0.564zm-13.5-4.25c-0.421-0.179-0.479-1.99-0.0709-2.24 0.156-0.0969 0.578-0.304 0.284 0.394-0.122 0.289 0.165 1.03 0.307 1.11 0.489 0.304 1.35-0.347 1.21-1.24-0.0557-0.362-0.284-0.735 0.186-0.842 0.185-0.042 0.284 0.14 0.284 0.554 0 0.743 0.548 1.1 1.24 0.663 0.241-0.153 0.29-0.695 0.106-1.05-0.378-0.724-0.0813-1.28 0.268-0.725 0.36 0.572 0.422 1.66 8e-3 2.23-0.199 0.274-1.68 0.423-1.68 0.423-0.3-0.143-0.635 0.581-1.22 0.721-0.221 0.0529-0.58 0.196-0.922-0.0046zm26-0.503c0-0.063 0.409-0.375 0.909-0.693l0.909-0.578-0.787-0.36c-0.595-0.272-0.99-0.283-1.62-0.0449-0.944 0.358-1.08 0.107-0.312-0.589 0.612-0.557 1.77-0.606 3.08-0.13 1.26 0.458 1.19 0.915-0.289 1.78-1.12 0.659-1.89 0.908-1.89 0.61zm-51-0.544c0.29-0.187 1.11-0.78 1.82-1.32 0.818-0.618 1.46-0.837 1.44-0.955 0 0-0.54-0.288-0.76-0.435-1.13-0.754-0.435-2.91 0.937-2.91 0.513 0 0.714 0.199 0.856 0.849 0.102 0.467 0.107 1.1 0.011 1.4-0.0587 0.186-0.115 0.475-0.12 0.549-0.0053 0.0719 0.173 0.157 0.241 0.187 1.59 0.726 1.65 1.28 0.986 1.32-0.278 0.0167-1.56-0.708-1.63-0.717-0.079-0.00917-1.02 0.782-1.85 1.36-0.835 0.574-1.73 1.04-1.99 1.03-0.405-0.0145-0.397-0.0627 0.0589-0.357zm3.7-4.73c-0.16-0.161-0.715-0.0223-0.844 0.0433-0.349 0.177-0.539 0.724 0.106 1.22 0.375 0.286 0.762 0.407 0.762 0.407s0.0732-0.236 0.106-0.46c0.0365-0.248 0.0302-1.04-0.13-1.21zm17.8 1.74c0.012-0.578 0.75-1.05 4.36-2.76 2.15-1.03 3.96-1.87 4.01-1.87 0.0498 0 0.029 0.237-0.0463 0.526-0.126 0.486-1.25 1.08-6.83 3.63-0.819 0.374-1.49 0.586-1.49 0.47zm38.6-0.262c0.0966-0.504 5.52-3.99 5.79-3.73 0.317 0.319-0.28 0.987-1.52 1.7-0.739 0.426-2.03 1.17-2.86 1.66-1.29 0.751-1.5 0.806-1.41 0.365zm-48-3.21c0.401-0.606 6.18-3.31 6.46-3.02 0.491 0.494-1.05 1.32-6.59 3.55-0.16 0.0642-0.1-0.172 0.133-0.525zm41.3 0.0262c0.078-0.3 1.49-1.31 3.3-2.35 3.86-2.23 3.59-2.11 3.42-1.47-0.111 0.426-6.18 4.35-6.73 4.35-0.0705 0-0.0668-0.236 8e-3 -0.524zm-18-0.617c5.68e-4 -0.732 0.439-1.64 1.28-1.31 0.862 0.338 0.555 0.373 1.47-0.978 0.995-1.47 2.14-1.46 2.28-0.26 0.189 1.63-2.15 3.06-3.79 2.31-0.555-0.254-0.731-0.222-0.963 0.178-0.225 0.388-0.284 0.401-0.283 0.0613zm4.09-1.53c0.365-0.268 0.424-0.544 0.194-0.687-0.45-0.28-1.37 0.146-1.57 0.655-0.0381 0.0998-0.293 0.431-0.235 0.469 0.256 0.167 1.18-0.0946 1.61-0.437z" stroke-width=".284"/>
 </g>
</svg>
