<?xml version="1.0" encoding="UTF-8"?>
<!-- Created with Inkscape (http://www.inkscape.org/) -->
<svg width="143" height="140" version="1.1" viewBox="0 0 143 140" xmlns="http://www.w3.org/2000/svg">
 <path d="m68.3 140c-8.71-0.696-14.5-5.45-16.6-13.6-1.61-6.27-1.26-16.1 0.799-22.7 0.33-1.06 0.602-2.01 0.605-2.11 0.0022-0.104-0.608-0.373-1.36-0.597-2.33-0.697-6.3-2.86-7.82-4.26-1.75-1.61-3.08-3.49-3.81-5.39-0.299-0.772-0.642-1.52-0.762-1.66-0.12-0.138-1.36 1.64-2.75 3.96-2.81 4.67-4.68 6.65-7.07 7.46-3.05 1.04-6.89 0.352-9.07-1.62-2.72-2.46-3.67-6.17-4.17-16.3-0.189-3.85-0.443-8.25-0.565-9.77l-0.22-2.78-4.21 1.71c-2.31 0.943-5.73 2.44-7.6 3.32-1.87 0.88-3.39 1.46-3.39 1.3s0.395-1.32 0.877-2.56l0.877-2.25 2.96-1.41c1.63-0.775 4.68-2.09 6.8-2.93l3.84-1.52-0.16-3.69c-0.81-18.7-1.02-20.9-2.76-27.9l-1-4.07 0.702-2.18c0.953-2.96 1.19-3.3 1.78-2.52 0.696 0.912 1.7 4.16 2.4 7.76 0.958 4.94 1.55 11.5 1.97 22 0.343 8.43 0.445 9.51 0.89 9.34 1.91-0.736 10.8-3.33 16-4.68 6.95-1.8 21.5-5.11 21.7-4.93 0.194 0.194-1.25 3.33-1.7 3.71-0.234 0.194-2.92 0.923-5.96 1.62-9.78 2.23-24.7 6.44-29.1 8.17l-1.28 0.512 0.0138 4.05c0.0246 7.23 0.514 14.2 1.14 16.2 0.764 2.42 2.33 4.24 4.07 4.71 1.89 0.512 5 0.154 6.85-0.787 2.01-1.03 3.01-2.11 6.41-6.92 3.33-4.71 3.97-5.05 4.28-2.24 0.107 0.968 0.411 2.27 0.674 2.89 0.672 1.59 3.3 3.83 6.31 5.4 2.41 1.25 6.76 3.05 6.88 2.85 0.0322-0.0509 0.554-0.883 1.16-1.85 1.52-2.42 3.82-5.17 6.64-7.94l2.38-2.34-0.759-0.809c-1.18-1.26-4.82-3.87-6.39-4.58-1.91-0.866-2.5-0.821-4.91 0.37-1.14 0.563-2.17 0.933-2.28 0.823-0.26-0.26 1.38-5.94 2-6.92 0.617-0.977 3.94-2.47 7.77-3.5 2.56-0.684 3.76-0.815 7.52-0.822 4.7-9e-3 7.26 0.338 10.7 1.45 4.43 1.43 6.64 3.09 6.24 4.69-0.108 0.429-0.609 1.69-1.11 2.8l-0.917 2.02-4.35 2.17c-2.39 1.19-4.35 2.27-4.35 2.41 0 0.447 2.39 1.82 4.3 2.48 4.8 1.65 9.16 1.5 13.2-0.462 1.71-0.837 3.22-2.02 6.17-4.82 2.15-2.04 4.09-3.65 4.3-3.58 0.212 0.0731 0.347 0.551 0.301 1.06-0.41 4.54-0.046 5.49 2.62 6.82 2.05 1.03 5.45 1.09 7.55 0.141 2.23-1.01 3.31-2.11 5.6-5.7 1.16-1.83 2.33-3.4 2.59-3.5 0.701-0.269 0.891 0.59 0.487 2.19-0.577 2.29-0.455 3.02 0.703 4.18 1.73 1.73 4.3 2.11 6.23 0.904l0.732-0.457-0.652-0.828c-0.81-1.03-0.809-1.23 0.03-4.05 0.847-2.85 1.11-3.15 1.88-2.2 1.03 1.26 1.43 3.88 0.993 6.52-0.479 2.9-1.23 4.61-2.76 6.31-1.39 1.54-3.95 2.48-5.8 2.13-1.21-0.226-3.33-1.96-4.19-3.42-0.297-0.503-0.621-0.915-0.719-0.915-0.098 0-0.451 0.507-0.785 1.13-0.847 1.57-3.44 3.91-5.19 4.69-2.06 0.912-4.72 1.1-6.86 0.474-2.75-0.799-4.16-2.7-4.63-6.24-0.121-0.91-0.383-1.65-0.583-1.65-0.2 0-1.75 1.49-3.45 3.31-3.55 3.81-6.05 5.36-9.6 5.98-4.81 0.838-10.8-1.15-16.3-5.4l-2.05-1.59-1.93 1.33c-2.83 1.95-8.38 7.59-7.8 7.92 0.751 0.42 10.2 0.934 17.2 0.937 14.4 6e-3 19.3 1.12 22.3 5.04 1.98 2.59 2.53 4.53 2.52 8.88-0.0144 5.99-1.63 10.6-5.53 15.7-7.06 9.33-17 14.1-27.7 13.2zm9.92-7.64c8.58-2.06 17.9-8.76 20.8-15 0.677-1.43 0.799-2.08 0.69-3.68-0.242-3.58-2.17-6.24-5.79-8.01-3.09-1.5-5.26-1.74-18.9-2.08-7.26-0.181-12.5-0.463-14.8-0.804-2-0.289-3.83-0.453-4.06-0.365-0.495 0.19-2.17 5.26-2.69 8.15-0.475 2.62-0.473 7.87 0.0035 10.2 0.548 2.7 2.04 5.6 3.83 7.43 1.83 1.88 5.22 3.62 8.34 4.3 3.15 0.682 9.53 0.62 12.6-0.123zm-9.6-5.83c-0.352-0.213-0.815-0.614-1.03-0.891-0.894-1.15-0.229-4.41 1.41-6.89 0.625-0.947 0.727-1.3 0.406-1.41-0.903-0.301-1.91-1.64-1.91-2.55 0-2.33 4.56-6.89 5.46-5.47 0.439 0.694 0.349 1.67-0.23 2.5-0.461 0.659-0.561 0.687-0.816 0.231-0.403-0.72-0.985-0.649-1.8 0.222-1.2 1.28-0.776 2.27 1.15 2.65 0.858 0.172 1.19 3e-3 2.58-1.29 1.7-1.59 2.14-1.55 1.65 0.156-0.204 0.712-1.19 1.89-2.98 3.55-1.77 1.64-2.99 3.09-3.61 4.28l-0.93 1.8 0.755 0.62c0.947 0.777 4.5 0.851 7.1 0.148 0.961-0.26 2.11-0.569 2.55-0.687l0.8-0.215-0.782 0.854c-1.38 1.51-3.96 2.54-6.69 2.67-1.55 0.0734-2.68-0.0265-3.08-0.272zm6.02-49.3 1.65-0.902-1.21-0.507c-1.46-0.611-5.64-0.976-7.68-0.67l-1.48 0.221 4.93 4.03 1.07-0.637c0.586-0.35 1.81-1.04 2.72-1.54zm25.1 58.3c2.27-2.77 3.1-4.26 2.84-5.09-0.251-0.792-1.22-1-2.23-0.482-0.761 0.395-0.82 0.375-0.819-0.275 0.0019-1.08 1.17-2.74 2.09-2.97 1.16-0.291 2.33 0.325 2.59 1.36 0.517 2.06-1.55 6.14-4.18 8.24-2.26 1.81-2.31 1.67-0.3-0.788zm-56.3-4.52c2.25-2.72 3.04-4.3 2.59-5.14-0.348-0.65-1.87-0.762-2.46-0.18-0.579 0.579-0.501-0.83 0.111-2.01 0.908-1.76 3.39-2.02 4-0.421 0.491 1.29 0.372 2.08-0.639 4.21-0.933 1.97-3.34 4.73-4.81 5.52-0.492 0.263-0.0715-0.421 1.21-1.97zm69.8-0.452c0-0.452-0.45-1.9-1-3.22-0.894-2.15-1.08-2.38-1.72-2.22-0.855 0.215-2.4-0.865-2.4-1.68 9.6e-4 -0.295 0.335-0.953 0.742-1.46 0.7-0.875 0.79-0.901 1.65-0.48 1.27 0.622 2.08 1.83 2.88 4.31l0.689 2.13 0.55-2.52c0.735-3.36 1.63-5.18 2.69-5.44 1.02-0.256 2 0.792 2 2.15 0 1.22-0.537 1.47-1.4 0.657-0.394-0.37-0.812-0.674-0.928-0.674-0.45 0-1.17 1.92-1.68 4.5-0.61 3.05-1.23 4.78-1.73 4.78-0.185 0-0.336-0.37-0.336-0.822zm-81.4-14.9c-1.23-0.856-2.52-1.75-2.88-1.99-0.638-0.425-0.628-0.473 0.616-3.03 0.695-1.43 1.45-2.6 1.67-2.6s1.56 0.788 2.98 1.75l2.57 1.75 0.965-1.91c0.531-1.05 1.16-1.91 1.39-1.91 0.491 0 4.64 2.85 5.29 3.64 0.38 0.458 0.306 0.799-0.546 2.53-1.7 3.45-1.42 3.38-4.6 1.18l-2.79-1.92-0.87 1.78c-0.478 0.977-1.03 1.89-1.21 2.04-0.205 0.155-1.25-0.371-2.58-1.3zm95.5-0.441c0-0.571 0.381-1.22 1.13-1.93l1.13-1.06-0.96-0.496c-1.39-0.718-1.74-1.54-1.27-2.97 0.44-1.33 2.87-4.07 4.24-4.78 2.03-1.05 3.38 0.48 2.34 2.65l-0.52 1.09-0.644-0.644c-0.576-0.576-0.751-0.601-1.66-0.231-2.15 0.877-1.9 2.3 0.47 2.68 0.972 0.158 1.5-8e-3 3.12-0.971 2.54-1.51 2.91-1.51 2.45-0.0195-0.3 0.976-0.978 1.57-4.69 4.09-2.39 1.62-4.52 3.06-4.74 3.2-0.281 0.173-0.399-9e-3 -0.399-0.615zm-21.6-6.95c0.526-0.386 2.42-2.11 4.21-3.83 3.77-3.62 4.8-4.17 7.27-3.88 1.66 0.195 1.75 0.165 2.46-0.797 0.845-1.14 1.28-1.29 1.03-0.36-0.135 0.516-0.01 0.64 0.649 0.64 0.646 0 0.837-0.178 0.917-0.855 0.0557-0.47 0.302-0.921 0.548-1 0.354-0.116 0.412 0.161 0.279 1.34-0.223 1.97-0.696 2.51-2.01 2.26-0.685-0.128-1.4-7e-3 -2.11 0.358-0.721 0.373-1.71 0.535-3.03 0.499-1.86-0.051-2.06 0.0225-3.85 1.35-1.04 0.774-2.39 1.94-3.01 2.6-1.12 1.19-3.14 2.43-3.91 2.4-0.227-0.01 0.0177-0.334 0.544-0.72zm33.3-13.3c-0.0164-7.39-0.279-12.8-1.35-27.9-0.733-10.3-1.47-21.5-1.65-24.8-0.202-3.93-0.493-6.64-0.815-7.58-0.479-1.41-0.467-1.57 0.269-3.68 0.423-1.21 0.985-2.61 1.25-3.12l0.48-0.916 0.642 1.26c0.954 1.87 4.9 12.5 5.1 13.8 0.235 1.45-0.34 1.41-1.89-0.104l-1.21-1.18v1.27c0 0.699 0.583 9.19 1.29 18.9 1.64 22.3 1.88 29.2 1.13 33.7-0.667 3.99-2.24 8.98-2.98 9.44-0.135 0.0832-0.254-3.97-0.265-9.02zm-109-14.2c3.02-3.55 3.69-5.11 2.6-6.02-0.4-0.332-0.714-0.341-1.5-0.0448-0.546 0.206-1.04 0.323-1.11 0.26-0.262-0.262 0.995-2.8 1.53-3.08 0.86-0.46 2.41-0.377 2.85 0.154 0.678 0.817 0.451 3.16-0.485 5.01-0.841 1.66-4.29 5.41-4.98 5.41-0.185 0 0.306-0.756 1.09-1.68zm79.4-11.4c-1.58-1.1-2.63-2.05-2.64-2.39-0.0161-0.695 2.13-5.03 2.49-5.03 0.142 0 1.33 0.738 2.64 1.64s2.53 1.7 2.71 1.77c0.185 0.0718 0.752-0.738 1.26-1.8 0.507-1.06 1.04-1.93 1.19-1.93 0.253 0 3.88 2.34 5.13 3.32 0.308 0.239 0.56 0.661 0.56 0.937 0 0.439-2 4.57-2.41 4.99-0.0848 0.0848-1.38-0.686-2.87-1.71-1.5-1.03-2.79-1.8-2.87-1.72-0.0808 0.0808-0.562 0.924-1.07 1.87s-1.05 1.76-1.21 1.81c-0.158 0.0432-1.47-0.742-2.91-1.74zm-21.5-3.73c0.255-0.254 2.48-1.59 4.94-2.96 2.46-1.37 4.45-2.64 4.42-2.81-0.107-0.556-1.44-0.732-5.78-0.764-2.84-0.0213-4.24-0.148-4.24-0.382 0-0.72 2.07-3.78 2.84-4.19 0.55-0.293 2.16-0.416 5.3-0.406 4.77 0.016 6.31 0.376 6.53 1.52 0.149 0.773-2.12 4.19-4.01 6.05-1.77 1.74-3.22 2.44-7.44 3.58-2.18 0.592-2.89 0.693-2.56 0.361zm23.4-5.21c-1.56-1.09-2.63-2.07-2.64-2.4-0.0225-0.724 2.13-5.03 2.52-5.03 0.401 0 4.96 3.07 5.47 3.69 0.351 0.423 0.221 0.885-0.835 2.95-0.688 1.34-1.4 2.49-1.57 2.54-0.176 0.0537-1.5-0.729-2.94-1.74zm-42.3-1.28c0-0.161 0.302-0.566 0.672-0.9 0.369-0.334 1.31-1.45 2.08-2.48 1.72-2.28 1.94-3.9 0.585-4.24-0.465-0.117-0.98-0.0498-1.18 0.154-0.65 0.65-0.956 0.379-0.748-0.664 0.296-1.48 1.37-2.5 2.64-2.5 2.99 0 2.48 4.51-0.931 8.21-1.46 1.59-3.12 2.87-3.12 2.42zm57.6-1.95c0.606-0.732 1.64-2.07 2.3-2.98 1.9-2.61 1.48-4.39-0.826-3.52-0.534 0.202-1.01 0.325-1.06 0.274-0.289-0.289 0.664-2.51 1.25-2.93 0.834-0.584 2.52-0.642 3.05-0.105 0.76 0.76 0.451 3.49-0.605 5.33-1.04 1.82-3.23 4.19-4.47 4.86-0.621 0.333-0.562 0.178 0.358-0.933zm-70.8-6.76c-0.0987-0.264-0.264-1.42-0.367-2.56s-0.393-3.39-0.644-4.99c-0.303-1.94-0.362-3.33-0.176-4.16 0.373-1.66 1.88-3.01 3.36-3.01 1.33 0 1.44-0.39 0.259-0.927-0.739-0.337-0.98-0.299-1.76 0.278-1.14 0.841-1.22 0.249-0.174-1.3 1.1-1.64 2.12-1.61 3.94 0.111 1.32 1.24 1.46 1.51 1.27 2.38-0.209 0.95-0.272 0.98-2.47 1.16-2.76 0.232-3.79 0.823-3.79 2.18 0 0.54 0.296 2.7 0.658 4.8 0.49 2.84 0.584 4.16 0.366 5.17-0.17 0.792-0.367 1.16-0.471 0.877zm-31-1.68c0.0093-1.19 1.63-3.74 3-4.73 0.812-0.583 1.48-1.15 1.48-1.25 0-0.106-0.515-0.47-1.14-0.809-2.07-1.12-2.6-3.32-1.4-5.8 0.816-1.69 5.04-5.74 6.82-6.55 1.81-0.821 2.34-0.771 3.43 0.319 0.7 0.7 0.935 1.24 0.935 2.13 0 1.34-1.37 3.97-2.06 3.97-0.239 0-0.732-0.504-1.1-1.12-0.807-1.37-1.4-1.41-3.94-0.269-2.54 1.14-2.46 1.8 0.389 3.25 3.01 1.53 4.28 1.5 7.78-0.182 2.81-1.35 4.05-1.66 4.05-1.02 0 0.571-1.35 3.01-1.89 3.41-0.282 0.211-2.39 1.43-4.67 2.7-2.29 1.28-5.7 3.23-7.58 4.34-3.52 2.08-4.1 2.31-4.1 1.62zm85.2-4.36c-0.647-0.497-0.704-0.684-0.389-1.27 0.43-0.803 0.902-0.856 1.77-0.197 1.21 0.917 0.533 0.589 1.29-0.355l0.66-0.828c0.29 0.228 0.58 0.456 0.869 0.684 0.821 0.646 0.842 0.726 0.375 1.44-0.48 0.732-0.591 0.844-1.43 0.221-1.17-0.869-0.708-0.575-1.44 0.186-0.731 0.761-0.732 0.873-1.71 0.123zm-12.3-1.64c0.156-0.597 4.79-2.78 5.15-2.42 0.314 0.314-0.329 0.739-2.86 1.89-2.09 0.95-2.42 1.03-2.29 0.53zm-38.4-1.17c-0.107-0.107 1-0.794 2.46-1.53 3.09-1.55 5.32-3.22 5.32-3.97-0.0124-2.12-4.42-7.36-5.82-6.91-0.913 0.29-2.51-0.478-2.85-1.37-0.329-0.866-0.4-3.29-0.0961-3.29 0.57 0 4.7 3.07 6 4.47 1.65 1.77 3.07 4.46 3.08 5.85 0.0016 0.484 0.135 0.88 0.297 0.88 0.636 0 0.87-2.8 0.565-6.76-0.315-4.07-0.108-6.58 0.434-5.24 0.143 0.352 0.568 2.9 0.944 5.66 0.796 5.84 1.06 6.93 1.95 8.06 0.535 0.68 0.927 0.837 2.09 0.837 1.8 0 3.05-0.636 3.92-1.99 0.533-0.832 0.356-0.696 0.785-0.568 0.231 0.313-0.329 1.16-0.58 1.6-0.7 1.22-0.588 1.38 0.834 1.15 1.89-0.303 3.12-1.03 3.87-2.31 0.28-0.474 0.226-0.848 0.408-0.861 0.681-0.0492 0.471 0.161 0.0566 1.15-0.466 1.12-0.461 1.13 0.442 1.51 1.18 0.489 1.5 0.263 2.42-1.72 0.068-1.29 1.06-1.92 0.767-0.433 0.0026 1 0.144 1.26 0.824 1.52 1.21 0.461 2.37 0.379 2.59-0.182 0.213-0.554-1.65-11.6-2.19-13-0.349-0.899 0.0466-2.48 0.616-2.46 0.542 0.0181 1.35 2.43 1.18 3.52-0.0957 0.612 0.2 3.27 0.658 5.91 0.835 4.82 0.831 6.09-0.0257 7.45-0.59 0.932-2.28 0.965-3.43 0.0662l-0.831-0.654-0.732 1.13c-0.842 1.3-0.619 1.99-3.1 0.531-0.804-0.472-0.81-0.57-1.76-0.0282-1.26 0.716-7.38 1.08-8.45 0.505-1.1-0.59-1.73-1.73-2.31-4.17l-0.53-2.25c-0.0788 0.42-0.158 0.84-0.236 1.26-0.33 1.76-1.26 3.46-2.43 4.45-1.2 1.01-6.65 2.72-7.13 2.24zm45.9-1.63c-0.694-0.347-1.36-1.05-1.76-1.84-0.352-0.704-0.668-1.33-0.703-1.4-0.0347-0.0641-0.45 0.188-0.923 0.56-1.02 0.8-4.61 1-4.61 0.262 0-0.987 2.13-3.92 3.36-4.62 0.704-0.4 1.23-0.903 1.18-1.12-0.156-0.591 0.257-2.49 0.542-2.49 0.138 0 0.425 1.15 0.64 2.54 0.527 3.44 1.23 5.38 2.18 6 1.23 0.808 3.3 0.656 5.06-0.373 0.506-0.297 1.01-0.593 1.52-0.89 0.477 0.238 0.954 0.476 1.43 0.714 1.16 0.581 1.57 0.649 2.2 0.364 0.984-0.448 0.982-0.866-0.0352-7.57-0.612-4.03-0.721-5.46-0.454-5.96 0.193-0.361 0.399-0.607 0.458-0.548 0.059 0.0591 0.497 2.7 0.974 5.87 0.944 6.27 1.33 7.59 2.39 8.16 0.645 0.345 0.678 0.317 0.442-0.374-0.391-1.14-0.191-2.72 0.519-4.12 1.11-2.18 3.55-2.86 5.64-1.57 1.61 0.995 1.39 1.67-0.293 0.907-1.53-0.699-5.03 0.915-5.03 2.32 0 0.357 0.507 1.16 1.13 1.78 0.971 0.971 1.27 1.1 2.16 0.923 0.568-0.112 1.74-0.639 2.59-1.17 0.859-0.532 1.62-0.912 1.68-0.846 0.398 0.398-1.59 2.42-3.18 3.23-3.19 1.63-6.84 1.4-7.43-0.479-0.202-0.637-0.271-0.609-1.17 0.476-1.11 1.35-1.37 1.38-3.26 0.467-0.471-0.229-0.942-0.458-1.41-0.687-0.305 0.217-0.61 0.434-0.915 0.65-0.746 0.53-2.95 1.36-3.64 1.36-0.088 6.4e-4 -0.664-0.25-1.28-0.558zm-2.93-4.82c0.227-1.6-0.137-1.77-1.84-0.837-2.34 1.27-2.37 1.79-0.0966 1.68 1.64-0.0858 1.85-0.174 1.94-0.839zm-7.73 0.993c-0.11-1.55-0.491-4.26-0.846-6.02-0.675-3.34-0.849-6.23-0.374-6.23 0.631 0 2.43 10.5 2.2 12.9-0.264 2.75-0.765 2.42-0.982-0.633zm-15.2-4.77c-0.475-0.201-0.54-2.23-0.08-2.52 0.176-0.109 0.651-0.341 0.32 0.442-0.137 0.324 0.186 1.15 0.346 1.25 0.552 0.341 1.52-0.389 1.36-1.39-0.0628-0.406-0.32-0.825 0.21-0.945 0.208-0.0471 0.32 0.157 0.32 0.621 0 0.833 0.618 1.24 1.4 0.744 0.272-0.172 0.327-0.78 0.12-1.17-0.426-0.812-0.0917-1.44 0.303-0.813 0.406 0.641 0.475 1.86 0.0089 2.5-0.225 0.307-1.9 0.475-1.9 0.475-0.338-0.16-0.716 0.652-1.38 0.809-0.25 0.0593-0.654 0.22-1.04-0.0051zm29.4-0.564c0-0.0707 0.461-0.421 1.02-0.777l1.02-0.649c-0.296-0.135-0.592-0.27-0.887-0.404-0.671-0.306-1.12-0.318-1.82-0.0504-1.06 0.402-1.22 0.12-0.352-0.661 0.691-0.625 1.99-0.68 3.47-0.145 1.42 0.514 1.34 1.03-0.325 2-1.26 0.74-2.13 1.02-2.13 0.685zm-57.5-0.61c0.327-0.21 1.25-0.875 2.06-1.48 0.923-0.693 1.65-0.94 1.62-1.07 0 0-0.609-0.323-0.858-0.488-1.27-0.846-0.49-3.26 1.06-3.26 0.579 0 0.806 0.223 0.966 0.953 0.115 0.524 0.121 1.23 0.0124 1.57-0.0662 0.208-0.13 0.533-0.135 0.616-0.0057 0.0807 0.195 0.176 0.272 0.21 1.8 0.814 1.86 1.44 1.11 1.48-0.314 0.0187-1.76-0.795-1.84-0.804-0.0891-0.0103-1.15 0.878-2.09 1.52-0.942 0.644-1.95 1.16-2.24 1.15-0.456-0.0163-0.448-0.0703 0.0664-0.4zm4.17-5.3c-0.203-0.42-0.806-0.025-0.952 0.0485-0.393 0.198-0.608 0.812 0.119 1.36 0.423 0.321 0.86 0.457 0.86 0.457s0.0826-0.265 0.12-0.516c0.0412-0.278 0.0408-1.03-0.147-1.35zm-32.5 1.95c0.385-0.302 2.98-1.88 5.77-3.52 2.79-1.63 5.83-3.63 6.75-4.43l1.67-1.46-1.26-0.912c-2.16-1.57-2.12-3.36 0.153-5.63 1.11-1.11 1.63-1.4 2.49-1.4 0.945 0 1.15 0.141 1.45 1.02 0.255 0.731 0.26 1.54 0.0167 2.88-0.33 1.82-0.317 1.88 0.535 2.62 0.819 0.705 0.847 0.812 0.453 1.76-0.564 1.36-0.84 1.47-1.79 0.726l-0.808-0.635-1.51 1.63c-2.26 2.44-6.45 5.04-10.6 6.59-3.96 1.48-4.37 1.57-3.34 0.768zm15.1-14.8c-0.549-0.339-1.71 0.146-1.83 0.766-0.0605 0.306 0.329 0.778 0.96 1.16l1.06 0.648 0.102-1.17c0.0596-0.681-0.0618-1.27-0.291-1.41zm37.5 14.8c0.648 0 0.845-1.17 4.91-3.1 2.43-1.15 4.46-2.09 4.52-2.09 0.0562 0 0.0327 0.266-0.0522 0.59-0.142 0.545-1.41 1.22-7.71 4.08-0.924 0.42-1.8 0.528-1.68 0.528zm43.6-0.294c0.109-0.566 6.23-4.48 6.53-4.18 0.358 0.358-0.316 1.11-1.71 1.91-0.834 0.478-2.28 1.32-3.22 1.86-1.45 0.842-1.69 0.904-1.6 0.41zm-54.1-3.6c0.452-0.68 6.97-3.71 7.29-3.39 0.554 0.554-1.18 1.48-7.44 3.98-0.18 0.072-0.113-0.193 0.15-0.589zm46.6 0.0294c0.348 0 1.68-1.47 3.72-2.64 4.35-2.5 4.05-2.37 3.86-1.65-0.125 0.478-6.97 4.88-7.59 4.88-0.0795 0-0.0753-0.265 9e-3 -0.588zm-18.9-2.17c0.972 0.379 0.626 0.418 1.65-1.1 1.12-1.65 2.41-1.64 2.57-0.292 0.213 1.83-2.43 3.43-4.27 2.59-0.626-0.285-0.824-0.249-1.09 0.2-0.602 0.559 0.586-1.56 1.13-1.4zm3.16-0.238c0.365-0.322 0.538-0.771 0.279-0.931-0.508-0.314-1.45 0.411-1.83 0.895-0.106 0.137-0.314 0.381-0.272 0.515 0.0985 0.315 1.25-0.0501 1.82-0.479zm12.3-5.34c0-0.358-0.447-1.81-0.993-3.23-0.91-2.36-1.06-2.56-1.74-2.39-0.515 0.129-1.02-0.0441-1.62-0.559-0.931-0.8-0.925-1.67 0.0189-2.9 0.414-0.538 0.575-0.559 1.47-0.189 1.26 0.522 2.34 2.16 3.05 4.63l0.547 1.92 0.697-2.88c0.966-3.98 1.72-5.28 3.08-5.28 0.162 0 0.582 0.288 0.934 0.64 0.681 0.681 0.823 1.78 0.332 2.55-0.253 0.4-0.413 0.363-1.06-0.24-0.417-0.391-0.852-0.712-0.969-0.712-0.469 0-1.24 2.08-1.83 4.97-0.651 3.16-1.08 4.31-1.61 4.31-0.17 0-0.309-0.293-0.309-0.65zm-29.5-7.15c0.431-1.14 1.42-2.6 2.66-3.93 0.547-0.586 0.847-1.17 0.711-1.39-0.324-0.525-1.47-0.261-4.64 1.07-6.43 2.7-12.1 3.14-16.7 1.32-0.472-0.184-0.564-0.025-0.582 1.02-0.0124 0.679-0.135 1.52-0.272 1.87-0.192 0.493-0.303 0.274-0.483-0.96-0.131-0.895-0.66-2.27-1.2-3.12-0.7-1.1-0.913-1.74-0.768-2.32 0.252-1.01 0.603-1 1.94 0.014 2.06 1.57 4.46 2.2 8.33 2.21 3.97 0.00112 6.09-0.519 11.1-2.71 1.58-0.695 3.08-1.26 3.33-1.26s0.674 0.33 0.938 0.733c0.732 1.12 0.157 2.58-2.09 5.35-2.53 3.11-2.64 3.21-2.23 2.12z" stroke-width=".32"/>
</svg>
