<?xml version="1.0" encoding="UTF-8"?>
<!-- Created with Inkscape (http://www.inkscape.org/) -->
<svg width="143" height="139" version="1.1" viewBox="0 0 143 139" xmlns="http://www.w3.org/2000/svg">
 <path d="m43.4 138c-0.117-0.117-0.213-0.548-0.213-0.958 0-0.973-2.16-6.37-2.75-6.85-0.309-0.256-0.581-0.273-0.853-0.0538-0.554 0.447-1.61-0.016-2.44-1.07l-0.688-0.875 0.772-1.31c0.972-1.65 1.95-1.84 3.37-0.647 1.25 1.05 2.46 3.38 3.04 5.82 0.486 2.06 0.504 2.03 1.48-2.17 1.04-4.48 1.97-6.08 3.54-6.08 1.68 0 2.84 2.54 1.81 3.96-0.38 0.52-0.461 0.502-1.18-0.259-1.67-1.78-2.42-0.714-3.67 5.21-1.01 4.81-1.51 5.99-2.21 5.28zm49.4-7.8c-5.05-1.06-8.82-5.07-10.3-10.9-0.581-2.3-0.649-3.27-0.502-7.15 0.222-5.85 1.28-10.7 3.49-16.1 0.961-2.32 1.86-3.07 1.86-1.54 0 0.43-0.507 2.84-1.13 5.36-0.619 2.52-1.29 5.9-1.49 7.52-0.802 6.5 1.17 11 5.82 13.2 1.62 0.771 2.08 0.835 5.92 0.825 3.89-0.0105 4.33-0.0776 6.84-1.03 6.96-2.65 15.1-8.33 22.3-15.6 3.76-3.78 4.84-5.55 4.51-7.35-0.197-1.05-0.321-1.19-0.927-1.02-1.65 0.447-6.91 0.573-9.18 0.22-4.8-0.75-7.04-2.94-7.04-6.88 0.0111-5.71 3.6-11.2 8.21-12.5 1.41-0.41 1.92-0.429 2.91-0.108 2.78 0.907 5.57 3.67 7.96 7.89 0.622 1.1 1.26 2.08 1.41 2.17 0.719 0.445 5.25-2.31 5.6-3.4 0.195-0.614-0.798-2.73-3.66-7.81-1.96-3.47-3.55-6.86-3.54-7.56 2e-3 -0.242-0.454-0.815-1.01-1.27l-1.01-0.834 0.4-3.49c0.526-4.59 0.617-4.93 1.33-4.93 0.652 0 8.42 6.72 8.74 7.56 0.366 0.953-0.455 1.49-1.97 1.28-1.59-0.218-1.67-0.604 0.781 3.74 2.49 4.42 3.3 6.83 3.29 9.87-0.0139 6.66-2.35 11.6-6.66 14.1-1.78 1.04-1.82 1.09-2.03 2.8-0.274 2.17-1.94 6.97-3.17 9.15-2.66 4.68-12.4 14-19.6 18.7-6.49 4.22-13.3 6.14-18.1 5.13zm32-41.9c0.398-0.252 0.375-0.398-0.16-0.988-0.345-0.381-1.24-1.05-2-1.49-1.13-0.663-1.61-0.765-2.77-0.591-1.6 0.24-2.19 0.776-2.04 1.84 0.0729 0.514 0.444 0.853 1.22 1.12 1.34 0.456 5.09 0.53 5.75 0.113zm-1.99 39.4c-1.89-1.31-3.44-2.6-3.44-2.85 0-0.952 2.88-6.21 3.41-6.21 0.602 0 2.13 0.893 4.52 2.64 0.928 0.678 1.8 1.16 1.93 1.08 0.134-0.0825 0.658-1.02 1.17-2.08s1.11-2 1.34-2.09c0.229-0.0877 1.68 0.69 3.23 1.73 3.78 2.53 3.93 2.68 3.93 3.56-8e-3 1.03-2.62 5.86-3.24 5.98-0.27 0.0519-1.77-0.776-3.32-1.84s-2.91-1.93-3.01-1.93c-0.099 3.2e-4 -0.587 0.78-1.09 1.73-1.58 3.02-1.48 3.02-5.41 0.287zm-62.2-10.7c-2.29-1.57-3.28-2.44-3.28-2.88 0-0.722 2.47-5.79 2.98-6.11 0.451-0.287 2.17 0.614 4.65 2.44 1.12 0.823 2.07 1.45 2.12 1.39 0.05-0.0562 0.545-1.01 1.1-2.12 0.555-1.11 1.21-2.09 1.45-2.18 0.813-0.312 7.22 4.14 7.22 5.02 0 0.722-2.43 5.55-3.05 6.07-0.416 0.346-0.973 0.0791-3.58-1.71l-3.08-2.12-1.23 2.23c-0.678 1.23-1.41 2.23-1.62 2.23-0.214-4e-3 -1.87-1.02-3.67-2.26zm-48.1 0.202c-6.06-1.67-10-6.51-11.6-14.2-1.52-7.2-0.582-16.9 2.21-22.9 1.15-2.48 1.92-3.35 2.48-2.8 0.248 0.248 0.0709 1.24-0.623 3.49-1.67 5.43-1.83 6.42-1.83 11.5 0 5.59 0.547 7.74 2.83 11.1 3.79 5.63 11.2 7.12 20.7 4.16 5.35-1.67 13.8-6.58 21.1-12.2 3.31-2.56 8.35-7.51 9.08-8.93 0.863-1.67 1.14-5.11 1.15-14.3 0.0155-17.2-1.13-32.9-3.5-47.9l-0.893-5.66 0.572-3.14c0.805-4.42 1.4-5.75 2.17-4.82 0.897 1.1 3.12 10.9 4.21 18.5 1.27 8.91 1.87 17.9 2.43 36.2 0.503 16.5 1.23 21.4 3.59 24 1.42 1.57 3 2.02 6.1 1.74 5.35-0.482 7.98-1.93 14-7.7 3.34-3.21 3.97-3.68 4.8-3.61l0.96 0.084-0.113 2.44c-0.201 4.37 1.5 6.68 4.91 6.68 2.09-6.4e-4 3.8-0.492 4.85-1.4l0.849-0.73-2.72-5.91 0.894-3.2c1.01-3.61 1.39-4.32 2.18-4.01 0.725 0.278 2.06 3.37 2.65 6.14 0.811 3.79 0.172 9.01-1.54 12.6-1.01 2.09-3.64 4.65-5.28 5.13-5.11 1.51-9.48-1.43-9.96-6.71-0.0929-1.02-0.293-1.86-0.445-1.86-0.321 0-0.572 0.254-3.88 3.92-4.32 4.79-8.61 7.03-13.5 7.07-5.78 0.0474-9.07-2.56-10.7-8.46-0.36-1.3-0.654-2.69-0.654-3.09 0-1.41-0.487-0.695-1.01 1.49-0.83 3.44-1.44 4.44-4.76 7.73-9.35 9.26-22 17.2-31 19.5-2.79 0.712-8.3 0.787-10.6 0.145zm10-22.6c-0.211-0.889-0.862-2.73-1.45-4.08-1.03-2.39-1.09-2.46-2.07-2.36-1.16 0.112-2.53-0.657-2.82-1.59-0.256-0.806 1.25-3.15 2.02-3.15 1.78 0.0038 3.96 3.02 4.97 6.88l0.419 1.6 0.727-3.2c1.21-5.35 2.62-7.52 4.42-6.85 0.387 0.143 0.935 0.708 1.22 1.26 0.421 0.814 0.449 1.2 0.152 2.1-0.432 1.31-0.704 1.37-1.4 0.3-1.38-2.1-2.55-0.385-3.72 5.44-0.674 3.37-1.34 5.28-1.85 5.28-0.13 0-0.409-0.728-0.62-1.62zm13.5-22.5c-1.52-1.52-1.42-4.97 0.33-11.1 0.427-1.49 0.776-2.88 0.776-3.1 0-0.216-0.41-0.684-0.911-1.04l-0.911-0.648-1.09 1.46c-1.3 1.75-4.72 4.56-8.13 6.68-3.31 2.06-14.1 6.26-12.8 4.97 0.167-0.163 3.47-2.2 7.34-4.52 3.87-2.32 7.98-4.91 9.12-5.76 2.1-1.56 4.07-3.41 3.82-3.61-0.0752-0.0593-0.674-0.431-1.33-0.826-2.36-1.42-3.01-3.28-1.99-5.72 0.927-2.22 3.83-4.55 5.68-4.55 1.85 0 2.54 2.54 1.69 6.18l-0.509 2.18 0.96 0.808c0.561 0.472 0.96 1.12 0.96 1.55 0 0.41-0.509 2.27-1.13 4.13-1.39 4.14-1.71 6.9-1 8.59 0.824 1.97 2.2 1.54 3.96-1.24 0.614-0.971 0.519 0.127-0.219 2.51-1.08 3.49-2.94 4.7-4.63 3.01zm-0.379-22.5c-0.42-1.76-1.39-2.13-2.72-1.03-0.945 0.775-0.615 1.46 1.19 2.49 1.25 0.706 1.25 0.706 1.49 0.0536 0.133-0.359 0.15-1.04 0.038-1.51zm37.2 18.3c-2.5-2.76-0.928-9 3.65-14.5 0.89-1.07 1.69-1.87 1.78-1.78 0.0897 0.0897-0.584 1.46-1.5 3.04-1.83 3.17-3.19 6.25-3.2 7.25-0.0234 2 2.09 2.69 3.81 1.24l0.985-0.828v1.32c0 2.76-1.64 4.82-3.83 4.82-0.725 0-1.38-0.218-1.69-0.561zm16.3-1.12c-0.263-0.784 0.363-2.57 1.21-3.45l0.863-0.901-1.16-1.02c-0.837-0.734-1.16-1.28-1.16-1.96 0-2.84 4.47-7.63 7.12-7.63 1.72 0 2.45 2.56 1.29 4.51-0.651 1.1-0.774 1.13-1.53 0.289-0.709-0.783-1.23-0.803-2.43-0.091-1.18 0.698-1.18 1.23 0.0147 1.84 1.48 0.766 2.58 0.581 4.76-0.803 2.5-1.59 3.44-1.76 3.36-0.629-0.126 1.89-0.686 2.45-6.31 6.35-3.09 2.14-5.68 3.89-5.76 3.89-0.0777 0-0.202-0.18-0.275-0.4zm-80.5-7.82c-0.226-0.846-0.778-2.36-1.23-3.36-0.746-1.66-0.892-1.81-1.66-1.66-0.63 0.126-1.04-0.0396-1.62-0.652l-0.771-0.821 0.605-1.12c1.38-2.55 3.88-0.542 5.06 4.06l0.426 1.67 0.558-2.55c0.956-4.37 2.12-6.25 3.52-5.71 0.893 0.343 1.49 1.88 1.12 2.87l-0.329 0.865-0.774-0.727c-0.426-0.4-0.982-0.647-1.24-0.549-0.529 0.203-1.21 2.18-1.96 5.7-0.285 1.34-0.697 2.68-0.915 2.98-0.346 0.473-0.45 0.346-0.807-0.995zm103-2.43c0.264-0.266 2.64-1.74 5.28-3.27 6.05-3.52 10.5-6.41 12.3-8.04l1.41-1.27-1.17-0.722c-1.74-1.08-2.46-2.15-2.46-3.7 0-1.79 1.44-4.03 3.28-5.11 2.74-1.61 4.08-0.874 4.07 2.24-9.6e-4 1.04-0.159 2.46-0.35 3.15-0.34 1.23-0.32 1.28 0.87 2.28l1.22 1.02-0.597 1.32c-0.859 1.91-1.21 2.1-2.1 1.16-0.411-0.438-0.921-0.796-1.13-0.796s-0.911 0.641-1.55 1.43c-1.33 1.63-5.5 4.82-8.41 6.46-1.69 0.949-7.81 3.38-10.3 4.12-0.713 0.206-0.748 0.179-0.32-0.252zm20.8-17.5c0-1.97-1.26-2.8-2.64-1.75-0.899 0.682-0.655 1.38 0.781 2.24 1.55 0.924 1.86 0.844 1.86-0.483zm-63.5 2.03c0.559-0.477 3.22-2.08 5.92-3.56 2.7-1.48 5.91-3.28 7.14-4 4.36-2.56 3.08-3.14-7.2-3.26-3.96-0.0455-7.32-0.0939-7.47-0.107-0.148-0.0136 0.338-1.14 1.08-2.5 3.08-5.67 3.63-5.95 11.5-5.92 10 0.0347 13.3 1.12 12.2 4.05-0.667 1.75-4.36 6.79-6.74 9.19-2.1 2.12-2.75 2.56-5.02 3.43-2.56 0.988-11.4 3.59-12.1 3.56-0.196-0.0072 0.101-0.403 0.66-0.88zm39.3-4.15c-0.287-1.35-1.4-4.31-1.92-5.11-0.288-0.442-0.652-0.637-0.964-0.517-0.658 0.253-2-0.48-2.23-1.22-0.271-0.853 0.813-2.51 1.64-2.51 1.43 0 3.31 2.74 3.84 5.6 0.232 1.26 0.251 1.22 1.08-1.95 0.462-1.78 1.09-3.61 1.4-4.08 1.05-1.61 3.1-0.735 3.1 1.32 0 1.26-0.397 1.51-1.13 0.706-1.27-1.4-2.01-0.399-2.87 3.85-0.537 2.66-1.24 4.8-1.58 4.8-0.0936 0-0.255-0.396-0.358-0.88zm-75-2.24c-0.0029-0.484-0.474-1.96-1.05-3.28-0.974-2.24-1.1-2.39-1.94-2.29-0.966 0.114-2.13-0.686-2.13-1.47 0-0.79 1.07-2.32 1.63-2.32 1.41 0 3.11 2.33 3.85 5.29l0.386 1.53 0.751-3.12c0.843-3.5 1.68-4.98 2.83-4.98 1.33 0 2.22 2 1.43 3.2-0.27 0.408-0.407 0.364-0.914-0.29-0.719-0.928-1.51-0.735-1.97 0.483-0.178 0.467-0.622 2.23-0.989 3.93-0.366 1.69-0.8 3.33-0.964 3.64-0.446 0.838-0.915 0.675-0.921-0.32zm73.3-8.59c-0.743-0.895-0.526-4.4 0.441-7.14 0.46-1.3 1.01-2.53 1.22-2.72 0.29-0.267 0.325-0.197 0.144 0.289-0.131 0.352-0.535 1.83-0.899 3.28-0.532 2.12-0.589 2.8-0.292 3.45 0.572 1.26 1.32 1.36 2.22 0.302l0.789-0.917-0.224 1.1c-0.47 2.31-2.35 3.62-3.4 2.35zm-75-2.42c-0.996-1.42-0.463-5.21 1.21-8.63 0.464-0.947 0.767-1.45 0.672-1.11-0.796 2.8-1.44 5.56-1.44 6.2 0 2 1.39 2.61 2.56 1.12l0.688-0.88-0.204 0.96c-0.56 2.63-2.41 3.88-3.49 2.35zm54.8-8.91c-1.59-5.31-2.07-6.27-3.05-6.16-0.874 0.0954-2.29-0.778-2.29-1.41 0-0.252 0.22-0.884 0.488-1.4 1.2-2.33 3.9 0.0226 4.99 4.34l0.389 1.55 0.692-3.11c0.667-2.99 1.36-4.42 2.48-5.13 0.41-0.259 0.713-0.161 1.34 0.431 1.34 1.26 0.92 3.67-0.431 2.44-1.39-1.26-1.89-0.529-2.93 4.25-0.695 3.2-1.43 5.04-1.68 4.2zm-15.2-4.44c-0.204-0.857-0.706-2.26-1.12-3.12-0.617-1.29-0.898-1.57-1.63-1.59-0.489-0.0178-1.24-0.364-1.67-0.769l-0.784-0.737 0.692-1.23c0.79-1.41 0.996-1.46 2.37-0.621 1.09 0.662 2.29 2.83 2.58 4.65 0.202 1.24 0.741 1.89 0.741 0.888 0-0.334 0.284-1.72 0.632-3.08 1.02-3.97 2.35-5.24 3.84-3.65 0.696 0.747 0.831 1.72 0.344 2.49-0.251 0.397-0.432 0.346-1.14-0.32l-0.844-0.792-0.563 0.694c-0.31 0.382-0.866 2.12-1.24 3.86-1.12 5.28-1.58 5.96-2.2 3.33z" stroke-width=".32"/>
</svg>
