<?xml version="1.0" encoding="UTF-8"?>
<!-- Created with Inkscape (http://www.inkscape.org/) -->
<svg width="142" height="144" version="1.1" viewBox="0 0 142 144" xmlns="http://www.w3.org/2000/svg">
 <path d="m50 141c-0.222-1.67-0.402-3.4-0.4-3.85 6e-3 -1.16 0.863-2.23 1.78-2.23 0.43 0 0.782-0.132 0.782-0.293 0-0.453-0.738-0.612-1.36-0.292-0.661 0.34-0.71 9e-3 -0.115-0.774 0.594-0.782 1.55-0.698 2.41 0.211 1.12 1.2 0.781 1.92-1.02 2.12-2.17 0.25-2.28 0.455-1.84 3.23 0.207 1.3 0.328 2.93 0.269 3.64-0.0816 0.972-0.205 0.548-0.512-1.76zm33-1.02c-0.54-0.54 0.161-1.37 0.746-0.889 0.242 0.201 0.571 0.73 0.994 0.591 0.0789-0.026-0.361-0.513 0.0752-0.659 0.491-0.307 0.749-0.318 1.02-0.0463 0.548 0.548-0.15 1.46-0.843 0.925-0.176-0.137-0.567-0.373-0.944 0.134-0.261 0.423-0.588 0.406-1.05-0.0552zm-7.1-1.04c0.589-0.568 2.87-1.52 2.87-1.2 0 0.233-2.68 1.65-3.12 1.65-0.121 0-9e-3 -0.203 0.249-0.452zm-23.4-0.628c0-0.0937 0.612-0.442 1.36-0.775 0.748-0.332 1.83-0.998 2.39-1.48 1.03-0.868 1.03-0.883 0.559-2.05-0.492-1.22-2.61-3.36-3.05-3.09-0.137 0.0847-0.621 0.0126-1.08-0.16-0.673-0.256-0.827-0.524-0.827-1.44 0-0.62 0.0858-1.13 0.191-1.13 0.291 0 2.1 1.28 3.12 2.21 1.06 0.966 2.13 2.91 2.13 3.87 0 0.422 0.136 0.588 0.366 0.446 0.255-0.158 0.31-1.2 0.182-3.47-0.241-4.25 0.202-4.92 0.709-1.08 0.495 3.76 0.87 5.22 1.5 5.85 0.783 0.783 2 0.593 3.07-0.481 0.537-0.537 0.504-0.928 0.775-0.48 0.152 0.251-0.288 0.712-0.394 0.976-0.362 0.894 1.75 0.791 2.46-0.455 0.69-1.21 0.923-0.888 0.752-0.204-0.14 0.559-0.0258 0.773 0.487 0.907 0.528 0.138 0.803-0.0739 1.3-0.996 0.182-0.341 0.166-0.727 0.255-0.857 0.174-0.255 0.338 0.031 0.298 0.485-0.0612 0.687 0.0761 0.814 0.969 0.9 0.828 0.0798 1.04-0.018 1.04-0.481 0-0.747-1.16-6.81-1.44-7.52-0.117-0.297-0.0739-0.788 0.0956-1.09 0.278-0.496 0.349-0.475 0.729 0.221 0.231 0.424 0.384 1.14 0.34 1.6-0.0444 0.456 0.146 2.13 0.422 3.73 0.696 4.01 0.152 5.4-1.75 4.45-0.893-0.446-0.981-0.434-1.3 0.17-0.267 0.5-0.542 0.601-1.2 0.443-1.01-0.243-0.866-0.247-3.89 0.114-2.96 0.354-3.62 0.0228-4.29-2.13-0.257-0.835-0.477-1.32-0.489-1.09-0.0635 1.23-1.16 2.72-2.4 3.26-1.43 0.62-3.38 1.1-3.38 0.83zm27.8-0.908c-0.486-0.163-1.02-0.691-1.24-1.24-0.361-0.872-0.443-0.912-0.937-0.464-0.298 0.27-0.999 0.491-1.56 0.491-1.44 0-1.34-0.965 0.265-2.52 0.757-0.735 1.28-1.54 1.28-1.97 0-1.24 0.445-0.363 0.865 1.71 0.594 2.94 1.79 3.69 4.13 2.58 0.918-0.436 1.25-0.454 2.07-0.114 1.64 0.681 1.78 0.207 1.14-4.05-0.327-2.19-0.44-3.85-0.272-4.02s0.52 1.3 0.853 3.55c0.44 2.98 0.712 3.96 1.21 4.41 0.632 0.564 0.642 0.56 0.422-0.147-0.296-0.95 0.353-2.87 1.11-3.28 0.833-0.446 2.41-0.395 2.82 0.0897 0.264 0.318 0.0623 0.407-0.919 0.407-0.862 0-1.47 0.218-1.95 0.692-0.661 0.661-0.668 0.729-0.154 1.51 0.675 1.03 1.81 1.07 3.37 0.109l1.16-0.711-0.508 0.774c-1.19 1.81-4.7 2.67-6.02 1.48-0.578-0.523-0.682-0.535-0.85-0.0975-0.298 0.777-1.12 0.932-1.97 0.373-0.675-0.442-0.869-0.45-1.47-0.0599-1.03 0.661-1.87 0.806-2.83 0.487zm-2.17-2.49c0.162 0 0.294-0.288 0.294-0.64 0-0.776-0.563-0.818-1.56-0.119-0.583 0.409-0.65 0.58-0.311 0.797 0.238 0.152 0.624 0.205 0.859 0.119 0.234-0.0862 0.558-0.157 0.72-0.157zm-4.3 0.16c-0.14-0.88-0.469-2.71-0.732-4.07-0.293-1.52-0.368-2.67-0.195-2.98 0.384-0.686 1.46 5.28 1.3 7.21l-0.118 1.44zm-9.28-2.93c-0.117-0.117-0.202-0.513-0.188-0.88 0.0139-0.367 0.116-0.493 0.187-0.267 0.43 1.38 1.13 0.79 1.07-0.144-0.0264-0.422 0.0853-0.459 0.384-0.16 0.187 1.35 1.21 0.401 0.901-0.336 4e-3 -0.56 0.07-0.617 0.298-0.257 0.35 0.553 0.0446 1.2-0.714 1.64-0.173 0.101-0.398 0.111-0.577 0.126-0.109 9e-3 -0.512 0.317-0.672 0.37-0.504 0.168-0.484 0.112-0.686-0.089zm18.1-0.552c0.825-0.626 0.917-0.691-0.164-0.912-0.165-0.0337-0.634 0.209-0.748 0.21-0.324 2e-3 -0.309-0.125-0.231-0.328 0.242-0.631 0.966-0.765 2.07-0.381l1.02 0.357-0.872 0.75c-0.479 0.412-1.04 0.745-1.25 0.74-0.212-6e-3 -0.133-0.199 0.178-0.435zm-34.2-0.703c0.682-0.464 1.18-0.783 1.21-0.884 0 0-0.443-0.233-0.501-0.511-0.121-0.578-0.184-0.71 0.113-1.33 0.516-1.08 1.99-0.538 1.41 1.1-0.081 0.228-0.526 0.502-0.389 0.588 0.162 0.101 0.542 0.65 0.407 0.759 0 0-0.139 0.177-0.234 0.146-0.0955-0.0316-0.408-0.545-0.514-0.506-0.295 0.107-0.61 0.482-0.966 0.722-0.613 0.413-1.26 0.751-1.43 0.751s0.228-0.373 0.899-0.828zm1.81-2.05c0-0.176-0.0492-0.64-0.324-0.64-0.274 0-0.531 0.44-0.476 0.64 0.104 0.382 0.431 0.624 0.55 0.686 0.0486 0.0252 0.25-0.51 0.25-0.686zm50.2-0.83c-1.67-1.15-3.25-2.22-3.52-2.37-0.401-0.23-0.248-0.754 0.949-3.26 0.785-1.64 1.58-3.17 1.78-3.39 0.276-0.321 0.786-0.127 2.41 0.917 1.13 0.728 2.67 1.82 3.41 2.42l1.35 1.1 1.29-2.57c0.712-1.42 1.43-2.57 1.6-2.57 0.37 0 5.32 3.33 6.33 4.25 0.396 0.364 0.72 0.811 0.72 0.994 0 0.533-2.57 5.56-3.04 5.96-0.333 0.276-1.11-0.112-3.43-1.72-1.65-1.14-3.17-2.12-3.39-2.18-0.214-0.0566-0.934 0.895-1.6 2.11-0.666 1.22-1.35 2.26-1.52 2.31-0.17 0.0517-1.68-0.848-3.35-2zm-38.2 1.19c0.552-0.585 5.58-2.92 5.58-2.59 0 0.167-0.972 0.791-2.16 1.39-2.48 1.24-3.95 1.76-3.42 1.2zm26.4-0.169c0.819-0.79 3.89-2.46 3.75-2.04-0.0741 0.222-0.916 0.874-1.87 1.45-1.81 1.09-2.68 1.37-1.88 0.594zm-63.4-1c-3.15-0.491-6.88-1.84-9.21-3.33-2.62-1.68-5.59-5.1-7.03-8.09-4.61-9.59-4.18-25.1 1.05-38l1.38-3.4-1.08-0.86c-1.39-1.11-1.09-1.59 0.818-1.34l1.48 0.196 0.903-1.61c1.37-2.44 5.2-7.45 8.54-11.2l2.99-3.33-1.83-1.7c-3.41-3.17-7.57-5.64-9.52-5.64-0.725 0-1.99 0.44-3.36 1.16-3.54 1.88-3.57 1.83-1.79-3.79 1.12-3.56 1.3-3.9 2.47-4.72 1.68-1.18 6.72-2.95 10.7-3.75 9.7-1.98 24.9 0.906 27.7 5.27 0.636 0.971 0.412 2.02-1.2 5.62l-0.937 2.1-5.43 2.7c-2.98 1.48-5.43 2.8-5.43 2.92 0 0.776 5.01 3.23 8.08 3.95 2.66 0.627 7.79 0.613 10.3-0.0268 3.76-0.97 6.08-2.5 11-7.25 3.51-3.39 4.75-4.4 5.4-4.4 0.78 0 0.83 0.0803 0.652 1.04-0.62 3.33-0.602 4.58 0.0885 5.94 1.31 2.57 4.29 3.76 8.76 3.52 4.53-0.249 6.42-1.64 10.4-7.66 1.46-2.22 2.89-4.14 3.19-4.25 1.07-0.41 1.21 0.328 0.592 3.04-0.7 3.07-0.527 3.61 1.69 5.3 2.12 1.61 5.47 1.83 7.16 0.463l0.726-0.588-0.863-1.03c-0.475-0.564-0.866-1.2-0.87-1.4-4e-3 -0.206 0.454-1.86 1.02-3.67 1.18-3.78 1.58-4.01 2.79-1.58 0.996 2.01 1.2 4.86 0.564 7.86-1.29 6.08-4.14 9.21-8.73 9.58-1.75 0.14-2.17 0.0548-3.47-0.707-0.858-0.503-2.07-1.67-2.88-2.77l-1.4-1.9-1.03 1.53c-3.24 4.82-7.39 7.09-12.3 6.72-5.09-0.385-7.43-2.59-8.19-7.74-0.439-2.95-0.772-3.04-2.79-0.733-0.806 0.924-2.64 2.85-4.08 4.29-4.52 4.5-9.38 6.3-15 5.59-5.25-0.663-9.7-2.59-14.8-6.43-1.64-1.23-3.07-2.25-3.16-2.25-0.24 0-4.27 3.24-6.81 5.48-1.85 1.63-5.44 5.63-5.7 6.35-0.218 0.612 5.46 1.09 21.1 1.77 16.1 0.701 20.3 1.22 23.6 2.89 3.34 1.69 6.2 5.63 7.05 9.68 0.556 2.68 0.213 9.21-0.652 12.4-1.47 5.41-4.65 10.8-9.1 15.5-9.65 10.1-21.1 14.3-33.5 12.4zm16.2-9.55c5.86-1.74 13.4-6.05 18-10.2 2.18-2 5.18-5.89 6.21-8.06 2.47-5.21-0.27-11.5-6.25-14.4-3.62-1.73-7.03-2.21-19.5-2.74-4.17-0.175-8.7-0.534-10.1-0.797-3.73-0.713-8.51-2.27-12-3.92-1.72-0.804-3.17-1.4-3.24-1.33-0.386 0.443-2.84 6.37-3.65 8.83-1.67 5.02-2.13 7.8-2.12 12.7 0.0085 5.12 0.456 7.32 2.22 10.9 2.03 4.15 5.88 7.23 10.9 8.75 3.67 1.1 5.06 1.25 11 1.15 4.98-0.0826 5.92-0.188 8.48-0.949zm-13.8-6.27c-0.366-0.148-1.05-0.726-1.52-1.28-0.687-0.817-0.853-1.34-0.847-2.67 8e-3 -2.07 1.16-5.39 2.64-7.6l1.13-1.69-1.28-0.632c-1.79-0.885-2.43-2.29-1.88-4.12 0.549-1.83 1.85-3.66 4.03-5.65 2.36-2.16 3.5-2.19 4.14-0.107 0.164 0.535-0.0104 1.1-0.626 2.03l-0.854 1.29-0.715-0.672c-0.393-0.369-0.858-0.672-1.03-0.672-0.407 0-2.21 1.92-2.45 2.61-0.245 0.703 0.979 1.82 2.44 2.22 1.47 0.405 2.36-0.0354 4.53-2.23 0.88-0.89 1.71-1.62 1.84-1.62 0.459-0.0133 0.236 1.64-0.429 3.19-0.422 0.981-1.1 1.86-1.84 2.37-3.39 2.36-8.05 8.21-8.05 10.1 0 1.59 0.981 2.06 4.59 2.17 2.66 0.0809 3.79-0.0455 6.29-0.705 1.67-0.442 3.4-0.893 3.84-1 0.671-0.166 0.553 0.0352-0.731 1.25-1.74 1.64-4.08 2.84-6.56 3.36-1.96 0.413-5.68 0.439-6.65 0.0466zm7.79-62.3c1.1-0.608 2-1.22 2-1.36 0-1.12-7.98-2.06-11.3-1.33l-0.936 0.202 1.74 1.34c0.955 0.737 2.31 1.84 3.02 2.46l1.28 1.12 1.12-0.66c0.616-0.363 2.02-1.16 3.12-1.77zm20.2 77.3c0-0.175 0.684-0.615 1.52-0.977 2.69-1.17 3.02-1.27 2.9-0.891-0.157 0.471-4.42 2.27-4.42 1.87zm28.2 0.0525c0-0.369 4.45-3.04 4.68-2.81 0.178 0.178-1 1.02-3.16 2.26-0.836 0.479-1.52 0.727-1.52 0.552zm-11.9-1.22c0.0908-0.237 0.335-0.388 0.526-0.297 0.264 0.127 0.534 0.176 0.667 0.111 0 0 0.248-0.494 0.548-0.772 0.841-0.783 1.55-0.763 1.55 0.0442 0 0.226-0.27 0.656-0.599 0.954-0.324 0.293-1.22 0.245-1.47 0.223 0 0-1.22 0.389-1.22-0.263zm2.65-0.563c0-0.264-0.126-0.48-0.281-0.48s-0.46 0.216-0.679 0.48c-0.333 0.401-0.287 0.48 0.281 0.48 0.39 0 0.679-0.204 0.679-0.48zm14.7-11.1c-5.19-1.09-9.14-5.27-10.7-11.3-0.597-2.29-0.683-8.83-0.159-12.2 0.723-4.59 2.94-12 4.15-13.9 0.779-1.22 0.632 0.349-0.429 4.56-1.74 6.92-2.29 11-1.85 14.1 0.495 3.47 1.41 5.4 3.46 7.27 2.56 2.34 4.55 3.01 9.08 3.03 4.46 0.0276 6.75-0.594 11.9-3.23 6.57-3.35 11.9-7.29 18.4-13.7 4.78-4.66 5.83-6.13 5.82-8.16-8e-3 -2.26-0.121-2.33-3.06-1.91-3.43 0.487-8.55 0.164-10.8-0.682-2.77-1.04-4.36-3.32-4.36-6.27-8e-3 -4.53 2.97-10 6.56-12.1 2.12-1.24 4.16-1.36 6.13-0.358 2.15 1.09 5.06 4.31 6.97 7.72 0.844 1.5 1.6 2.74 1.69 2.74 0.595 0 4.66-2.47 5.51-3.34 0.983-1.01 1.02-1.14 0.676-2.19-0.203-0.614-1.38-2.88-2.61-5.03-2.87-5.01-4.27-7.79-4.79-9.54-0.256-0.854-0.779-1.66-1.35-2.08-0.885-0.65-0.922-0.771-0.735-2.44 0.537-4.83 0.915-6.72 1.34-6.72 0.534 0 8.61 7.12 8.88 7.84 0.272 0.709-0.489 0.92-2.4 0.666l-1.62-0.215 1.01 1.7c2 3.37 4.53 8.63 4.98 10.4 0.366 1.41 0.401 2.45 0.164 4.94-0.618 6.48-2.83 10.5-7.2 13-1.52 0.884-1.61 1.01-1.8 2.57-0.449 3.63-2.48 8.89-4.52 11.7-3.45 4.76-12 12.7-18.1 16.9-3.69 2.52-8.84 5.09-11.7 5.86-2.42 0.642-6.6 0.881-8.48 0.486zm34.7-43.7c0.404-0.25-1.99-2.61-3.37-3.32-1.42-0.732-2.76-0.779-4.26-0.149-0.904 0.378-1.11 0.635-1.11 1.39 0 1.89 2.12 2.72 6.23 2.42 1.23-0.0897 2.36-0.24 2.51-0.333zm3.51 41.2c2.88-3.59 3.75-4.92 3.75-5.77 0-1.12-0.784-1.63-1.87-1.22-0.994 0.378-1.12 0.231-0.858-0.974 0.247-1.13 1.53-2.27 2.55-2.27 1.34 0 1.94 0.775 1.92 2.46-0.0362 2.57-2.25 5.97-5.27 8.09l-1.11 0.78zm-30.4-15.7c-0.217-0.915-0.819-2.57-1.34-3.68-0.882-1.89-0.999-2-1.84-1.83-0.715 0.142-1.09-0.02-1.83-0.794l-0.93-0.972 0.854-1.29c0.953-1.44 1.12-1.5 2.45-0.809 1.13 0.585 2.38 2.63 2.92 4.8 0.221 0.88 0.488 1.71 0.594 1.84 0.106 0.132 0.514-1.19 0.907-2.93 1.03-4.55 2.42-6.41 4.02-5.37 1.01 0.662 1.37 1.9 0.864 3l-0.375 0.823-0.883-0.846c-0.486-0.465-0.98-0.846-1.1-0.846-0.476 0-1.26 2.12-1.98 5.37-0.833 3.75-1.3 5.19-1.69 5.19-0.139 0-0.43-0.748-0.647-1.66zm-1.87-11.6c-0.826-1.26-0.451-5.08 0.823-8.38 1.32-3.43 1.74-3.64 0.796-0.409-1.02 3.51-1.21 5.12-0.703 6.08 0.634 1.21 1.5 1.2 2.53-0.0422l0.887-1.07-0.47 1.58c-0.687 2.31-1.27 3.06-2.38 3.06-0.659 0-1.11-0.246-1.48-0.812zm-93.2-19.1c2.39-2.84 3-3.94 2.74-4.95-0.154-0.613-0.402-0.766-1.24-0.766-0.577 0-1.22 0.173-1.43 0.384-0.569 0.569-0.503-0.517 0.111-1.81 0.477-1 1.59-1.77 2.56-1.77 0.887 0 1.74 1.23 1.74 2.5 0 2.33-2.91 6.71-5.44 8.18-0.891 0.518-0.764 0.283 0.955-1.76zm75.7-26.7c-1.91-1.3-3.54-2.42-3.61-2.5-0.152-0.152 2.62-5.97 3.06-6.4 0.364-0.364 1.56 0.275 4.63 2.48 1.39 0.994 2.56 1.76 2.6 1.71 0.0456-0.0518 0.549-1.03 1.12-2.17 1.54-3.09 1.41-3.02 3.45-1.71 0.985 0.63 2.57 1.72 3.52 2.42 1.6 1.18 1.72 1.35 1.53 2.28-0.252 1.26-2.74 5.65-3.2 5.65-0.189-0.0016-1.78-1-3.53-2.22l-3.19-2.22-1.2 2.28c-0.659 1.25-1.31 2.39-1.45 2.52s-1.82-0.814-3.73-2.11zm24.9 1.17c0.0917-0.148 2.58-1.69 5.54-3.44 5.45-3.21 10.4-6.71 10.3-7.19-0.0522-0.146-0.589-0.598-1.19-1-2.16-1.45-2.21-3.89-0.128-6.08 3.31-3.48 5.78-1.77 4.54 3.14-0.357 1.42-0.345 1.46 0.681 2.31l1.04 0.872-1.39 2.72-0.916-0.653c-0.504-0.359-0.999-0.653-1.1-0.653-0.101 0-0.799 0.669-1.55 1.49-2.78 3.03-6.52 5.37-11.8 7.36-3.77 1.43-4.33 1.59-4.04 1.13zm17.5-15.1c0-1.42-0.442-1.79-1.76-1.46-1.13 0.283-1.01 1.27 0.241 2.07 1.42 0.908 1.52 0.866 1.52-0.613zm-64.3 12c0-0.108 0.785-1.12 1.74-2.25 2.75-3.24 3.38-4.92 2.1-5.6-0.48-0.257-0.875-0.218-1.6 0.157-1.09 0.561-1.18 0.337-0.517-1.25 0.786-1.88 2.76-2.7 3.85-1.61 0.712 0.712 0.64 3.17-0.139 4.78-0.353 0.729-1.15 1.92-1.77 2.64-1.14 1.33-3.67 3.49-3.67 3.14zm-42.8-3.09c0.0628-0.188 2.85-1.95 6.19-3.92 6.79-4 10.4-6.44 11.8-7.91 0.915-0.956 0.924-0.997 0.304-1.34-0.352-0.193-1.2-0.905-1.88-1.58-1.14-1.13-1.23-1.34-1.08-2.62 0.26-2.31 2.82-5.23 5.08-5.8 2.05-0.514 3.06 2.33 2.09 5.92-0.26 0.968-0.448 1.77-0.418 1.77 0.0296 0.0074 0.593 0.41 1.25 0.895l1.2 0.882-0.493 1.19c-0.839 2.02-1.19 2.19-2.47 1.22l-1.11-0.844-1.16 1.42c-2.2 2.69-7.94 6.7-11.7 8.2-4.33 1.72-7.72 2.84-7.62 2.52zm20.6-19.1c-0.242-0.966-1.74-1.04-2.57-0.122-0.698 0.771-0.343 1.33 1.41 2.24l1.14 0.589 0.104-0.975c0.057-0.536 0.0182-1.32-0.0861-1.73zm46.3 12.9c-1.79-1.26-3.27-2.45-3.28-2.64-0.0302-0.63 2.86-6.53 3.2-6.53 0.41 0 1.38 0.61 4.58 2.86 2.43 1.71 2.5 1.81 2.33 2.85-0.21 1.3-2.73 5.82-3.22 5.77-0.189-0.0177-1.81-1.06-3.61-2.32zm19.9-6.76c2.38-2.8 3.36-4.73 2.78-5.43-0.49-0.591-1.97-0.658-2.51-0.115-0.299 0.299-0.384 0.224-0.384-0.336 0-2 2.11-3.7 3.69-2.98 2.8 1.28-0.343 8.12-4.96 10.8-0.262 0.151 0.364-0.715 1.39-1.92zm-45.7-3.08c0.56-1.81 1.47-4.04 1.84-4.53 0.225-0.294 6.48-2.56 14.3-5.19 7.65-2.57 15.5-5.26 17.5-5.98 1.99-0.723 3.7-1.22 3.81-1.12 0.302 0.302-0.833 3.04-1.61 3.88-0.473 0.513-3.55 1.75-9.96 4.01-5.1 1.8-12.8 4.64-17.1 6.31-9.73 3.77-9.09 3.58-8.8 2.62z" stroke-width=".32"/>
</svg>
