<?xml version="1.0" encoding="UTF-8"?>
<!-- Created with Inkscape (http://www.inkscape.org/) -->
<svg width="142" height="139" version="1.1" viewBox="0 0 142 139" xmlns="http://www.w3.org/2000/svg">
 <g>
  <path d="m49.9 138c0-0.744 1.82-4.65 2.22-4.78 0.275-0.0861 5.58-1.88 11.8-3.98 6.2-2.1 11.3-3.7 11.3-3.55s-0.386 1.06-0.858 2.03l-0.858 1.75-5.14 1.83c-4.14 1.47-15.3 5.65-17.9 6.69-0.308 0.124-0.56 0.136-0.56 0.0259zm40.7-1.63c-1.44-1.01-1.12-4.91 0.651-7.87 0.763-1.27 2.75-3.62 2.91-3.44 0.0576 0.0625-0.539 1.22-1.33 2.56-1.53 2.62-2.05 4.73-1.37 5.55 0.455 0.548 1.42 0.377 2.32-0.412 0.519-0.456 0.56-0.417 0.56 0.534 0 1.5-0.792 2.79-1.96 3.2-0.56 0.195-1.04 0.355-1.06 0.355-0.0226 0-0.348-0.215-0.724-0.478zm-57-6.44c-1.96-0.717-4.67-3.48-5.83-5.95-1.86-3.97-2-7.96-0.489-13.8 1.27-4.89 5.46-14.6 6.28-14.6 0.503 0 0.135 1.37-2.01 7.52-2.39 6.83-3.21 10.2-3.22 13.3-0.0177 5.41 3.05 8.31 7.83 7.42 4.32-0.804 7.07-2.89 12.7-9.66 7.05-8.44 10.9-11.1 24.9-17.3l4.61-2.03 1.52-3.21c0.834-1.77 1.74-3.5 2.02-3.85 0.501-0.635 0.505-0.634 0.516 0.0678 0.0056 0.389-0.344 1.82-0.777 3.19s-0.729 2.54-0.658 2.61c0.275 0.275 9.99-4.75 11.2-5.78 1.21-1.05 1.24-1.13 0.856-2.07-0.223-0.538-1.51-1.88-2.86-2.98-2.26-1.84-4.42-3.3-18-12.2-2.55-1.68-5.5-3.72-6.56-4.54-2.31-1.8-7.05-6.45-8.35-8.19-0.513-0.688-1.44-1.52-2.05-1.84-1.1-0.581-1.12-0.638-1.22-2.82-0.114-2.58 0.38-6.72 1.08-9.09 0.629-2.12 2.03-3.65 5.51-6.03 12-8.18 43.4-22.2 54.9-24.5 6.2-1.25 8.34-0.0089 7.81 4.52-0.451 3.84-3.11 8.39-8.39 14.3-3.8 4.29-5.66 6.78-6.89 9.2-0.512 1.01-1 1.84-1.09 1.84-0.537 0 0.474-3.23 1.95-6.24 1.4-2.85 2.4-4.31 5.23-7.63 7.05-8.26 7.18-9.09 1.46-8.96-5.25 0.114-21.1 6.36-39.2 15.5-11.1 5.58-21 11.7-20.2 12.5 0.173 0.173 2.46 1.32 5.08 2.55 2.62 1.23 5.05 2.51 5.39 2.86 0.949 0.941 0.223 1.43-2.08 1.4-1.05-0.0142-1.91 0.083-1.91 0.216 0 0.346 2.7 2.69 5.01 4.34 1.08 0.774 4.82 3.15 8.32 5.27 9.5 5.78 12.5 7.87 15 10.4 3.84 3.88 5.04 7.22 4.3 12-0.938 6.07-3.7 8.83-13.1 13.1-4.76 2.17-4.89 2.32-5.11 6.37-0.19 3.39 0.247 5.12 1.7 6.73 1.47 1.63 2.58 2.04 5.02 1.88 4.43-0.292 7.29-2.41 16-11.9 10.9-11.8 15.4-15.7 21.5-18.8 7.84-3.93 14.2-3.7 17.3 0.635 0.902 1.27 0.959 1.53 0.945 4.29-0.0122 2.35-0.159 3.25-0.748 4.53l-0.733 1.6-0.532-0.797c-1.18-1.77-2.85-3.34-4.17-3.93-3.1-1.37-8.55-0.418-13.2 2.31-5.27 3.11-7.75 5.38-17.9 16.3-9.31 10-11.7 11.9-15.9 12.4-3.97 0.467-7.77-1.97-9.95-6.39-1.33-2.69-1.75-5.56-1.39-9.38 0.131-1.37 0.188-2.54 0.128-2.6-0.174-0.174-9.32 4.04-12.2 5.64-3.45 1.89-7.31 5.3-12.2 10.8-7.58 8.46-9.44 9.83-13.6 9.96-1.41 0.0465-2.75-0.112-3.62-0.431zm83.5-11c-0.211-0.889-0.863-2.73-1.45-4.08-1.06-2.44-1.07-2.46-2.19-2.38-0.89 0.0679-1.31-0.111-2.03-0.859-1.05-1.1-0.977-2.01 0.278-3.45l0.779-0.895 1.22 0.64c1.65 0.867 3.1 3.15 3.79 5.96l0.571 2.33 0.99-4.01c1.15-4.67 2.14-6.36 3.73-6.36 0.727 0 1.1 0.243 1.58 1.04 0.758 1.24 0.805 2.14 0.157 2.98-0.468 0.606-0.497 0.599-1.15-0.259-1.53-2.02-2.47-0.711-3.68 5.14-0.764 3.69-1.49 5.82-1.98 5.82-0.137 0-0.422-0.728-0.634-1.62zm-80.9-5.14c-1.54-1.7-0.124-6.79 2.75-9.92l1.29-1.41-1.63 3.1c-1.28 2.45-1.61 3.36-1.53 4.32 0.0799 0.969 0.242 1.24 0.801 1.32 0.386 0.0549 1.09-0.157 1.57-0.471l0.871-0.57-0.192 1.43c-0.328 2.44-2.58 3.7-3.94 2.2zm16.1-15.2c-0.108-1.73-0.562-5.13-1.01-7.54-0.448-2.41-0.815-4.77-0.815-5.23 0-1.48 0.977-3.06 2.22-3.57 1.46-0.605 1.55-0.698 0.976-1.06-0.696-0.44-0.848-0.391-1.74 0.569-0.758 0.818-0.813 0.832-0.813 0.208 0-0.954 0.644-2.74 1.23-3.42 0.457-0.528 0.435-0.771-0.253-2.79-1.05-3.09-1.79-4.24-2.57-3.99-0.765 0.243-1.79-0.277-2.26-1.14-0.274-0.511-0.203-0.876 0.339-1.75 0.376-0.609 0.941-1.11 1.25-1.11 1.48 0 3.62 3.03 4.05 5.73 0.222 1.39 0.763 1.8 0.773 0.586 0.0093-1.22 1.15-5.19 1.75-6.11 1.1-1.68 2.24-1.79 3.2-0.321 0.345 0.527 0.451 1.11 0.314 1.73-0.24 1.09-0.791 1.21-1.36 0.299-1.01-1.61-2.01-0.23-2.97 4.1-0.34 1.53-0.706 3.09-0.812 3.48-0.151 0.542 8e-3 0.801 0.717 1.17 1.21 0.633 2.99 2.41 2.99 2.99 0 0.252-0.206 0.856-0.458 1.34-0.358 0.692-0.888 1-2.42 1.43-1.08 0.301-2.29 0.761-2.69 1.02l-0.728 0.477 0.726 2.51c1.4 4.82 1.83 11.3 0.878 13-0.241 0.43-0.371-0.219-0.518-2.58zm-40.1-2.07c-1.76-1.23-3.24-2.35-3.3-2.51-0.117-0.333 2.68-5.97 3.09-6.22 0.158-0.0976 1.75 0.826 3.53 2.05l3.25 2.23 1.19-2.4c0.652-1.32 1.3-2.4 1.45-2.4 0.42 0 5.78 3.69 6.45 4.45 0.612 0.683 0.607 0.704-0.755 3.39-0.754 1.49-1.54 2.85-1.75 3.02-0.27 0.224-1.33-0.339-3.62-1.91l-3.23-2.23-1.24 2.3c-0.68 1.26-1.38 2.33-1.55 2.38-0.171 0.0427-1.75-0.926-3.51-2.15zm94-12.7c-0.382-1.37-1.08-3.32-1.56-4.32-0.846-1.79-0.891-1.82-1.94-1.63-0.908 0.17-1.22 0.0524-2.05-0.781l-0.982-0.982 0.629-1.23c0.999-1.96 1.41-2.17 2.83-1.44 1.47 0.752 3.07 3.27 3.6 5.63 0.205 0.913 0.446 1.88 0.537 2.14 0.091 0.264 0.583-1.22 1.09-3.3 0.992-4.04 1.28-4.77 2.31-5.9 0.918-1.01 1.93-0.906 2.94 0.298 0.672 0.799 0.815 1.23 0.662 1.99-0.306 1.53-0.708 1.7-1.72 0.734-0.495-0.474-1.07-0.862-1.27-0.862-0.677 0-1.38 1.91-2.33 6.31-0.762 3.55-1.55 5.86-1.99 5.84-0.0399-0.0013-0.385-1.13-0.767-2.5zm-77.5 1c-2.41-0.731-4.5-2.71-5.75-5.44-2.06-4.5-2.66-10.1-3.14-29.4l-0.217-8.7-1.96 0.744c-3.27 1.24-9.42 3.99-13.4 6-2.09 1.04-3.84 1.85-3.89 1.8-0.0942-0.0942 0.587-2.12 1.41-4.2 0.291-0.734 1.15-1.28 4.6-2.94 2.33-1.12 6.18-2.83 8.56-3.79 3.48-1.41 4.34-1.89 4.42-2.44 0.173-1.13-0.872-7.24-2.08-12.2-1.01-4.11-1.1-4.82-0.811-6.24 0.49-2.38 1.68-5.33 2.09-5.19 0.499 0.166 1.72 3.3 2.63 6.77 0.725 2.75 1.77 9.33 2.23 14l0.206 2.12 2.46-0.78c5.2-1.65 21.8-5.69 22.1-5.38 0.171 0.171-0.835 2.75-1.34 3.42-0.257 0.345-2.1 0.935-5.18 1.66-5.14 1.2-13.7 3.61-16.3 4.59-1.43 0.534-1.6 0.702-1.6 1.55 0 5.25 0.591 24.2 0.815 26.2 0.54 4.73 2.18 8.12 4.5 9.33 2.67 1.38 7.78 0.728 9.41-1.2 1.19-1.41 0.951-2.77-1.1-6.32-1.89-3.27-2.07-4.72-0.98-7.88 1.12-3.26 1.45-3.15 3.64 1.24 1.21 2.43 1.54 3.47 1.85 5.91 0.453 3.56 0.0108 8.29-1.04 11.1-0.862 2.3-2.78 4.72-4.35 5.49-1.66 0.809-5.48 0.932-7.73 0.249zm-22.6-5.78c-0.112-0.66-0.67-2.35-1.24-3.76l-1.04-2.56h-1.23c-0.951 0-1.4-0.204-2.01-0.908l-0.781-0.908 0.7-1.17c1.03-1.72 1.06-1.74 2.28-1.22 1.74 0.726 3 2.9 3.93 6.77 0.197 0.82 0.356 0.441 1.09-2.61 0.912-3.78 1.45-4.89 2.75-5.75 0.782-0.512 0.843-0.499 1.76 0.375 1.02 0.976 1.23 2.2 0.538 3.14-0.38 0.52-0.461 0.502-1.18-0.259-0.422-0.449-0.942-0.817-1.16-0.817-0.617 0-1.31 1.82-2.07 5.44-1.1 5.25-1.93 6.74-2.35 4.24zm116-6.52c-1.75-1.22-3.29-2.39-3.41-2.59-0.228-0.369 2.32-5.8 2.89-6.15 0.424-0.262 7.07 4.23 7.07 4.78 0 0.542-2.43 5.29-2.97 5.81-0.297 0.283-1.13-0.15-3.58-1.85zm-28.3-3.63c0-0.264 0.384-1.44 0.852-2.61l0.852-2.13 4.03-1.91c11.1-5.26 21.3-8.68 34.9-11.7 3.26-0.73 6.17-1.4 6.48-1.49 0.794-0.237 0.716 0.55-0.243 2.44-0.52 1.03-1.06 1.64-1.52 1.74-14.9 3.19-29.8 8.38-42.9 14.9-1.87 0.936-2.48 1.13-2.48 0.765zm-89.5-2.22c-0.797-0.686-0.866-0.929-0.835-2.96 0.0188-1.22 0.202-2.86 0.408-3.64 0.384-1.47 2.27-5.83 2.44-5.66 0.0532 0.0532-0.26 1.24-0.696 2.64-1.16 3.71-1.33 5.87-0.556 6.83 0.784 0.967 1.72 0.722 2.64-0.695l0.672-1.03-0.201 0.96c-0.349 1.67-1.55 3.79-2.29 4.05-0.532 0.186-0.939 0.0588-1.58-0.497zm80.2-10.1c-5.72-1.69-9.95-3.73-11-5.33-0.941-1.38-1.56-3.37-1.3-4.19 0.152-0.478 0.399-0.359 1.62 0.781 0.795 0.74 2.49 1.85 3.76 2.47 2.15 1.05 10.7 4.21 13.4 4.96 1.11 0.305 1.2 0.279 1.2-0.339 0-1.19-2.54-3.23-5.46-4.39-6.09-2.42-9.26-4.47-9.26-5.99 0-0.833 2.15-2.59 4.64-3.78 5.44-2.62 12-2.68 12.8-0.117 0.168 0.528-0.0495 0.957-0.933 1.84l-1.15 1.15-1.81-2.16-3.66 0.197c-5.07 0.273-7.2 0.941-6.51 2.05 0.5 0.803 4.29 2.78 7.64 3.99 2.23 0.804 3.21 1.36 4.4 2.51 1.32 1.27 1.53 1.65 1.53 2.74-0.0022 2.35-2.4 4.96-4.51 4.92-0.599-0.0103-3.03-0.593-5.41-1.29zm-53.9-4.17c-0.904-0.526-1.49-2.29-1.49-4.48 0-1.43-0.154-2.16-0.55-2.59-0.521-0.576-0.517-0.67 0.08-1.78 0.347-0.645 0.882-1.22 1.19-1.28 0.498-0.0954 0.56 0.197 0.56 2.65 0 3.38 0.517 4.65 1.9 4.65 0.638 0 1.18-0.304 1.75-0.985 0.961-1.14 1-1.62 0.346-4.14-0.481-1.86-0.27-3.51 0.448-3.51 0.364 0 1.31 4 1.31 5.54 0 1.49 1.05 2.78 2.27 2.78 1.34 0 1.47-0.718 0.499-2.7-1.04-2.12-1.33-3.93-0.783-4.95 0.51-0.948 1.01-0.935 1.16 0.0303 0.0619 0.402 0.53 1.65 1.04 2.78 1.03 2.28 1.19 4.23 0.474 5.94-1.11 2.67-3.81 2.54-5.13-0.241-0.129-0.274-0.242-0.246-0.393 0.0961-0.116 0.264-0.678 0.948-1.25 1.52-1.09 1.09-2.32 1.33-3.45 0.678zm94.7-5.62c-0.336-1.68-1.18-4.12-2.03-5.87-0.805-1.65-0.908-1.74-1.93-1.64-0.827 0.0809-1.29-0.0997-2-0.78-0.508-0.487-0.924-1.05-0.924-1.26s0.431-0.967 0.957-1.69c0.888-1.23 1.02-1.3 1.84-0.987 0.486 0.184 1.23 0.649 1.64 1.03 0.999 0.916 2.52 4.13 2.78 5.88 0.216 1.44 0.77 1.91 0.781 0.662 0.01-1.08 1.42-6.34 1.99-7.44 0.843-1.62 1.73-2.24 2.72-1.9 1.12 0.395 2.01 1.95 1.78 3.12-0.244 1.24-0.83 1.37-1.8 0.394-0.451-0.451-0.979-0.821-1.17-0.821-0.59 0-1.53 2.56-2.35 6.42-0.845 3.95-1.26 5.25-1.77 5.57-0.186 0.115-0.408-0.187-0.509-0.689zm-119-9.88c-1.7-1.7-0.369-6.76 2.65-10.1l1.32-1.44-1.82 3.58c-1.62 3.2-1.78 3.66-1.44 4.4 0.427 0.937 1.66 1.12 2.31 0.343 0.723-0.871 1.05-0.536 0.862 0.88-0.302 2.25-2.58 3.6-3.88 2.3zm50.5-3.39c-0.211-0.889-0.741-2.4-1.18-3.35-0.715-1.56-0.873-1.71-1.59-1.53-0.6 0.151-1-0.0064-1.63-0.634l-0.834-0.834 0.719-1.28c0.576-1.03 0.849-1.24 1.38-1.08 1.59 0.481 3.19 2.81 3.57 5.23 0.116 0.726 0.288 1.24 0.381 1.15 0.0934-0.0934 0.494-1.45 0.891-3.02 0.783-3.1 1.44-4.37 2.42-4.68 1.12-0.356 2.4 1.26 2.06 2.6-0.239 0.952-0.62 0.972-1.51 0.0788l-0.691-0.691-0.536 0.662c-0.295 0.364-0.788 1.86-1.1 3.33-1.2 5.7-1.73 6.63-2.35 4.05zm41.4-20.6c-0.107-0.278-0.194-0.72-0.194-0.982 0-0.262-0.45-1.56-1-2.88-0.904-2.17-1.07-2.38-1.74-2.22-0.509 0.128-1.02-0.0502-1.62-0.569-0.82-0.705-0.85-0.82-0.465-1.75 0.637-1.54 1.1-1.78 2.24-1.19 1.25 0.647 1.93 1.7 2.77 4.29l0.671 2.07 0.716-3.1c1.01-4.37 2.69-6.18 4.01-4.3 0.572 0.817 0.661 2.35 0.154 2.66-0.189 0.117-0.666-0.0907-1.06-0.461-0.394-0.37-0.823-0.674-0.953-0.674-0.42 0-1.17 2.2-1.81 5.31-0.558 2.71-1.08 4.29-1.41 4.29-0.063 0-0.202-0.228-0.309-0.506z" stroke-width=".32"/>
  <path d="m29.7 27.1c-0.0822-0.216-0.22-1.16-0.306-2.1-0.0859-0.937-0.327-2.78-0.535-4.09-0.252-1.59-0.301-2.73-0.147-3.41 0.31-1.36 1.56-2.46 2.79-2.46 1.11 0 1.2-0.319 0.215-0.759-0.615-0.276-0.815-0.244-1.46 0.228-0.946 0.688-1.01 0.204-0.144-1.07 0.916-1.34 1.77-1.32 3.28 0.0911 1.1 1.02 1.21 1.24 1.05 1.94-0.174 0.778-0.226 0.802-2.06 0.953-2.3 0.19-3.16 0.673-3.16 1.78 0 0.442 0.246 2.21 0.548 3.93 0.408 2.32 0.486 3.41 0.305 4.23-0.142 0.648-0.305 0.948-0.392 0.718zm45.1-4.94c-0.538-0.407-0.586-0.56-0.323-1.04 0.358-0.657 0.75-0.701 1.47-0.161 1.01 0.751 0.444 0.482 1.07-0.29l0.549-0.678 0.723 0.56c0.683 0.529 0.7 0.594 0.312 1.18-0.399 0.599-0.492 0.691-1.19 0.181-0.97-0.711-0.589-0.471-1.2 0.152-0.608 0.623-0.609 0.715-1.42 0.101zm-10.2-1.34c0.13-0.489 3.99-2.27 4.28-1.98 0.261 0.257-0.274 0.605-2.38 1.55-1.74 0.778-2.01 0.841-1.91 0.434zm-32-0.96c-0.0888-0.0873 0.833-0.65 2.05-1.25 2.57-1.27 4.43-2.63 4.42-3.25-0.0103-1.74-3.68-6.02-4.84-5.66-0.76 0.237-2.09-0.391-2.37-1.12-0.274-0.709-0.333-2.69-0.08-2.69 0.474 0 3.91 2.52 5 3.66 1.37 1.45 2.55 3.65 2.56 4.79 0.0014 0.396 0.113 0.72 0.247 0.72 0.529 0 0.724-2.3 0.47-5.53-0.262-3.33-0.0897-5.38 0.361-4.29 0.119 0.288 0.472 2.37 0.785 4.63 0.662 4.78 0.88 5.67 1.62 6.6 0.445 0.557 0.771 0.685 1.74 0.685 1.5 0 2.54-0.521 3.26-1.63 0.443-0.681 0.296-0.57 0.653-0.465 0.192 0.256-0.274 0.947-0.483 1.31-0.582 1-0.489 1.13 0.694 0.943 1.57-0.248 2.59-0.845 3.22-1.89 0.233-0.388 0.188-0.694 0.339-0.705 0.566-0.0403 0.392 0.132 0.0471 0.944-0.388 0.913-0.384 0.926 0.368 1.23 0.981 0.4 1.25 0.215 2.01-1.41 0.0566-1.06 0.881-1.57 0.638-0.354 0.0022 0.819 0.12 1.03 0.686 1.24 1.01 0.377 1.97 0.311 2.15-0.149 0.177-0.453-1.37-9.54-1.82-10.7-0.29-0.736 0.0388-2.03 0.512-2.01 0.451 0.0148 1.12 1.99 0.979 2.88-0.0796 0.501 0.167 2.68 0.547 4.84 0.695 3.94 0.691 4.99-0.0214 6.1-0.491 0.763-1.9 0.79-2.85 0.0542l-0.691-0.535-0.609 0.925c-0.7 1.06-0.515 1.63-2.58 0.435-0.669-0.387-0.674-0.466-1.46-0.0231-1.04 0.586-6.14 0.885-7.03 0.413-0.917-0.483-1.44-1.42-1.92-3.41l-0.441-1.85-0.197 1.03c-0.275 1.44-1.05 2.83-2.02 3.64-0.997 0.825-5.53 2.23-5.93 1.83zm38.2-1.34c-0.577-0.284-1.13-0.857-1.46-1.51-0.293-0.576-0.556-1.09-0.585-1.14-0.0289-0.0525-0.375 0.154-0.768 0.458-0.846 0.655-3.84 0.822-3.84 0.215 0-0.808 1.78-3.21 2.8-3.78 0.586-0.328 1.03-0.739 0.979-0.915-0.13-0.484 0.214-2.04 0.451-2.04 0.114 0 0.354 0.937 0.532 2.08 0.438 2.82 1.02 4.41 1.82 4.92 1.03 0.662 2.75 0.537 4.21-0.305l1.26-0.729 1.19 0.585c0.968 0.476 1.31 0.531 1.83 0.298 0.818-0.367 0.817-0.709-0.0293-6.19-0.509-3.3-0.6-4.47-0.378-4.88 0.161-0.295 0.332-0.497 0.381-0.449 0.0491 0.0484 0.414 2.21 0.81 4.8 0.785 5.14 1.11 6.22 1.99 6.68 0.536 0.282 0.564 0.259 0.368-0.306-0.325-0.935-0.159-2.23 0.432-3.37 0.924-1.78 2.96-2.34 4.69-1.28 1.34 0.814 1.16 1.37-0.244 0.743-1.28-0.572-4.18 0.749-4.18 1.9 0 0.292 0.422 0.946 0.937 1.45 0.808 0.795 1.06 0.899 1.8 0.755 0.473-0.0919 1.44-0.523 2.16-0.959 0.714-0.435 1.34-0.747 1.4-0.692 0.331 0.325-1.32 1.98-2.65 2.65-2.66 1.34-5.69 1.14-6.18-0.392-0.168-0.521-0.226-0.498-0.97 0.39-0.923 1.1-1.14 1.13-2.71 0.382l-1.18-0.562-0.761 0.532c-0.62 0.434-2.45 1.11-3.02 1.11-0.0732 5.23e-4 -0.552-0.205-1.06-0.457zm-2.44-3.95c0.189-1.31-0.114-1.45-1.53-0.685-1.95 1.04-1.97 1.47-0.0804 1.37 1.37-0.0703 1.54-0.142 1.62-0.687zm-6.43 0.813c-0.0916-1.27-0.408-3.49-0.704-4.92-0.562-2.73-0.706-5.1-0.311-5.1 0.525 0 2.02 8.61 1.83 10.5-0.22 2.25-0.636 1.98-0.817-0.518zm-12.6-3.91c-0.395-0.164-0.449-1.83-0.0666-2.06 0.146-0.089 0.542-0.279 0.266 0.362-0.114 0.265 0.155 0.943 0.288 1.02 0.459 0.279 1.26-0.319 1.13-1.14-0.0523-0.332-0.266-0.675 0.174-0.773 0.173-0.0386 0.266 0.128 0.266 0.508 0 0.682 0.514 1.01 1.16 0.609 0.226-0.141 0.272-0.638 0.0998-0.96-0.355-0.665-0.0763-1.18 0.252-0.666 0.338 0.525 0.396 1.52 0.0074 2.04-0.187 0.252-1.58 0.389-1.58 0.389-0.282-0.131-0.595 0.534-1.14 0.662-0.208 0.0485-0.544 0.18-0.865-0.0042zm24.4-0.462c0-0.0579 0.384-0.344 0.853-0.636l0.853-0.531-0.738-0.331c-0.558-0.25-0.928-0.26-1.52-0.0413-0.886 0.329-1.01 0.0982-0.293-0.541 0.574-0.512 1.66-0.556 2.89-0.119 1.18 0.421 1.11 0.841-0.271 1.64-1.05 0.605-1.77 0.834-1.77 0.561zm-47.8-0.5c0.272-0.172 1.04-0.716 1.71-1.21 0.768-0.567 1.37-0.769 1.35-0.877 0 0-0.507-0.264-0.713-0.399-1.06-0.692-0.408-2.67 0.879-2.67 0.482 0 0.67 0.183 0.803 0.78 0.0958 0.429 0.1 1.01 0.0103 1.29-0.055 0.171-0.108 0.436-0.113 0.504-0.0048 0.0661 0.163 0.144 0.226 0.172 1.49 0.666 1.55 1.18 0.926 1.21-0.261 0.0153-1.46-0.65-1.53-0.658-0.0741-0.00844-0.955 0.718-1.74 1.25-0.783 0.527-1.62 0.951-1.86 0.943-0.38-0.0133-0.372-0.0576 0.0553-0.327zm3.47-4.34c-0.15-0.148-0.671-0.0205-0.792 0.0397-0.327 0.162-0.506 0.665 0.0991 1.12 0.352 0.263 0.715 0.374 0.715 0.374s0.0688-0.217 0.0997-0.423c0.0343-0.228 0.0283-0.96-0.122-1.11zm16.7 1.6c0.0112-0.531 0.703-0.961 4.09-2.54 2.02-0.943 3.71-1.71 3.76-1.71 0.0468 0 0.0272 0.217-0.0434 0.483-0.119 0.446-1.17 0.996-6.41 3.34-0.769 0.344-1.4 0.538-1.39 0.432zm36.3-0.24c0.0906-0.463 5.18-3.67 5.44-3.42 0.298 0.293-0.263 0.907-1.43 1.56-0.694 0.391-1.9 1.08-2.68 1.52-1.21 0.69-1.41 0.74-1.33 0.336zm-45-2.95c0.376-0.557 5.79-3.04 6.06-2.78 0.461 0.453-0.983 1.21-6.19 3.26-0.15 0.059-0.094-0.158 0.125-0.482zm38.8 0.0241c0.0732-0.276 1.4-1.2 3.1-2.16 3.62-2.05 3.37-1.94 3.21-1.35-0.104 0.391-5.8 3.99-6.31 3.99-0.0662 0-0.0626-0.217 0.0074-0.482zm-16.9-0.566c5.31e-4 -0.673 0.412-1.51 1.2-1.21 0.809 0.311 0.521 0.342 1.38-0.898 0.933-1.35 2.01-1.35 2.14-0.239 0.177 1.5-2.02 2.81-3.55 2.12-0.521-0.234-0.686-0.204-0.903 0.164-0.211 0.356-0.266 0.368-0.266 0.0563zm3.83-1.4c0.343-0.247 0.397-0.5 0.182-0.631-0.422-0.257-1.29 0.134-1.47 0.601-0.192 0.492 0.619 0.511 1.29 0.03z" stroke-width=".264"/>
 </g>
</svg>
